$MeshFormat
2.2 0 8
$EndMeshFormat
$Nodes
143
34 0.0 3.0 0.0
35 1.0 3.0 0.0
45 0.0 4.0 0.0
46 1.0 4.0 0.0
47 2.0 4.0 0.0
48 3.0 4.0 0.0
56 0.0 5.0 0.0
57 1.0 5.0 0.0
58 2.0 5.0 0.0
59 3.0 5.0 0.0
60 4.0 5.0 0.0
67 0.0 6.0 0.0
68 1.0 6.0 0.0
69 2.0 6.0 0.0
70 3.0 6.0 0.0
71 4.0 6.0 0.0
78 0.0 7.0 0.0
79 1.0 7.0 0.0
80 2.0 7.0 0.0
81 3.0 7.0 0.0
82 4.0 7.0 0.0
89 0.0 8.0 0.0
90 1.0 8.0 0.0
91 2.0 8.0 0.0
92 3.0 8.0 0.0
93 4.0 8.0 0.0
100 0.0 9.0 0.0
101 1.0 9.0 0.0
102 2.0 9.0 0.0
103 3.0 9.0 0.0
104 4.0 9.0 0.0
111 0.0 10.0 0.0
2 1.0 10.0 0.0
3 2.0 10.0 0.0
4 3.0 10.0 0.0
5 4.0 10.0 0.0
155 0.0 3.0 1.0
156 1.0 3.0 1.0
166 0.0 4.0 1.0
167 1.0 4.0 1.0
168 2.0 4.0 1.0
169 3.0 4.0 1.0
177 0.0 5.0 1.0
178 1.0 5.0 1.0
179 2.0 5.0 1.0
180 3.0 5.0 1.0
181 4.0 5.0 1.0
188 0.0 6.0 1.0
189 1.0 6.0 1.0
190 2.0 6.0 1.0
191 3.0 6.0 1.0
192 4.0 6.0 1.0
199 0.0 7.0 1.0
200 1.0 7.0 1.0
201 2.0 7.0 1.0
202 3.0 7.0 1.0
203 4.0 7.0 1.0
210 0.0 8.0 1.0
211 1.0 8.0 1.0
212 2.0 8.0 1.0
213 3.0 8.0 1.0
214 4.0 8.0 1.0
221 0.0 9.0 1.0
222 1.0 9.0 1.0
223 2.0 9.0 1.0
224 3.0 9.0 1.0
225 4.0 9.0 1.0
122 0.0 10.0 1.0
123 1.0 10.0 1.0
124 2.0 10.0 1.0
125 3.0 10.0 1.0
126 4.0 10.0 1.0
287 0.0 4.0 2.0
288 1.0 4.0 2.0
289 2.0 4.0 2.0
290 3.0 4.0 2.0
298 0.0 5.0 2.0
299 1.0 5.0 2.0
300 2.0 5.0 2.0
301 3.0 5.0 2.0
302 4.0 5.0 2.0
309 0.0 6.0 2.0
310 1.0 6.0 2.0
311 2.0 6.0 2.0
312 3.0 6.0 2.0
313 4.0 6.0 2.0
320 0.0 7.0 2.0
321 1.0 7.0 2.0
322 2.0 7.0 2.0
323 3.0 7.0 2.0
324 4.0 7.0 2.0
331 0.0 8.0 2.0
332 1.0 8.0 2.0
333 2.0 8.0 2.0
334 3.0 8.0 2.0
335 4.0 8.0 2.0
342 0.0 9.0 2.0
343 1.0 9.0 2.0
344 2.0 9.0 2.0
345 3.0 9.0 2.0
346 4.0 9.0 2.0
244 1.0 10.0 2.0
245 2.0 10.0 2.0
246 3.0 10.0 2.0
247 4.0 10.0 2.0
419 0.0 5.0 3.0
420 1.0 5.0 3.0
421 2.0 5.0 3.0
422 3.0 5.0 3.0
423 4.0 5.0 3.0
430 0.0 6.0 3.0
431 1.0 6.0 3.0
432 2.0 6.0 3.0
433 3.0 6.0 3.0
434 4.0 6.0 3.0
441 0.0 7.0 3.0
442 1.0 7.0 3.0
443 2.0 7.0 3.0
444 3.0 7.0 3.0
445 4.0 7.0 3.0
452 0.0 8.0 3.0
453 1.0 8.0 3.0
454 2.0 8.0 3.0
455 3.0 8.0 3.0
456 4.0 8.0 3.0
465 2.0 9.0 3.0
466 3.0 9.0 3.0
467 4.0 9.0 3.0
551 0.0 6.0 4.0
552 1.0 6.0 4.0
553 2.0 6.0 4.0
554 3.0 6.0 4.0
555 4.0 6.0 4.0
562 0.0 7.0 4.0
563 1.0 7.0 4.0
564 2.0 7.0 4.0
565 3.0 7.0 4.0
566 4.0 7.0 4.0
573 0.0 8.0 4.0
574 1.0 8.0 4.0
575 2.0 8.0 4.0
576 3.0 8.0 4.0
577 4.0 8.0 4.0
$EndNodes
$Elements
408
181 4 3 12 12 0 156 35 155 167
182 4 3 12 12 0 35 155 167 166
183 4 3 12 12 0 35 166 167 46
184 4 3 12 12 0 35 34 155 166
185 4 3 12 12 0 35 34 166 46
186 4 3 12 12 0 34 166 46 45
241 4 3 12 12 0 167 46 166 178
242 4 3 12 12 0 46 166 178 177
243 4 3 12 12 0 46 177 178 57
244 4 3 12 12 0 46 45 166 177
245 4 3 12 12 0 46 45 177 57
246 4 3 12 12 0 45 177 57 56
247 4 3 12 12 0 168 47 167 179
248 4 3 12 12 0 47 167 179 178
249 4 3 12 12 0 47 178 179 58
250 4 3 12 12 0 47 46 167 178
251 4 3 12 12 0 47 46 178 58
252 4 3 12 12 0 46 178 58 57
253 4 3 12 12 0 169 48 168 180
254 4 3 12 12 0 48 168 180 179
255 4 3 12 12 0 48 179 180 59
256 4 3 12 12 0 48 47 168 179
257 4 3 12 12 0 48 47 179 59
258 4 3 12 12 0 47 179 59 58
301 4 3 12 12 0 178 57 177 189
302 4 3 12 12 0 57 177 189 188
303 4 3 12 12 0 57 188 189 68
304 4 3 12 12 0 57 56 177 188
305 4 3 12 12 0 57 56 188 68
306 4 3 12 12 0 56 188 68 67
307 4 3 12 12 0 179 58 178 190
308 4 3 12 12 0 58 178 190 189
309 4 3 12 12 0 58 189 190 69
310 4 3 12 12 0 58 57 178 189
311 4 3 12 12 0 58 57 189 69
312 4 3 12 12 0 57 189 69 68
313 4 3 12 12 0 180 59 179 191
314 4 3 12 12 0 59 179 191 190
315 4 3 12 12 0 59 190 191 70
316 4 3 12 12 0 59 58 179 190
317 4 3 12 12 0 59 58 190 70
318 4 3 12 12 0 58 190 70 69
319 4 3 12 12 0 181 60 180 192
320 4 3 12 12 0 60 180 192 191
321 4 3 12 12 0 60 191 192 71
322 4 3 12 12 0 60 59 180 191
323 4 3 12 12 0 60 59 191 71
324 4 3 12 12 0 59 191 71 70
361 4 3 12 12 0 189 68 188 200
362 4 3 12 12 0 68 188 200 199
363 4 3 12 12 0 68 199 200 79
364 4 3 12 12 0 68 67 188 199
365 4 3 12 12 0 68 67 199 79
366 4 3 12 12 0 67 199 79 78
367 4 3 12 12 0 190 69 189 201
368 4 3 12 12 0 69 189 201 200
369 4 3 12 12 0 69 200 201 80
370 4 3 12 12 0 69 68 189 200
371 4 3 12 12 0 69 68 200 80
372 4 3 12 12 0 68 200 80 79
373 4 3 12 12 0 191 70 190 202
374 4 3 12 12 0 70 190 202 201
375 4 3 12 12 0 70 201 202 81
376 4 3 12 12 0 70 69 190 201
377 4 3 12 12 0 70 69 201 81
378 4 3 12 12 0 69 201 81 80
379 4 3 12 12 0 192 71 191 203
380 4 3 12 12 0 71 191 203 202
381 4 3 12 12 0 71 202 203 82
382 4 3 12 12 0 71 70 191 202
383 4 3 12 12 0 71 70 202 82
384 4 3 12 12 0 70 202 82 81
421 4 3 12 12 0 200 79 199 211
422 4 3 12 12 0 79 199 211 210
423 4 3 12 12 0 79 210 211 90
424 4 3 12 12 0 79 78 199 210
425 4 3 12 12 0 79 78 210 90
426 4 3 12 12 0 78 210 90 89
427 4 3 12 12 0 201 80 200 212
428 4 3 12 12 0 80 200 212 211
429 4 3 12 12 0 80 211 212 91
430 4 3 12 12 0 80 79 200 211
431 4 3 12 12 0 80 79 211 91
432 4 3 12 12 0 79 211 91 90
433 4 3 12 12 0 202 81 201 213
434 4 3 12 12 0 81 201 213 212
435 4 3 12 12 0 81 212 213 92
436 4 3 12 12 0 81 80 201 212
437 4 3 12 12 0 81 80 212 92
438 4 3 12 12 0 80 212 92 91
439 4 3 12 12 0 203 82 202 214
440 4 3 12 12 0 82 202 214 213
441 4 3 12 12 0 82 213 214 93
442 4 3 12 12 0 82 81 202 213
443 4 3 12 12 0 82 81 213 93
444 4 3 12 12 0 81 213 93 92
481 4 3 12 12 0 211 90 210 222
482 4 3 12 12 0 90 210 222 221
483 4 3 12 12 0 90 221 222 101
484 4 3 12 12 0 90 89 210 221
485 4 3 12 12 0 90 89 221 101
486 4 3 12 12 0 89 221 101 100
487 4 3 12 12 0 212 91 211 223
488 4 3 12 12 0 91 211 223 222
489 4 3 12 12 0 91 222 223 102
490 4 3 12 12 0 91 90 211 222
491 4 3 12 12 0 91 90 222 102
492 4 3 12 12 0 90 222 102 101
493 4 3 12 12 0 213 92 212 224
494 4 3 12 12 0 92 212 224 223
495 4 3 12 12 0 92 223 224 103
496 4 3 12 12 0 92 91 212 223
497 4 3 12 12 0 92 91 223 103
498 4 3 12 12 0 91 223 103 102
499 4 3 12 12 0 214 93 213 225
500 4 3 12 12 0 93 213 225 224
501 4 3 12 12 0 93 224 225 104
502 4 3 12 12 0 93 92 213 224
503 4 3 12 12 0 93 92 224 104
504 4 3 12 12 0 92 224 104 103
541 4 3 12 12 0 222 101 221 123
542 4 3 12 12 0 101 221 123 122
543 4 3 12 12 0 101 122 123 2
544 4 3 12 12 0 101 100 221 122
545 4 3 12 12 0 101 100 122 2
546 4 3 12 12 0 100 122 2 111
547 4 3 12 12 0 223 102 222 124
548 4 3 12 12 0 102 222 124 123
549 4 3 12 12 0 102 123 124 3
550 4 3 12 12 0 102 101 222 123
551 4 3 12 12 0 102 101 123 3
552 4 3 12 12 0 101 123 3 2
553 4 3 12 12 0 224 103 223 125
554 4 3 12 12 0 103 223 125 124
555 4 3 12 12 0 103 124 125 4
556 4 3 12 12 0 103 102 223 124
557 4 3 12 12 0 103 102 124 4
558 4 3 12 12 0 102 124 4 3
559 4 3 12 12 0 225 104 224 126
560 4 3 12 12 0 104 224 126 125
561 4 3 12 12 0 104 125 126 5
562 4 3 12 12 0 104 103 224 125
563 4 3 12 12 0 104 103 125 5
564 4 3 12 12 0 103 125 5 4
841 4 3 12 12 0 288 167 287 299
842 4 3 12 12 0 167 287 299 298
843 4 3 12 12 0 167 298 299 178
844 4 3 12 12 0 167 166 287 298
845 4 3 12 12 0 167 166 298 178
846 4 3 12 12 0 166 298 178 177
847 4 3 12 12 0 289 168 288 300
848 4 3 12 12 0 168 288 300 299
849 4 3 12 12 0 168 299 300 179
850 4 3 12 12 0 168 167 288 299
851 4 3 12 12 0 168 167 299 179
852 4 3 12 12 0 167 299 179 178
853 4 3 12 12 0 290 169 289 301
854 4 3 12 12 0 169 289 301 300
855 4 3 12 12 0 169 300 301 180
856 4 3 12 12 0 169 168 289 300
857 4 3 12 12 0 169 168 300 180
858 4 3 12 12 0 168 300 180 179
901 4 3 12 12 0 299 178 298 310
902 4 3 12 12 0 178 298 310 309
903 4 3 12 12 0 178 309 310 189
904 4 3 12 12 0 178 177 298 309
905 4 3 12 12 0 178 177 309 189
906 4 3 12 12 0 177 309 189 188
907 4 3 12 12 0 300 179 299 311
908 4 3 12 12 0 179 299 311 310
909 4 3 12 12 0 179 310 311 190
910 4 3 12 12 0 179 178 299 310
911 4 3 12 12 0 179 178 310 190
912 4 3 12 12 0 178 310 190 189
913 4 3 12 12 0 301 180 300 312
914 4 3 12 12 0 180 300 312 311
915 4 3 12 12 0 180 311 312 191
916 4 3 12 12 0 180 179 300 311
917 4 3 12 12 0 180 179 311 191
918 4 3 12 12 0 179 311 191 190
919 4 3 12 12 0 302 181 301 313
920 4 3 12 12 0 181 301 313 312
921 4 3 12 12 0 181 312 313 192
922 4 3 12 12 0 181 180 301 312
923 4 3 12 12 0 181 180 312 192
924 4 3 12 12 0 180 312 192 191
961 4 3 12 12 0 310 189 309 321
962 4 3 12 12 0 189 309 321 320
963 4 3 12 12 0 189 320 321 200
964 4 3 12 12 0 189 188 309 320
965 4 3 12 12 0 189 188 320 200
966 4 3 12 12 0 188 320 200 199
967 4 3 12 12 0 311 190 310 322
968 4 3 12 12 0 190 310 322 321
969 4 3 12 12 0 190 321 322 201
970 4 3 12 12 0 190 189 310 321
971 4 3 12 12 0 190 189 321 201
972 4 3 12 12 0 189 321 201 200
973 4 3 12 12 0 312 191 311 323
974 4 3 12 12 0 191 311 323 322
975 4 3 12 12 0 191 322 323 202
976 4 3 12 12 0 191 190 311 322
977 4 3 12 12 0 191 190 322 202
978 4 3 12 12 0 190 322 202 201
979 4 3 12 12 0 313 192 312 324
980 4 3 12 12 0 192 312 324 323
981 4 3 12 12 0 192 323 324 203
982 4 3 12 12 0 192 191 312 323
983 4 3 12 12 0 192 191 323 203
984 4 3 12 12 0 191 323 203 202
1021 4 3 12 12 0 321 200 320 332
1022 4 3 12 12 0 200 320 332 331
1023 4 3 12 12 0 200 331 332 211
1024 4 3 12 12 0 200 199 320 331
1025 4 3 12 12 0 200 199 331 211
1026 4 3 12 12 0 199 331 211 210
1027 4 3 12 12 0 322 201 321 333
1028 4 3 12 12 0 201 321 333 332
1029 4 3 12 12 0 201 332 333 212
1030 4 3 12 12 0 201 200 321 332
1031 4 3 12 12 0 201 200 332 212
1032 4 3 12 12 0 200 332 212 211
1033 4 3 12 12 0 323 202 322 334
1034 4 3 12 12 0 202 322 334 333
1035 4 3 12 12 0 202 333 334 213
1036 4 3 12 12 0 202 201 322 333
1037 4 3 12 12 0 202 201 333 213
1038 4 3 12 12 0 201 333 213 212
1039 4 3 12 12 0 324 203 323 335
1040 4 3 12 12 0 203 323 335 334
1041 4 3 12 12 0 203 334 335 214
1042 4 3 12 12 0 203 202 323 334
1043 4 3 12 12 0 203 202 334 214
1044 4 3 12 12 0 202 334 214 213
1081 4 3 12 12 0 332 211 331 343
1082 4 3 12 12 0 211 331 343 342
1083 4 3 12 12 0 211 342 343 222
1084 4 3 12 12 0 211 210 331 342
1085 4 3 12 12 0 211 210 342 222
1086 4 3 12 12 0 210 342 222 221
1087 4 3 12 12 0 333 212 332 344
1088 4 3 12 12 0 212 332 344 343
1089 4 3 12 12 0 212 343 344 223
1090 4 3 12 12 0 212 211 332 343
1091 4 3 12 12 0 212 211 343 223
1092 4 3 12 12 0 211 343 223 222
1093 4 3 12 12 0 334 213 333 345
1094 4 3 12 12 0 213 333 345 344
1095 4 3 12 12 0 213 344 345 224
1096 4 3 12 12 0 213 212 333 344
1097 4 3 12 12 0 213 212 344 224
1098 4 3 12 12 0 212 344 224 223
1099 4 3 12 12 0 335 214 334 346
1100 4 3 12 12 0 214 334 346 345
1101 4 3 12 12 0 214 345 346 225
1102 4 3 12 12 0 214 213 334 345
1103 4 3 12 12 0 214 213 345 225
1104 4 3 12 12 0 213 345 225 224
1147 4 3 12 12 0 344 223 343 245
1148 4 3 12 12 0 223 343 245 244
1149 4 3 12 12 0 223 244 245 124
1150 4 3 12 12 0 223 222 343 244
1151 4 3 12 12 0 223 222 244 124
1152 4 3 12 12 0 222 244 124 123
1153 4 3 12 12 0 345 224 344 246
1154 4 3 12 12 0 224 344 246 245
1155 4 3 12 12 0 224 245 246 125
1156 4 3 12 12 0 224 223 344 245
1157 4 3 12 12 0 224 223 245 125
1158 4 3 12 12 0 223 245 125 124
1159 4 3 12 12 0 346 225 345 247
1160 4 3 12 12 0 225 345 247 246
1161 4 3 12 12 0 225 246 247 126
1162 4 3 12 12 0 225 224 345 246
1163 4 3 12 12 0 225 224 246 126
1164 4 3 12 12 0 224 246 126 125
1501 4 3 12 12 0 420 299 419 431
1502 4 3 12 12 0 299 419 431 430
1503 4 3 12 12 0 299 430 431 310
1504 4 3 12 12 0 299 298 419 430
1505 4 3 12 12 0 299 298 430 310
1506 4 3 12 12 0 298 430 310 309
1507 4 3 12 12 0 421 300 420 432
1508 4 3 12 12 0 300 420 432 431
1509 4 3 12 12 0 300 431 432 311
1510 4 3 12 12 0 300 299 420 431
1511 4 3 12 12 0 300 299 431 311
1512 4 3 12 12 0 299 431 311 310
1513 4 3 12 12 0 422 301 421 433
1514 4 3 12 12 0 301 421 433 432
1515 4 3 12 12 0 301 432 433 312
1516 4 3 12 12 0 301 300 421 432
1517 4 3 12 12 0 301 300 432 312
1518 4 3 12 12 0 300 432 312 311
1519 4 3 12 12 0 423 302 422 434
1520 4 3 12 12 0 302 422 434 433
1521 4 3 12 12 0 302 433 434 313
1522 4 3 12 12 0 302 301 422 433
1523 4 3 12 12 0 302 301 433 313
1524 4 3 12 12 0 301 433 313 312
1561 4 3 12 12 0 431 310 430 442
1562 4 3 12 12 0 310 430 442 441
1563 4 3 12 12 0 310 441 442 321
1564 4 3 12 12 0 310 309 430 441
1565 4 3 12 12 0 310 309 441 321
1566 4 3 12 12 0 309 441 321 320
1567 4 3 12 12 0 432 311 431 443
1568 4 3 12 12 0 311 431 443 442
1569 4 3 12 12 0 311 442 443 322
1570 4 3 12 12 0 311 310 431 442
1571 4 3 12 12 0 311 310 442 322
1572 4 3 12 12 0 310 442 322 321
1573 4 3 12 12 0 433 312 432 444
1574 4 3 12 12 0 312 432 444 443
1575 4 3 12 12 0 312 443 444 323
1576 4 3 12 12 0 312 311 432 443
1577 4 3 12 12 0 312 311 443 323
1578 4 3 12 12 0 311 443 323 322
1579 4 3 12 12 0 434 313 433 445
1580 4 3 12 12 0 313 433 445 444
1581 4 3 12 12 0 313 444 445 324
1582 4 3 12 12 0 313 312 433 444
1583 4 3 12 12 0 313 312 444 324
1584 4 3 12 12 0 312 444 324 323
1621 4 3 12 12 0 442 321 441 453
1622 4 3 12 12 0 321 441 453 452
1623 4 3 12 12 0 321 452 453 332
1624 4 3 12 12 0 321 320 441 452
1625 4 3 12 12 0 321 320 452 332
1626 4 3 12 12 0 320 452 332 331
1627 4 3 12 12 0 443 322 442 454
1628 4 3 12 12 0 322 442 454 453
1629 4 3 12 12 0 322 453 454 333
1630 4 3 12 12 0 322 321 442 453
1631 4 3 12 12 0 322 321 453 333
1632 4 3 12 12 0 321 453 333 332
1633 4 3 12 12 0 444 323 443 455
1634 4 3 12 12 0 323 443 455 454
1635 4 3 12 12 0 323 454 455 334
1636 4 3 12 12 0 323 322 443 454
1637 4 3 12 12 0 323 322 454 334
1638 4 3 12 12 0 322 454 334 333
1639 4 3 12 12 0 445 324 444 456
1640 4 3 12 12 0 324 444 456 455
1641 4 3 12 12 0 324 455 456 335
1642 4 3 12 12 0 324 323 444 455
1643 4 3 12 12 0 324 323 455 335
1644 4 3 12 12 0 323 455 335 334
1693 4 3 12 12 0 455 334 454 466
1694 4 3 12 12 0 334 454 466 465
1695 4 3 12 12 0 334 465 466 345
1696 4 3 12 12 0 334 333 454 465
1697 4 3 12 12 0 334 333 465 345
1698 4 3 12 12 0 333 465 345 344
1699 4 3 12 12 0 456 335 455 467
1700 4 3 12 12 0 335 455 467 466
1701 4 3 12 12 0 335 466 467 346
1702 4 3 12 12 0 335 334 455 466
1703 4 3 12 12 0 335 334 466 346
1704 4 3 12 12 0 334 466 346 345
2161 4 3 12 12 0 552 431 551 563
2162 4 3 12 12 0 431 551 563 562
2163 4 3 12 12 0 431 562 563 442
2164 4 3 12 12 0 431 430 551 562
2165 4 3 12 12 0 431 430 562 442
2166 4 3 12 12 0 430 562 442 441
2167 4 3 12 12 0 553 432 552 564
2168 4 3 12 12 0 432 552 564 563
2169 4 3 12 12 0 432 563 564 443
2170 4 3 12 12 0 432 431 552 563
2171 4 3 12 12 0 432 431 563 443
2172 4 3 12 12 0 431 563 443 442
2173 4 3 12 12 0 554 433 553 565
2174 4 3 12 12 0 433 553 565 564
2175 4 3 12 12 0 433 564 565 444
2176 4 3 12 12 0 433 432 553 564
2177 4 3 12 12 0 433 432 564 444
2178 4 3 12 12 0 432 564 444 443
2179 4 3 12 12 0 555 434 554 566
2180 4 3 12 12 0 434 554 566 565
2181 4 3 12 12 0 434 565 566 445
2182 4 3 12 12 0 434 433 554 565
2183 4 3 12 12 0 434 433 565 445
2184 4 3 12 12 0 433 565 445 444
2221 4 3 12 12 0 563 442 562 574
2222 4 3 12 12 0 442 562 574 573
2223 4 3 12 12 0 442 573 574 453
2224 4 3 12 12 0 442 441 562 573
2225 4 3 12 12 0 442 441 573 453
2226 4 3 12 12 0 441 573 453 452
2227 4 3 12 12 0 564 443 563 575
2228 4 3 12 12 0 443 563 575 574
2229 4 3 12 12 0 443 574 575 454
2230 4 3 12 12 0 443 442 563 574
2231 4 3 12 12 0 443 442 574 454
2232 4 3 12 12 0 442 574 454 453
2233 4 3 12 12 0 565 444 564 576
2234 4 3 12 12 0 444 564 576 575
2235 4 3 12 12 0 444 575 576 455
2236 4 3 12 12 0 444 443 564 575
2237 4 3 12 12 0 444 443 575 455
2238 4 3 12 12 0 443 575 455 454
2239 4 3 12 12 0 566 445 565 577
2240 4 3 12 12 0 445 565 577 576
2241 4 3 12 12 0 445 576 577 456
2242 4 3 12 12 0 445 444 565 576
2243 4 3 12 12 0 445 444 576 456
2244 4 3 12 12 0 444 576 456 455
$EndElements
