$MeshFormat
2.2 0 8
$EndMeshFormat
$Nodes
191
307 9.0 5.0 2.0
298 10.0 5.0 2.0
317 8.0 6.0 2.0
318 9.0 6.0 2.0
309 10.0 6.0 2.0
328 8.0 7.0 2.0
329 9.0 7.0 2.0
320 10.0 7.0 2.0
339 8.0 8.0 2.0
340 9.0 8.0 2.0
331 10.0 8.0 2.0
350 8.0 9.0 2.0
351 9.0 9.0 2.0
342 10.0 9.0 2.0
252 9.0 10.0 2.0
243 10.0 10.0 2.0
416 8.0 4.0 3.0
417 9.0 4.0 3.0
426 7.0 5.0 3.0
427 8.0 5.0 3.0
428 9.0 5.0 3.0
419 10.0 5.0 3.0
437 7.0 6.0 3.0
438 8.0 6.0 3.0
439 9.0 6.0 3.0
430 10.0 6.0 3.0
448 7.0 7.0 3.0
449 8.0 7.0 3.0
450 9.0 7.0 3.0
441 10.0 7.0 3.0
459 7.0 8.0 3.0
460 8.0 8.0 3.0
461 9.0 8.0 3.0
452 10.0 8.0 3.0
470 7.0 9.0 3.0
471 8.0 9.0 3.0
472 9.0 9.0 3.0
463 10.0 9.0 3.0
372 8.0 10.0 3.0
373 9.0 10.0 3.0
364 10.0 10.0 3.0
537 8.0 4.0 4.0
538 9.0 4.0 4.0
529 10.0 4.0 4.0
547 7.0 5.0 4.0
548 8.0 5.0 4.0
549 9.0 5.0 4.0
540 10.0 5.0 4.0
558 7.0 6.0 4.0
559 8.0 6.0 4.0
560 9.0 6.0 4.0
551 10.0 6.0 4.0
568 6.0 7.0 4.0
569 7.0 7.0 4.0
570 8.0 7.0 4.0
571 9.0 7.0 4.0
562 10.0 7.0 4.0
579 6.0 8.0 4.0
580 7.0 8.0 4.0
581 8.0 8.0 4.0
582 9.0 8.0 4.0
573 10.0 8.0 4.0
590 6.0 9.0 4.0
591 7.0 9.0 4.0
592 8.0 9.0 4.0
593 9.0 9.0 4.0
584 10.0 9.0 4.0
492 7.0 10.0 4.0
493 8.0 10.0 4.0
494 9.0 10.0 4.0
485 10.0 10.0 4.0
659 9.0 4.0 5.0
650 10.0 4.0 5.0
668 7.0 5.0 5.0
669 8.0 5.0 5.0
670 9.0 5.0 5.0
661 10.0 5.0 5.0
678 6.0 6.0 5.0
679 7.0 6.0 5.0
680 8.0 6.0 5.0
681 9.0 6.0 5.0
672 10.0 6.0 5.0
688 5.0 7.0 5.0
689 6.0 7.0 5.0
690 7.0 7.0 5.0
691 8.0 7.0 5.0
692 9.0 7.0 5.0
683 10.0 7.0 5.0
698 4.0 8.0 5.0
699 5.0 8.0 5.0
700 6.0 8.0 5.0
701 7.0 8.0 5.0
702 8.0 8.0 5.0
703 9.0 8.0 5.0
694 10.0 8.0 5.0
709 4.0 9.0 5.0
710 5.0 9.0 5.0
711 6.0 9.0 5.0
712 7.0 9.0 5.0
713 8.0 9.0 5.0
714 9.0 9.0 5.0
705 10.0 9.0 5.0
612 6.0 10.0 5.0
613 7.0 10.0 5.0
614 8.0 10.0 5.0
615 9.0 10.0 5.0
606 10.0 10.0 5.0
780 9.0 4.0 6.0
771 10.0 4.0 6.0
789 7.0 5.0 6.0
790 8.0 5.0 6.0
791 9.0 5.0 6.0
782 10.0 5.0 6.0
799 6.0 6.0 6.0
800 7.0 6.0 6.0
801 8.0 6.0 6.0
802 9.0 6.0 6.0
793 10.0 6.0 6.0
809 5.0 7.0 6.0
810 6.0 7.0 6.0
811 7.0 7.0 6.0
812 8.0 7.0 6.0
813 9.0 7.0 6.0
804 10.0 7.0 6.0
819 4.0 8.0 6.0
820 5.0 8.0 6.0
821 6.0 8.0 6.0
822 7.0 8.0 6.0
823 8.0 8.0 6.0
824 9.0 8.0 6.0
815 10.0 8.0 6.0
830 4.0 9.0 6.0
831 5.0 9.0 6.0
832 6.0 9.0 6.0
833 7.0 9.0 6.0
834 8.0 9.0 6.0
835 9.0 9.0 6.0
826 10.0 9.0 6.0
733 6.0 10.0 6.0
734 7.0 10.0 6.0
735 8.0 10.0 6.0
736 9.0 10.0 6.0
727 10.0 10.0 6.0
912 9.0 5.0 7.0
903 10.0 5.0 7.0
921 7.0 6.0 7.0
922 8.0 6.0 7.0
923 9.0 6.0 7.0
914 10.0 6.0 7.0
932 7.0 7.0 7.0
933 8.0 7.0 7.0
934 9.0 7.0 7.0
925 10.0 7.0 7.0
943 7.0 8.0 7.0
944 8.0 8.0 7.0
945 9.0 8.0 7.0
936 10.0 8.0 7.0
954 7.0 9.0 7.0
955 8.0 9.0 7.0
956 9.0 9.0 7.0
947 10.0 9.0 7.0
855 7.0 10.0 7.0
856 8.0 10.0 7.0
857 9.0 10.0 7.0
848 10.0 10.0 7.0
1044 9.0 6.0 8.0
1035 10.0 6.0 8.0
1054 8.0 7.0 8.0
1055 9.0 7.0 8.0
1046 10.0 7.0 8.0
1065 8.0 8.0 8.0
1066 9.0 8.0 8.0
1057 10.0 8.0 8.0
1076 8.0 9.0 8.0
1077 9.0 9.0 8.0
1068 10.0 9.0 8.0
977 8.0 10.0 8.0
978 9.0 10.0 8.0
969 10.0 10.0 8.0
1176 9.0 7.0 9.0
1167 10.0 7.0 9.0
1187 9.0 8.0 9.0
1178 10.0 8.0 9.0
1198 9.0 9.0 9.0
1189 10.0 9.0 9.0
1099 9.0 10.0 9.0
1090 10.0 10.0 9.0
87 9.0 7.0 10.0
78 10.0 7.0 10.0
98 9.0 8.0 10.0
89 10.0 8.0 10.0
$EndNodes
$Elements
528
1555 4 3 7 7 0 419 298 428 430
1556 4 3 7 7 0 298 428 430 439
1557 4 3 7 7 0 298 439 430 309
1558 4 3 7 7 0 298 307 428 439
1559 4 3 7 7 0 298 307 439 309
1560 4 3 7 7 0 307 439 309 318
1609 4 3 7 7 0 439 318 438 450
1610 4 3 7 7 0 318 438 450 449
1611 4 3 7 7 0 318 449 450 329
1612 4 3 7 7 0 318 317 438 449
1613 4 3 7 7 0 318 317 449 329
1614 4 3 7 7 0 317 449 329 328
1615 4 3 7 7 0 430 309 439 441
1616 4 3 7 7 0 309 439 441 450
1617 4 3 7 7 0 309 450 441 320
1618 4 3 7 7 0 309 318 439 450
1619 4 3 7 7 0 309 318 450 320
1620 4 3 7 7 0 318 450 320 329
1669 4 3 7 7 0 450 329 449 461
1670 4 3 7 7 0 329 449 461 460
1671 4 3 7 7 0 329 460 461 340
1672 4 3 7 7 0 329 328 449 460
1673 4 3 7 7 0 329 328 460 340
1674 4 3 7 7 0 328 460 340 339
1675 4 3 7 7 0 441 320 450 452
1676 4 3 7 7 0 320 450 452 461
1677 4 3 7 7 0 320 461 452 331
1678 4 3 7 7 0 320 329 450 461
1679 4 3 7 7 0 320 329 461 331
1680 4 3 7 7 0 329 461 331 340
1729 4 3 7 7 0 461 340 460 472
1730 4 3 7 7 0 340 460 472 471
1731 4 3 7 7 0 340 471 472 351
1732 4 3 7 7 0 340 339 460 471
1733 4 3 7 7 0 340 339 471 351
1734 4 3 7 7 0 339 471 351 350
1735 4 3 7 7 0 452 331 461 463
1736 4 3 7 7 0 331 461 463 472
1737 4 3 7 7 0 331 472 463 342
1738 4 3 7 7 0 331 340 461 472
1739 4 3 7 7 0 331 340 472 342
1740 4 3 7 7 0 340 472 342 351
1795 4 3 7 7 0 463 342 472 364
1796 4 3 7 7 0 342 472 364 373
1797 4 3 7 7 0 342 373 364 243
1798 4 3 7 7 0 342 351 472 373
1799 4 3 7 7 0 342 351 373 243
1800 4 3 7 7 0 351 373 243 252
2089 4 3 7 7 0 538 417 537 549
2090 4 3 7 7 0 417 537 549 548
2091 4 3 7 7 0 417 548 549 428
2092 4 3 7 7 0 417 416 537 548
2093 4 3 7 7 0 417 416 548 428
2094 4 3 7 7 0 416 548 428 427
2143 4 3 7 7 0 548 427 547 559
2144 4 3 7 7 0 427 547 559 558
2145 4 3 7 7 0 427 558 559 438
2146 4 3 7 7 0 427 426 547 558
2147 4 3 7 7 0 427 426 558 438
2148 4 3 7 7 0 426 558 438 437
2149 4 3 7 7 0 549 428 548 560
2150 4 3 7 7 0 428 548 560 559
2151 4 3 7 7 0 428 559 560 439
2152 4 3 7 7 0 428 427 548 559
2153 4 3 7 7 0 428 427 559 439
2154 4 3 7 7 0 427 559 439 438
2155 4 3 7 7 0 540 419 549 551
2156 4 3 7 7 0 419 549 551 560
2157 4 3 7 7 0 419 560 551 430
2158 4 3 7 7 0 419 428 549 560
2159 4 3 7 7 0 419 428 560 430
2160 4 3 7 7 0 428 560 430 439
2203 4 3 7 7 0 559 438 558 570
2204 4 3 7 7 0 438 558 570 569
2205 4 3 7 7 0 438 569 570 449
2206 4 3 7 7 0 438 437 558 569
2207 4 3 7 7 0 438 437 569 449
2208 4 3 7 7 0 437 569 449 448
2209 4 3 7 7 0 560 439 559 571
2210 4 3 7 7 0 439 559 571 570
2211 4 3 7 7 0 439 570 571 450
2212 4 3 7 7 0 439 438 559 570
2213 4 3 7 7 0 439 438 570 450
2214 4 3 7 7 0 438 570 450 449
2215 4 3 7 7 0 551 430 560 562
2216 4 3 7 7 0 430 560 562 571
2217 4 3 7 7 0 430 571 562 441
2218 4 3 7 7 0 430 439 560 571
2219 4 3 7 7 0 430 439 571 441
2220 4 3 7 7 0 439 571 441 450
2263 4 3 7 7 0 570 449 569 581
2264 4 3 7 7 0 449 569 581 580
2265 4 3 7 7 0 449 580 581 460
2266 4 3 7 7 0 449 448 569 580
2267 4 3 7 7 0 449 448 580 460
2268 4 3 7 7 0 448 580 460 459
2269 4 3 7 7 0 571 450 570 582
2270 4 3 7 7 0 450 570 582 581
2271 4 3 7 7 0 450 581 582 461
2272 4 3 7 7 0 450 449 570 581
2273 4 3 7 7 0 450 449 581 461
2274 4 3 7 7 0 449 581 461 460
2275 4 3 7 7 0 562 441 571 573
2276 4 3 7 7 0 441 571 573 582
2277 4 3 7 7 0 441 582 573 452
2278 4 3 7 7 0 441 450 571 582
2279 4 3 7 7 0 441 450 582 452
2280 4 3 7 7 0 450 582 452 461
2323 4 3 7 7 0 581 460 580 592
2324 4 3 7 7 0 460 580 592 591
2325 4 3 7 7 0 460 591 592 471
2326 4 3 7 7 0 460 459 580 591
2327 4 3 7 7 0 460 459 591 471
2328 4 3 7 7 0 459 591 471 470
2329 4 3 7 7 0 582 461 581 593
2330 4 3 7 7 0 461 581 593 592
2331 4 3 7 7 0 461 592 593 472
2332 4 3 7 7 0 461 460 581 592
2333 4 3 7 7 0 461 460 592 472
2334 4 3 7 7 0 460 592 472 471
2335 4 3 7 7 0 573 452 582 584
2336 4 3 7 7 0 452 582 584 593
2337 4 3 7 7 0 452 593 584 463
2338 4 3 7 7 0 452 461 582 593
2339 4 3 7 7 0 452 461 593 463
2340 4 3 7 7 0 461 593 463 472
2389 4 3 7 7 0 593 472 592 494
2390 4 3 7 7 0 472 592 494 493
2391 4 3 7 7 0 472 493 494 373
2392 4 3 7 7 0 472 471 592 493
2393 4 3 7 7 0 472 471 493 373
2394 4 3 7 7 0 471 493 373 372
2395 4 3 7 7 0 584 463 593 485
2396 4 3 7 7 0 463 593 485 494
2397 4 3 7 7 0 463 494 485 364
2398 4 3 7 7 0 463 472 593 494
2399 4 3 7 7 0 463 472 494 364
2400 4 3 7 7 0 472 494 364 373
2695 4 3 7 7 0 650 529 659 661
2696 4 3 7 7 0 529 659 661 670
2697 4 3 7 7 0 529 670 661 540
2698 4 3 7 7 0 529 538 659 670
2699 4 3 7 7 0 529 538 670 540
2700 4 3 7 7 0 538 670 540 549
2743 4 3 7 7 0 669 548 668 680
2744 4 3 7 7 0 548 668 680 679
2745 4 3 7 7 0 548 679 680 559
2746 4 3 7 7 0 548 547 668 679
2747 4 3 7 7 0 548 547 679 559
2748 4 3 7 7 0 547 679 559 558
2749 4 3 7 7 0 670 549 669 681
2750 4 3 7 7 0 549 669 681 680
2751 4 3 7 7 0 549 680 681 560
2752 4 3 7 7 0 549 548 669 680
2753 4 3 7 7 0 549 548 680 560
2754 4 3 7 7 0 548 680 560 559
2755 4 3 7 7 0 661 540 670 672
2756 4 3 7 7 0 540 670 672 681
2757 4 3 7 7 0 540 681 672 551
2758 4 3 7 7 0 540 549 670 681
2759 4 3 7 7 0 540 549 681 551
2760 4 3 7 7 0 549 681 551 560
2803 4 3 7 7 0 680 559 679 691
2804 4 3 7 7 0 559 679 691 690
2805 4 3 7 7 0 559 690 691 570
2806 4 3 7 7 0 559 558 679 690
2807 4 3 7 7 0 559 558 690 570
2808 4 3 7 7 0 558 690 570 569
2809 4 3 7 7 0 681 560 680 692
2810 4 3 7 7 0 560 680 692 691
2811 4 3 7 7 0 560 691 692 571
2812 4 3 7 7 0 560 559 680 691
2813 4 3 7 7 0 560 559 691 571
2814 4 3 7 7 0 559 691 571 570
2815 4 3 7 7 0 672 551 681 683
2816 4 3 7 7 0 551 681 683 692
2817 4 3 7 7 0 551 692 683 562
2818 4 3 7 7 0 551 560 681 692
2819 4 3 7 7 0 551 560 692 562
2820 4 3 7 7 0 560 692 562 571
2857 4 3 7 7 0 690 569 689 701
2858 4 3 7 7 0 569 689 701 700
2859 4 3 7 7 0 569 700 701 580
2860 4 3 7 7 0 569 568 689 700
2861 4 3 7 7 0 569 568 700 580
2862 4 3 7 7 0 568 700 580 579
2863 4 3 7 7 0 691 570 690 702
2864 4 3 7 7 0 570 690 702 701
2865 4 3 7 7 0 570 701 702 581
2866 4 3 7 7 0 570 569 690 701
2867 4 3 7 7 0 570 569 701 581
2868 4 3 7 7 0 569 701 581 580
2869 4 3 7 7 0 692 571 691 703
2870 4 3 7 7 0 571 691 703 702
2871 4 3 7 7 0 571 702 703 582
2872 4 3 7 7 0 571 570 691 702
2873 4 3 7 7 0 571 570 702 582
2874 4 3 7 7 0 570 702 582 581
2875 4 3 7 7 0 683 562 692 694
2876 4 3 7 7 0 562 692 694 703
2877 4 3 7 7 0 562 703 694 573
2878 4 3 7 7 0 562 571 692 703
2879 4 3 7 7 0 562 571 703 573
2880 4 3 7 7 0 571 703 573 582
2917 4 3 7 7 0 701 580 700 712
2918 4 3 7 7 0 580 700 712 711
2919 4 3 7 7 0 580 711 712 591
2920 4 3 7 7 0 580 579 700 711
2921 4 3 7 7 0 580 579 711 591
2922 4 3 7 7 0 579 711 591 590
2923 4 3 7 7 0 702 581 701 713
2924 4 3 7 7 0 581 701 713 712
2925 4 3 7 7 0 581 712 713 592
2926 4 3 7 7 0 581 580 701 712
2927 4 3 7 7 0 581 580 712 592
2928 4 3 7 7 0 580 712 592 591
2929 4 3 7 7 0 703 582 702 714
2930 4 3 7 7 0 582 702 714 713
2931 4 3 7 7 0 582 713 714 593
2932 4 3 7 7 0 582 581 702 713
2933 4 3 7 7 0 582 581 713 593
2934 4 3 7 7 0 581 713 593 592
2935 4 3 7 7 0 694 573 703 705
2936 4 3 7 7 0 573 703 705 714
2937 4 3 7 7 0 573 714 705 584
2938 4 3 7 7 0 573 582 703 714
2939 4 3 7 7 0 573 582 714 584
2940 4 3 7 7 0 582 714 584 593
2983 4 3 7 7 0 713 592 712 614
2984 4 3 7 7 0 592 712 614 613
2985 4 3 7 7 0 592 613 614 493
2986 4 3 7 7 0 592 591 712 613
2987 4 3 7 7 0 592 591 613 493
2988 4 3 7 7 0 591 613 493 492
2989 4 3 7 7 0 714 593 713 615
2990 4 3 7 7 0 593 713 615 614
2991 4 3 7 7 0 593 614 615 494
2992 4 3 7 7 0 593 592 713 614
2993 4 3 7 7 0 593 592 614 494
2994 4 3 7 7 0 592 614 494 493
2995 4 3 7 7 0 705 584 714 606
2996 4 3 7 7 0 584 714 606 615
2997 4 3 7 7 0 584 615 606 485
2998 4 3 7 7 0 584 593 714 615
2999 4 3 7 7 0 584 593 615 485
3000 4 3 7 7 0 593 615 485 494
3295 4 3 7 7 0 771 650 780 782
3296 4 3 7 7 0 650 780 782 791
3297 4 3 7 7 0 650 791 782 661
3298 4 3 7 7 0 650 659 780 791
3299 4 3 7 7 0 650 659 791 661
3300 4 3 7 7 0 659 791 661 670
3343 4 3 7 7 0 790 669 789 801
3344 4 3 7 7 0 669 789 801 800
3345 4 3 7 7 0 669 800 801 680
3346 4 3 7 7 0 669 668 789 800
3347 4 3 7 7 0 669 668 800 680
3348 4 3 7 7 0 668 800 680 679
3349 4 3 7 7 0 791 670 790 802
3350 4 3 7 7 0 670 790 802 801
3351 4 3 7 7 0 670 801 802 681
3352 4 3 7 7 0 670 669 790 801
3353 4 3 7 7 0 670 669 801 681
3354 4 3 7 7 0 669 801 681 680
3355 4 3 7 7 0 782 661 791 793
3356 4 3 7 7 0 661 791 793 802
3357 4 3 7 7 0 661 802 793 672
3358 4 3 7 7 0 661 670 791 802
3359 4 3 7 7 0 661 670 802 672
3360 4 3 7 7 0 670 802 672 681
3397 4 3 7 7 0 800 679 799 811
3398 4 3 7 7 0 679 799 811 810
3399 4 3 7 7 0 679 810 811 690
3400 4 3 7 7 0 679 678 799 810
3401 4 3 7 7 0 679 678 810 690
3402 4 3 7 7 0 678 810 690 689
3403 4 3 7 7 0 801 680 800 812
3404 4 3 7 7 0 680 800 812 811
3405 4 3 7 7 0 680 811 812 691
3406 4 3 7 7 0 680 679 800 811
3407 4 3 7 7 0 680 679 811 691
3408 4 3 7 7 0 679 811 691 690
3409 4 3 7 7 0 802 681 801 813
3410 4 3 7 7 0 681 801 813 812
3411 4 3 7 7 0 681 812 813 692
3412 4 3 7 7 0 681 680 801 812
3413 4 3 7 7 0 681 680 812 692
3414 4 3 7 7 0 680 812 692 691
3415 4 3 7 7 0 793 672 802 804
3416 4 3 7 7 0 672 802 804 813
3417 4 3 7 7 0 672 813 804 683
3418 4 3 7 7 0 672 681 802 813
3419 4 3 7 7 0 672 681 813 683
3420 4 3 7 7 0 681 813 683 692
3451 4 3 7 7 0 810 689 809 821
3452 4 3 7 7 0 689 809 821 820
3453 4 3 7 7 0 689 820 821 700
3454 4 3 7 7 0 689 688 809 820
3455 4 3 7 7 0 689 688 820 700
3456 4 3 7 7 0 688 820 700 699
3457 4 3 7 7 0 811 690 810 822
3458 4 3 7 7 0 690 810 822 821
3459 4 3 7 7 0 690 821 822 701
3460 4 3 7 7 0 690 689 810 821
3461 4 3 7 7 0 690 689 821 701
3462 4 3 7 7 0 689 821 701 700
3463 4 3 7 7 0 812 691 811 823
3464 4 3 7 7 0 691 811 823 822
3465 4 3 7 7 0 691 822 823 702
3466 4 3 7 7 0 691 690 811 822
3467 4 3 7 7 0 691 690 822 702
3468 4 3 7 7 0 690 822 702 701
3469 4 3 7 7 0 813 692 812 824
3470 4 3 7 7 0 692 812 824 823
3471 4 3 7 7 0 692 823 824 703
3472 4 3 7 7 0 692 691 812 823
3473 4 3 7 7 0 692 691 823 703
3474 4 3 7 7 0 691 823 703 702
3475 4 3 7 7 0 804 683 813 815
3476 4 3 7 7 0 683 813 815 824
3477 4 3 7 7 0 683 824 815 694
3478 4 3 7 7 0 683 692 813 824
3479 4 3 7 7 0 683 692 824 694
3480 4 3 7 7 0 692 824 694 703
3505 4 3 7 7 0 820 699 819 831
3506 4 3 7 7 0 699 819 831 830
3507 4 3 7 7 0 699 830 831 710
3508 4 3 7 7 0 699 698 819 830
3509 4 3 7 7 0 699 698 830 710
3510 4 3 7 7 0 698 830 710 709
3511 4 3 7 7 0 821 700 820 832
3512 4 3 7 7 0 700 820 832 831
3513 4 3 7 7 0 700 831 832 711
3514 4 3 7 7 0 700 699 820 831
3515 4 3 7 7 0 700 699 831 711
3516 4 3 7 7 0 699 831 711 710
3517 4 3 7 7 0 822 701 821 833
3518 4 3 7 7 0 701 821 833 832
3519 4 3 7 7 0 701 832 833 712
3520 4 3 7 7 0 701 700 821 832
3521 4 3 7 7 0 701 700 832 712
3522 4 3 7 7 0 700 832 712 711
3523 4 3 7 7 0 823 702 822 834
3524 4 3 7 7 0 702 822 834 833
3525 4 3 7 7 0 702 833 834 713
3526 4 3 7 7 0 702 701 822 833
3527 4 3 7 7 0 702 701 833 713
3528 4 3 7 7 0 701 833 713 712
3529 4 3 7 7 0 824 703 823 835
3530 4 3 7 7 0 703 823 835 834
3531 4 3 7 7 0 703 834 835 714
3532 4 3 7 7 0 703 702 823 834
3533 4 3 7 7 0 703 702 834 714
3534 4 3 7 7 0 702 834 714 713
3535 4 3 7 7 0 815 694 824 826
3536 4 3 7 7 0 694 824 826 835
3537 4 3 7 7 0 694 835 826 705
3538 4 3 7 7 0 694 703 824 835
3539 4 3 7 7 0 694 703 835 705
3540 4 3 7 7 0 703 835 705 714
3577 4 3 7 7 0 833 712 832 734
3578 4 3 7 7 0 712 832 734 733
3579 4 3 7 7 0 712 733 734 613
3580 4 3 7 7 0 712 711 832 733
3581 4 3 7 7 0 712 711 733 613
3582 4 3 7 7 0 711 733 613 612
3583 4 3 7 7 0 834 713 833 735
3584 4 3 7 7 0 713 833 735 734
3585 4 3 7 7 0 713 734 735 614
3586 4 3 7 7 0 713 712 833 734
3587 4 3 7 7 0 713 712 734 614
3588 4 3 7 7 0 712 734 614 613
3589 4 3 7 7 0 835 714 834 736
3590 4 3 7 7 0 714 834 736 735
3591 4 3 7 7 0 714 735 736 615
3592 4 3 7 7 0 714 713 834 735
3593 4 3 7 7 0 714 713 735 615
3594 4 3 7 7 0 713 735 615 614
3595 4 3 7 7 0 826 705 835 727
3596 4 3 7 7 0 705 835 727 736
3597 4 3 7 7 0 705 736 727 606
3598 4 3 7 7 0 705 714 835 736
3599 4 3 7 7 0 705 714 736 606
3600 4 3 7 7 0 714 736 606 615
3955 4 3 7 7 0 903 782 912 914
3956 4 3 7 7 0 782 912 914 923
3957 4 3 7 7 0 782 923 914 793
3958 4 3 7 7 0 782 791 912 923
3959 4 3 7 7 0 782 791 923 793
3960 4 3 7 7 0 791 923 793 802
4003 4 3 7 7 0 922 801 921 933
4004 4 3 7 7 0 801 921 933 932
4005 4 3 7 7 0 801 932 933 812
4006 4 3 7 7 0 801 800 921 932
4007 4 3 7 7 0 801 800 932 812
4008 4 3 7 7 0 800 932 812 811
4009 4 3 7 7 0 923 802 922 934
4010 4 3 7 7 0 802 922 934 933
4011 4 3 7 7 0 802 933 934 813
4012 4 3 7 7 0 802 801 922 933
4013 4 3 7 7 0 802 801 933 813
4014 4 3 7 7 0 801 933 813 812
4015 4 3 7 7 0 914 793 923 925
4016 4 3 7 7 0 793 923 925 934
4017 4 3 7 7 0 793 934 925 804
4018 4 3 7 7 0 793 802 923 934
4019 4 3 7 7 0 793 802 934 804
4020 4 3 7 7 0 802 934 804 813
4063 4 3 7 7 0 933 812 932 944
4064 4 3 7 7 0 812 932 944 943
4065 4 3 7 7 0 812 943 944 823
4066 4 3 7 7 0 812 811 932 943
4067 4 3 7 7 0 812 811 943 823
4068 4 3 7 7 0 811 943 823 822
4069 4 3 7 7 0 934 813 933 945
4070 4 3 7 7 0 813 933 945 944
4071 4 3 7 7 0 813 944 945 824
4072 4 3 7 7 0 813 812 933 944
4073 4 3 7 7 0 813 812 944 824
4074 4 3 7 7 0 812 944 824 823
4075 4 3 7 7 0 925 804 934 936
4076 4 3 7 7 0 804 934 936 945
4077 4 3 7 7 0 804 945 936 815
4078 4 3 7 7 0 804 813 934 945
4079 4 3 7 7 0 804 813 945 815
4080 4 3 7 7 0 813 945 815 824
4123 4 3 7 7 0 944 823 943 955
4124 4 3 7 7 0 823 943 955 954
4125 4 3 7 7 0 823 954 955 834
4126 4 3 7 7 0 823 822 943 954
4127 4 3 7 7 0 823 822 954 834
4128 4 3 7 7 0 822 954 834 833
4129 4 3 7 7 0 945 824 944 956
4130 4 3 7 7 0 824 944 956 955
4131 4 3 7 7 0 824 955 956 835
4132 4 3 7 7 0 824 823 944 955
4133 4 3 7 7 0 824 823 955 835
4134 4 3 7 7 0 823 955 835 834
4135 4 3 7 7 0 936 815 945 947
4136 4 3 7 7 0 815 945 947 956
4137 4 3 7 7 0 815 956 947 826
4138 4 3 7 7 0 815 824 945 956
4139 4 3 7 7 0 815 824 956 826
4140 4 3 7 7 0 824 956 826 835
4183 4 3 7 7 0 955 834 954 856
4184 4 3 7 7 0 834 954 856 855
4185 4 3 7 7 0 834 855 856 735
4186 4 3 7 7 0 834 833 954 855
4187 4 3 7 7 0 834 833 855 735
4188 4 3 7 7 0 833 855 735 734
4189 4 3 7 7 0 956 835 955 857
4190 4 3 7 7 0 835 955 857 856
4191 4 3 7 7 0 835 856 857 736
4192 4 3 7 7 0 835 834 955 856
4193 4 3 7 7 0 835 834 856 736
4194 4 3 7 7 0 834 856 736 735
4195 4 3 7 7 0 947 826 956 848
4196 4 3 7 7 0 826 956 848 857
4197 4 3 7 7 0 826 857 848 727
4198 4 3 7 7 0 826 835 956 857
4199 4 3 7 7 0 826 835 857 727
4200 4 3 7 7 0 835 857 727 736
4615 4 3 7 7 0 1035 914 1044 1046
4616 4 3 7 7 0 914 1044 1046 1055
4617 4 3 7 7 0 914 1055 1046 925
4618 4 3 7 7 0 914 923 1044 1055
4619 4 3 7 7 0 914 923 1055 925
4620 4 3 7 7 0 923 1055 925 934
4669 4 3 7 7 0 1055 934 1054 1066
4670 4 3 7 7 0 934 1054 1066 1065
4671 4 3 7 7 0 934 1065 1066 945
4672 4 3 7 7 0 934 933 1054 1065
4673 4 3 7 7 0 934 933 1065 945
4674 4 3 7 7 0 933 1065 945 944
4675 4 3 7 7 0 1046 925 1055 1057
4676 4 3 7 7 0 925 1055 1057 1066
4677 4 3 7 7 0 925 1066 1057 936
4678 4 3 7 7 0 925 934 1055 1066
4679 4 3 7 7 0 925 934 1066 936
4680 4 3 7 7 0 934 1066 936 945
4729 4 3 7 7 0 1066 945 1065 1077
4730 4 3 7 7 0 945 1065 1077 1076
4731 4 3 7 7 0 945 1076 1077 956
4732 4 3 7 7 0 945 944 1065 1076
4733 4 3 7 7 0 945 944 1076 956
4734 4 3 7 7 0 944 1076 956 955
4735 4 3 7 7 0 1057 936 1066 1068
4736 4 3 7 7 0 936 1066 1068 1077
4737 4 3 7 7 0 936 1077 1068 947
4738 4 3 7 7 0 936 945 1066 1077
4739 4 3 7 7 0 936 945 1077 947
4740 4 3 7 7 0 945 1077 947 956
4789 4 3 7 7 0 1077 956 1076 978
4790 4 3 7 7 0 956 1076 978 977
4791 4 3 7 7 0 956 977 978 857
4792 4 3 7 7 0 956 955 1076 977
4793 4 3 7 7 0 956 955 977 857
4794 4 3 7 7 0 955 977 857 856
4795 4 3 7 7 0 1068 947 1077 969
4796 4 3 7 7 0 947 1077 969 978
4797 4 3 7 7 0 947 978 969 848
4798 4 3 7 7 0 947 956 1077 978
4799 4 3 7 7 0 947 956 978 848
4800 4 3 7 7 0 956 978 848 857
5275 4 3 7 7 0 1167 1046 1176 1178
5276 4 3 7 7 0 1046 1176 1178 1187
5277 4 3 7 7 0 1046 1187 1178 1057
5278 4 3 7 7 0 1046 1055 1176 1187
5279 4 3 7 7 0 1046 1055 1187 1057
5280 4 3 7 7 0 1055 1187 1057 1066
5335 4 3 7 7 0 1178 1057 1187 1189
5336 4 3 7 7 0 1057 1187 1189 1198
5337 4 3 7 7 0 1057 1198 1189 1068
5338 4 3 7 7 0 1057 1066 1187 1198
5339 4 3 7 7 0 1057 1066 1198 1068
5340 4 3 7 7 0 1066 1198 1068 1077
5395 4 3 7 7 0 1189 1068 1198 1090
5396 4 3 7 7 0 1068 1198 1090 1099
5397 4 3 7 7 0 1068 1099 1090 969
5398 4 3 7 7 0 1068 1077 1198 1099
5399 4 3 7 7 0 1068 1077 1099 969
5400 4 3 7 7 0 1077 1099 969 978
5875 4 3 7 7 0 78 1167 87 89
5876 4 3 7 7 0 1167 87 89 98
5877 4 3 7 7 0 1167 98 89 1178
5878 4 3 7 7 0 1167 1176 87 98
5879 4 3 7 7 0 1167 1176 98 1178
5880 4 3 7 7 0 1176 98 1178 1187
$EndElements
