$MeshFormat
2.2 0 8
$EndMeshFormat
$Nodes
262
390 4.0 2.0 3.0
391 5.0 2.0 3.0
392 6.0 2.0 3.0
393 7.0 2.0 3.0
394 8.0 2.0 3.0
401 4.0 3.0 3.0
402 5.0 3.0 3.0
403 6.0 3.0 3.0
404 7.0 3.0 3.0
405 8.0 3.0 3.0
412 4.0 4.0 3.0
413 5.0 4.0 3.0
414 6.0 4.0 3.0
415 7.0 4.0 3.0
416 8.0 4.0 3.0
423 4.0 5.0 3.0
424 5.0 5.0 3.0
425 6.0 5.0 3.0
426 7.0 5.0 3.0
427 8.0 5.0 3.0
500 4.0 1.0 4.0
501 5.0 1.0 4.0
502 6.0 1.0 4.0
503 7.0 1.0 4.0
504 8.0 1.0 4.0
511 4.0 2.0 4.0
512 5.0 2.0 4.0
513 6.0 2.0 4.0
514 7.0 2.0 4.0
515 8.0 2.0 4.0
516 9.0 2.0 4.0
522 4.0 3.0 4.0
523 5.0 3.0 4.0
524 6.0 3.0 4.0
525 7.0 3.0 4.0
526 8.0 3.0 4.0
527 9.0 3.0 4.0
533 4.0 4.0 4.0
534 5.0 4.0 4.0
535 6.0 4.0 4.0
536 7.0 4.0 4.0
537 8.0 4.0 4.0
538 9.0 4.0 4.0
544 4.0 5.0 4.0
545 5.0 5.0 4.0
546 6.0 5.0 4.0
547 7.0 5.0 4.0
548 8.0 5.0 4.0
549 9.0 5.0 4.0
555 4.0 6.0 4.0
556 5.0 6.0 4.0
557 6.0 6.0 4.0
558 7.0 6.0 4.0
609 3.0 0.0 5.0
610 4.0 0.0 5.0
611 5.0 0.0 5.0
612 6.0 0.0 5.0
613 7.0 0.0 5.0
614 8.0 0.0 5.0
615 9.0 0.0 5.0
620 3.0 1.0 5.0
621 4.0 1.0 5.0
622 5.0 1.0 5.0
623 6.0 1.0 5.0
624 7.0 1.0 5.0
625 8.0 1.0 5.0
626 9.0 1.0 5.0
631 3.0 2.0 5.0
632 4.0 2.0 5.0
633 5.0 2.0 5.0
634 6.0 2.0 5.0
635 7.0 2.0 5.0
636 8.0 2.0 5.0
637 9.0 2.0 5.0
628 10.0 2.0 5.0
642 3.0 3.0 5.0
643 4.0 3.0 5.0
644 5.0 3.0 5.0
645 6.0 3.0 5.0
646 7.0 3.0 5.0
647 8.0 3.0 5.0
648 9.0 3.0 5.0
639 10.0 3.0 5.0
653 3.0 4.0 5.0
654 4.0 4.0 5.0
655 5.0 4.0 5.0
656 6.0 4.0 5.0
657 7.0 4.0 5.0
658 8.0 4.0 5.0
659 9.0 4.0 5.0
664 3.0 5.0 5.0
665 4.0 5.0 5.0
666 5.0 5.0 5.0
667 6.0 5.0 5.0
668 7.0 5.0 5.0
669 8.0 5.0 5.0
670 9.0 5.0 5.0
675 3.0 6.0 5.0
676 4.0 6.0 5.0
677 5.0 6.0 5.0
678 6.0 6.0 5.0
679 7.0 6.0 5.0
686 3.0 7.0 5.0
687 4.0 7.0 5.0
688 5.0 7.0 5.0
689 6.0 7.0 5.0
697 3.0 8.0 5.0
698 4.0 8.0 5.0
699 5.0 8.0 5.0
730 3.0 0.0 6.0
731 4.0 0.0 6.0
732 5.0 0.0 6.0
733 6.0 0.0 6.0
734 7.0 0.0 6.0
735 8.0 0.0 6.0
736 9.0 0.0 6.0
741 3.0 1.0 6.0
742 4.0 1.0 6.0
743 5.0 1.0 6.0
744 6.0 1.0 6.0
745 7.0 1.0 6.0
746 8.0 1.0 6.0
747 9.0 1.0 6.0
752 3.0 2.0 6.0
753 4.0 2.0 6.0
754 5.0 2.0 6.0
755 6.0 2.0 6.0
756 7.0 2.0 6.0
757 8.0 2.0 6.0
758 9.0 2.0 6.0
749 10.0 2.0 6.0
763 3.0 3.0 6.0
764 4.0 3.0 6.0
765 5.0 3.0 6.0
766 6.0 3.0 6.0
767 7.0 3.0 6.0
768 8.0 3.0 6.0
769 9.0 3.0 6.0
760 10.0 3.0 6.0
774 3.0 4.0 6.0
775 4.0 4.0 6.0
776 5.0 4.0 6.0
777 6.0 4.0 6.0
778 7.0 4.0 6.0
779 8.0 4.0 6.0
780 9.0 4.0 6.0
785 3.0 5.0 6.0
786 4.0 5.0 6.0
787 5.0 5.0 6.0
788 6.0 5.0 6.0
789 7.0 5.0 6.0
790 8.0 5.0 6.0
791 9.0 5.0 6.0
796 3.0 6.0 6.0
797 4.0 6.0 6.0
798 5.0 6.0 6.0
799 6.0 6.0 6.0
800 7.0 6.0 6.0
807 3.0 7.0 6.0
808 4.0 7.0 6.0
809 5.0 7.0 6.0
810 6.0 7.0 6.0
818 3.0 8.0 6.0
819 4.0 8.0 6.0
820 5.0 8.0 6.0
851 3.0 0.0 7.0
852 4.0 0.0 7.0
853 5.0 0.0 7.0
854 6.0 0.0 7.0
855 7.0 0.0 7.0
856 8.0 0.0 7.0
857 9.0 0.0 7.0
862 3.0 1.0 7.0
863 4.0 1.0 7.0
864 5.0 1.0 7.0
865 6.0 1.0 7.0
866 7.0 1.0 7.0
867 8.0 1.0 7.0
868 9.0 1.0 7.0
873 3.0 2.0 7.0
874 4.0 2.0 7.0
875 5.0 2.0 7.0
876 6.0 2.0 7.0
877 7.0 2.0 7.0
878 8.0 2.0 7.0
879 9.0 2.0 7.0
884 3.0 3.0 7.0
885 4.0 3.0 7.0
886 5.0 3.0 7.0
887 6.0 3.0 7.0
888 7.0 3.0 7.0
889 8.0 3.0 7.0
890 9.0 3.0 7.0
895 3.0 4.0 7.0
896 4.0 4.0 7.0
897 5.0 4.0 7.0
898 6.0 4.0 7.0
899 7.0 4.0 7.0
900 8.0 4.0 7.0
906 3.0 5.0 7.0
907 4.0 5.0 7.0
908 5.0 5.0 7.0
909 6.0 5.0 7.0
910 7.0 5.0 7.0
911 8.0 5.0 7.0
917 3.0 6.0 7.0
918 4.0 6.0 7.0
919 5.0 6.0 7.0
920 6.0 6.0 7.0
921 7.0 6.0 7.0
928 3.0 7.0 7.0
929 4.0 7.0 7.0
930 5.0 7.0 7.0
974 5.0 0.0 8.0
975 6.0 0.0 8.0
976 7.0 0.0 8.0
977 8.0 0.0 8.0
978 9.0 0.0 8.0
985 5.0 1.0 8.0
986 6.0 1.0 8.0
987 7.0 1.0 8.0
988 8.0 1.0 8.0
989 9.0 1.0 8.0
995 4.0 2.0 8.0
996 5.0 2.0 8.0
997 6.0 2.0 8.0
998 7.0 2.0 8.0
999 8.0 2.0 8.0
1000 9.0 2.0 8.0
1006 4.0 3.0 8.0
1007 5.0 3.0 8.0
1008 6.0 3.0 8.0
1009 7.0 3.0 8.0
1010 8.0 3.0 8.0
1017 4.0 4.0 8.0
1018 5.0 4.0 8.0
1019 6.0 4.0 8.0
1020 7.0 4.0 8.0
1028 4.0 5.0 8.0
1029 5.0 5.0 8.0
1030 6.0 5.0 8.0
1031 7.0 5.0 8.0
1040 5.0 6.0 8.0
1041 6.0 6.0 8.0
1096 6.0 0.0 9.0
1097 7.0 0.0 9.0
1098 8.0 0.0 9.0
1107 6.0 1.0 9.0
1108 7.0 1.0 9.0
1109 8.0 1.0 9.0
1118 6.0 2.0 9.0
1119 7.0 2.0 9.0
1120 8.0 2.0 9.0
1129 6.0 3.0 9.0
1130 7.0 3.0 9.0
1131 8.0 3.0 9.0
1140 6.0 4.0 9.0
1141 7.0 4.0 9.0
29 6.0 2.0 10.0
30 7.0 2.0 10.0
40 6.0 3.0 10.0
41 7.0 3.0 10.0
$EndNodes
$Elements
810
1945 4 3 3 3 0 512 391 511 523
1946 4 3 3 3 0 391 511 523 522
1947 4 3 3 3 0 391 522 523 402
1948 4 3 3 3 0 391 390 511 522
1949 4 3 3 3 0 391 390 522 402
1950 4 3 3 3 0 390 522 402 401
1951 4 3 3 3 0 513 392 512 524
1952 4 3 3 3 0 392 512 524 523
1953 4 3 3 3 0 392 523 524 403
1954 4 3 3 3 0 392 391 512 523
1955 4 3 3 3 0 392 391 523 403
1956 4 3 3 3 0 391 523 403 402
1957 4 3 3 3 0 514 393 513 525
1958 4 3 3 3 0 393 513 525 524
1959 4 3 3 3 0 393 524 525 404
1960 4 3 3 3 0 393 392 513 524
1961 4 3 3 3 0 393 392 524 404
1962 4 3 3 3 0 392 524 404 403
1963 4 3 3 3 0 515 394 514 526
1964 4 3 3 3 0 394 514 526 525
1965 4 3 3 3 0 394 525 526 405
1966 4 3 3 3 0 394 393 514 525
1967 4 3 3 3 0 394 393 525 405
1968 4 3 3 3 0 393 525 405 404
2005 4 3 3 3 0 523 402 522 534
2006 4 3 3 3 0 402 522 534 533
2007 4 3 3 3 0 402 533 534 413
2008 4 3 3 3 0 402 401 522 533
2009 4 3 3 3 0 402 401 533 413
2010 4 3 3 3 0 401 533 413 412
2011 4 3 3 3 0 524 403 523 535
2012 4 3 3 3 0 403 523 535 534
2013 4 3 3 3 0 403 534 535 414
2014 4 3 3 3 0 403 402 523 534
2015 4 3 3 3 0 403 402 534 414
2016 4 3 3 3 0 402 534 414 413
2017 4 3 3 3 0 525 404 524 536
2018 4 3 3 3 0 404 524 536 535
2019 4 3 3 3 0 404 535 536 415
2020 4 3 3 3 0 404 403 524 535
2021 4 3 3 3 0 404 403 535 415
2022 4 3 3 3 0 403 535 415 414
2023 4 3 3 3 0 526 405 525 537
2024 4 3 3 3 0 405 525 537 536
2025 4 3 3 3 0 405 536 537 416
2026 4 3 3 3 0 405 404 525 536
2027 4 3 3 3 0 405 404 536 416
2028 4 3 3 3 0 404 536 416 415
2065 4 3 3 3 0 534 413 533 545
2066 4 3 3 3 0 413 533 545 544
2067 4 3 3 3 0 413 544 545 424
2068 4 3 3 3 0 413 412 533 544
2069 4 3 3 3 0 413 412 544 424
2070 4 3 3 3 0 412 544 424 423
2071 4 3 3 3 0 535 414 534 546
2072 4 3 3 3 0 414 534 546 545
2073 4 3 3 3 0 414 545 546 425
2074 4 3 3 3 0 414 413 534 545
2075 4 3 3 3 0 414 413 545 425
2076 4 3 3 3 0 413 545 425 424
2077 4 3 3 3 0 536 415 535 547
2078 4 3 3 3 0 415 535 547 546
2079 4 3 3 3 0 415 546 547 426
2080 4 3 3 3 0 415 414 535 546
2081 4 3 3 3 0 415 414 546 426
2082 4 3 3 3 0 414 546 426 425
2083 4 3 3 3 0 537 416 536 548
2084 4 3 3 3 0 416 536 548 547
2085 4 3 3 3 0 416 547 548 427
2086 4 3 3 3 0 416 415 536 547
2087 4 3 3 3 0 416 415 547 427
2088 4 3 3 3 0 415 547 427 426
2485 4 3 3 3 0 622 501 621 633
2486 4 3 3 3 0 501 621 633 632
2487 4 3 3 3 0 501 632 633 512
2488 4 3 3 3 0 501 500 621 632
2489 4 3 3 3 0 501 500 632 512
2490 4 3 3 3 0 500 632 512 511
2491 4 3 3 3 0 623 502 622 634
2492 4 3 3 3 0 502 622 634 633
2493 4 3 3 3 0 502 633 634 513
2494 4 3 3 3 0 502 501 622 633
2495 4 3 3 3 0 502 501 633 513
2496 4 3 3 3 0 501 633 513 512
2497 4 3 3 3 0 624 503 623 635
2498 4 3 3 3 0 503 623 635 634
2499 4 3 3 3 0 503 634 635 514
2500 4 3 3 3 0 503 502 623 634
2501 4 3 3 3 0 503 502 634 514
2502 4 3 3 3 0 502 634 514 513
2503 4 3 3 3 0 625 504 624 636
2504 4 3 3 3 0 504 624 636 635
2505 4 3 3 3 0 504 635 636 515
2506 4 3 3 3 0 504 503 624 635
2507 4 3 3 3 0 504 503 635 515
2508 4 3 3 3 0 503 635 515 514
2545 4 3 3 3 0 633 512 632 644
2546 4 3 3 3 0 512 632 644 643
2547 4 3 3 3 0 512 643 644 523
2548 4 3 3 3 0 512 511 632 643
2549 4 3 3 3 0 512 511 643 523
2550 4 3 3 3 0 511 643 523 522
2551 4 3 3 3 0 634 513 633 645
2552 4 3 3 3 0 513 633 645 644
2553 4 3 3 3 0 513 644 645 524
2554 4 3 3 3 0 513 512 633 644
2555 4 3 3 3 0 513 512 644 524
2556 4 3 3 3 0 512 644 524 523
2557 4 3 3 3 0 635 514 634 646
2558 4 3 3 3 0 514 634 646 645
2559 4 3 3 3 0 514 645 646 525
2560 4 3 3 3 0 514 513 634 645
2561 4 3 3 3 0 514 513 645 525
2562 4 3 3 3 0 513 645 525 524
2563 4 3 3 3 0 636 515 635 647
2564 4 3 3 3 0 515 635 647 646
2565 4 3 3 3 0 515 646 647 526
2566 4 3 3 3 0 515 514 635 646
2567 4 3 3 3 0 515 514 646 526
2568 4 3 3 3 0 514 646 526 525
2569 4 3 3 3 0 637 516 636 648
2570 4 3 3 3 0 516 636 648 647
2571 4 3 3 3 0 516 647 648 527
2572 4 3 3 3 0 516 515 636 647
2573 4 3 3 3 0 516 515 647 527
2574 4 3 3 3 0 515 647 527 526
2605 4 3 3 3 0 644 523 643 655
2606 4 3 3 3 0 523 643 655 654
2607 4 3 3 3 0 523 654 655 534
2608 4 3 3 3 0 523 522 643 654
2609 4 3 3 3 0 523 522 654 534
2610 4 3 3 3 0 522 654 534 533
2611 4 3 3 3 0 645 524 644 656
2612 4 3 3 3 0 524 644 656 655
2613 4 3 3 3 0 524 655 656 535
2614 4 3 3 3 0 524 523 644 655
2615 4 3 3 3 0 524 523 655 535
2616 4 3 3 3 0 523 655 535 534
2617 4 3 3 3 0 646 525 645 657
2618 4 3 3 3 0 525 645 657 656
2619 4 3 3 3 0 525 656 657 536
2620 4 3 3 3 0 525 524 645 656
2621 4 3 3 3 0 525 524 656 536
2622 4 3 3 3 0 524 656 536 535
2623 4 3 3 3 0 647 526 646 658
2624 4 3 3 3 0 526 646 658 657
2625 4 3 3 3 0 526 657 658 537
2626 4 3 3 3 0 526 525 646 657
2627 4 3 3 3 0 526 525 657 537
2628 4 3 3 3 0 525 657 537 536
2629 4 3 3 3 0 648 527 647 659
2630 4 3 3 3 0 527 647 659 658
2631 4 3 3 3 0 527 658 659 538
2632 4 3 3 3 0 527 526 647 658
2633 4 3 3 3 0 527 526 658 538
2634 4 3 3 3 0 526 658 538 537
2665 4 3 3 3 0 655 534 654 666
2666 4 3 3 3 0 534 654 666 665
2667 4 3 3 3 0 534 665 666 545
2668 4 3 3 3 0 534 533 654 665
2669 4 3 3 3 0 534 533 665 545
2670 4 3 3 3 0 533 665 545 544
2671 4 3 3 3 0 656 535 655 667
2672 4 3 3 3 0 535 655 667 666
2673 4 3 3 3 0 535 666 667 546
2674 4 3 3 3 0 535 534 655 666
2675 4 3 3 3 0 535 534 666 546
2676 4 3 3 3 0 534 666 546 545
2677 4 3 3 3 0 657 536 656 668
2678 4 3 3 3 0 536 656 668 667
2679 4 3 3 3 0 536 667 668 547
2680 4 3 3 3 0 536 535 656 667
2681 4 3 3 3 0 536 535 667 547
2682 4 3 3 3 0 535 667 547 546
2683 4 3 3 3 0 658 537 657 669
2684 4 3 3 3 0 537 657 669 668
2685 4 3 3 3 0 537 668 669 548
2686 4 3 3 3 0 537 536 657 668
2687 4 3 3 3 0 537 536 668 548
2688 4 3 3 3 0 536 668 548 547
2689 4 3 3 3 0 659 538 658 670
2690 4 3 3 3 0 538 658 670 669
2691 4 3 3 3 0 538 669 670 549
2692 4 3 3 3 0 538 537 658 669
2693 4 3 3 3 0 538 537 669 549
2694 4 3 3 3 0 537 669 549 548
2725 4 3 3 3 0 666 545 665 677
2726 4 3 3 3 0 545 665 677 676
2727 4 3 3 3 0 545 676 677 556
2728 4 3 3 3 0 545 544 665 676
2729 4 3 3 3 0 545 544 676 556
2730 4 3 3 3 0 544 676 556 555
2731 4 3 3 3 0 667 546 666 678
2732 4 3 3 3 0 546 666 678 677
2733 4 3 3 3 0 546 677 678 557
2734 4 3 3 3 0 546 545 666 677
2735 4 3 3 3 0 546 545 677 557
2736 4 3 3 3 0 545 677 557 556
2737 4 3 3 3 0 668 547 667 679
2738 4 3 3 3 0 547 667 679 678
2739 4 3 3 3 0 547 678 679 558
2740 4 3 3 3 0 547 546 667 678
2741 4 3 3 3 0 547 546 678 558
2742 4 3 3 3 0 546 678 558 557
3019 4 3 3 3 0 731 610 730 742
3020 4 3 3 3 0 610 730 742 741
3021 4 3 3 3 0 610 741 742 621
3022 4 3 3 3 0 610 609 730 741
3023 4 3 3 3 0 610 609 741 621
3024 4 3 3 3 0 609 741 621 620
3025 4 3 3 3 0 732 611 731 743
3026 4 3 3 3 0 611 731 743 742
3027 4 3 3 3 0 611 742 743 622
3028 4 3 3 3 0 611 610 731 742
3029 4 3 3 3 0 611 610 742 622
3030 4 3 3 3 0 610 742 622 621
3031 4 3 3 3 0 733 612 732 744
3032 4 3 3 3 0 612 732 744 743
3033 4 3 3 3 0 612 743 744 623
3034 4 3 3 3 0 612 611 732 743
3035 4 3 3 3 0 612 611 743 623
3036 4 3 3 3 0 611 743 623 622
3037 4 3 3 3 0 734 613 733 745
3038 4 3 3 3 0 613 733 745 744
3039 4 3 3 3 0 613 744 745 624
3040 4 3 3 3 0 613 612 733 744
3041 4 3 3 3 0 613 612 744 624
3042 4 3 3 3 0 612 744 624 623
3043 4 3 3 3 0 735 614 734 746
3044 4 3 3 3 0 614 734 746 745
3045 4 3 3 3 0 614 745 746 625
3046 4 3 3 3 0 614 613 734 745
3047 4 3 3 3 0 614 613 745 625
3048 4 3 3 3 0 613 745 625 624
3049 4 3 3 3 0 736 615 735 747
3050 4 3 3 3 0 615 735 747 746
3051 4 3 3 3 0 615 746 747 626
3052 4 3 3 3 0 615 614 735 746
3053 4 3 3 3 0 615 614 746 626
3054 4 3 3 3 0 614 746 626 625
3079 4 3 3 3 0 742 621 741 753
3080 4 3 3 3 0 621 741 753 752
3081 4 3 3 3 0 621 752 753 632
3082 4 3 3 3 0 621 620 741 752
3083 4 3 3 3 0 621 620 752 632
3084 4 3 3 3 0 620 752 632 631
3085 4 3 3 3 0 743 622 742 754
3086 4 3 3 3 0 622 742 754 753
3087 4 3 3 3 0 622 753 754 633
3088 4 3 3 3 0 622 621 742 753
3089 4 3 3 3 0 622 621 753 633
3090 4 3 3 3 0 621 753 633 632
3091 4 3 3 3 0 744 623 743 755
3092 4 3 3 3 0 623 743 755 754
3093 4 3 3 3 0 623 754 755 634
3094 4 3 3 3 0 623 622 743 754
3095 4 3 3 3 0 623 622 754 634
3096 4 3 3 3 0 622 754 634 633
3097 4 3 3 3 0 745 624 744 756
3098 4 3 3 3 0 624 744 756 755
3099 4 3 3 3 0 624 755 756 635
3100 4 3 3 3 0 624 623 744 755
3101 4 3 3 3 0 624 623 755 635
3102 4 3 3 3 0 623 755 635 634
3103 4 3 3 3 0 746 625 745 757
3104 4 3 3 3 0 625 745 757 756
3105 4 3 3 3 0 625 756 757 636
3106 4 3 3 3 0 625 624 745 756
3107 4 3 3 3 0 625 624 756 636
3108 4 3 3 3 0 624 756 636 635
3109 4 3 3 3 0 747 626 746 758
3110 4 3 3 3 0 626 746 758 757
3111 4 3 3 3 0 626 757 758 637
3112 4 3 3 3 0 626 625 746 757
3113 4 3 3 3 0 626 625 757 637
3114 4 3 3 3 0 625 757 637 636
3139 4 3 3 3 0 753 632 752 764
3140 4 3 3 3 0 632 752 764 763
3141 4 3 3 3 0 632 763 764 643
3142 4 3 3 3 0 632 631 752 763
3143 4 3 3 3 0 632 631 763 643
3144 4 3 3 3 0 631 763 643 642
3145 4 3 3 3 0 754 633 753 765
3146 4 3 3 3 0 633 753 765 764
3147 4 3 3 3 0 633 764 765 644
3148 4 3 3 3 0 633 632 753 764
3149 4 3 3 3 0 633 632 764 644
3150 4 3 3 3 0 632 764 644 643
3151 4 3 3 3 0 755 634 754 766
3152 4 3 3 3 0 634 754 766 765
3153 4 3 3 3 0 634 765 766 645
3154 4 3 3 3 0 634 633 754 765
3155 4 3 3 3 0 634 633 765 645
3156 4 3 3 3 0 633 765 645 644
3157 4 3 3 3 0 756 635 755 767
3158 4 3 3 3 0 635 755 767 766
3159 4 3 3 3 0 635 766 767 646
3160 4 3 3 3 0 635 634 755 766
3161 4 3 3 3 0 635 634 766 646
3162 4 3 3 3 0 634 766 646 645
3163 4 3 3 3 0 757 636 756 768
3164 4 3 3 3 0 636 756 768 767
3165 4 3 3 3 0 636 767 768 647
3166 4 3 3 3 0 636 635 756 767
3167 4 3 3 3 0 636 635 767 647
3168 4 3 3 3 0 635 767 647 646
3169 4 3 3 3 0 758 637 757 769
3170 4 3 3 3 0 637 757 769 768
3171 4 3 3 3 0 637 768 769 648
3172 4 3 3 3 0 637 636 757 768
3173 4 3 3 3 0 637 636 768 648
3174 4 3 3 3 0 636 768 648 647
3175 4 3 3 3 0 749 628 758 760
3176 4 3 3 3 0 628 758 760 769
3177 4 3 3 3 0 628 769 760 639
3178 4 3 3 3 0 628 637 758 769
3179 4 3 3 3 0 628 637 769 639
3180 4 3 3 3 0 637 769 639 648
3199 4 3 3 3 0 764 643 763 775
3200 4 3 3 3 0 643 763 775 774
3201 4 3 3 3 0 643 774 775 654
3202 4 3 3 3 0 643 642 763 774
3203 4 3 3 3 0 643 642 774 654
3204 4 3 3 3 0 642 774 654 653
3205 4 3 3 3 0 765 644 764 776
3206 4 3 3 3 0 644 764 776 775
3207 4 3 3 3 0 644 775 776 655
3208 4 3 3 3 0 644 643 764 775
3209 4 3 3 3 0 644 643 775 655
3210 4 3 3 3 0 643 775 655 654
3211 4 3 3 3 0 766 645 765 777
3212 4 3 3 3 0 645 765 777 776
3213 4 3 3 3 0 645 776 777 656
3214 4 3 3 3 0 645 644 765 776
3215 4 3 3 3 0 645 644 776 656
3216 4 3 3 3 0 644 776 656 655
3217 4 3 3 3 0 767 646 766 778
3218 4 3 3 3 0 646 766 778 777
3219 4 3 3 3 0 646 777 778 657
3220 4 3 3 3 0 646 645 766 777
3221 4 3 3 3 0 646 645 777 657
3222 4 3 3 3 0 645 777 657 656
3223 4 3 3 3 0 768 647 767 779
3224 4 3 3 3 0 647 767 779 778
3225 4 3 3 3 0 647 778 779 658
3226 4 3 3 3 0 647 646 767 778
3227 4 3 3 3 0 647 646 778 658
3228 4 3 3 3 0 646 778 658 657
3229 4 3 3 3 0 769 648 768 780
3230 4 3 3 3 0 648 768 780 779
3231 4 3 3 3 0 648 779 780 659
3232 4 3 3 3 0 648 647 768 779
3233 4 3 3 3 0 648 647 779 659
3234 4 3 3 3 0 647 779 659 658
3259 4 3 3 3 0 775 654 774 786
3260 4 3 3 3 0 654 774 786 785
3261 4 3 3 3 0 654 785 786 665
3262 4 3 3 3 0 654 653 774 785
3263 4 3 3 3 0 654 653 785 665
3264 4 3 3 3 0 653 785 665 664
3265 4 3 3 3 0 776 655 775 787
3266 4 3 3 3 0 655 775 787 786
3267 4 3 3 3 0 655 786 787 666
3268 4 3 3 3 0 655 654 775 786
3269 4 3 3 3 0 655 654 786 666
3270 4 3 3 3 0 654 786 666 665
3271 4 3 3 3 0 777 656 776 788
3272 4 3 3 3 0 656 776 788 787
3273 4 3 3 3 0 656 787 788 667
3274 4 3 3 3 0 656 655 776 787
3275 4 3 3 3 0 656 655 787 667
3276 4 3 3 3 0 655 787 667 666
3277 4 3 3 3 0 778 657 777 789
3278 4 3 3 3 0 657 777 789 788
3279 4 3 3 3 0 657 788 789 668
3280 4 3 3 3 0 657 656 777 788
3281 4 3 3 3 0 657 656 788 668
3282 4 3 3 3 0 656 788 668 667
3283 4 3 3 3 0 779 658 778 790
3284 4 3 3 3 0 658 778 790 789
3285 4 3 3 3 0 658 789 790 669
3286 4 3 3 3 0 658 657 778 789
3287 4 3 3 3 0 658 657 789 669
3288 4 3 3 3 0 657 789 669 668
3289 4 3 3 3 0 780 659 779 791
3290 4 3 3 3 0 659 779 791 790
3291 4 3 3 3 0 659 790 791 670
3292 4 3 3 3 0 659 658 779 790
3293 4 3 3 3 0 659 658 790 670
3294 4 3 3 3 0 658 790 670 669
3319 4 3 3 3 0 786 665 785 797
3320 4 3 3 3 0 665 785 797 796
3321 4 3 3 3 0 665 796 797 676
3322 4 3 3 3 0 665 664 785 796
3323 4 3 3 3 0 665 664 796 676
3324 4 3 3 3 0 664 796 676 675
3325 4 3 3 3 0 787 666 786 798
3326 4 3 3 3 0 666 786 798 797
3327 4 3 3 3 0 666 797 798 677
3328 4 3 3 3 0 666 665 786 797
3329 4 3 3 3 0 666 665 797 677
3330 4 3 3 3 0 665 797 677 676
3331 4 3 3 3 0 788 667 787 799
3332 4 3 3 3 0 667 787 799 798
3333 4 3 3 3 0 667 798 799 678
3334 4 3 3 3 0 667 666 787 798
3335 4 3 3 3 0 667 666 798 678
3336 4 3 3 3 0 666 798 678 677
3337 4 3 3 3 0 789 668 788 800
3338 4 3 3 3 0 668 788 800 799
3339 4 3 3 3 0 668 799 800 679
3340 4 3 3 3 0 668 667 788 799
3341 4 3 3 3 0 668 667 799 679
3342 4 3 3 3 0 667 799 679 678
3379 4 3 3 3 0 797 676 796 808
3380 4 3 3 3 0 676 796 808 807
3381 4 3 3 3 0 676 807 808 687
3382 4 3 3 3 0 676 675 796 807
3383 4 3 3 3 0 676 675 807 687
3384 4 3 3 3 0 675 807 687 686
3385 4 3 3 3 0 798 677 797 809
3386 4 3 3 3 0 677 797 809 808
3387 4 3 3 3 0 677 808 809 688
3388 4 3 3 3 0 677 676 797 808
3389 4 3 3 3 0 677 676 808 688
3390 4 3 3 3 0 676 808 688 687
3391 4 3 3 3 0 799 678 798 810
3392 4 3 3 3 0 678 798 810 809
3393 4 3 3 3 0 678 809 810 689
3394 4 3 3 3 0 678 677 798 809
3395 4 3 3 3 0 678 677 809 689
3396 4 3 3 3 0 677 809 689 688
3439 4 3 3 3 0 808 687 807 819
3440 4 3 3 3 0 687 807 819 818
3441 4 3 3 3 0 687 818 819 698
3442 4 3 3 3 0 687 686 807 818
3443 4 3 3 3 0 687 686 818 698
3444 4 3 3 3 0 686 818 698 697
3445 4 3 3 3 0 809 688 808 820
3446 4 3 3 3 0 688 808 820 819
3447 4 3 3 3 0 688 819 820 699
3448 4 3 3 3 0 688 687 808 819
3449 4 3 3 3 0 688 687 819 699
3450 4 3 3 3 0 687 819 699 698
3619 4 3 3 3 0 852 731 851 863
3620 4 3 3 3 0 731 851 863 862
3621 4 3 3 3 0 731 862 863 742
3622 4 3 3 3 0 731 730 851 862
3623 4 3 3 3 0 731 730 862 742
3624 4 3 3 3 0 730 862 742 741
3625 4 3 3 3 0 853 732 852 864
3626 4 3 3 3 0 732 852 864 863
3627 4 3 3 3 0 732 863 864 743
3628 4 3 3 3 0 732 731 852 863
3629 4 3 3 3 0 732 731 863 743
3630 4 3 3 3 0 731 863 743 742
3631 4 3 3 3 0 854 733 853 865
3632 4 3 3 3 0 733 853 865 864
3633 4 3 3 3 0 733 864 865 744
3634 4 3 3 3 0 733 732 853 864
3635 4 3 3 3 0 733 732 864 744
3636 4 3 3 3 0 732 864 744 743
3637 4 3 3 3 0 855 734 854 866
3638 4 3 3 3 0 734 854 866 865
3639 4 3 3 3 0 734 865 866 745
3640 4 3 3 3 0 734 733 854 865
3641 4 3 3 3 0 734 733 865 745
3642 4 3 3 3 0 733 865 745 744
3643 4 3 3 3 0 856 735 855 867
3644 4 3 3 3 0 735 855 867 866
3645 4 3 3 3 0 735 866 867 746
3646 4 3 3 3 0 735 734 855 866
3647 4 3 3 3 0 735 734 866 746
3648 4 3 3 3 0 734 866 746 745
3649 4 3 3 3 0 857 736 856 868
3650 4 3 3 3 0 736 856 868 867
3651 4 3 3 3 0 736 867 868 747
3652 4 3 3 3 0 736 735 856 867
3653 4 3 3 3 0 736 735 867 747
3654 4 3 3 3 0 735 867 747 746
3679 4 3 3 3 0 863 742 862 874
3680 4 3 3 3 0 742 862 874 873
3681 4 3 3 3 0 742 873 874 753
3682 4 3 3 3 0 742 741 862 873
3683 4 3 3 3 0 742 741 873 753
3684 4 3 3 3 0 741 873 753 752
3685 4 3 3 3 0 864 743 863 875
3686 4 3 3 3 0 743 863 875 874
3687 4 3 3 3 0 743 874 875 754
3688 4 3 3 3 0 743 742 863 874
3689 4 3 3 3 0 743 742 874 754
3690 4 3 3 3 0 742 874 754 753
3691 4 3 3 3 0 865 744 864 876
3692 4 3 3 3 0 744 864 876 875
3693 4 3 3 3 0 744 875 876 755
3694 4 3 3 3 0 744 743 864 875
3695 4 3 3 3 0 744 743 875 755
3696 4 3 3 3 0 743 875 755 754
3697 4 3 3 3 0 866 745 865 877
3698 4 3 3 3 0 745 865 877 876
3699 4 3 3 3 0 745 876 877 756
3700 4 3 3 3 0 745 744 865 876
3701 4 3 3 3 0 745 744 876 756
3702 4 3 3 3 0 744 876 756 755
3703 4 3 3 3 0 867 746 866 878
3704 4 3 3 3 0 746 866 878 877
3705 4 3 3 3 0 746 877 878 757
3706 4 3 3 3 0 746 745 866 877
3707 4 3 3 3 0 746 745 877 757
3708 4 3 3 3 0 745 877 757 756
3709 4 3 3 3 0 868 747 867 879
3710 4 3 3 3 0 747 867 879 878
3711 4 3 3 3 0 747 878 879 758
3712 4 3 3 3 0 747 746 867 878
3713 4 3 3 3 0 747 746 878 758
3714 4 3 3 3 0 746 878 758 757
3739 4 3 3 3 0 874 753 873 885
3740 4 3 3 3 0 753 873 885 884
3741 4 3 3 3 0 753 884 885 764
3742 4 3 3 3 0 753 752 873 884
3743 4 3 3 3 0 753 752 884 764
3744 4 3 3 3 0 752 884 764 763
3745 4 3 3 3 0 875 754 874 886
3746 4 3 3 3 0 754 874 886 885
3747 4 3 3 3 0 754 885 886 765
3748 4 3 3 3 0 754 753 874 885
3749 4 3 3 3 0 754 753 885 765
3750 4 3 3 3 0 753 885 765 764
3751 4 3 3 3 0 876 755 875 887
3752 4 3 3 3 0 755 875 887 886
3753 4 3 3 3 0 755 886 887 766
3754 4 3 3 3 0 755 754 875 886
3755 4 3 3 3 0 755 754 886 766
3756 4 3 3 3 0 754 886 766 765
3757 4 3 3 3 0 877 756 876 888
3758 4 3 3 3 0 756 876 888 887
3759 4 3 3 3 0 756 887 888 767
3760 4 3 3 3 0 756 755 876 887
3761 4 3 3 3 0 756 755 887 767
3762 4 3 3 3 0 755 887 767 766
3763 4 3 3 3 0 878 757 877 889
3764 4 3 3 3 0 757 877 889 888
3765 4 3 3 3 0 757 888 889 768
3766 4 3 3 3 0 757 756 877 888
3767 4 3 3 3 0 757 756 888 768
3768 4 3 3 3 0 756 888 768 767
3769 4 3 3 3 0 879 758 878 890
3770 4 3 3 3 0 758 878 890 889
3771 4 3 3 3 0 758 889 890 769
3772 4 3 3 3 0 758 757 878 889
3773 4 3 3 3 0 758 757 889 769
3774 4 3 3 3 0 757 889 769 768
3799 4 3 3 3 0 885 764 884 896
3800 4 3 3 3 0 764 884 896 895
3801 4 3 3 3 0 764 895 896 775
3802 4 3 3 3 0 764 763 884 895
3803 4 3 3 3 0 764 763 895 775
3804 4 3 3 3 0 763 895 775 774
3805 4 3 3 3 0 886 765 885 897
3806 4 3 3 3 0 765 885 897 896
3807 4 3 3 3 0 765 896 897 776
3808 4 3 3 3 0 765 764 885 896
3809 4 3 3 3 0 765 764 896 776
3810 4 3 3 3 0 764 896 776 775
3811 4 3 3 3 0 887 766 886 898
3812 4 3 3 3 0 766 886 898 897
3813 4 3 3 3 0 766 897 898 777
3814 4 3 3 3 0 766 765 886 897
3815 4 3 3 3 0 766 765 897 777
3816 4 3 3 3 0 765 897 777 776
3817 4 3 3 3 0 888 767 887 899
3818 4 3 3 3 0 767 887 899 898
3819 4 3 3 3 0 767 898 899 778
3820 4 3 3 3 0 767 766 887 898
3821 4 3 3 3 0 767 766 898 778
3822 4 3 3 3 0 766 898 778 777
3823 4 3 3 3 0 889 768 888 900
3824 4 3 3 3 0 768 888 900 899
3825 4 3 3 3 0 768 899 900 779
3826 4 3 3 3 0 768 767 888 899
3827 4 3 3 3 0 768 767 899 779
3828 4 3 3 3 0 767 899 779 778
3859 4 3 3 3 0 896 775 895 907
3860 4 3 3 3 0 775 895 907 906
3861 4 3 3 3 0 775 906 907 786
3862 4 3 3 3 0 775 774 895 906
3863 4 3 3 3 0 775 774 906 786
3864 4 3 3 3 0 774 906 786 785
3865 4 3 3 3 0 897 776 896 908
3866 4 3 3 3 0 776 896 908 907
3867 4 3 3 3 0 776 907 908 787
3868 4 3 3 3 0 776 775 896 907
3869 4 3 3 3 0 776 775 907 787
3870 4 3 3 3 0 775 907 787 786
3871 4 3 3 3 0 898 777 897 909
3872 4 3 3 3 0 777 897 909 908
3873 4 3 3 3 0 777 908 909 788
3874 4 3 3 3 0 777 776 897 908
3875 4 3 3 3 0 777 776 908 788
3876 4 3 3 3 0 776 908 788 787
3877 4 3 3 3 0 899 778 898 910
3878 4 3 3 3 0 778 898 910 909
3879 4 3 3 3 0 778 909 910 789
3880 4 3 3 3 0 778 777 898 909
3881 4 3 3 3 0 778 777 909 789
3882 4 3 3 3 0 777 909 789 788
3883 4 3 3 3 0 900 779 899 911
3884 4 3 3 3 0 779 899 911 910
3885 4 3 3 3 0 779 910 911 790
3886 4 3 3 3 0 779 778 899 910
3887 4 3 3 3 0 779 778 910 790
3888 4 3 3 3 0 778 910 790 789
3919 4 3 3 3 0 907 786 906 918
3920 4 3 3 3 0 786 906 918 917
3921 4 3 3 3 0 786 917 918 797
3922 4 3 3 3 0 786 785 906 917
3923 4 3 3 3 0 786 785 917 797
3924 4 3 3 3 0 785 917 797 796
3925 4 3 3 3 0 908 787 907 919
3926 4 3 3 3 0 787 907 919 918
3927 4 3 3 3 0 787 918 919 798
3928 4 3 3 3 0 787 786 907 918
3929 4 3 3 3 0 787 786 918 798
3930 4 3 3 3 0 786 918 798 797
3931 4 3 3 3 0 909 788 908 920
3932 4 3 3 3 0 788 908 920 919
3933 4 3 3 3 0 788 919 920 799
3934 4 3 3 3 0 788 787 908 919
3935 4 3 3 3 0 788 787 919 799
3936 4 3 3 3 0 787 919 799 798
3937 4 3 3 3 0 910 789 909 921
3938 4 3 3 3 0 789 909 921 920
3939 4 3 3 3 0 789 920 921 800
3940 4 3 3 3 0 789 788 909 920
3941 4 3 3 3 0 789 788 920 800
3942 4 3 3 3 0 788 920 800 799
3979 4 3 3 3 0 918 797 917 929
3980 4 3 3 3 0 797 917 929 928
3981 4 3 3 3 0 797 928 929 808
3982 4 3 3 3 0 797 796 917 928
3983 4 3 3 3 0 797 796 928 808
3984 4 3 3 3 0 796 928 808 807
3985 4 3 3 3 0 919 798 918 930
3986 4 3 3 3 0 798 918 930 929
3987 4 3 3 3 0 798 929 930 809
3988 4 3 3 3 0 798 797 918 929
3989 4 3 3 3 0 798 797 929 809
3990 4 3 3 3 0 797 929 809 808
4231 4 3 3 3 0 975 854 974 986
4232 4 3 3 3 0 854 974 986 985
4233 4 3 3 3 0 854 985 986 865
4234 4 3 3 3 0 854 853 974 985
4235 4 3 3 3 0 854 853 985 865
4236 4 3 3 3 0 853 985 865 864
4237 4 3 3 3 0 976 855 975 987
4238 4 3 3 3 0 855 975 987 986
4239 4 3 3 3 0 855 986 987 866
4240 4 3 3 3 0 855 854 975 986
4241 4 3 3 3 0 855 854 986 866
4242 4 3 3 3 0 854 986 866 865
4243 4 3 3 3 0 977 856 976 988
4244 4 3 3 3 0 856 976 988 987
4245 4 3 3 3 0 856 987 988 867
4246 4 3 3 3 0 856 855 976 987
4247 4 3 3 3 0 856 855 987 867
4248 4 3 3 3 0 855 987 867 866
4249 4 3 3 3 0 978 857 977 989
4250 4 3 3 3 0 857 977 989 988
4251 4 3 3 3 0 857 988 989 868
4252 4 3 3 3 0 857 856 977 988
4253 4 3 3 3 0 857 856 988 868
4254 4 3 3 3 0 856 988 868 867
4291 4 3 3 3 0 986 865 985 997
4292 4 3 3 3 0 865 985 997 996
4293 4 3 3 3 0 865 996 997 876
4294 4 3 3 3 0 865 864 985 996
4295 4 3 3 3 0 865 864 996 876
4296 4 3 3 3 0 864 996 876 875
4297 4 3 3 3 0 987 866 986 998
4298 4 3 3 3 0 866 986 998 997
4299 4 3 3 3 0 866 997 998 877
4300 4 3 3 3 0 866 865 986 997
4301 4 3 3 3 0 866 865 997 877
4302 4 3 3 3 0 865 997 877 876
4303 4 3 3 3 0 988 867 987 999
4304 4 3 3 3 0 867 987 999 998
4305 4 3 3 3 0 867 998 999 878
4306 4 3 3 3 0 867 866 987 998
4307 4 3 3 3 0 867 866 998 878
4308 4 3 3 3 0 866 998 878 877
4309 4 3 3 3 0 989 868 988 1000
4310 4 3 3 3 0 868 988 1000 999
4311 4 3 3 3 0 868 999 1000 879
4312 4 3 3 3 0 868 867 988 999
4313 4 3 3 3 0 868 867 999 879
4314 4 3 3 3 0 867 999 879 878
4345 4 3 3 3 0 996 875 995 1007
4346 4 3 3 3 0 875 995 1007 1006
4347 4 3 3 3 0 875 1006 1007 886
4348 4 3 3 3 0 875 874 995 1006
4349 4 3 3 3 0 875 874 1006 886
4350 4 3 3 3 0 874 1006 886 885
4351 4 3 3 3 0 997 876 996 1008
4352 4 3 3 3 0 876 996 1008 1007
4353 4 3 3 3 0 876 1007 1008 887
4354 4 3 3 3 0 876 875 996 1007
4355 4 3 3 3 0 876 875 1007 887
4356 4 3 3 3 0 875 1007 887 886
4357 4 3 3 3 0 998 877 997 1009
4358 4 3 3 3 0 877 997 1009 1008
4359 4 3 3 3 0 877 1008 1009 888
4360 4 3 3 3 0 877 876 997 1008
4361 4 3 3 3 0 877 876 1008 888
4362 4 3 3 3 0 876 1008 888 887
4363 4 3 3 3 0 999 878 998 1010
4364 4 3 3 3 0 878 998 1010 1009
4365 4 3 3 3 0 878 1009 1010 889
4366 4 3 3 3 0 878 877 998 1009
4367 4 3 3 3 0 878 877 1009 889
4368 4 3 3 3 0 877 1009 889 888
4405 4 3 3 3 0 1007 886 1006 1018
4406 4 3 3 3 0 886 1006 1018 1017
4407 4 3 3 3 0 886 1017 1018 897
4408 4 3 3 3 0 886 885 1006 1017
4409 4 3 3 3 0 886 885 1017 897
4410 4 3 3 3 0 885 1017 897 896
4411 4 3 3 3 0 1008 887 1007 1019
4412 4 3 3 3 0 887 1007 1019 1018
4413 4 3 3 3 0 887 1018 1019 898
4414 4 3 3 3 0 887 886 1007 1018
4415 4 3 3 3 0 887 886 1018 898
4416 4 3 3 3 0 886 1018 898 897
4417 4 3 3 3 0 1009 888 1008 1020
4418 4 3 3 3 0 888 1008 1020 1019
4419 4 3 3 3 0 888 1019 1020 899
4420 4 3 3 3 0 888 887 1008 1019
4421 4 3 3 3 0 888 887 1019 899
4422 4 3 3 3 0 887 1019 899 898
4465 4 3 3 3 0 1018 897 1017 1029
4466 4 3 3 3 0 897 1017 1029 1028
4467 4 3 3 3 0 897 1028 1029 908
4468 4 3 3 3 0 897 896 1017 1028
4469 4 3 3 3 0 897 896 1028 908
4470 4 3 3 3 0 896 1028 908 907
4471 4 3 3 3 0 1019 898 1018 1030
4472 4 3 3 3 0 898 1018 1030 1029
4473 4 3 3 3 0 898 1029 1030 909
4474 4 3 3 3 0 898 897 1018 1029
4475 4 3 3 3 0 898 897 1029 909
4476 4 3 3 3 0 897 1029 909 908
4477 4 3 3 3 0 1020 899 1019 1031
4478 4 3 3 3 0 899 1019 1031 1030
4479 4 3 3 3 0 899 1030 1031 910
4480 4 3 3 3 0 899 898 1019 1030
4481 4 3 3 3 0 899 898 1030 910
4482 4 3 3 3 0 898 1030 910 909
4531 4 3 3 3 0 1030 909 1029 1041
4532 4 3 3 3 0 909 1029 1041 1040
4533 4 3 3 3 0 909 1040 1041 920
4534 4 3 3 3 0 909 908 1029 1040
4535 4 3 3 3 0 909 908 1040 920
4536 4 3 3 3 0 908 1040 920 919
4837 4 3 3 3 0 1097 976 1096 1108
4838 4 3 3 3 0 976 1096 1108 1107
4839 4 3 3 3 0 976 1107 1108 987
4840 4 3 3 3 0 976 975 1096 1107
4841 4 3 3 3 0 976 975 1107 987
4842 4 3 3 3 0 975 1107 987 986
4843 4 3 3 3 0 1098 977 1097 1109
4844 4 3 3 3 0 977 1097 1109 1108
4845 4 3 3 3 0 977 1108 1109 988
4846 4 3 3 3 0 977 976 1097 1108
4847 4 3 3 3 0 977 976 1108 988
4848 4 3 3 3 0 976 1108 988 987
4897 4 3 3 3 0 1108 987 1107 1119
4898 4 3 3 3 0 987 1107 1119 1118
4899 4 3 3 3 0 987 1118 1119 998
4900 4 3 3 3 0 987 986 1107 1118
4901 4 3 3 3 0 987 986 1118 998
4902 4 3 3 3 0 986 1118 998 997
4903 4 3 3 3 0 1109 988 1108 1120
4904 4 3 3 3 0 988 1108 1120 1119
4905 4 3 3 3 0 988 1119 1120 999
4906 4 3 3 3 0 988 987 1108 1119
4907 4 3 3 3 0 988 987 1119 999
4908 4 3 3 3 0 987 1119 999 998
4957 4 3 3 3 0 1119 998 1118 1130
4958 4 3 3 3 0 998 1118 1130 1129
4959 4 3 3 3 0 998 1129 1130 1009
4960 4 3 3 3 0 998 997 1118 1129
4961 4 3 3 3 0 998 997 1129 1009
4962 4 3 3 3 0 997 1129 1009 1008
4963 4 3 3 3 0 1120 999 1119 1131
4964 4 3 3 3 0 999 1119 1131 1130
4965 4 3 3 3 0 999 1130 1131 1010
4966 4 3 3 3 0 999 998 1119 1130
4967 4 3 3 3 0 999 998 1130 1010
4968 4 3 3 3 0 998 1130 1010 1009
5017 4 3 3 3 0 1130 1009 1129 1141
5018 4 3 3 3 0 1009 1129 1141 1140
5019 4 3 3 3 0 1009 1140 1141 1020
5020 4 3 3 3 0 1009 1008 1129 1140
5021 4 3 3 3 0 1009 1008 1140 1020
5022 4 3 3 3 0 1008 1140 1020 1019
5557 4 3 3 3 0 30 1119 29 41
5558 4 3 3 3 0 1119 29 41 40
5559 4 3 3 3 0 1119 40 41 1130
5560 4 3 3 3 0 1119 1118 29 40
5561 4 3 3 3 0 1119 1118 40 1130
5562 4 3 3 3 0 1118 40 1130 1129
$EndElements
