$MeshFormat
2.2 0 8
$EndMeshFormat
$Nodes
152
648 9.0 3.0 5.0
639 10.0 3.0 5.0
659 9.0 4.0 5.0
650 10.0 4.0 5.0
736 9.0 0.0 6.0
727 10.0 0.0 6.0
747 9.0 1.0 6.0
738 10.0 1.0 6.0
758 9.0 2.0 6.0
749 10.0 2.0 6.0
768 8.0 3.0 6.0
769 9.0 3.0 6.0
760 10.0 3.0 6.0
779 8.0 4.0 6.0
780 9.0 4.0 6.0
771 10.0 4.0 6.0
789 7.0 5.0 6.0
790 8.0 5.0 6.0
791 9.0 5.0 6.0
782 10.0 5.0 6.0
800 7.0 6.0 6.0
801 8.0 6.0 6.0
802 9.0 6.0 6.0
857 9.0 0.0 7.0
848 10.0 0.0 7.0
868 9.0 1.0 7.0
859 10.0 1.0 7.0
878 8.0 2.0 7.0
879 9.0 2.0 7.0
870 10.0 2.0 7.0
888 7.0 3.0 7.0
889 8.0 3.0 7.0
890 9.0 3.0 7.0
881 10.0 3.0 7.0
899 7.0 4.0 7.0
900 8.0 4.0 7.0
901 9.0 4.0 7.0
892 10.0 4.0 7.0
909 6.0 5.0 7.0
910 7.0 5.0 7.0
911 8.0 5.0 7.0
912 9.0 5.0 7.0
903 10.0 5.0 7.0
920 6.0 6.0 7.0
921 7.0 6.0 7.0
922 8.0 6.0 7.0
923 9.0 6.0 7.0
914 10.0 6.0 7.0
932 7.0 7.0 7.0
933 8.0 7.0 7.0
934 9.0 7.0 7.0
977 8.0 0.0 8.0
978 9.0 0.0 8.0
969 10.0 0.0 8.0
988 8.0 1.0 8.0
989 9.0 1.0 8.0
980 10.0 1.0 8.0
999 8.0 2.0 8.0
1000 9.0 2.0 8.0
991 10.0 2.0 8.0
1009 7.0 3.0 8.0
1010 8.0 3.0 8.0
1011 9.0 3.0 8.0
1002 10.0 3.0 8.0
1019 6.0 4.0 8.0
1020 7.0 4.0 8.0
1021 8.0 4.0 8.0
1022 9.0 4.0 8.0
1013 10.0 4.0 8.0
1030 6.0 5.0 8.0
1031 7.0 5.0 8.0
1032 8.0 5.0 8.0
1033 9.0 5.0 8.0
1024 10.0 5.0 8.0
1041 6.0 6.0 8.0
1042 7.0 6.0 8.0
1043 8.0 6.0 8.0
1044 9.0 6.0 8.0
1035 10.0 6.0 8.0
1053 7.0 7.0 8.0
1054 8.0 7.0 8.0
1055 9.0 7.0 8.0
1046 10.0 7.0 8.0
1097 7.0 0.0 9.0
1098 8.0 0.0 9.0
1099 9.0 0.0 9.0
1090 10.0 0.0 9.0
1108 7.0 1.0 9.0
1109 8.0 1.0 9.0
1110 9.0 1.0 9.0
1101 10.0 1.0 9.0
1119 7.0 2.0 9.0
1120 8.0 2.0 9.0
1121 9.0 2.0 9.0
1112 10.0 2.0 9.0
1129 6.0 3.0 9.0
1130 7.0 3.0 9.0
1131 8.0 3.0 9.0
1132 9.0 3.0 9.0
1123 10.0 3.0 9.0
1140 6.0 4.0 9.0
1141 7.0 4.0 9.0
1142 8.0 4.0 9.0
1143 9.0 4.0 9.0
1134 10.0 4.0 9.0
1151 6.0 5.0 9.0
1152 7.0 5.0 9.0
1153 8.0 5.0 9.0
1154 9.0 5.0 9.0
1145 10.0 5.0 9.0
1162 6.0 6.0 9.0
1163 7.0 6.0 9.0
1164 8.0 6.0 9.0
1165 9.0 6.0 9.0
1156 10.0 6.0 9.0
1175 8.0 7.0 9.0
1176 9.0 7.0 9.0
1167 10.0 7.0 9.0
8 7.0 0.0 10.0
9 8.0 0.0 10.0
10 9.0 0.0 10.0
1221 10.0 0.0 10.0
19 7.0 1.0 10.0
20 8.0 1.0 10.0
21 9.0 1.0 10.0
12 10.0 1.0 10.0
30 7.0 2.0 10.0
31 8.0 2.0 10.0
32 9.0 2.0 10.0
23 10.0 2.0 10.0
40 6.0 3.0 10.0
41 7.0 3.0 10.0
42 8.0 3.0 10.0
43 9.0 3.0 10.0
34 10.0 3.0 10.0
51 6.0 4.0 10.0
52 7.0 4.0 10.0
53 8.0 4.0 10.0
54 9.0 4.0 10.0
45 10.0 4.0 10.0
62 6.0 5.0 10.0
63 7.0 5.0 10.0
64 8.0 5.0 10.0
65 9.0 5.0 10.0
56 10.0 5.0 10.0
74 7.0 6.0 10.0
75 8.0 6.0 10.0
76 9.0 6.0 10.0
67 10.0 6.0 10.0
86 8.0 7.0 10.0
87 9.0 7.0 10.0
78 10.0 7.0 10.0
$EndNodes
$Elements
402
3235 4 3 10 10 0 760 639 769 771
3236 4 3 10 10 0 639 769 771 780
3237 4 3 10 10 0 639 780 771 650
3238 4 3 10 10 0 639 648 769 780
3239 4 3 10 10 0 639 648 780 650
3240 4 3 10 10 0 648 780 650 659
3655 4 3 10 10 0 848 727 857 859
3656 4 3 10 10 0 727 857 859 868
3657 4 3 10 10 0 727 868 859 738
3658 4 3 10 10 0 727 736 857 868
3659 4 3 10 10 0 727 736 868 738
3660 4 3 10 10 0 736 868 738 747
3715 4 3 10 10 0 859 738 868 870
3716 4 3 10 10 0 738 868 870 879
3717 4 3 10 10 0 738 879 870 749
3718 4 3 10 10 0 738 747 868 879
3719 4 3 10 10 0 738 747 879 749
3720 4 3 10 10 0 747 879 749 758
3775 4 3 10 10 0 870 749 879 881
3776 4 3 10 10 0 749 879 881 890
3777 4 3 10 10 0 749 890 881 760
3778 4 3 10 10 0 749 758 879 890
3779 4 3 10 10 0 749 758 890 760
3780 4 3 10 10 0 758 890 760 769
3829 4 3 10 10 0 890 769 889 901
3830 4 3 10 10 0 769 889 901 900
3831 4 3 10 10 0 769 900 901 780
3832 4 3 10 10 0 769 768 889 900
3833 4 3 10 10 0 769 768 900 780
3834 4 3 10 10 0 768 900 780 779
3835 4 3 10 10 0 881 760 890 892
3836 4 3 10 10 0 760 890 892 901
3837 4 3 10 10 0 760 901 892 771
3838 4 3 10 10 0 760 769 890 901
3839 4 3 10 10 0 760 769 901 771
3840 4 3 10 10 0 769 901 771 780
3889 4 3 10 10 0 901 780 900 912
3890 4 3 10 10 0 780 900 912 911
3891 4 3 10 10 0 780 911 912 791
3892 4 3 10 10 0 780 779 900 911
3893 4 3 10 10 0 780 779 911 791
3894 4 3 10 10 0 779 911 791 790
3895 4 3 10 10 0 892 771 901 903
3896 4 3 10 10 0 771 901 903 912
3897 4 3 10 10 0 771 912 903 782
3898 4 3 10 10 0 771 780 901 912
3899 4 3 10 10 0 771 780 912 782
3900 4 3 10 10 0 780 912 782 791
3943 4 3 10 10 0 911 790 910 922
3944 4 3 10 10 0 790 910 922 921
3945 4 3 10 10 0 790 921 922 801
3946 4 3 10 10 0 790 789 910 921
3947 4 3 10 10 0 790 789 921 801
3948 4 3 10 10 0 789 921 801 800
3949 4 3 10 10 0 912 791 911 923
3950 4 3 10 10 0 791 911 923 922
3951 4 3 10 10 0 791 922 923 802
3952 4 3 10 10 0 791 790 911 922
3953 4 3 10 10 0 791 790 922 802
3954 4 3 10 10 0 790 922 802 801
4255 4 3 10 10 0 969 848 978 980
4256 4 3 10 10 0 848 978 980 989
4257 4 3 10 10 0 848 989 980 859
4258 4 3 10 10 0 848 857 978 989
4259 4 3 10 10 0 848 857 989 859
4260 4 3 10 10 0 857 989 859 868
4315 4 3 10 10 0 980 859 989 991
4316 4 3 10 10 0 859 989 991 1000
4317 4 3 10 10 0 859 1000 991 870
4318 4 3 10 10 0 859 868 989 1000
4319 4 3 10 10 0 859 868 1000 870
4320 4 3 10 10 0 868 1000 870 879
4369 4 3 10 10 0 1000 879 999 1011
4370 4 3 10 10 0 879 999 1011 1010
4371 4 3 10 10 0 879 1010 1011 890
4372 4 3 10 10 0 879 878 999 1010
4373 4 3 10 10 0 879 878 1010 890
4374 4 3 10 10 0 878 1010 890 889
4375 4 3 10 10 0 991 870 1000 1002
4376 4 3 10 10 0 870 1000 1002 1011
4377 4 3 10 10 0 870 1011 1002 881
4378 4 3 10 10 0 870 879 1000 1011
4379 4 3 10 10 0 870 879 1011 881
4380 4 3 10 10 0 879 1011 881 890
4423 4 3 10 10 0 1010 889 1009 1021
4424 4 3 10 10 0 889 1009 1021 1020
4425 4 3 10 10 0 889 1020 1021 900
4426 4 3 10 10 0 889 888 1009 1020
4427 4 3 10 10 0 889 888 1020 900
4428 4 3 10 10 0 888 1020 900 899
4429 4 3 10 10 0 1011 890 1010 1022
4430 4 3 10 10 0 890 1010 1022 1021
4431 4 3 10 10 0 890 1021 1022 901
4432 4 3 10 10 0 890 889 1010 1021
4433 4 3 10 10 0 890 889 1021 901
4434 4 3 10 10 0 889 1021 901 900
4435 4 3 10 10 0 1002 881 1011 1013
4436 4 3 10 10 0 881 1011 1013 1022
4437 4 3 10 10 0 881 1022 1013 892
4438 4 3 10 10 0 881 890 1011 1022
4439 4 3 10 10 0 881 890 1022 892
4440 4 3 10 10 0 890 1022 892 901
4483 4 3 10 10 0 1021 900 1020 1032
4484 4 3 10 10 0 900 1020 1032 1031
4485 4 3 10 10 0 900 1031 1032 911
4486 4 3 10 10 0 900 899 1020 1031
4487 4 3 10 10 0 900 899 1031 911
4488 4 3 10 10 0 899 1031 911 910
4489 4 3 10 10 0 1022 901 1021 1033
4490 4 3 10 10 0 901 1021 1033 1032
4491 4 3 10 10 0 901 1032 1033 912
4492 4 3 10 10 0 901 900 1021 1032
4493 4 3 10 10 0 901 900 1032 912
4494 4 3 10 10 0 900 1032 912 911
4495 4 3 10 10 0 1013 892 1022 1024
4496 4 3 10 10 0 892 1022 1024 1033
4497 4 3 10 10 0 892 1033 1024 903
4498 4 3 10 10 0 892 901 1022 1033
4499 4 3 10 10 0 892 901 1033 903
4500 4 3 10 10 0 901 1033 903 912
4537 4 3 10 10 0 1031 910 1030 1042
4538 4 3 10 10 0 910 1030 1042 1041
4539 4 3 10 10 0 910 1041 1042 921
4540 4 3 10 10 0 910 909 1030 1041
4541 4 3 10 10 0 910 909 1041 921
4542 4 3 10 10 0 909 1041 921 920
4543 4 3 10 10 0 1032 911 1031 1043
4544 4 3 10 10 0 911 1031 1043 1042
4545 4 3 10 10 0 911 1042 1043 922
4546 4 3 10 10 0 911 910 1031 1042
4547 4 3 10 10 0 911 910 1042 922
4548 4 3 10 10 0 910 1042 922 921
4549 4 3 10 10 0 1033 912 1032 1044
4550 4 3 10 10 0 912 1032 1044 1043
4551 4 3 10 10 0 912 1043 1044 923
4552 4 3 10 10 0 912 911 1032 1043
4553 4 3 10 10 0 912 911 1043 923
4554 4 3 10 10 0 911 1043 923 922
4555 4 3 10 10 0 1024 903 1033 1035
4556 4 3 10 10 0 903 1033 1035 1044
4557 4 3 10 10 0 903 1044 1035 914
4558 4 3 10 10 0 903 912 1033 1044
4559 4 3 10 10 0 903 912 1044 914
4560 4 3 10 10 0 912 1044 914 923
4603 4 3 10 10 0 1043 922 1042 1054
4604 4 3 10 10 0 922 1042 1054 1053
4605 4 3 10 10 0 922 1053 1054 933
4606 4 3 10 10 0 922 921 1042 1053
4607 4 3 10 10 0 922 921 1053 933
4608 4 3 10 10 0 921 1053 933 932
4609 4 3 10 10 0 1044 923 1043 1055
4610 4 3 10 10 0 923 1043 1055 1054
4611 4 3 10 10 0 923 1054 1055 934
4612 4 3 10 10 0 923 922 1043 1054
4613 4 3 10 10 0 923 922 1054 934
4614 4 3 10 10 0 922 1054 934 933
4849 4 3 10 10 0 1099 978 1098 1110
4850 4 3 10 10 0 978 1098 1110 1109
4851 4 3 10 10 0 978 1109 1110 989
4852 4 3 10 10 0 978 977 1098 1109
4853 4 3 10 10 0 978 977 1109 989
4854 4 3 10 10 0 977 1109 989 988
4855 4 3 10 10 0 1090 969 1099 1101
4856 4 3 10 10 0 969 1099 1101 1110
4857 4 3 10 10 0 969 1110 1101 980
4858 4 3 10 10 0 969 978 1099 1110
4859 4 3 10 10 0 969 978 1110 980
4860 4 3 10 10 0 978 1110 980 989
4909 4 3 10 10 0 1110 989 1109 1121
4910 4 3 10 10 0 989 1109 1121 1120
4911 4 3 10 10 0 989 1120 1121 1000
4912 4 3 10 10 0 989 988 1109 1120
4913 4 3 10 10 0 989 988 1120 1000
4914 4 3 10 10 0 988 1120 1000 999
4915 4 3 10 10 0 1101 980 1110 1112
4916 4 3 10 10 0 980 1110 1112 1121
4917 4 3 10 10 0 980 1121 1112 991
4918 4 3 10 10 0 980 989 1110 1121
4919 4 3 10 10 0 980 989 1121 991
4920 4 3 10 10 0 989 1121 991 1000
4969 4 3 10 10 0 1121 1000 1120 1132
4970 4 3 10 10 0 1000 1120 1132 1131
4971 4 3 10 10 0 1000 1131 1132 1011
4972 4 3 10 10 0 1000 999 1120 1131
4973 4 3 10 10 0 1000 999 1131 1011
4974 4 3 10 10 0 999 1131 1011 1010
4975 4 3 10 10 0 1112 991 1121 1123
4976 4 3 10 10 0 991 1121 1123 1132
4977 4 3 10 10 0 991 1132 1123 1002
4978 4 3 10 10 0 991 1000 1121 1132
4979 4 3 10 10 0 991 1000 1132 1002
4980 4 3 10 10 0 1000 1132 1002 1011
5023 4 3 10 10 0 1131 1010 1130 1142
5024 4 3 10 10 0 1010 1130 1142 1141
5025 4 3 10 10 0 1010 1141 1142 1021
5026 4 3 10 10 0 1010 1009 1130 1141
5027 4 3 10 10 0 1010 1009 1141 1021
5028 4 3 10 10 0 1009 1141 1021 1020
5029 4 3 10 10 0 1132 1011 1131 1143
5030 4 3 10 10 0 1011 1131 1143 1142
5031 4 3 10 10 0 1011 1142 1143 1022
5032 4 3 10 10 0 1011 1010 1131 1142
5033 4 3 10 10 0 1011 1010 1142 1022
5034 4 3 10 10 0 1010 1142 1022 1021
5035 4 3 10 10 0 1123 1002 1132 1134
5036 4 3 10 10 0 1002 1132 1134 1143
5037 4 3 10 10 0 1002 1143 1134 1013
5038 4 3 10 10 0 1002 1011 1132 1143
5039 4 3 10 10 0 1002 1011 1143 1013
5040 4 3 10 10 0 1011 1143 1013 1022
5077 4 3 10 10 0 1141 1020 1140 1152
5078 4 3 10 10 0 1020 1140 1152 1151
5079 4 3 10 10 0 1020 1151 1152 1031
5080 4 3 10 10 0 1020 1019 1140 1151
5081 4 3 10 10 0 1020 1019 1151 1031
5082 4 3 10 10 0 1019 1151 1031 1030
5083 4 3 10 10 0 1142 1021 1141 1153
5084 4 3 10 10 0 1021 1141 1153 1152
5085 4 3 10 10 0 1021 1152 1153 1032
5086 4 3 10 10 0 1021 1020 1141 1152
5087 4 3 10 10 0 1021 1020 1152 1032
5088 4 3 10 10 0 1020 1152 1032 1031
5089 4 3 10 10 0 1143 1022 1142 1154
5090 4 3 10 10 0 1022 1142 1154 1153
5091 4 3 10 10 0 1022 1153 1154 1033
5092 4 3 10 10 0 1022 1021 1142 1153
5093 4 3 10 10 0 1022 1021 1153 1033
5094 4 3 10 10 0 1021 1153 1033 1032
5095 4 3 10 10 0 1134 1013 1143 1145
5096 4 3 10 10 0 1013 1143 1145 1154
5097 4 3 10 10 0 1013 1154 1145 1024
5098 4 3 10 10 0 1013 1022 1143 1154
5099 4 3 10 10 0 1013 1022 1154 1024
5100 4 3 10 10 0 1022 1154 1024 1033
5137 4 3 10 10 0 1152 1031 1151 1163
5138 4 3 10 10 0 1031 1151 1163 1162
5139 4 3 10 10 0 1031 1162 1163 1042
5140 4 3 10 10 0 1031 1030 1151 1162
5141 4 3 10 10 0 1031 1030 1162 1042
5142 4 3 10 10 0 1030 1162 1042 1041
5143 4 3 10 10 0 1153 1032 1152 1164
5144 4 3 10 10 0 1032 1152 1164 1163
5145 4 3 10 10 0 1032 1163 1164 1043
5146 4 3 10 10 0 1032 1031 1152 1163
5147 4 3 10 10 0 1032 1031 1163 1043
5148 4 3 10 10 0 1031 1163 1043 1042
5149 4 3 10 10 0 1154 1033 1153 1165
5150 4 3 10 10 0 1033 1153 1165 1164
5151 4 3 10 10 0 1033 1164 1165 1044
5152 4 3 10 10 0 1033 1032 1153 1164
5153 4 3 10 10 0 1033 1032 1164 1044
5154 4 3 10 10 0 1032 1164 1044 1043
5155 4 3 10 10 0 1145 1024 1154 1156
5156 4 3 10 10 0 1024 1154 1156 1165
5157 4 3 10 10 0 1024 1165 1156 1035
5158 4 3 10 10 0 1024 1033 1154 1165
5159 4 3 10 10 0 1024 1033 1165 1035
5160 4 3 10 10 0 1033 1165 1035 1044
5209 4 3 10 10 0 1165 1044 1164 1176
5210 4 3 10 10 0 1044 1164 1176 1175
5211 4 3 10 10 0 1044 1175 1176 1055
5212 4 3 10 10 0 1044 1043 1164 1175
5213 4 3 10 10 0 1044 1043 1175 1055
5214 4 3 10 10 0 1043 1175 1055 1054
5215 4 3 10 10 0 1156 1035 1165 1167
5216 4 3 10 10 0 1035 1165 1167 1176
5217 4 3 10 10 0 1035 1176 1167 1046
5218 4 3 10 10 0 1035 1044 1165 1176
5219 4 3 10 10 0 1035 1044 1176 1046
5220 4 3 10 10 0 1044 1176 1046 1055
5443 4 3 10 10 0 9 1098 8 20
5444 4 3 10 10 0 1098 8 20 19
5445 4 3 10 10 0 1098 19 20 1109
5446 4 3 10 10 0 1098 1097 8 19
5447 4 3 10 10 0 1098 1097 19 1109
5448 4 3 10 10 0 1097 19 1109 1108
5449 4 3 10 10 0 10 1099 9 21
5450 4 3 10 10 0 1099 9 21 20
5451 4 3 10 10 0 1099 20 21 1110
5452 4 3 10 10 0 1099 1098 9 20
5453 4 3 10 10 0 1099 1098 20 1110
5454 4 3 10 10 0 1098 20 1110 1109
5455 4 3 10 10 0 1221 1090 10 12
5456 4 3 10 10 0 1090 10 12 21
5457 4 3 10 10 0 1090 21 12 1101
5458 4 3 10 10 0 1090 1099 10 21
5459 4 3 10 10 0 1090 1099 21 1101
5460 4 3 10 10 0 1099 21 1101 1110
5503 4 3 10 10 0 20 1109 19 31
5504 4 3 10 10 0 1109 19 31 30
5505 4 3 10 10 0 1109 30 31 1120
5506 4 3 10 10 0 1109 1108 19 30
5507 4 3 10 10 0 1109 1108 30 1120
5508 4 3 10 10 0 1108 30 1120 1119
5509 4 3 10 10 0 21 1110 20 32
5510 4 3 10 10 0 1110 20 32 31
5511 4 3 10 10 0 1110 31 32 1121
5512 4 3 10 10 0 1110 1109 20 31
5513 4 3 10 10 0 1110 1109 31 1121
5514 4 3 10 10 0 1109 31 1121 1120
5515 4 3 10 10 0 12 1101 21 23
5516 4 3 10 10 0 1101 21 23 32
5517 4 3 10 10 0 1101 32 23 1112
5518 4 3 10 10 0 1101 1110 21 32
5519 4 3 10 10 0 1101 1110 32 1112
5520 4 3 10 10 0 1110 32 1112 1121
5563 4 3 10 10 0 31 1120 30 42
5564 4 3 10 10 0 1120 30 42 41
5565 4 3 10 10 0 1120 41 42 1131
5566 4 3 10 10 0 1120 1119 30 41
5567 4 3 10 10 0 1120 1119 41 1131
5568 4 3 10 10 0 1119 41 1131 1130
5569 4 3 10 10 0 32 1121 31 43
5570 4 3 10 10 0 1121 31 43 42
5571 4 3 10 10 0 1121 42 43 1132
5572 4 3 10 10 0 1121 1120 31 42
5573 4 3 10 10 0 1121 1120 42 1132
5574 4 3 10 10 0 1120 42 1132 1131
5575 4 3 10 10 0 23 1112 32 34
5576 4 3 10 10 0 1112 32 34 43
5577 4 3 10 10 0 1112 43 34 1123
5578 4 3 10 10 0 1112 1121 32 43
5579 4 3 10 10 0 1112 1121 43 1123
5580 4 3 10 10 0 1121 43 1123 1132
5617 4 3 10 10 0 41 1130 40 52
5618 4 3 10 10 0 1130 40 52 51
5619 4 3 10 10 0 1130 51 52 1141
5620 4 3 10 10 0 1130 1129 40 51
5621 4 3 10 10 0 1130 1129 51 1141
5622 4 3 10 10 0 1129 51 1141 1140
5623 4 3 10 10 0 42 1131 41 53
5624 4 3 10 10 0 1131 41 53 52
5625 4 3 10 10 0 1131 52 53 1142
5626 4 3 10 10 0 1131 1130 41 52
5627 4 3 10 10 0 1131 1130 52 1142
5628 4 3 10 10 0 1130 52 1142 1141
5629 4 3 10 10 0 43 1132 42 54
5630 4 3 10 10 0 1132 42 54 53
5631 4 3 10 10 0 1132 53 54 1143
5632 4 3 10 10 0 1132 1131 42 53
5633 4 3 10 10 0 1132 1131 53 1143
5634 4 3 10 10 0 1131 53 1143 1142
5635 4 3 10 10 0 34 1123 43 45
5636 4 3 10 10 0 1123 43 45 54
5637 4 3 10 10 0 1123 54 45 1134
5638 4 3 10 10 0 1123 1132 43 54
5639 4 3 10 10 0 1123 1132 54 1134
5640 4 3 10 10 0 1132 54 1134 1143
5677 4 3 10 10 0 52 1141 51 63
5678 4 3 10 10 0 1141 51 63 62
5679 4 3 10 10 0 1141 62 63 1152
5680 4 3 10 10 0 1141 1140 51 62
5681 4 3 10 10 0 1141 1140 62 1152
5682 4 3 10 10 0 1140 62 1152 1151
5683 4 3 10 10 0 53 1142 52 64
5684 4 3 10 10 0 1142 52 64 63
5685 4 3 10 10 0 1142 63 64 1153
5686 4 3 10 10 0 1142 1141 52 63
5687 4 3 10 10 0 1142 1141 63 1153
5688 4 3 10 10 0 1141 63 1153 1152
5689 4 3 10 10 0 54 1143 53 65
5690 4 3 10 10 0 1143 53 65 64
5691 4 3 10 10 0 1143 64 65 1154
5692 4 3 10 10 0 1143 1142 53 64
5693 4 3 10 10 0 1143 1142 64 1154
5694 4 3 10 10 0 1142 64 1154 1153
5695 4 3 10 10 0 45 1134 54 56
5696 4 3 10 10 0 1134 54 56 65
5697 4 3 10 10 0 1134 65 56 1145
5698 4 3 10 10 0 1134 1143 54 65
5699 4 3 10 10 0 1134 1143 65 1145
5700 4 3 10 10 0 1143 65 1145 1154
5743 4 3 10 10 0 64 1153 63 75
5744 4 3 10 10 0 1153 63 75 74
5745 4 3 10 10 0 1153 74 75 1164
5746 4 3 10 10 0 1153 1152 63 74
5747 4 3 10 10 0 1153 1152 74 1164
5748 4 3 10 10 0 1152 74 1164 1163
5749 4 3 10 10 0 65 1154 64 76
5750 4 3 10 10 0 1154 64 76 75
5751 4 3 10 10 0 1154 75 76 1165
5752 4 3 10 10 0 1154 1153 64 75
5753 4 3 10 10 0 1154 1153 75 1165
5754 4 3 10 10 0 1153 75 1165 1164
5755 4 3 10 10 0 56 1145 65 67
5756 4 3 10 10 0 1145 65 67 76
5757 4 3 10 10 0 1145 76 67 1156
5758 4 3 10 10 0 1145 1154 65 76
5759 4 3 10 10 0 1145 1154 76 1156
5760 4 3 10 10 0 1154 76 1156 1165
5809 4 3 10 10 0 76 1165 75 87
5810 4 3 10 10 0 1165 75 87 86
5811 4 3 10 10 0 1165 86 87 1176
5812 4 3 10 10 0 1165 1164 75 86
5813 4 3 10 10 0 1165 1164 86 1176
5814 4 3 10 10 0 1164 86 1176 1175
5815 4 3 10 10 0 67 1156 76 78
5816 4 3 10 10 0 1156 76 78 87
5817 4 3 10 10 0 1156 87 78 1167
5818 4 3 10 10 0 1156 1165 76 87
5819 4 3 10 10 0 1156 1165 87 1167
5820 4 3 10 10 0 1165 87 1167 1176
$EndElements
