$MeshFormat
2.2 0 8
$EndMeshFormat
$Nodes
239
728 1.0 0.0 6.0
729 2.0 0.0 6.0
730 3.0 0.0 6.0
739 1.0 1.0 6.0
740 2.0 1.0 6.0
741 3.0 1.0 6.0
750 1.0 2.0 6.0
751 2.0 2.0 6.0
752 3.0 2.0 6.0
761 1.0 3.0 6.0
762 2.0 3.0 6.0
763 3.0 3.0 6.0
772 1.0 4.0 6.0
773 2.0 4.0 6.0
774 3.0 4.0 6.0
783 1.0 5.0 6.0
784 2.0 5.0 6.0
785 3.0 5.0 6.0
794 1.0 6.0 6.0
795 2.0 6.0 6.0
796 3.0 6.0 6.0
848 0.0 0.0 7.0
849 1.0 0.0 7.0
850 2.0 0.0 7.0
851 3.0 0.0 7.0
852 4.0 0.0 7.0
853 5.0 0.0 7.0
859 0.0 1.0 7.0
860 1.0 1.0 7.0
861 2.0 1.0 7.0
862 3.0 1.0 7.0
863 4.0 1.0 7.0
864 5.0 1.0 7.0
870 0.0 2.0 7.0
871 1.0 2.0 7.0
872 2.0 2.0 7.0
873 3.0 2.0 7.0
874 4.0 2.0 7.0
875 5.0 2.0 7.0
881 0.0 3.0 7.0
882 1.0 3.0 7.0
883 2.0 3.0 7.0
884 3.0 3.0 7.0
885 4.0 3.0 7.0
892 0.0 4.0 7.0
893 1.0 4.0 7.0
894 2.0 4.0 7.0
895 3.0 4.0 7.0
896 4.0 4.0 7.0
903 0.0 5.0 7.0
904 1.0 5.0 7.0
905 2.0 5.0 7.0
906 3.0 5.0 7.0
907 4.0 5.0 7.0
908 5.0 5.0 7.0
914 0.0 6.0 7.0
915 1.0 6.0 7.0
916 2.0 6.0 7.0
917 3.0 6.0 7.0
918 4.0 6.0 7.0
919 5.0 6.0 7.0
926 1.0 7.0 7.0
927 2.0 7.0 7.0
928 3.0 7.0 7.0
929 4.0 7.0 7.0
969 0.0 0.0 8.0
970 1.0 0.0 8.0
971 2.0 0.0 8.0
972 3.0 0.0 8.0
973 4.0 0.0 8.0
974 5.0 0.0 8.0
975 6.0 0.0 8.0
980 0.0 1.0 8.0
981 1.0 1.0 8.0
982 2.0 1.0 8.0
983 3.0 1.0 8.0
984 4.0 1.0 8.0
985 5.0 1.0 8.0
986 6.0 1.0 8.0
991 0.0 2.0 8.0
992 1.0 2.0 8.0
993 2.0 2.0 8.0
994 3.0 2.0 8.0
995 4.0 2.0 8.0
996 5.0 2.0 8.0
997 6.0 2.0 8.0
1002 0.0 3.0 8.0
1003 1.0 3.0 8.0
1004 2.0 3.0 8.0
1005 3.0 3.0 8.0
1006 4.0 3.0 8.0
1007 5.0 3.0 8.0
1008 6.0 3.0 8.0
1013 0.0 4.0 8.0
1014 1.0 4.0 8.0
1015 2.0 4.0 8.0
1016 3.0 4.0 8.0
1017 4.0 4.0 8.0
1018 5.0 4.0 8.0
1019 6.0 4.0 8.0
1024 0.0 5.0 8.0
1025 1.0 5.0 8.0
1026 2.0 5.0 8.0
1027 3.0 5.0 8.0
1028 4.0 5.0 8.0
1029 5.0 5.0 8.0
1030 6.0 5.0 8.0
1035 0.0 6.0 8.0
1036 1.0 6.0 8.0
1037 2.0 6.0 8.0
1038 3.0 6.0 8.0
1039 4.0 6.0 8.0
1040 5.0 6.0 8.0
1041 6.0 6.0 8.0
1046 0.0 7.0 8.0
1047 1.0 7.0 8.0
1048 2.0 7.0 8.0
1049 3.0 7.0 8.0
1050 4.0 7.0 8.0
1060 3.0 8.0 8.0
1061 4.0 8.0 8.0
1090 0.0 0.0 9.0
1091 1.0 0.0 9.0
1092 2.0 0.0 9.0
1093 3.0 0.0 9.0
1094 4.0 0.0 9.0
1095 5.0 0.0 9.0
1096 6.0 0.0 9.0
1097 7.0 0.0 9.0
1101 0.0 1.0 9.0
1102 1.0 1.0 9.0
1103 2.0 1.0 9.0
1104 3.0 1.0 9.0
1105 4.0 1.0 9.0
1106 5.0 1.0 9.0
1107 6.0 1.0 9.0
1108 7.0 1.0 9.0
1112 0.0 2.0 9.0
1113 1.0 2.0 9.0
1114 2.0 2.0 9.0
1115 3.0 2.0 9.0
1116 4.0 2.0 9.0
1117 5.0 2.0 9.0
1118 6.0 2.0 9.0
1119 7.0 2.0 9.0
1123 0.0 3.0 9.0
1124 1.0 3.0 9.0
1125 2.0 3.0 9.0
1126 3.0 3.0 9.0
1127 4.0 3.0 9.0
1128 5.0 3.0 9.0
1129 6.0 3.0 9.0
1134 0.0 4.0 9.0
1135 1.0 4.0 9.0
1136 2.0 4.0 9.0
1137 3.0 4.0 9.0
1138 4.0 4.0 9.0
1139 5.0 4.0 9.0
1140 6.0 4.0 9.0
1145 0.0 5.0 9.0
1146 1.0 5.0 9.0
1147 2.0 5.0 9.0
1148 3.0 5.0 9.0
1149 4.0 5.0 9.0
1150 5.0 5.0 9.0
1151 6.0 5.0 9.0
1156 0.0 6.0 9.0
1157 1.0 6.0 9.0
1158 2.0 6.0 9.0
1159 3.0 6.0 9.0
1160 4.0 6.0 9.0
1161 5.0 6.0 9.0
1162 6.0 6.0 9.0
1167 0.0 7.0 9.0
1168 1.0 7.0 9.0
1169 2.0 7.0 9.0
1170 3.0 7.0 9.0
1171 4.0 7.0 9.0
1181 3.0 8.0 9.0
1182 4.0 8.0 9.0
1211 0.0 0.0 10.0
2 1.0 0.0 10.0
3 2.0 0.0 10.0
4 3.0 0.0 10.0
5 4.0 0.0 10.0
6 5.0 0.0 10.0
7 6.0 0.0 10.0
8 7.0 0.0 10.0
12 0.0 1.0 10.0
13 1.0 1.0 10.0
14 2.0 1.0 10.0
15 3.0 1.0 10.0
16 4.0 1.0 10.0
17 5.0 1.0 10.0
18 6.0 1.0 10.0
19 7.0 1.0 10.0
23 0.0 2.0 10.0
24 1.0 2.0 10.0
25 2.0 2.0 10.0
26 3.0 2.0 10.0
27 4.0 2.0 10.0
28 5.0 2.0 10.0
29 6.0 2.0 10.0
30 7.0 2.0 10.0
34 0.0 3.0 10.0
35 1.0 3.0 10.0
36 2.0 3.0 10.0
37 3.0 3.0 10.0
38 4.0 3.0 10.0
39 5.0 3.0 10.0
40 6.0 3.0 10.0
45 0.0 4.0 10.0
46 1.0 4.0 10.0
47 2.0 4.0 10.0
48 3.0 4.0 10.0
49 4.0 4.0 10.0
50 5.0 4.0 10.0
51 6.0 4.0 10.0
56 0.0 5.0 10.0
57 1.0 5.0 10.0
58 2.0 5.0 10.0
59 3.0 5.0 10.0
60 4.0 5.0 10.0
61 5.0 5.0 10.0
62 6.0 5.0 10.0
67 0.0 6.0 10.0
68 1.0 6.0 10.0
69 2.0 6.0 10.0
70 3.0 6.0 10.0
71 4.0 6.0 10.0
72 5.0 6.0 10.0
73 6.0 6.0 10.0
78 0.0 7.0 10.0
79 1.0 7.0 10.0
80 2.0 7.0 10.0
81 3.0 7.0 10.0
82 4.0 7.0 10.0
92 3.0 8.0 10.0
93 4.0 8.0 10.0
$EndNodes
$Elements
756
3607 4 3 8 8 0 850 729 849 861
3608 4 3 8 8 0 729 849 861 860
3609 4 3 8 8 0 729 860 861 740
3610 4 3 8 8 0 729 728 849 860
3611 4 3 8 8 0 729 728 860 740
3612 4 3 8 8 0 728 860 740 739
3613 4 3 8 8 0 851 730 850 862
3614 4 3 8 8 0 730 850 862 861
3615 4 3 8 8 0 730 861 862 741
3616 4 3 8 8 0 730 729 850 861
3617 4 3 8 8 0 730 729 861 741
3618 4 3 8 8 0 729 861 741 740
3667 4 3 8 8 0 861 740 860 872
3668 4 3 8 8 0 740 860 872 871
3669 4 3 8 8 0 740 871 872 751
3670 4 3 8 8 0 740 739 860 871
3671 4 3 8 8 0 740 739 871 751
3672 4 3 8 8 0 739 871 751 750
3673 4 3 8 8 0 862 741 861 873
3674 4 3 8 8 0 741 861 873 872
3675 4 3 8 8 0 741 872 873 752
3676 4 3 8 8 0 741 740 861 872
3677 4 3 8 8 0 741 740 872 752
3678 4 3 8 8 0 740 872 752 751
3727 4 3 8 8 0 872 751 871 883
3728 4 3 8 8 0 751 871 883 882
3729 4 3 8 8 0 751 882 883 762
3730 4 3 8 8 0 751 750 871 882
3731 4 3 8 8 0 751 750 882 762
3732 4 3 8 8 0 750 882 762 761
3733 4 3 8 8 0 873 752 872 884
3734 4 3 8 8 0 752 872 884 883
3735 4 3 8 8 0 752 883 884 763
3736 4 3 8 8 0 752 751 872 883
3737 4 3 8 8 0 752 751 883 763
3738 4 3 8 8 0 751 883 763 762
3787 4 3 8 8 0 883 762 882 894
3788 4 3 8 8 0 762 882 894 893
3789 4 3 8 8 0 762 893 894 773
3790 4 3 8 8 0 762 761 882 893
3791 4 3 8 8 0 762 761 893 773
3792 4 3 8 8 0 761 893 773 772
3793 4 3 8 8 0 884 763 883 895
3794 4 3 8 8 0 763 883 895 894
3795 4 3 8 8 0 763 894 895 774
3796 4 3 8 8 0 763 762 883 894
3797 4 3 8 8 0 763 762 894 774
3798 4 3 8 8 0 762 894 774 773
3847 4 3 8 8 0 894 773 893 905
3848 4 3 8 8 0 773 893 905 904
3849 4 3 8 8 0 773 904 905 784
3850 4 3 8 8 0 773 772 893 904
3851 4 3 8 8 0 773 772 904 784
3852 4 3 8 8 0 772 904 784 783
3853 4 3 8 8 0 895 774 894 906
3854 4 3 8 8 0 774 894 906 905
3855 4 3 8 8 0 774 905 906 785
3856 4 3 8 8 0 774 773 894 905
3857 4 3 8 8 0 774 773 905 785
3858 4 3 8 8 0 773 905 785 784
3907 4 3 8 8 0 905 784 904 916
3908 4 3 8 8 0 784 904 916 915
3909 4 3 8 8 0 784 915 916 795
3910 4 3 8 8 0 784 783 904 915
3911 4 3 8 8 0 784 783 915 795
3912 4 3 8 8 0 783 915 795 794
3913 4 3 8 8 0 906 785 905 917
3914 4 3 8 8 0 785 905 917 916
3915 4 3 8 8 0 785 916 917 796
3916 4 3 8 8 0 785 784 905 916
3917 4 3 8 8 0 785 784 916 796
3918 4 3 8 8 0 784 916 796 795
4201 4 3 8 8 0 970 849 969 981
4202 4 3 8 8 0 849 969 981 980
4203 4 3 8 8 0 849 980 981 860
4204 4 3 8 8 0 849 848 969 980
4205 4 3 8 8 0 849 848 980 860
4206 4 3 8 8 0 848 980 860 859
4207 4 3 8 8 0 971 850 970 982
4208 4 3 8 8 0 850 970 982 981
4209 4 3 8 8 0 850 981 982 861
4210 4 3 8 8 0 850 849 970 981
4211 4 3 8 8 0 850 849 981 861
4212 4 3 8 8 0 849 981 861 860
4213 4 3 8 8 0 972 851 971 983
4214 4 3 8 8 0 851 971 983 982
4215 4 3 8 8 0 851 982 983 862
4216 4 3 8 8 0 851 850 971 982
4217 4 3 8 8 0 851 850 982 862
4218 4 3 8 8 0 850 982 862 861
4219 4 3 8 8 0 973 852 972 984
4220 4 3 8 8 0 852 972 984 983
4221 4 3 8 8 0 852 983 984 863
4222 4 3 8 8 0 852 851 972 983
4223 4 3 8 8 0 852 851 983 863
4224 4 3 8 8 0 851 983 863 862
4225 4 3 8 8 0 974 853 973 985
4226 4 3 8 8 0 853 973 985 984
4227 4 3 8 8 0 853 984 985 864
4228 4 3 8 8 0 853 852 973 984
4229 4 3 8 8 0 853 852 984 864
4230 4 3 8 8 0 852 984 864 863
4261 4 3 8 8 0 981 860 980 992
4262 4 3 8 8 0 860 980 992 991
4263 4 3 8 8 0 860 991 992 871
4264 4 3 8 8 0 860 859 980 991
4265 4 3 8 8 0 860 859 991 871
4266 4 3 8 8 0 859 991 871 870
4267 4 3 8 8 0 982 861 981 993
4268 4 3 8 8 0 861 981 993 992
4269 4 3 8 8 0 861 992 993 872
4270 4 3 8 8 0 861 860 981 992
4271 4 3 8 8 0 861 860 992 872
4272 4 3 8 8 0 860 992 872 871
4273 4 3 8 8 0 983 862 982 994
4274 4 3 8 8 0 862 982 994 993
4275 4 3 8 8 0 862 993 994 873
4276 4 3 8 8 0 862 861 982 993
4277 4 3 8 8 0 862 861 993 873
4278 4 3 8 8 0 861 993 873 872
4279 4 3 8 8 0 984 863 983 995
4280 4 3 8 8 0 863 983 995 994
4281 4 3 8 8 0 863 994 995 874
4282 4 3 8 8 0 863 862 983 994
4283 4 3 8 8 0 863 862 994 874
4284 4 3 8 8 0 862 994 874 873
4285 4 3 8 8 0 985 864 984 996
4286 4 3 8 8 0 864 984 996 995
4287 4 3 8 8 0 864 995 996 875
4288 4 3 8 8 0 864 863 984 995
4289 4 3 8 8 0 864 863 995 875
4290 4 3 8 8 0 863 995 875 874
4321 4 3 8 8 0 992 871 991 1003
4322 4 3 8 8 0 871 991 1003 1002
4323 4 3 8 8 0 871 1002 1003 882
4324 4 3 8 8 0 871 870 991 1002
4325 4 3 8 8 0 871 870 1002 882
4326 4 3 8 8 0 870 1002 882 881
4327 4 3 8 8 0 993 872 992 1004
4328 4 3 8 8 0 872 992 1004 1003
4329 4 3 8 8 0 872 1003 1004 883
4330 4 3 8 8 0 872 871 992 1003
4331 4 3 8 8 0 872 871 1003 883
4332 4 3 8 8 0 871 1003 883 882
4333 4 3 8 8 0 994 873 993 1005
4334 4 3 8 8 0 873 993 1005 1004
4335 4 3 8 8 0 873 1004 1005 884
4336 4 3 8 8 0 873 872 993 1004
4337 4 3 8 8 0 873 872 1004 884
4338 4 3 8 8 0 872 1004 884 883
4339 4 3 8 8 0 995 874 994 1006
4340 4 3 8 8 0 874 994 1006 1005
4341 4 3 8 8 0 874 1005 1006 885
4342 4 3 8 8 0 874 873 994 1005
4343 4 3 8 8 0 874 873 1005 885
4344 4 3 8 8 0 873 1005 885 884
4381 4 3 8 8 0 1003 882 1002 1014
4382 4 3 8 8 0 882 1002 1014 1013
4383 4 3 8 8 0 882 1013 1014 893
4384 4 3 8 8 0 882 881 1002 1013
4385 4 3 8 8 0 882 881 1013 893
4386 4 3 8 8 0 881 1013 893 892
4387 4 3 8 8 0 1004 883 1003 1015
4388 4 3 8 8 0 883 1003 1015 1014
4389 4 3 8 8 0 883 1014 1015 894
4390 4 3 8 8 0 883 882 1003 1014
4391 4 3 8 8 0 883 882 1014 894
4392 4 3 8 8 0 882 1014 894 893
4393 4 3 8 8 0 1005 884 1004 1016
4394 4 3 8 8 0 884 1004 1016 1015
4395 4 3 8 8 0 884 1015 1016 895
4396 4 3 8 8 0 884 883 1004 1015
4397 4 3 8 8 0 884 883 1015 895
4398 4 3 8 8 0 883 1015 895 894
4399 4 3 8 8 0 1006 885 1005 1017
4400 4 3 8 8 0 885 1005 1017 1016
4401 4 3 8 8 0 885 1016 1017 896
4402 4 3 8 8 0 885 884 1005 1016
4403 4 3 8 8 0 885 884 1016 896
4404 4 3 8 8 0 884 1016 896 895
4441 4 3 8 8 0 1014 893 1013 1025
4442 4 3 8 8 0 893 1013 1025 1024
4443 4 3 8 8 0 893 1024 1025 904
4444 4 3 8 8 0 893 892 1013 1024
4445 4 3 8 8 0 893 892 1024 904
4446 4 3 8 8 0 892 1024 904 903
4447 4 3 8 8 0 1015 894 1014 1026
4448 4 3 8 8 0 894 1014 1026 1025
4449 4 3 8 8 0 894 1025 1026 905
4450 4 3 8 8 0 894 893 1014 1025
4451 4 3 8 8 0 894 893 1025 905
4452 4 3 8 8 0 893 1025 905 904
4453 4 3 8 8 0 1016 895 1015 1027
4454 4 3 8 8 0 895 1015 1027 1026
4455 4 3 8 8 0 895 1026 1027 906
4456 4 3 8 8 0 895 894 1015 1026
4457 4 3 8 8 0 895 894 1026 906
4458 4 3 8 8 0 894 1026 906 905
4459 4 3 8 8 0 1017 896 1016 1028
4460 4 3 8 8 0 896 1016 1028 1027
4461 4 3 8 8 0 896 1027 1028 907
4462 4 3 8 8 0 896 895 1016 1027
4463 4 3 8 8 0 896 895 1027 907
4464 4 3 8 8 0 895 1027 907 906
4501 4 3 8 8 0 1025 904 1024 1036
4502 4 3 8 8 0 904 1024 1036 1035
4503 4 3 8 8 0 904 1035 1036 915
4504 4 3 8 8 0 904 903 1024 1035
4505 4 3 8 8 0 904 903 1035 915
4506 4 3 8 8 0 903 1035 915 914
4507 4 3 8 8 0 1026 905 1025 1037
4508 4 3 8 8 0 905 1025 1037 1036
4509 4 3 8 8 0 905 1036 1037 916
4510 4 3 8 8 0 905 904 1025 1036
4511 4 3 8 8 0 905 904 1036 916
4512 4 3 8 8 0 904 1036 916 915
4513 4 3 8 8 0 1027 906 1026 1038
4514 4 3 8 8 0 906 1026 1038 1037
4515 4 3 8 8 0 906 1037 1038 917
4516 4 3 8 8 0 906 905 1026 1037
4517 4 3 8 8 0 906 905 1037 917
4518 4 3 8 8 0 905 1037 917 916
4519 4 3 8 8 0 1028 907 1027 1039
4520 4 3 8 8 0 907 1027 1039 1038
4521 4 3 8 8 0 907 1038 1039 918
4522 4 3 8 8 0 907 906 1027 1038
4523 4 3 8 8 0 907 906 1038 918
4524 4 3 8 8 0 906 1038 918 917
4525 4 3 8 8 0 1029 908 1028 1040
4526 4 3 8 8 0 908 1028 1040 1039
4527 4 3 8 8 0 908 1039 1040 919
4528 4 3 8 8 0 908 907 1028 1039
4529 4 3 8 8 0 908 907 1039 919
4530 4 3 8 8 0 907 1039 919 918
4567 4 3 8 8 0 1037 916 1036 1048
4568 4 3 8 8 0 916 1036 1048 1047
4569 4 3 8 8 0 916 1047 1048 927
4570 4 3 8 8 0 916 915 1036 1047
4571 4 3 8 8 0 916 915 1047 927
4572 4 3 8 8 0 915 1047 927 926
4573 4 3 8 8 0 1038 917 1037 1049
4574 4 3 8 8 0 917 1037 1049 1048
4575 4 3 8 8 0 917 1048 1049 928
4576 4 3 8 8 0 917 916 1037 1048
4577 4 3 8 8 0 917 916 1048 928
4578 4 3 8 8 0 916 1048 928 927
4579 4 3 8 8 0 1039 918 1038 1050
4580 4 3 8 8 0 918 1038 1050 1049
4581 4 3 8 8 0 918 1049 1050 929
4582 4 3 8 8 0 918 917 1038 1049
4583 4 3 8 8 0 918 917 1049 929
4584 4 3 8 8 0 917 1049 929 928
4801 4 3 8 8 0 1091 970 1090 1102
4802 4 3 8 8 0 970 1090 1102 1101
4803 4 3 8 8 0 970 1101 1102 981
4804 4 3 8 8 0 970 969 1090 1101
4805 4 3 8 8 0 970 969 1101 981
4806 4 3 8 8 0 969 1101 981 980
4807 4 3 8 8 0 1092 971 1091 1103
4808 4 3 8 8 0 971 1091 1103 1102
4809 4 3 8 8 0 971 1102 1103 982
4810 4 3 8 8 0 971 970 1091 1102
4811 4 3 8 8 0 971 970 1102 982
4812 4 3 8 8 0 970 1102 982 981
4813 4 3 8 8 0 1093 972 1092 1104
4814 4 3 8 8 0 972 1092 1104 1103
4815 4 3 8 8 0 972 1103 1104 983
4816 4 3 8 8 0 972 971 1092 1103
4817 4 3 8 8 0 972 971 1103 983
4818 4 3 8 8 0 971 1103 983 982
4819 4 3 8 8 0 1094 973 1093 1105
4820 4 3 8 8 0 973 1093 1105 1104
4821 4 3 8 8 0 973 1104 1105 984
4822 4 3 8 8 0 973 972 1093 1104
4823 4 3 8 8 0 973 972 1104 984
4824 4 3 8 8 0 972 1104 984 983
4825 4 3 8 8 0 1095 974 1094 1106
4826 4 3 8 8 0 974 1094 1106 1105
4827 4 3 8 8 0 974 1105 1106 985
4828 4 3 8 8 0 974 973 1094 1105
4829 4 3 8 8 0 974 973 1105 985
4830 4 3 8 8 0 973 1105 985 984
4831 4 3 8 8 0 1096 975 1095 1107
4832 4 3 8 8 0 975 1095 1107 1106
4833 4 3 8 8 0 975 1106 1107 986
4834 4 3 8 8 0 975 974 1095 1106
4835 4 3 8 8 0 975 974 1106 986
4836 4 3 8 8 0 974 1106 986 985
4861 4 3 8 8 0 1102 981 1101 1113
4862 4 3 8 8 0 981 1101 1113 1112
4863 4 3 8 8 0 981 1112 1113 992
4864 4 3 8 8 0 981 980 1101 1112
4865 4 3 8 8 0 981 980 1112 992
4866 4 3 8 8 0 980 1112 992 991
4867 4 3 8 8 0 1103 982 1102 1114
4868 4 3 8 8 0 982 1102 1114 1113
4869 4 3 8 8 0 982 1113 1114 993
4870 4 3 8 8 0 982 981 1102 1113
4871 4 3 8 8 0 982 981 1113 993
4872 4 3 8 8 0 981 1113 993 992
4873 4 3 8 8 0 1104 983 1103 1115
4874 4 3 8 8 0 983 1103 1115 1114
4875 4 3 8 8 0 983 1114 1115 994
4876 4 3 8 8 0 983 982 1103 1114
4877 4 3 8 8 0 983 982 1114 994
4878 4 3 8 8 0 982 1114 994 993
4879 4 3 8 8 0 1105 984 1104 1116
4880 4 3 8 8 0 984 1104 1116 1115
4881 4 3 8 8 0 984 1115 1116 995
4882 4 3 8 8 0 984 983 1104 1115
4883 4 3 8 8 0 984 983 1115 995
4884 4 3 8 8 0 983 1115 995 994
4885 4 3 8 8 0 1106 985 1105 1117
4886 4 3 8 8 0 985 1105 1117 1116
4887 4 3 8 8 0 985 1116 1117 996
4888 4 3 8 8 0 985 984 1105 1116
4889 4 3 8 8 0 985 984 1116 996
4890 4 3 8 8 0 984 1116 996 995
4891 4 3 8 8 0 1107 986 1106 1118
4892 4 3 8 8 0 986 1106 1118 1117
4893 4 3 8 8 0 986 1117 1118 997
4894 4 3 8 8 0 986 985 1106 1117
4895 4 3 8 8 0 986 985 1117 997
4896 4 3 8 8 0 985 1117 997 996
4921 4 3 8 8 0 1113 992 1112 1124
4922 4 3 8 8 0 992 1112 1124 1123
4923 4 3 8 8 0 992 1123 1124 1003
4924 4 3 8 8 0 992 991 1112 1123
4925 4 3 8 8 0 992 991 1123 1003
4926 4 3 8 8 0 991 1123 1003 1002
4927 4 3 8 8 0 1114 993 1113 1125
4928 4 3 8 8 0 993 1113 1125 1124
4929 4 3 8 8 0 993 1124 1125 1004
4930 4 3 8 8 0 993 992 1113 1124
4931 4 3 8 8 0 993 992 1124 1004
4932 4 3 8 8 0 992 1124 1004 1003
4933 4 3 8 8 0 1115 994 1114 1126
4934 4 3 8 8 0 994 1114 1126 1125
4935 4 3 8 8 0 994 1125 1126 1005
4936 4 3 8 8 0 994 993 1114 1125
4937 4 3 8 8 0 994 993 1125 1005
4938 4 3 8 8 0 993 1125 1005 1004
4939 4 3 8 8 0 1116 995 1115 1127
4940 4 3 8 8 0 995 1115 1127 1126
4941 4 3 8 8 0 995 1126 1127 1006
4942 4 3 8 8 0 995 994 1115 1126
4943 4 3 8 8 0 995 994 1126 1006
4944 4 3 8 8 0 994 1126 1006 1005
4945 4 3 8 8 0 1117 996 1116 1128
4946 4 3 8 8 0 996 1116 1128 1127
4947 4 3 8 8 0 996 1127 1128 1007
4948 4 3 8 8 0 996 995 1116 1127
4949 4 3 8 8 0 996 995 1127 1007
4950 4 3 8 8 0 995 1127 1007 1006
4951 4 3 8 8 0 1118 997 1117 1129
4952 4 3 8 8 0 997 1117 1129 1128
4953 4 3 8 8 0 997 1128 1129 1008
4954 4 3 8 8 0 997 996 1117 1128
4955 4 3 8 8 0 997 996 1128 1008
4956 4 3 8 8 0 996 1128 1008 1007
4981 4 3 8 8 0 1124 1003 1123 1135
4982 4 3 8 8 0 1003 1123 1135 1134
4983 4 3 8 8 0 1003 1134 1135 1014
4984 4 3 8 8 0 1003 1002 1123 1134
4985 4 3 8 8 0 1003 1002 1134 1014
4986 4 3 8 8 0 1002 1134 1014 1013
4987 4 3 8 8 0 1125 1004 1124 1136
4988 4 3 8 8 0 1004 1124 1136 1135
4989 4 3 8 8 0 1004 1135 1136 1015
4990 4 3 8 8 0 1004 1003 1124 1135
4991 4 3 8 8 0 1004 1003 1135 1015
4992 4 3 8 8 0 1003 1135 1015 1014
4993 4 3 8 8 0 1126 1005 1125 1137
4994 4 3 8 8 0 1005 1125 1137 1136
4995 4 3 8 8 0 1005 1136 1137 1016
4996 4 3 8 8 0 1005 1004 1125 1136
4997 4 3 8 8 0 1005 1004 1136 1016
4998 4 3 8 8 0 1004 1136 1016 1015
4999 4 3 8 8 0 1127 1006 1126 1138
5000 4 3 8 8 0 1006 1126 1138 1137
5001 4 3 8 8 0 1006 1137 1138 1017
5002 4 3 8 8 0 1006 1005 1126 1137
5003 4 3 8 8 0 1006 1005 1137 1017
5004 4 3 8 8 0 1005 1137 1017 1016
5005 4 3 8 8 0 1128 1007 1127 1139
5006 4 3 8 8 0 1007 1127 1139 1138
5007 4 3 8 8 0 1007 1138 1139 1018
5008 4 3 8 8 0 1007 1006 1127 1138
5009 4 3 8 8 0 1007 1006 1138 1018
5010 4 3 8 8 0 1006 1138 1018 1017
5011 4 3 8 8 0 1129 1008 1128 1140
5012 4 3 8 8 0 1008 1128 1140 1139
5013 4 3 8 8 0 1008 1139 1140 1019
5014 4 3 8 8 0 1008 1007 1128 1139
5015 4 3 8 8 0 1008 1007 1139 1019
5016 4 3 8 8 0 1007 1139 1019 1018
5041 4 3 8 8 0 1135 1014 1134 1146
5042 4 3 8 8 0 1014 1134 1146 1145
5043 4 3 8 8 0 1014 1145 1146 1025
5044 4 3 8 8 0 1014 1013 1134 1145
5045 4 3 8 8 0 1014 1013 1145 1025
5046 4 3 8 8 0 1013 1145 1025 1024
5047 4 3 8 8 0 1136 1015 1135 1147
5048 4 3 8 8 0 1015 1135 1147 1146
5049 4 3 8 8 0 1015 1146 1147 1026
5050 4 3 8 8 0 1015 1014 1135 1146
5051 4 3 8 8 0 1015 1014 1146 1026
5052 4 3 8 8 0 1014 1146 1026 1025
5053 4 3 8 8 0 1137 1016 1136 1148
5054 4 3 8 8 0 1016 1136 1148 1147
5055 4 3 8 8 0 1016 1147 1148 1027
5056 4 3 8 8 0 1016 1015 1136 1147
5057 4 3 8 8 0 1016 1015 1147 1027
5058 4 3 8 8 0 1015 1147 1027 1026
5059 4 3 8 8 0 1138 1017 1137 1149
5060 4 3 8 8 0 1017 1137 1149 1148
5061 4 3 8 8 0 1017 1148 1149 1028
5062 4 3 8 8 0 1017 1016 1137 1148
5063 4 3 8 8 0 1017 1016 1148 1028
5064 4 3 8 8 0 1016 1148 1028 1027
5065 4 3 8 8 0 1139 1018 1138 1150
5066 4 3 8 8 0 1018 1138 1150 1149
5067 4 3 8 8 0 1018 1149 1150 1029
5068 4 3 8 8 0 1018 1017 1138 1149
5069 4 3 8 8 0 1018 1017 1149 1029
5070 4 3 8 8 0 1017 1149 1029 1028
5071 4 3 8 8 0 1140 1019 1139 1151
5072 4 3 8 8 0 1019 1139 1151 1150
5073 4 3 8 8 0 1019 1150 1151 1030
5074 4 3 8 8 0 1019 1018 1139 1150
5075 4 3 8 8 0 1019 1018 1150 1030
5076 4 3 8 8 0 1018 1150 1030 1029
5101 4 3 8 8 0 1146 1025 1145 1157
5102 4 3 8 8 0 1025 1145 1157 1156
5103 4 3 8 8 0 1025 1156 1157 1036
5104 4 3 8 8 0 1025 1024 1145 1156
5105 4 3 8 8 0 1025 1024 1156 1036
5106 4 3 8 8 0 1024 1156 1036 1035
5107 4 3 8 8 0 1147 1026 1146 1158
5108 4 3 8 8 0 1026 1146 1158 1157
5109 4 3 8 8 0 1026 1157 1158 1037
5110 4 3 8 8 0 1026 1025 1146 1157
5111 4 3 8 8 0 1026 1025 1157 1037
5112 4 3 8 8 0 1025 1157 1037 1036
5113 4 3 8 8 0 1148 1027 1147 1159
5114 4 3 8 8 0 1027 1147 1159 1158
5115 4 3 8 8 0 1027 1158 1159 1038
5116 4 3 8 8 0 1027 1026 1147 1158
5117 4 3 8 8 0 1027 1026 1158 1038
5118 4 3 8 8 0 1026 1158 1038 1037
5119 4 3 8 8 0 1149 1028 1148 1160
5120 4 3 8 8 0 1028 1148 1160 1159
5121 4 3 8 8 0 1028 1159 1160 1039
5122 4 3 8 8 0 1028 1027 1148 1159
5123 4 3 8 8 0 1028 1027 1159 1039
5124 4 3 8 8 0 1027 1159 1039 1038
5125 4 3 8 8 0 1150 1029 1149 1161
5126 4 3 8 8 0 1029 1149 1161 1160
5127 4 3 8 8 0 1029 1160 1161 1040
5128 4 3 8 8 0 1029 1028 1149 1160
5129 4 3 8 8 0 1029 1028 1160 1040
5130 4 3 8 8 0 1028 1160 1040 1039
5131 4 3 8 8 0 1151 1030 1150 1162
5132 4 3 8 8 0 1030 1150 1162 1161
5133 4 3 8 8 0 1030 1161 1162 1041
5134 4 3 8 8 0 1030 1029 1150 1161
5135 4 3 8 8 0 1030 1029 1161 1041
5136 4 3 8 8 0 1029 1161 1041 1040
5161 4 3 8 8 0 1157 1036 1156 1168
5162 4 3 8 8 0 1036 1156 1168 1167
5163 4 3 8 8 0 1036 1167 1168 1047
5164 4 3 8 8 0 1036 1035 1156 1167
5165 4 3 8 8 0 1036 1035 1167 1047
5166 4 3 8 8 0 1035 1167 1047 1046
5167 4 3 8 8 0 1158 1037 1157 1169
5168 4 3 8 8 0 1037 1157 1169 1168
5169 4 3 8 8 0 1037 1168 1169 1048
5170 4 3 8 8 0 1037 1036 1157 1168
5171 4 3 8 8 0 1037 1036 1168 1048
5172 4 3 8 8 0 1036 1168 1048 1047
5173 4 3 8 8 0 1159 1038 1158 1170
5174 4 3 8 8 0 1038 1158 1170 1169
5175 4 3 8 8 0 1038 1169 1170 1049
5176 4 3 8 8 0 1038 1037 1158 1169
5177 4 3 8 8 0 1038 1037 1169 1049
5178 4 3 8 8 0 1037 1169 1049 1048
5179 4 3 8 8 0 1160 1039 1159 1171
5180 4 3 8 8 0 1039 1159 1171 1170
5181 4 3 8 8 0 1039 1170 1171 1050
5182 4 3 8 8 0 1039 1038 1159 1170
5183 4 3 8 8 0 1039 1038 1170 1050
5184 4 3 8 8 0 1038 1170 1050 1049
5239 4 3 8 8 0 1171 1050 1170 1182
5240 4 3 8 8 0 1050 1170 1182 1181
5241 4 3 8 8 0 1050 1181 1182 1061
5242 4 3 8 8 0 1050 1049 1170 1181
5243 4 3 8 8 0 1050 1049 1181 1061
5244 4 3 8 8 0 1049 1181 1061 1060
5401 4 3 8 8 0 2 1091 1211 13
5402 4 3 8 8 0 1091 1211 13 12
5403 4 3 8 8 0 1091 12 13 1102
5404 4 3 8 8 0 1091 1090 1211 12
5405 4 3 8 8 0 1091 1090 12 1102
5406 4 3 8 8 0 1090 12 1102 1101
5407 4 3 8 8 0 3 1092 2 14
5408 4 3 8 8 0 1092 2 14 13
5409 4 3 8 8 0 1092 13 14 1103
5410 4 3 8 8 0 1092 1091 2 13
5411 4 3 8 8 0 1092 1091 13 1103
5412 4 3 8 8 0 1091 13 1103 1102
5413 4 3 8 8 0 4 1093 3 15
5414 4 3 8 8 0 1093 3 15 14
5415 4 3 8 8 0 1093 14 15 1104
5416 4 3 8 8 0 1093 1092 3 14
5417 4 3 8 8 0 1093 1092 14 1104
5418 4 3 8 8 0 1092 14 1104 1103
5419 4 3 8 8 0 5 1094 4 16
5420 4 3 8 8 0 1094 4 16 15
5421 4 3 8 8 0 1094 15 16 1105
5422 4 3 8 8 0 1094 1093 4 15
5423 4 3 8 8 0 1094 1093 15 1105
5424 4 3 8 8 0 1093 15 1105 1104
5425 4 3 8 8 0 6 1095 5 17
5426 4 3 8 8 0 1095 5 17 16
5427 4 3 8 8 0 1095 16 17 1106
5428 4 3 8 8 0 1095 1094 5 16
5429 4 3 8 8 0 1095 1094 16 1106
5430 4 3 8 8 0 1094 16 1106 1105
5431 4 3 8 8 0 7 1096 6 18
5432 4 3 8 8 0 1096 6 18 17
5433 4 3 8 8 0 1096 17 18 1107
5434 4 3 8 8 0 1096 1095 6 17
5435 4 3 8 8 0 1096 1095 17 1107
5436 4 3 8 8 0 1095 17 1107 1106
5437 4 3 8 8 0 8 1097 7 19
5438 4 3 8 8 0 1097 7 19 18
5439 4 3 8 8 0 1097 18 19 1108
5440 4 3 8 8 0 1097 1096 7 18
5441 4 3 8 8 0 1097 1096 18 1108
5442 4 3 8 8 0 1096 18 1108 1107
5461 4 3 8 8 0 13 1102 12 24
5462 4 3 8 8 0 1102 12 24 23
5463 4 3 8 8 0 1102 23 24 1113
5464 4 3 8 8 0 1102 1101 12 23
5465 4 3 8 8 0 1102 1101 23 1113
5466 4 3 8 8 0 1101 23 1113 1112
5467 4 3 8 8 0 14 1103 13 25
5468 4 3 8 8 0 1103 13 25 24
5469 4 3 8 8 0 1103 24 25 1114
5470 4 3 8 8 0 1103 1102 13 24
5471 4 3 8 8 0 1103 1102 24 1114
5472 4 3 8 8 0 1102 24 1114 1113
5473 4 3 8 8 0 15 1104 14 26
5474 4 3 8 8 0 1104 14 26 25
5475 4 3 8 8 0 1104 25 26 1115
5476 4 3 8 8 0 1104 1103 14 25
5477 4 3 8 8 0 1104 1103 25 1115
5478 4 3 8 8 0 1103 25 1115 1114
5479 4 3 8 8 0 16 1105 15 27
5480 4 3 8 8 0 1105 15 27 26
5481 4 3 8 8 0 1105 26 27 1116
5482 4 3 8 8 0 1105 1104 15 26
5483 4 3 8 8 0 1105 1104 26 1116
5484 4 3 8 8 0 1104 26 1116 1115
5485 4 3 8 8 0 17 1106 16 28
5486 4 3 8 8 0 1106 16 28 27
5487 4 3 8 8 0 1106 27 28 1117
5488 4 3 8 8 0 1106 1105 16 27
5489 4 3 8 8 0 1106 1105 27 1117
5490 4 3 8 8 0 1105 27 1117 1116
5491 4 3 8 8 0 18 1107 17 29
5492 4 3 8 8 0 1107 17 29 28
5493 4 3 8 8 0 1107 28 29 1118
5494 4 3 8 8 0 1107 1106 17 28
5495 4 3 8 8 0 1107 1106 28 1118
5496 4 3 8 8 0 1106 28 1118 1117
5497 4 3 8 8 0 19 1108 18 30
5498 4 3 8 8 0 1108 18 30 29
5499 4 3 8 8 0 1108 29 30 1119
5500 4 3 8 8 0 1108 1107 18 29
5501 4 3 8 8 0 1108 1107 29 1119
5502 4 3 8 8 0 1107 29 1119 1118
5521 4 3 8 8 0 24 1113 23 35
5522 4 3 8 8 0 1113 23 35 34
5523 4 3 8 8 0 1113 34 35 1124
5524 4 3 8 8 0 1113 1112 23 34
5525 4 3 8 8 0 1113 1112 34 1124
5526 4 3 8 8 0 1112 34 1124 1123
5527 4 3 8 8 0 25 1114 24 36
5528 4 3 8 8 0 1114 24 36 35
5529 4 3 8 8 0 1114 35 36 1125
5530 4 3 8 8 0 1114 1113 24 35
5531 4 3 8 8 0 1114 1113 35 1125
5532 4 3 8 8 0 1113 35 1125 1124
5533 4 3 8 8 0 26 1115 25 37
5534 4 3 8 8 0 1115 25 37 36
5535 4 3 8 8 0 1115 36 37 1126
5536 4 3 8 8 0 1115 1114 25 36
5537 4 3 8 8 0 1115 1114 36 1126
5538 4 3 8 8 0 1114 36 1126 1125
5539 4 3 8 8 0 27 1116 26 38
5540 4 3 8 8 0 1116 26 38 37
5541 4 3 8 8 0 1116 37 38 1127
5542 4 3 8 8 0 1116 1115 26 37
5543 4 3 8 8 0 1116 1115 37 1127
5544 4 3 8 8 0 1115 37 1127 1126
5545 4 3 8 8 0 28 1117 27 39
5546 4 3 8 8 0 1117 27 39 38
5547 4 3 8 8 0 1117 38 39 1128
5548 4 3 8 8 0 1117 1116 27 38
5549 4 3 8 8 0 1117 1116 38 1128
5550 4 3 8 8 0 1116 38 1128 1127
5551 4 3 8 8 0 29 1118 28 40
5552 4 3 8 8 0 1118 28 40 39
5553 4 3 8 8 0 1118 39 40 1129
5554 4 3 8 8 0 1118 1117 28 39
5555 4 3 8 8 0 1118 1117 39 1129
5556 4 3 8 8 0 1117 39 1129 1128
5581 4 3 8 8 0 35 1124 34 46
5582 4 3 8 8 0 1124 34 46 45
5583 4 3 8 8 0 1124 45 46 1135
5584 4 3 8 8 0 1124 1123 34 45
5585 4 3 8 8 0 1124 1123 45 1135
5586 4 3 8 8 0 1123 45 1135 1134
5587 4 3 8 8 0 36 1125 35 47
5588 4 3 8 8 0 1125 35 47 46
5589 4 3 8 8 0 1125 46 47 1136
5590 4 3 8 8 0 1125 1124 35 46
5591 4 3 8 8 0 1125 1124 46 1136
5592 4 3 8 8 0 1124 46 1136 1135
5593 4 3 8 8 0 37 1126 36 48
5594 4 3 8 8 0 1126 36 48 47
5595 4 3 8 8 0 1126 47 48 1137
5596 4 3 8 8 0 1126 1125 36 47
5597 4 3 8 8 0 1126 1125 47 1137
5598 4 3 8 8 0 1125 47 1137 1136
5599 4 3 8 8 0 38 1127 37 49
5600 4 3 8 8 0 1127 37 49 48
5601 4 3 8 8 0 1127 48 49 1138
5602 4 3 8 8 0 1127 1126 37 48
5603 4 3 8 8 0 1127 1126 48 1138
5604 4 3 8 8 0 1126 48 1138 1137
5605 4 3 8 8 0 39 1128 38 50
5606 4 3 8 8 0 1128 38 50 49
5607 4 3 8 8 0 1128 49 50 1139
5608 4 3 8 8 0 1128 1127 38 49
5609 4 3 8 8 0 1128 1127 49 1139
5610 4 3 8 8 0 1127 49 1139 1138
5611 4 3 8 8 0 40 1129 39 51
5612 4 3 8 8 0 1129 39 51 50
5613 4 3 8 8 0 1129 50 51 1140
5614 4 3 8 8 0 1129 1128 39 50
5615 4 3 8 8 0 1129 1128 50 1140
5616 4 3 8 8 0 1128 50 1140 1139
5641 4 3 8 8 0 46 1135 45 57
5642 4 3 8 8 0 1135 45 57 56
5643 4 3 8 8 0 1135 56 57 1146
5644 4 3 8 8 0 1135 1134 45 56
5645 4 3 8 8 0 1135 1134 56 1146
5646 4 3 8 8 0 1134 56 1146 1145
5647 4 3 8 8 0 47 1136 46 58
5648 4 3 8 8 0 1136 46 58 57
5649 4 3 8 8 0 1136 57 58 1147
5650 4 3 8 8 0 1136 1135 46 57
5651 4 3 8 8 0 1136 1135 57 1147
5652 4 3 8 8 0 1135 57 1147 1146
5653 4 3 8 8 0 48 1137 47 59
5654 4 3 8 8 0 1137 47 59 58
5655 4 3 8 8 0 1137 58 59 1148
5656 4 3 8 8 0 1137 1136 47 58
5657 4 3 8 8 0 1137 1136 58 1148
5658 4 3 8 8 0 1136 58 1148 1147
5659 4 3 8 8 0 49 1138 48 60
5660 4 3 8 8 0 1138 48 60 59
5661 4 3 8 8 0 1138 59 60 1149
5662 4 3 8 8 0 1138 1137 48 59
5663 4 3 8 8 0 1138 1137 59 1149
5664 4 3 8 8 0 1137 59 1149 1148
5665 4 3 8 8 0 50 1139 49 61
5666 4 3 8 8 0 1139 49 61 60
5667 4 3 8 8 0 1139 60 61 1150
5668 4 3 8 8 0 1139 1138 49 60
5669 4 3 8 8 0 1139 1138 60 1150
5670 4 3 8 8 0 1138 60 1150 1149
5671 4 3 8 8 0 51 1140 50 62
5672 4 3 8 8 0 1140 50 62 61
5673 4 3 8 8 0 1140 61 62 1151
5674 4 3 8 8 0 1140 1139 50 61
5675 4 3 8 8 0 1140 1139 61 1151
5676 4 3 8 8 0 1139 61 1151 1150
5701 4 3 8 8 0 57 1146 56 68
5702 4 3 8 8 0 1146 56 68 67
5703 4 3 8 8 0 1146 67 68 1157
5704 4 3 8 8 0 1146 1145 56 67
5705 4 3 8 8 0 1146 1145 67 1157
5706 4 3 8 8 0 1145 67 1157 1156
5707 4 3 8 8 0 58 1147 57 69
5708 4 3 8 8 0 1147 57 69 68
5709 4 3 8 8 0 1147 68 69 1158
5710 4 3 8 8 0 1147 1146 57 68
5711 4 3 8 8 0 1147 1146 68 1158
5712 4 3 8 8 0 1146 68 1158 1157
5713 4 3 8 8 0 59 1148 58 70
5714 4 3 8 8 0 1148 58 70 69
5715 4 3 8 8 0 1148 69 70 1159
5716 4 3 8 8 0 1148 1147 58 69
5717 4 3 8 8 0 1148 1147 69 1159
5718 4 3 8 8 0 1147 69 1159 1158
5719 4 3 8 8 0 60 1149 59 71
5720 4 3 8 8 0 1149 59 71 70
5721 4 3 8 8 0 1149 70 71 1160
5722 4 3 8 8 0 1149 1148 59 70
5723 4 3 8 8 0 1149 1148 70 1160
5724 4 3 8 8 0 1148 70 1160 1159
5725 4 3 8 8 0 61 1150 60 72
5726 4 3 8 8 0 1150 60 72 71
5727 4 3 8 8 0 1150 71 72 1161
5728 4 3 8 8 0 1150 1149 60 71
5729 4 3 8 8 0 1150 1149 71 1161
5730 4 3 8 8 0 1149 71 1161 1160
5731 4 3 8 8 0 62 1151 61 73
5732 4 3 8 8 0 1151 61 73 72
5733 4 3 8 8 0 1151 72 73 1162
5734 4 3 8 8 0 1151 1150 61 72
5735 4 3 8 8 0 1151 1150 72 1162
5736 4 3 8 8 0 1150 72 1162 1161
5761 4 3 8 8 0 68 1157 67 79
5762 4 3 8 8 0 1157 67 79 78
5763 4 3 8 8 0 1157 78 79 1168
5764 4 3 8 8 0 1157 1156 67 78
5765 4 3 8 8 0 1157 1156 78 1168
5766 4 3 8 8 0 1156 78 1168 1167
5767 4 3 8 8 0 69 1158 68 80
5768 4 3 8 8 0 1158 68 80 79
5769 4 3 8 8 0 1158 79 80 1169
5770 4 3 8 8 0 1158 1157 68 79
5771 4 3 8 8 0 1158 1157 79 1169
5772 4 3 8 8 0 1157 79 1169 1168
5773 4 3 8 8 0 70 1159 69 81
5774 4 3 8 8 0 1159 69 81 80
5775 4 3 8 8 0 1159 80 81 1170
5776 4 3 8 8 0 1159 1158 69 80
5777 4 3 8 8 0 1159 1158 80 1170
5778 4 3 8 8 0 1158 80 1170 1169
5779 4 3 8 8 0 71 1160 70 82
5780 4 3 8 8 0 1160 70 82 81
5781 4 3 8 8 0 1160 81 82 1171
5782 4 3 8 8 0 1160 1159 70 81
5783 4 3 8 8 0 1160 1159 81 1171
5784 4 3 8 8 0 1159 81 1171 1170
5839 4 3 8 8 0 82 1171 81 93
5840 4 3 8 8 0 1171 81 93 92
5841 4 3 8 8 0 1171 92 93 1182
5842 4 3 8 8 0 1171 1170 81 92
5843 4 3 8 8 0 1171 1170 92 1182
5844 4 3 8 8 0 1170 92 1182 1181
$EndElements
