$MeshFormat
2.2 0 8
$EndMeshFormat
$Nodes
184
1 0.000000 0.000000 0.000000
2 1.000000 0.000000 0.000000
3 2.000000 0.000000 0.000000
4 3.000000 0.000000 0.000000
5 4.000000 0.000000 0.000000
6 5.000000 0.000000 0.000000
7 6.000000 0.000000 0.000000
8 7.000000 0.000000 0.000000
12 0.000000 1.000000 0.000000
13 1.000000 1.000000 0.000000
14 2.000000 1.000000 0.000000
15 3.000000 1.000000 0.000000
16 4.000000 1.000000 0.000000
17 5.000000 1.000000 0.000000
18 6.000000 1.000000 0.000000
19 7.000000 1.000000 0.000000
23 0.000000 2.000000 0.000000
24 1.000000 2.000000 0.000000
25 2.000000 2.000000 0.000000
26 3.000000 2.000000 0.000000
27 4.000000 2.000000 0.000000
28 5.000000 2.000000 0.000000
29 6.000000 2.000000 0.000000
30 7.000000 2.000000 0.000000
35 1.000000 3.000000 0.000000
36 2.000000 3.000000 0.000000
37 3.000000 3.000000 0.000000
38 4.000000 3.000000 0.000000
39 5.000000 3.000000 0.000000
40 6.000000 3.000000 0.000000
41 7.000000 3.000000 0.000000
46 1.000000 4.000000 0.000000
47 2.000000 4.000000 0.000000
48 3.000000 4.000000 0.000000
49 4.000000 4.000000 0.000000
50 5.000000 4.000000 0.000000
51 6.000000 4.000000 0.000000
52 7.000000 4.000000 0.000000
59 3.000000 5.000000 0.000000
60 4.000000 5.000000 0.000000
122 0.000000 0.000000 1.000000
123 1.000000 0.000000 1.000000
124 2.000000 0.000000 1.000000
125 3.000000 0.000000 1.000000
126 4.000000 0.000000 1.000000
127 5.000000 0.000000 1.000000
128 6.000000 0.000000 1.000000
129 7.000000 0.000000 1.000000
133 0.000000 1.000000 1.000000
134 1.000000 1.000000 1.000000
135 2.000000 1.000000 1.000000
136 3.000000 1.000000 1.000000
137 4.000000 1.000000 1.000000
138 5.000000 1.000000 1.000000
139 6.000000 1.000000 1.000000
140 7.000000 1.000000 1.000000
144 0.000000 2.000000 1.000000
145 1.000000 2.000000 1.000000
146 2.000000 2.000000 1.000000
147 3.000000 2.000000 1.000000
148 4.000000 2.000000 1.000000
149 5.000000 2.000000 1.000000
150 6.000000 2.000000 1.000000
151 7.000000 2.000000 1.000000
152 8.000000 2.000000 1.000000
156 1.000000 3.000000 1.000000
157 2.000000 3.000000 1.000000
158 3.000000 3.000000 1.000000
159 4.000000 3.000000 1.000000
160 5.000000 3.000000 1.000000
161 6.000000 3.000000 1.000000
162 7.000000 3.000000 1.000000
163 8.000000 3.000000 1.000000
167 1.000000 4.000000 1.000000
168 2.000000 4.000000 1.000000
169 3.000000 4.000000 1.000000
170 4.000000 4.000000 1.000000
171 5.000000 4.000000 1.000000
172 6.000000 4.000000 1.000000
173 7.000000 4.000000 1.000000
174 8.000000 4.000000 1.000000
180 3.000000 5.000000 1.000000
181 4.000000 5.000000 1.000000
244 1.000000 0.000000 2.000000
245 2.000000 0.000000 2.000000
246 3.000000 0.000000 2.000000
247 4.000000 0.000000 2.000000
248 5.000000 0.000000 2.000000
249 6.000000 0.000000 2.000000
250 7.000000 0.000000 2.000000
255 1.000000 1.000000 2.000000
256 2.000000 1.000000 2.000000
257 3.000000 1.000000 2.000000
258 4.000000 1.000000 2.000000
259 5.000000 1.000000 2.000000
260 6.000000 1.000000 2.000000
261 7.000000 1.000000 2.000000
262 8.000000 1.000000 2.000000
266 1.000000 2.000000 2.000000
267 2.000000 2.000000 2.000000
268 3.000000 2.000000 2.000000
269 4.000000 2.000000 2.000000
270 5.000000 2.000000 2.000000
271 6.000000 2.000000 2.000000
272 7.000000 2.000000 2.000000
273 8.000000 2.000000 2.000000
278 2.000000 3.000000 2.000000
279 3.000000 3.000000 2.000000
280 4.000000 3.000000 2.000000
281 5.000000 3.000000 2.000000
282 6.000000 3.000000 2.000000
283 7.000000 3.000000 2.000000
284 8.000000 3.000000 2.000000
289 2.000000 4.000000 2.000000
290 3.000000 4.000000 2.000000
291 4.000000 4.000000 2.000000
292 5.000000 4.000000 2.000000
293 6.000000 4.000000 2.000000
294 7.000000 4.000000 2.000000
295 8.000000 4.000000 2.000000
301 3.000000 5.000000 2.000000
302 4.000000 5.000000 2.000000
303 5.000000 5.000000 2.000000
305 7.000000 5.000000 2.000000
306 8.000000 5.000000 2.000000
366 2.000000 0.000000 3.000000
367 3.000000 0.000000 3.000000
368 4.000000 0.000000 3.000000
369 5.000000 0.000000 3.000000
370 6.000000 0.000000 3.000000
371 7.000000 0.000000 3.000000
377 2.000000 1.000000 3.000000
378 3.000000 1.000000 3.000000
379 4.000000 1.000000 3.000000
380 5.000000 1.000000 3.000000
381 6.000000 1.000000 3.000000
382 7.000000 1.000000 3.000000
383 8.000000 1.000000 3.000000
389 3.000000 2.000000 3.000000
390 4.000000 2.000000 3.000000
391 5.000000 2.000000 3.000000
392 6.000000 2.000000 3.000000
393 7.000000 2.000000 3.000000
394 8.000000 2.000000 3.000000
400 3.000000 3.000000 3.000000
401 4.000000 3.000000 3.000000
402 5.000000 3.000000 3.000000
403 6.000000 3.000000 3.000000
404 7.000000 3.000000 3.000000
405 8.000000 3.000000 3.000000
412 4.000000 4.000000 3.000000
413 5.000000 4.000000 3.000000
414 6.000000 4.000000 3.000000
415 7.000000 4.000000 3.000000
416 8.000000 4.000000 3.000000
423 4.000000 5.000000 3.000000
424 5.000000 5.000000 3.000000
426 7.000000 5.000000 3.000000
427 8.000000 5.000000 3.000000
488 3.000000 0.000000 4.000000
489 4.000000 0.000000 4.000000
490 5.000000 0.000000 4.000000
491 6.000000 0.000000 4.000000
492 7.000000 0.000000 4.000000
499 3.000000 1.000000 4.000000
500 4.000000 1.000000 4.000000
501 5.000000 1.000000 4.000000
502 6.000000 1.000000 4.000000
503 7.000000 1.000000 4.000000
510 3.000000 2.000000 4.000000
511 4.000000 2.000000 4.000000
512 5.000000 2.000000 4.000000
513 6.000000 2.000000 4.000000
514 7.000000 2.000000 4.000000
609 3.000000 0.000000 5.000000
610 4.000000 0.000000 5.000000
611 5.000000 0.000000 5.000000
612 6.000000 0.000000 5.000000
613 7.000000 0.000000 5.000000
620 3.000000 1.000000 5.000000
621 4.000000 1.000000 5.000000
622 5.000000 1.000000 5.000000
623 6.000000 1.000000 5.000000
624 7.000000 1.000000 5.000000
$EndNodes
$Elements
510
    1     4     3     1     1     0   123     2   122   134
    2     4     3     1     1     0     2   122   134   133
    3     4     3     1     1     0     2   133   134    13
    4     4     3     1     1     0     2     1   122   133
    5     4     3     1     1     0     2     1   133    13
    6     4     3     1     1     0     1   133    13    12
    7     4     3     1     1     0   124     3   123   135
    8     4     3     1     1     0     3   123   135   134
    9     4     3     1     1     0     3   134   135    14
   10     4     3     1     1     0     3     2   123   134
   11     4     3     1     1     0     3     2   134    14
   12     4     3     1     1     0     2   134    14    13
   13     4     3     1     1     0   125     4   124   136
   14     4     3     1     1     0     4   124   136   135
   15     4     3     1     1     0     4   135   136    15
   16     4     3     1     1     0     4     3   124   135
   17     4     3     1     1     0     4     3   135    15
   18     4     3     1     1     0     3   135    15    14
   19     4     3     1     1     0   126     5   125   137
   20     4     3     1     1     0     5   125   137   136
   21     4     3     1     1     0     5   136   137    16
   22     4     3     1     1     0     5     4   125   136
   23     4     3     1     1     0     5     4   136    16
   24     4     3     1     1     0     4   136    16    15
   25     4     3     1     1     0   127     6   126   138
   26     4     3     1     1     0     6   126   138   137
   27     4     3     1     1     0     6   137   138    17
   28     4     3     1     1     0     6     5   126   137
   29     4     3     1     1     0     6     5   137    17
   30     4     3     1     1     0     5   137    17    16
   31     4     3     1     1     0   128     7   127   139
   32     4     3     1     1     0     7   127   139   138
   33     4     3     1     1     0     7   138   139    18
   34     4     3     1     1     0     7     6   127   138
   35     4     3     1     1     0     7     6   138    18
   36     4     3     1     1     0     6   138    18    17
   37     4     3     1     1     0   129     8   128   140
   38     4     3     1     1     0     8   128   140   139
   39     4     3     1     1     0     8   139   140    19
   40     4     3     1     1     0     8     7   128   139
   41     4     3     1     1     0     8     7   139    19
   42     4     3     1     1     0     7   139    19    18
   61     4     3     1     1     0   134    13   133   145
   62     4     3     1     1     0    13   133   145   144
   63     4     3     1     1     0    13   144   145    24
   64     4     3     1     1     0    13    12   133   144
   65     4     3     1     1     0    13    12   144    24
   66     4     3     1     1     0    12   144    24    23
   67     4     3     1     1     0   135    14   134   146
   68     4     3     1     1     0    14   134   146   145
   69     4     3     1     1     0    14   145   146    25
   70     4     3     1     1     0    14    13   134   145
   71     4     3     1     1     0    14    13   145    25
   72     4     3     1     1     0    13   145    25    24
   73     4     3     1     1     0   136    15   135   147
   74     4     3     1     1     0    15   135   147   146
   75     4     3     1     1     0    15   146   147    26
   76     4     3     1     1     0    15    14   135   146
   77     4     3     1     1     0    15    14   146    26
   78     4     3     1     1     0    14   146    26    25
   79     4     3     1     1     0   137    16   136   148
   80     4     3     1     1     0    16   136   148   147
   81     4     3     1     1     0    16   147   148    27
   82     4     3     1     1     0    16    15   136   147
   83     4     3     1     1     0    16    15   147    27
   84     4     3     1     1     0    15   147    27    26
   85     4     3     1     1     0   138    17   137   149
   86     4     3     1     1     0    17   137   149   148
   87     4     3     1     1     0    17   148   149    28
   88     4     3     1     1     0    17    16   137   148
   89     4     3     1     1     0    17    16   148    28
   90     4     3     1     1     0    16   148    28    27
   91     4     3     1     1     0   139    18   138   150
   92     4     3     1     1     0    18   138   150   149
   93     4     3     1     1     0    18   149   150    29
   94     4     3     1     1     0    18    17   138   149
   95     4     3     1     1     0    18    17   149    29
   96     4     3     1     1     0    17   149    29    28
   97     4     3     1     1     0   140    19   139   151
   98     4     3     1     1     0    19   139   151   150
   99     4     3     1     1     0    19   150   151    30
  100     4     3     1     1     0    19    18   139   150
  101     4     3     1     1     0    19    18   150    30
  102     4     3     1     1     0    18   150    30    29
  127     4     3     1     1     0   146    25   145   157
  128     4     3     1     1     0    25   145   157   156
  129     4     3     1     1     0    25   156   157    36
  130     4     3     1     1     0    25    24   145   156
  131     4     3     1     1     0    25    24   156    36
  132     4     3     1     1     0    24   156    36    35
  133     4     3     1     1     0   147    26   146   158
  134     4     3     1     1     0    26   146   158   157
  135     4     3     1     1     0    26   157   158    37
  136     4     3     1     1     0    26    25   146   157
  137     4     3     1     1     0    26    25   157    37
  138     4     3     1     1     0    25   157    37    36
  139     4     3     1     1     0   148    27   147   159
  140     4     3     1     1     0    27   147   159   158
  141     4     3     1     1     0    27   158   159    38
  142     4     3     1     1     0    27    26   147   158
  143     4     3     1     1     0    27    26   158    38
  144     4     3     1     1     0    26   158    38    37
  145     4     3     1     1     0   149    28   148   160
  146     4     3     1     1     0    28   148   160   159
  147     4     3     1     1     0    28   159   160    39
  148     4     3     1     1     0    28    27   148   159
  149     4     3     1     1     0    28    27   159    39
  150     4     3     1     1     0    27   159    39    38
  151     4     3     1     1     0   150    29   149   161
  152     4     3     1     1     0    29   149   161   160
  153     4     3     1     1     0    29   160   161    40
  154     4     3     1     1     0    29    28   149   160
  155     4     3     1     1     0    29    28   160    40
  156     4     3     1     1     0    28   160    40    39
  157     4     3     1     1     0   151    30   150   162
  158     4     3     1     1     0    30   150   162   161
  159     4     3     1     1     0    30   161   162    41
  160     4     3     1     1     0    30    29   150   161
  161     4     3     1     1     0    30    29   161    41
  162     4     3     1     1     0    29   161    41    40
  187     4     3     1     1     0   157    36   156   168
  188     4     3     1     1     0    36   156   168   167
  189     4     3     1     1     0    36   167   168    47
  190     4     3     1     1     0    36    35   156   167
  191     4     3     1     1     0    36    35   167    47
  192     4     3     1     1     0    35   167    47    46
  193     4     3     1     1     0   158    37   157   169
  194     4     3     1     1     0    37   157   169   168
  195     4     3     1     1     0    37   168   169    48
  196     4     3     1     1     0    37    36   157   168
  197     4     3     1     1     0    37    36   168    48
  198     4     3     1     1     0    36   168    48    47
  199     4     3     1     1     0   159    38   158   170
  200     4     3     1     1     0    38   158   170   169
  201     4     3     1     1     0    38   169   170    49
  202     4     3     1     1     0    38    37   158   169
  203     4     3     1     1     0    38    37   169    49
  204     4     3     1     1     0    37   169    49    48
  205     4     3     1     1     0   160    39   159   171
  206     4     3     1     1     0    39   159   171   170
  207     4     3     1     1     0    39   170   171    50
  208     4     3     1     1     0    39    38   159   170
  209     4     3     1     1     0    39    38   170    50
  210     4     3     1     1     0    38   170    50    49
  211     4     3     1     1     0   161    40   160   172
  212     4     3     1     1     0    40   160   172   171
  213     4     3     1     1     0    40   171   172    51
  214     4     3     1     1     0    40    39   160   171
  215     4     3     1     1     0    40    39   171    51
  216     4     3     1     1     0    39   171    51    50
  217     4     3     1     1     0   162    41   161   173
  218     4     3     1     1     0    41   161   173   172
  219     4     3     1     1     0    41   172   173    52
  220     4     3     1     1     0    41    40   161   172
  221     4     3     1     1     0    41    40   172    52
  222     4     3     1     1     0    40   172    52    51
  259     4     3     1     1     0   170    49   169   181
  260     4     3     1     1     0    49   169   181   180
  261     4     3     1     1     0    49   180   181    60
  262     4     3     1     1     0    49    48   169   180
  263     4     3     1     1     0    49    48   180    60
  264     4     3     1     1     0    48   180    60    59
  607     4     3     1     1     0   245   124   244   256
  608     4     3     1     1     0   124   244   256   255
  609     4     3     1     1     0   124   255   256   135
  610     4     3     1     1     0   124   123   244   255
  611     4     3     1     1     0   124   123   255   135
  612     4     3     1     1     0   123   255   135   134
  613     4     3     1     1     0   246   125   245   257
  614     4     3     1     1     0   125   245   257   256
  615     4     3     1     1     0   125   256   257   136
  616     4     3     1     1     0   125   124   245   256
  617     4     3     1     1     0   125   124   256   136
  618     4     3     1     1     0   124   256   136   135
  619     4     3     1     1     0   247   126   246   258
  620     4     3     1     1     0   126   246   258   257
  621     4     3     1     1     0   126   257   258   137
  622     4     3     1     1     0   126   125   246   257
  623     4     3     1     1     0   126   125   257   137
  624     4     3     1     1     0   125   257   137   136
  625     4     3     1     1     0   248   127   247   259
  626     4     3     1     1     0   127   247   259   258
  627     4     3     1     1     0   127   258   259   138
  628     4     3     1     1     0   127   126   247   258
  629     4     3     1     1     0   127   126   258   138
  630     4     3     1     1     0   126   258   138   137
  631     4     3     1     1     0   249   128   248   260
  632     4     3     1     1     0   128   248   260   259
  633     4     3     1     1     0   128   259   260   139
  634     4     3     1     1     0   128   127   248   259
  635     4     3     1     1     0   128   127   259   139
  636     4     3     1     1     0   127   259   139   138
  637     4     3     1     1     0   250   129   249   261
  638     4     3     1     1     0   129   249   261   260
  639     4     3     1     1     0   129   260   261   140
  640     4     3     1     1     0   129   128   249   260
  641     4     3     1     1     0   129   128   260   140
  642     4     3     1     1     0   128   260   140   139
  667     4     3     1     1     0   256   135   255   267
  668     4     3     1     1     0   135   255   267   266
  669     4     3     1     1     0   135   266   267   146
  670     4     3     1     1     0   135   134   255   266
  671     4     3     1     1     0   135   134   266   146
  672     4     3     1     1     0   134   266   146   145
  673     4     3     1     1     0   257   136   256   268
  674     4     3     1     1     0   136   256   268   267
  675     4     3     1     1     0   136   267   268   147
  676     4     3     1     1     0   136   135   256   267
  677     4     3     1     1     0   136   135   267   147
  678     4     3     1     1     0   135   267   147   146
  679     4     3     1     1     0   258   137   257   269
  680     4     3     1     1     0   137   257   269   268
  681     4     3     1     1     0   137   268   269   148
  682     4     3     1     1     0   137   136   257   268
  683     4     3     1     1     0   137   136   268   148
  684     4     3     1     1     0   136   268   148   147
  685     4     3     1     1     0   259   138   258   270
  686     4     3     1     1     0   138   258   270   269
  687     4     3     1     1     0   138   269   270   149
  688     4     3     1     1     0   138   137   258   269
  689     4     3     1     1     0   138   137   269   149
  690     4     3     1     1     0   137   269   149   148
  691     4     3     1     1     0   260   139   259   271
  692     4     3     1     1     0   139   259   271   270
  693     4     3     1     1     0   139   270   271   150
  694     4     3     1     1     0   139   138   259   270
  695     4     3     1     1     0   139   138   270   150
  696     4     3     1     1     0   138   270   150   149
  697     4     3     1     1     0   261   140   260   272
  698     4     3     1     1     0   140   260   272   271
  699     4     3     1     1     0   140   271   272   151
  700     4     3     1     1     0   140   139   260   271
  701     4     3     1     1     0   140   139   271   151
  702     4     3     1     1     0   139   271   151   150
  733     4     3     1     1     0   268   147   267   279
  734     4     3     1     1     0   147   267   279   278
  735     4     3     1     1     0   147   278   279   158
  736     4     3     1     1     0   147   146   267   278
  737     4     3     1     1     0   147   146   278   158
  738     4     3     1     1     0   146   278   158   157
  739     4     3     1     1     0   269   148   268   280
  740     4     3     1     1     0   148   268   280   279
  741     4     3     1     1     0   148   279   280   159
  742     4     3     1     1     0   148   147   268   279
  743     4     3     1     1     0   148   147   279   159
  744     4     3     1     1     0   147   279   159   158
  745     4     3     1     1     0   270   149   269   281
  746     4     3     1     1     0   149   269   281   280
  747     4     3     1     1     0   149   280   281   160
  748     4     3     1     1     0   149   148   269   280
  749     4     3     1     1     0   149   148   280   160
  750     4     3     1     1     0   148   280   160   159
  751     4     3     1     1     0   271   150   270   282
  752     4     3     1     1     0   150   270   282   281
  753     4     3     1     1     0   150   281   282   161
  754     4     3     1     1     0   150   149   270   281
  755     4     3     1     1     0   150   149   281   161
  756     4     3     1     1     0   149   281   161   160
  757     4     3     1     1     0   272   151   271   283
  758     4     3     1     1     0   151   271   283   282
  759     4     3     1     1     0   151   282   283   162
  760     4     3     1     1     0   151   150   271   282
  761     4     3     1     1     0   151   150   282   162
  762     4     3     1     1     0   150   282   162   161
  763     4     3     1     1     0   273   152   272   284
  764     4     3     1     1     0   152   272   284   283
  765     4     3     1     1     0   152   283   284   163
  766     4     3     1     1     0   152   151   272   283
  767     4     3     1     1     0   152   151   283   163
  768     4     3     1     1     0   151   283   163   162
  793     4     3     1     1     0   279   158   278   290
  794     4     3     1     1     0   158   278   290   289
  795     4     3     1     1     0   158   289   290   169
  796     4     3     1     1     0   158   157   278   289
  797     4     3     1     1     0   158   157   289   169
  798     4     3     1     1     0   157   289   169   168
  799     4     3     1     1     0   280   159   279   291
  800     4     3     1     1     0   159   279   291   290
  801     4     3     1     1     0   159   290   291   170
  802     4     3     1     1     0   159   158   279   290
  803     4     3     1     1     0   159   158   290   170
  804     4     3     1     1     0   158   290   170   169
  805     4     3     1     1     0   281   160   280   292
  806     4     3     1     1     0   160   280   292   291
  807     4     3     1     1     0   160   291   292   171
  808     4     3     1     1     0   160   159   280   291
  809     4     3     1     1     0   160   159   291   171
  810     4     3     1     1     0   159   291   171   170
  811     4     3     1     1     0   282   161   281   293
  812     4     3     1     1     0   161   281   293   292
  813     4     3     1     1     0   161   292   293   172
  814     4     3     1     1     0   161   160   281   292
  815     4     3     1     1     0   161   160   292   172
  816     4     3     1     1     0   160   292   172   171
  817     4     3     1     1     0   283   162   282   294
  818     4     3     1     1     0   162   282   294   293
  819     4     3     1     1     0   162   293   294   173
  820     4     3     1     1     0   162   161   282   293
  821     4     3     1     1     0   162   161   293   173
  822     4     3     1     1     0   161   293   173   172
  823     4     3     1     1     0   284   163   283   295
  824     4     3     1     1     0   163   283   295   294
  825     4     3     1     1     0   163   294   295   174
  826     4     3     1     1     0   163   162   283   294
  827     4     3     1     1     0   163   162   294   174
  828     4     3     1     1     0   162   294   174   173
  859     4     3     1     1     0   291   170   290   302
  860     4     3     1     1     0   170   290   302   301
  861     4     3     1     1     0   170   301   302   181
  862     4     3     1     1     0   170   169   290   301
  863     4     3     1     1     0   170   169   301   181
  864     4     3     1     1     0   169   301   181   180
 1213     4     3     1     1     0   367   246   366   378
 1214     4     3     1     1     0   246   366   378   377
 1215     4     3     1     1     0   246   377   378   257
 1216     4     3     1     1     0   246   245   366   377
 1217     4     3     1     1     0   246   245   377   257
 1218     4     3     1     1     0   245   377   257   256
 1219     4     3     1     1     0   368   247   367   379
 1220     4     3     1     1     0   247   367   379   378
 1221     4     3     1     1     0   247   378   379   258
 1222     4     3     1     1     0   247   246   367   378
 1223     4     3     1     1     0   247   246   378   258
 1224     4     3     1     1     0   246   378   258   257
 1225     4     3     1     1     0   369   248   368   380
 1226     4     3     1     1     0   248   368   380   379
 1227     4     3     1     1     0   248   379   380   259
 1228     4     3     1     1     0   248   247   368   379
 1229     4     3     1     1     0   248   247   379   259
 1230     4     3     1     1     0   247   379   259   258
 1231     4     3     1     1     0   370   249   369   381
 1232     4     3     1     1     0   249   369   381   380
 1233     4     3     1     1     0   249   380   381   260
 1234     4     3     1     1     0   249   248   369   380
 1235     4     3     1     1     0   249   248   380   260
 1236     4     3     1     1     0   248   380   260   259
 1237     4     3     1     1     0   371   250   370   382
 1238     4     3     1     1     0   250   370   382   381
 1239     4     3     1     1     0   250   381   382   261
 1240     4     3     1     1     0   250   249   370   381
 1241     4     3     1     1     0   250   249   381   261
 1242     4     3     1     1     0   249   381   261   260
 1279     4     3     1     1     0   379   258   378   390
 1280     4     3     1     1     0   258   378   390   389
 1281     4     3     1     1     0   258   389   390   269
 1282     4     3     1     1     0   258   257   378   389
 1283     4     3     1     1     0   258   257   389   269
 1284     4     3     1     1     0   257   389   269   268
 1285     4     3     1     1     0   380   259   379   391
 1286     4     3     1     1     0   259   379   391   390
 1287     4     3     1     1     0   259   390   391   270
 1288     4     3     1     1     0   259   258   379   390
 1289     4     3     1     1     0   259   258   390   270
 1290     4     3     1     1     0   258   390   270   269
 1291     4     3     1     1     0   381   260   380   392
 1292     4     3     1     1     0   260   380   392   391
 1293     4     3     1     1     0   260   391   392   271
 1294     4     3     1     1     0   260   259   380   391
 1295     4     3     1     1     0   260   259   391   271
 1296     4     3     1     1     0   259   391   271   270
 1297     4     3     1     1     0   382   261   381   393
 1298     4     3     1     1     0   261   381   393   392
 1299     4     3     1     1     0   261   392   393   272
 1300     4     3     1     1     0   261   260   381   392
 1301     4     3     1     1     0   261   260   392   272
 1302     4     3     1     1     0   260   392   272   271
 1303     4     3     1     1     0   383   262   382   394
 1304     4     3     1     1     0   262   382   394   393
 1305     4     3     1     1     0   262   393   394   273
 1306     4     3     1     1     0   262   261   382   393
 1307     4     3     1     1     0   262   261   393   273
 1308     4     3     1     1     0   261   393   273   272
 1339     4     3     1     1     0   390   269   389   401
 1340     4     3     1     1     0   269   389   401   400
 1341     4     3     1     1     0   269   400   401   280
 1342     4     3     1     1     0   269   268   389   400
 1343     4     3     1     1     0   269   268   400   280
 1344     4     3     1     1     0   268   400   280   279
 1345     4     3     1     1     0   391   270   390   402
 1346     4     3     1     1     0   270   390   402   401
 1347     4     3     1     1     0   270   401   402   281
 1348     4     3     1     1     0   270   269   390   401
 1349     4     3     1     1     0   270   269   401   281
 1350     4     3     1     1     0   269   401   281   280
 1351     4     3     1     1     0   392   271   391   403
 1352     4     3     1     1     0   271   391   403   402
 1353     4     3     1     1     0   271   402   403   282
 1354     4     3     1     1     0   271   270   391   402
 1355     4     3     1     1     0   271   270   402   282
 1356     4     3     1     1     0   270   402   282   281
 1357     4     3     1     1     0   393   272   392   404
 1358     4     3     1     1     0   272   392   404   403
 1359     4     3     1     1     0   272   403   404   283
 1360     4     3     1     1     0   272   271   392   403
 1361     4     3     1     1     0   272   271   403   283
 1362     4     3     1     1     0   271   403   283   282
 1363     4     3     1     1     0   394   273   393   405
 1364     4     3     1     1     0   273   393   405   404
 1365     4     3     1     1     0   273   404   405   284
 1366     4     3     1     1     0   273   272   393   404
 1367     4     3     1     1     0   273   272   404   284
 1368     4     3     1     1     0   272   404   284   283
 1405     4     3     1     1     0   402   281   401   413
 1406     4     3     1     1     0   281   401   413   412
 1407     4     3     1     1     0   281   412   413   292
 1408     4     3     1     1     0   281   280   401   412
 1409     4     3     1     1     0   281   280   412   292
 1410     4     3     1     1     0   280   412   292   291
 1411     4     3     1     1     0   403   282   402   414
 1412     4     3     1     1     0   282   402   414   413
 1413     4     3     1     1     0   282   413   414   293
 1414     4     3     1     1     0   282   281   402   413
 1415     4     3     1     1     0   282   281   413   293
 1416     4     3     1     1     0   281   413   293   292
 1417     4     3     1     1     0   404   283   403   415
 1418     4     3     1     1     0   283   403   415   414
 1419     4     3     1     1     0   283   414   415   294
 1420     4     3     1     1     0   283   282   403   414
 1421     4     3     1     1     0   283   282   414   294
 1422     4     3     1     1     0   282   414   294   293
 1423     4     3     1     1     0   405   284   404   416
 1424     4     3     1     1     0   284   404   416   415
 1425     4     3     1     1     0   284   415   416   295
 1426     4     3     1     1     0   284   283   404   415
 1427     4     3     1     1     0   284   283   415   295
 1428     4     3     1     1     0   283   415   295   294
 1465     4     3     1     1     0   413   292   412   424
 1466     4     3     1     1     0   292   412   424   423
 1467     4     3     1     1     0   292   423   424   303
 1468     4     3     1     1     0   292   291   412   423
 1469     4     3     1     1     0   292   291   423   303
 1470     4     3     1     1     0   291   423   303   302
 1483     4     3     1     1     0   416   295   415   427
 1484     4     3     1     1     0   295   415   427   426
 1485     4     3     1     1     0   295   426   427   306
 1486     4     3     1     1     0   295   294   415   426
 1487     4     3     1     1     0   295   294   426   306
 1488     4     3     1     1     0   294   426   306   305
 1819     4     3     1     1     0   489   368   488   500
 1820     4     3     1     1     0   368   488   500   499
 1821     4     3     1     1     0   368   499   500   379
 1822     4     3     1     1     0   368   367   488   499
 1823     4     3     1     1     0   368   367   499   379
 1824     4     3     1     1     0   367   499   379   378
 1825     4     3     1     1     0   490   369   489   501
 1826     4     3     1     1     0   369   489   501   500
 1827     4     3     1     1     0   369   500   501   380
 1828     4     3     1     1     0   369   368   489   500
 1829     4     3     1     1     0   369   368   500   380
 1830     4     3     1     1     0   368   500   380   379
 1831     4     3     1     1     0   491   370   490   502
 1832     4     3     1     1     0   370   490   502   501
 1833     4     3     1     1     0   370   501   502   381
 1834     4     3     1     1     0   370   369   490   501
 1835     4     3     1     1     0   370   369   501   381
 1836     4     3     1     1     0   369   501   381   380
 1837     4     3     1     1     0   492   371   491   503
 1838     4     3     1     1     0   371   491   503   502
 1839     4     3     1     1     0   371   502   503   382
 1840     4     3     1     1     0   371   370   491   502
 1841     4     3     1     1     0   371   370   502   382
 1842     4     3     1     1     0   370   502   382   381
 1879     4     3     1     1     0   500   379   499   511
 1880     4     3     1     1     0   379   499   511   510
 1881     4     3     1     1     0   379   510   511   390
 1882     4     3     1     1     0   379   378   499   510
 1883     4     3     1     1     0   379   378   510   390
 1884     4     3     1     1     0   378   510   390   389
 1885     4     3     1     1     0   501   380   500   512
 1886     4     3     1     1     0   380   500   512   511
 1887     4     3     1     1     0   380   511   512   391
 1888     4     3     1     1     0   380   379   500   511
 1889     4     3     1     1     0   380   379   511   391
 1890     4     3     1     1     0   379   511   391   390
 1891     4     3     1     1     0   502   381   501   513
 1892     4     3     1     1     0   381   501   513   512
 1893     4     3     1     1     0   381   512   513   392
 1894     4     3     1     1     0   381   380   501   512
 1895     4     3     1     1     0   381   380   512   392
 1896     4     3     1     1     0   380   512   392   391
 1897     4     3     1     1     0   503   382   502   514
 1898     4     3     1     1     0   382   502   514   513
 1899     4     3     1     1     0   382   513   514   393
 1900     4     3     1     1     0   382   381   502   513
 1901     4     3     1     1     0   382   381   513   393
 1902     4     3     1     1     0   381   513   393   392
 2419     4     3     1     1     0   610   489   609   621
 2420     4     3     1     1     0   489   609   621   620
 2421     4     3     1     1     0   489   620   621   500
 2422     4     3     1     1     0   489   488   609   620
 2423     4     3     1     1     0   489   488   620   500
 2424     4     3     1     1     0   488   620   500   499
 2425     4     3     1     1     0   611   490   610   622
 2426     4     3     1     1     0   490   610   622   621
 2427     4     3     1     1     0   490   621   622   501
 2428     4     3     1     1     0   490   489   610   621
 2429     4     3     1     1     0   490   489   621   501
 2430     4     3     1     1     0   489   621   501   500
 2431     4     3     1     1     0   612   491   611   623
 2432     4     3     1     1     0   491   611   623   622
 2433     4     3     1     1     0   491   622   623   502
 2434     4     3     1     1     0   491   490   611   622
 2435     4     3     1     1     0   491   490   622   502
 2436     4     3     1     1     0   490   622   502   501
 2437     4     3     1     1     0   613   492   612   624
 2438     4     3     1     1     0   492   612   624   623
 2439     4     3     1     1     0   492   623   624   503
 2440     4     3     1     1     0   492   491   612   623
 2441     4     3     1     1     0   492   491   623   503
 2442     4     3     1     1     0   491   623   503   502
$EndElements
