$MeshFormat
2.2 0 8
$EndMeshFormat
$Nodes
133
8 7.0 0.0 0.0
9 8.0 0.0 0.0
10 9.0 0.0 0.0
11 10.0 0.0 0.0
19 7.0 1.0 0.0
20 8.0 1.0 0.0
21 9.0 1.0 0.0
12 10.0 1.0 0.0
30 7.0 2.0 0.0
31 8.0 2.0 0.0
32 9.0 2.0 0.0
23 10.0 2.0 0.0
41 7.0 3.0 0.0
42 8.0 3.0 0.0
43 9.0 3.0 0.0
34 10.0 3.0 0.0
52 7.0 4.0 0.0
53 8.0 4.0 0.0
54 9.0 4.0 0.0
45 10.0 4.0 0.0
64 8.0 5.0 0.0
65 9.0 5.0 0.0
56 10.0 5.0 0.0
129 7.0 0.0 1.0
130 8.0 0.0 1.0
131 9.0 0.0 1.0
122 10.0 0.0 1.0
140 7.0 1.0 1.0
141 8.0 1.0 1.0
142 9.0 1.0 1.0
133 10.0 1.0 1.0
151 7.0 2.0 1.0
152 8.0 2.0 1.0
153 9.0 2.0 1.0
144 10.0 2.0 1.0
162 7.0 3.0 1.0
163 8.0 3.0 1.0
164 9.0 3.0 1.0
155 10.0 3.0 1.0
173 7.0 4.0 1.0
174 8.0 4.0 1.0
175 9.0 4.0 1.0
166 10.0 4.0 1.0
185 8.0 5.0 1.0
186 9.0 5.0 1.0
177 10.0 5.0 1.0
197 9.0 6.0 1.0
188 10.0 6.0 1.0
250 7.0 0.0 2.0
251 8.0 0.0 2.0
252 9.0 0.0 2.0
243 10.0 0.0 2.0
261 7.0 1.0 2.0
262 8.0 1.0 2.0
263 9.0 1.0 2.0
254 10.0 1.0 2.0
272 7.0 2.0 2.0
273 8.0 2.0 2.0
274 9.0 2.0 2.0
265 10.0 2.0 2.0
284 8.0 3.0 2.0
285 9.0 3.0 2.0
276 10.0 3.0 2.0
295 8.0 4.0 2.0
296 9.0 4.0 2.0
287 10.0 4.0 2.0
306 8.0 5.0 2.0
307 9.0 5.0 2.0
298 10.0 5.0 2.0
318 9.0 6.0 2.0
309 10.0 6.0 2.0
371 7.0 0.0 3.0
372 8.0 0.0 3.0
373 9.0 0.0 3.0
364 10.0 0.0 3.0
382 7.0 1.0 3.0
383 8.0 1.0 3.0
384 9.0 1.0 3.0
375 10.0 1.0 3.0
393 7.0 2.0 3.0
394 8.0 2.0 3.0
395 9.0 2.0 3.0
386 10.0 2.0 3.0
405 8.0 3.0 3.0
406 9.0 3.0 3.0
397 10.0 3.0 3.0
416 8.0 4.0 3.0
417 9.0 4.0 3.0
408 10.0 4.0 3.0
427 8.0 5.0 3.0
428 9.0 5.0 3.0
419 10.0 5.0 3.0
492 7.0 0.0 4.0
493 8.0 0.0 4.0
494 9.0 0.0 4.0
485 10.0 0.0 4.0
503 7.0 1.0 4.0
504 8.0 1.0 4.0
505 9.0 1.0 4.0
496 10.0 1.0 4.0
514 7.0 2.0 4.0
515 8.0 2.0 4.0
516 9.0 2.0 4.0
507 10.0 2.0 4.0
526 8.0 3.0 4.0
527 9.0 3.0 4.0
518 10.0 3.0 4.0
537 8.0 4.0 4.0
538 9.0 4.0 4.0
529 10.0 4.0 4.0
549 9.0 5.0 4.0
540 10.0 5.0 4.0
613 7.0 0.0 5.0
614 8.0 0.0 5.0
615 9.0 0.0 5.0
606 10.0 0.0 5.0
624 7.0 1.0 5.0
625 8.0 1.0 5.0
626 9.0 1.0 5.0
617 10.0 1.0 5.0
636 8.0 2.0 5.0
637 9.0 2.0 5.0
628 10.0 2.0 5.0
648 9.0 3.0 5.0
639 10.0 3.0 5.0
659 9.0 4.0 5.0
650 10.0 4.0 5.0
736 9.0 0.0 6.0
727 10.0 0.0 6.0
747 9.0 1.0 6.0
738 10.0 1.0 6.0
758 9.0 2.0 6.0
749 10.0 2.0 6.0
$EndNodes
$Elements
348
43 4 3 6 6 0 130 9 129 141
44 4 3 6 6 0 9 129 141 140
45 4 3 6 6 0 9 140 141 20
46 4 3 6 6 0 9 8 129 140
47 4 3 6 6 0 9 8 140 20
48 4 3 6 6 0 8 140 20 19
49 4 3 6 6 0 131 10 130 142
50 4 3 6 6 0 10 130 142 141
51 4 3 6 6 0 10 141 142 21
52 4 3 6 6 0 10 9 130 141
53 4 3 6 6 0 10 9 141 21
54 4 3 6 6 0 9 141 21 20
55 4 3 6 6 0 122 11 131 133
56 4 3 6 6 0 11 131 133 142
57 4 3 6 6 0 11 142 133 12
58 4 3 6 6 0 11 10 131 142
59 4 3 6 6 0 11 10 142 12
60 4 3 6 6 0 10 142 12 21
103 4 3 6 6 0 141 20 140 152
104 4 3 6 6 0 20 140 152 151
105 4 3 6 6 0 20 151 152 31
106 4 3 6 6 0 20 19 140 151
107 4 3 6 6 0 20 19 151 31
108 4 3 6 6 0 19 151 31 30
109 4 3 6 6 0 142 21 141 153
110 4 3 6 6 0 21 141 153 152
111 4 3 6 6 0 21 152 153 32
112 4 3 6 6 0 21 20 141 152
113 4 3 6 6 0 21 20 152 32
114 4 3 6 6 0 20 152 32 31
115 4 3 6 6 0 133 12 142 144
116 4 3 6 6 0 12 142 144 153
117 4 3 6 6 0 12 153 144 23
118 4 3 6 6 0 12 21 142 153
119 4 3 6 6 0 12 21 153 23
120 4 3 6 6 0 21 153 23 32
163 4 3 6 6 0 152 31 151 163
164 4 3 6 6 0 31 151 163 162
165 4 3 6 6 0 31 162 163 42
166 4 3 6 6 0 31 30 151 162
167 4 3 6 6 0 31 30 162 42
168 4 3 6 6 0 30 162 42 41
169 4 3 6 6 0 153 32 152 164
170 4 3 6 6 0 32 152 164 163
171 4 3 6 6 0 32 163 164 43
172 4 3 6 6 0 32 31 152 163
173 4 3 6 6 0 32 31 163 43
174 4 3 6 6 0 31 163 43 42
175 4 3 6 6 0 144 23 153 155
176 4 3 6 6 0 23 153 155 164
177 4 3 6 6 0 23 164 155 34
178 4 3 6 6 0 23 32 153 164
179 4 3 6 6 0 23 32 164 34
180 4 3 6 6 0 32 164 34 43
223 4 3 6 6 0 163 42 162 174
224 4 3 6 6 0 42 162 174 173
225 4 3 6 6 0 42 173 174 53
226 4 3 6 6 0 42 41 162 173
227 4 3 6 6 0 42 41 173 53
228 4 3 6 6 0 41 173 53 52
229 4 3 6 6 0 164 43 163 175
230 4 3 6 6 0 43 163 175 174
231 4 3 6 6 0 43 174 175 54
232 4 3 6 6 0 43 42 163 174
233 4 3 6 6 0 43 42 174 54
234 4 3 6 6 0 42 174 54 53
235 4 3 6 6 0 155 34 164 166
236 4 3 6 6 0 34 164 166 175
237 4 3 6 6 0 34 175 166 45
238 4 3 6 6 0 34 43 164 175
239 4 3 6 6 0 34 43 175 45
240 4 3 6 6 0 43 175 45 54
289 4 3 6 6 0 175 54 174 186
290 4 3 6 6 0 54 174 186 185
291 4 3 6 6 0 54 185 186 65
292 4 3 6 6 0 54 53 174 185
293 4 3 6 6 0 54 53 185 65
294 4 3 6 6 0 53 185 65 64
295 4 3 6 6 0 166 45 175 177
296 4 3 6 6 0 45 175 177 186
297 4 3 6 6 0 45 186 177 56
298 4 3 6 6 0 45 54 175 186
299 4 3 6 6 0 45 54 186 56
300 4 3 6 6 0 54 186 56 65
643 4 3 6 6 0 251 130 250 262
644 4 3 6 6 0 130 250 262 261
645 4 3 6 6 0 130 261 262 141
646 4 3 6 6 0 130 129 250 261
647 4 3 6 6 0 130 129 261 141
648 4 3 6 6 0 129 261 141 140
649 4 3 6 6 0 252 131 251 263
650 4 3 6 6 0 131 251 263 262
651 4 3 6 6 0 131 262 263 142
652 4 3 6 6 0 131 130 251 262
653 4 3 6 6 0 131 130 262 142
654 4 3 6 6 0 130 262 142 141
655 4 3 6 6 0 243 122 252 254
656 4 3 6 6 0 122 252 254 263
657 4 3 6 6 0 122 263 254 133
658 4 3 6 6 0 122 131 252 263
659 4 3 6 6 0 122 131 263 133
660 4 3 6 6 0 131 263 133 142
703 4 3 6 6 0 262 141 261 273
704 4 3 6 6 0 141 261 273 272
705 4 3 6 6 0 141 272 273 152
706 4 3 6 6 0 141 140 261 272
707 4 3 6 6 0 141 140 272 152
708 4 3 6 6 0 140 272 152 151
709 4 3 6 6 0 263 142 262 274
710 4 3 6 6 0 142 262 274 273
711 4 3 6 6 0 142 273 274 153
712 4 3 6 6 0 142 141 262 273
713 4 3 6 6 0 142 141 273 153
714 4 3 6 6 0 141 273 153 152
715 4 3 6 6 0 254 133 263 265
716 4 3 6 6 0 133 263 265 274
717 4 3 6 6 0 133 274 265 144
718 4 3 6 6 0 133 142 263 274
719 4 3 6 6 0 133 142 274 144
720 4 3 6 6 0 142 274 144 153
769 4 3 6 6 0 274 153 273 285
770 4 3 6 6 0 153 273 285 284
771 4 3 6 6 0 153 284 285 164
772 4 3 6 6 0 153 152 273 284
773 4 3 6 6 0 153 152 284 164
774 4 3 6 6 0 152 284 164 163
775 4 3 6 6 0 265 144 274 276
776 4 3 6 6 0 144 274 276 285
777 4 3 6 6 0 144 285 276 155
778 4 3 6 6 0 144 153 274 285
779 4 3 6 6 0 144 153 285 155
780 4 3 6 6 0 153 285 155 164
829 4 3 6 6 0 285 164 284 296
830 4 3 6 6 0 164 284 296 295
831 4 3 6 6 0 164 295 296 175
832 4 3 6 6 0 164 163 284 295
833 4 3 6 6 0 164 163 295 175
834 4 3 6 6 0 163 295 175 174
835 4 3 6 6 0 276 155 285 287
836 4 3 6 6 0 155 285 287 296
837 4 3 6 6 0 155 296 287 166
838 4 3 6 6 0 155 164 285 296
839 4 3 6 6 0 155 164 296 166
840 4 3 6 6 0 164 296 166 175
889 4 3 6 6 0 296 175 295 307
890 4 3 6 6 0 175 295 307 306
891 4 3 6 6 0 175 306 307 186
892 4 3 6 6 0 175 174 295 306
893 4 3 6 6 0 175 174 306 186
894 4 3 6 6 0 174 306 186 185
895 4 3 6 6 0 287 166 296 298
896 4 3 6 6 0 166 296 298 307
897 4 3 6 6 0 166 307 298 177
898 4 3 6 6 0 166 175 296 307
899 4 3 6 6 0 166 175 307 177
900 4 3 6 6 0 175 307 177 186
955 4 3 6 6 0 298 177 307 309
956 4 3 6 6 0 177 307 309 318
957 4 3 6 6 0 177 318 309 188
958 4 3 6 6 0 177 186 307 318
959 4 3 6 6 0 177 186 318 188
960 4 3 6 6 0 186 318 188 197
1243 4 3 6 6 0 372 251 371 383
1244 4 3 6 6 0 251 371 383 382
1245 4 3 6 6 0 251 382 383 262
1246 4 3 6 6 0 251 250 371 382
1247 4 3 6 6 0 251 250 382 262
1248 4 3 6 6 0 250 382 262 261
1249 4 3 6 6 0 373 252 372 384
1250 4 3 6 6 0 252 372 384 383
1251 4 3 6 6 0 252 383 384 263
1252 4 3 6 6 0 252 251 372 383
1253 4 3 6 6 0 252 251 383 263
1254 4 3 6 6 0 251 383 263 262
1255 4 3 6 6 0 364 243 373 375
1256 4 3 6 6 0 243 373 375 384
1257 4 3 6 6 0 243 384 375 254
1258 4 3 6 6 0 243 252 373 384
1259 4 3 6 6 0 243 252 384 254
1260 4 3 6 6 0 252 384 254 263
1309 4 3 6 6 0 384 263 383 395
1310 4 3 6 6 0 263 383 395 394
1311 4 3 6 6 0 263 394 395 274
1312 4 3 6 6 0 263 262 383 394
1313 4 3 6 6 0 263 262 394 274
1314 4 3 6 6 0 262 394 274 273
1315 4 3 6 6 0 375 254 384 386
1316 4 3 6 6 0 254 384 386 395
1317 4 3 6 6 0 254 395 386 265
1318 4 3 6 6 0 254 263 384 395
1319 4 3 6 6 0 254 263 395 265
1320 4 3 6 6 0 263 395 265 274
1369 4 3 6 6 0 395 274 394 406
1370 4 3 6 6 0 274 394 406 405
1371 4 3 6 6 0 274 405 406 285
1372 4 3 6 6 0 274 273 394 405
1373 4 3 6 6 0 274 273 405 285
1374 4 3 6 6 0 273 405 285 284
1375 4 3 6 6 0 386 265 395 397
1376 4 3 6 6 0 265 395 397 406
1377 4 3 6 6 0 265 406 397 276
1378 4 3 6 6 0 265 274 395 406
1379 4 3 6 6 0 265 274 406 276
1380 4 3 6 6 0 274 406 276 285
1429 4 3 6 6 0 406 285 405 417
1430 4 3 6 6 0 285 405 417 416
1431 4 3 6 6 0 285 416 417 296
1432 4 3 6 6 0 285 284 405 416
1433 4 3 6 6 0 285 284 416 296
1434 4 3 6 6 0 284 416 296 295
1435 4 3 6 6 0 397 276 406 408
1436 4 3 6 6 0 276 406 408 417
1437 4 3 6 6 0 276 417 408 287
1438 4 3 6 6 0 276 285 406 417
1439 4 3 6 6 0 276 285 417 287
1440 4 3 6 6 0 285 417 287 296
1489 4 3 6 6 0 417 296 416 428
1490 4 3 6 6 0 296 416 428 427
1491 4 3 6 6 0 296 427 428 307
1492 4 3 6 6 0 296 295 416 427
1493 4 3 6 6 0 296 295 427 307
1494 4 3 6 6 0 295 427 307 306
1495 4 3 6 6 0 408 287 417 419
1496 4 3 6 6 0 287 417 419 428
1497 4 3 6 6 0 287 428 419 298
1498 4 3 6 6 0 287 296 417 428
1499 4 3 6 6 0 287 296 428 298
1500 4 3 6 6 0 296 428 298 307
1843 4 3 6 6 0 493 372 492 504
1844 4 3 6 6 0 372 492 504 503
1845 4 3 6 6 0 372 503 504 383
1846 4 3 6 6 0 372 371 492 503
1847 4 3 6 6 0 372 371 503 383
1848 4 3 6 6 0 371 503 383 382
1849 4 3 6 6 0 494 373 493 505
1850 4 3 6 6 0 373 493 505 504
1851 4 3 6 6 0 373 504 505 384
1852 4 3 6 6 0 373 372 493 504
1853 4 3 6 6 0 373 372 504 384
1854 4 3 6 6 0 372 504 384 383
1855 4 3 6 6 0 485 364 494 496
1856 4 3 6 6 0 364 494 496 505
1857 4 3 6 6 0 364 505 496 375
1858 4 3 6 6 0 364 373 494 505
1859 4 3 6 6 0 364 373 505 375
1860 4 3 6 6 0 373 505 375 384
1903 4 3 6 6 0 504 383 503 515
1904 4 3 6 6 0 383 503 515 514
1905 4 3 6 6 0 383 514 515 394
1906 4 3 6 6 0 383 382 503 514
1907 4 3 6 6 0 383 382 514 394
1908 4 3 6 6 0 382 514 394 393
1909 4 3 6 6 0 505 384 504 516
1910 4 3 6 6 0 384 504 516 515
1911 4 3 6 6 0 384 515 516 395
1912 4 3 6 6 0 384 383 504 515
1913 4 3 6 6 0 384 383 515 395
1914 4 3 6 6 0 383 515 395 394
1915 4 3 6 6 0 496 375 505 507
1916 4 3 6 6 0 375 505 507 516
1917 4 3 6 6 0 375 516 507 386
1918 4 3 6 6 0 375 384 505 516
1919 4 3 6 6 0 375 384 516 386
1920 4 3 6 6 0 384 516 386 395
1969 4 3 6 6 0 516 395 515 527
1970 4 3 6 6 0 395 515 527 526
1971 4 3 6 6 0 395 526 527 406
1972 4 3 6 6 0 395 394 515 526
1973 4 3 6 6 0 395 394 526 406
1974 4 3 6 6 0 394 526 406 405
1975 4 3 6 6 0 507 386 516 518
1976 4 3 6 6 0 386 516 518 527
1977 4 3 6 6 0 386 527 518 397
1978 4 3 6 6 0 386 395 516 527
1979 4 3 6 6 0 386 395 527 397
1980 4 3 6 6 0 395 527 397 406
2029 4 3 6 6 0 527 406 526 538
2030 4 3 6 6 0 406 526 538 537
2031 4 3 6 6 0 406 537 538 417
2032 4 3 6 6 0 406 405 526 537
2033 4 3 6 6 0 406 405 537 417
2034 4 3 6 6 0 405 537 417 416
2035 4 3 6 6 0 518 397 527 529
2036 4 3 6 6 0 397 527 529 538
2037 4 3 6 6 0 397 538 529 408
2038 4 3 6 6 0 397 406 527 538
2039 4 3 6 6 0 397 406 538 408
2040 4 3 6 6 0 406 538 408 417
2095 4 3 6 6 0 529 408 538 540
2096 4 3 6 6 0 408 538 540 549
2097 4 3 6 6 0 408 549 540 419
2098 4 3 6 6 0 408 417 538 549
2099 4 3 6 6 0 408 417 549 419
2100 4 3 6 6 0 417 549 419 428
2443 4 3 6 6 0 614 493 613 625
2444 4 3 6 6 0 493 613 625 624
2445 4 3 6 6 0 493 624 625 504
2446 4 3 6 6 0 493 492 613 624
2447 4 3 6 6 0 493 492 624 504
2448 4 3 6 6 0 492 624 504 503
2449 4 3 6 6 0 615 494 614 626
2450 4 3 6 6 0 494 614 626 625
2451 4 3 6 6 0 494 625 626 505
2452 4 3 6 6 0 494 493 614 625
2453 4 3 6 6 0 494 493 625 505
2454 4 3 6 6 0 493 625 505 504
2455 4 3 6 6 0 606 485 615 617
2456 4 3 6 6 0 485 615 617 626
2457 4 3 6 6 0 485 626 617 496
2458 4 3 6 6 0 485 494 615 626
2459 4 3 6 6 0 485 494 626 496
2460 4 3 6 6 0 494 626 496 505
2509 4 3 6 6 0 626 505 625 637
2510 4 3 6 6 0 505 625 637 636
2511 4 3 6 6 0 505 636 637 516
2512 4 3 6 6 0 505 504 625 636
2513 4 3 6 6 0 505 504 636 516
2514 4 3 6 6 0 504 636 516 515
2515 4 3 6 6 0 617 496 626 628
2516 4 3 6 6 0 496 626 628 637
2517 4 3 6 6 0 496 637 628 507
2518 4 3 6 6 0 496 505 626 637
2519 4 3 6 6 0 496 505 637 507
2520 4 3 6 6 0 505 637 507 516
2575 4 3 6 6 0 628 507 637 639
2576 4 3 6 6 0 507 637 639 648
2577 4 3 6 6 0 507 648 639 518
2578 4 3 6 6 0 507 516 637 648
2579 4 3 6 6 0 507 516 648 518
2580 4 3 6 6 0 516 648 518 527
2635 4 3 6 6 0 639 518 648 650
2636 4 3 6 6 0 518 648 650 659
2637 4 3 6 6 0 518 659 650 529
2638 4 3 6 6 0 518 527 648 659
2639 4 3 6 6 0 518 527 659 529
2640 4 3 6 6 0 527 659 529 538
3055 4 3 6 6 0 727 606 736 738
3056 4 3 6 6 0 606 736 738 747
3057 4 3 6 6 0 606 747 738 617
3058 4 3 6 6 0 606 615 736 747
3059 4 3 6 6 0 606 615 747 617
3060 4 3 6 6 0 615 747 617 626
3115 4 3 6 6 0 738 617 747 749
3116 4 3 6 6 0 617 747 749 758
3117 4 3 6 6 0 617 758 749 628
3118 4 3 6 6 0 617 626 747 758
3119 4 3 6 6 0 617 626 758 628
3120 4 3 6 6 0 626 758 628 637
$EndElements
