$MeshFormat
2.2 0 8
$EndMeshFormat
$Nodes
91
221 0.0 9.0 1.0
222 1.0 9.0 1.0
122 0.0 10.0 1.0
123 1.0 10.0 1.0
331 0.0 8.0 2.0
332 1.0 8.0 2.0
333 2.0 8.0 2.0
342 0.0 9.0 2.0
343 1.0 9.0 2.0
344 2.0 9.0 2.0
345 3.0 9.0 2.0
346 4.0 9.0 2.0
243 0.0 10.0 2.0
244 1.0 10.0 2.0
245 2.0 10.0 2.0
246 3.0 10.0 2.0
247 4.0 10.0 2.0
452 0.0 8.0 3.0
453 1.0 8.0 3.0
454 2.0 8.0 3.0
455 3.0 8.0 3.0
456 4.0 8.0 3.0
463 0.0 9.0 3.0
464 1.0 9.0 3.0
465 2.0 9.0 3.0
466 3.0 9.0 3.0
467 4.0 9.0 3.0
364 0.0 10.0 3.0
365 1.0 10.0 3.0
366 2.0 10.0 3.0
367 3.0 10.0 3.0
368 4.0 10.0 3.0
562 0.0 7.0 4.0
563 1.0 7.0 4.0
564 2.0 7.0 4.0
565 3.0 7.0 4.0
566 4.0 7.0 4.0
573 0.0 8.0 4.0
574 1.0 8.0 4.0
575 2.0 8.0 4.0
576 3.0 8.0 4.0
577 4.0 8.0 4.0
584 0.0 9.0 4.0
585 1.0 9.0 4.0
586 2.0 9.0 4.0
587 3.0 9.0 4.0
588 4.0 9.0 4.0
485 0.0 10.0 4.0
486 1.0 10.0 4.0
487 2.0 10.0 4.0
488 3.0 10.0 4.0
489 4.0 10.0 4.0
683 0.0 7.0 5.0
684 1.0 7.0 5.0
685 2.0 7.0 5.0
686 3.0 7.0 5.0
687 4.0 7.0 5.0
694 0.0 8.0 5.0
695 1.0 8.0 5.0
696 2.0 8.0 5.0
697 3.0 8.0 5.0
698 4.0 8.0 5.0
705 0.0 9.0 5.0
706 1.0 9.0 5.0
707 2.0 9.0 5.0
708 3.0 9.0 5.0
709 4.0 9.0 5.0
606 0.0 10.0 5.0
607 1.0 10.0 5.0
608 2.0 10.0 5.0
609 3.0 10.0 5.0
610 4.0 10.0 5.0
804 0.0 7.0 6.0
805 1.0 7.0 6.0
806 2.0 7.0 6.0
807 3.0 7.0 6.0
815 0.0 8.0 6.0
816 1.0 8.0 6.0
817 2.0 8.0 6.0
818 3.0 8.0 6.0
819 4.0 8.0 6.0
826 0.0 9.0 6.0
827 1.0 9.0 6.0
828 2.0 9.0 6.0
829 3.0 9.0 6.0
830 4.0 9.0 6.0
727 0.0 10.0 6.0
728 1.0 10.0 6.0
729 2.0 10.0 6.0
730 3.0 10.0 6.0
731 4.0 10.0 6.0
$EndNodes
$Elements
228
1141 4 3 13 13 0 343 222 342 244
1142 4 3 13 13 0 222 342 244 243
1143 4 3 13 13 0 222 243 244 123
1144 4 3 13 13 0 222 221 342 243
1145 4 3 13 13 0 222 221 243 123
1146 4 3 13 13 0 221 243 123 122
1681 4 3 13 13 0 453 332 452 464
1682 4 3 13 13 0 332 452 464 463
1683 4 3 13 13 0 332 463 464 343
1684 4 3 13 13 0 332 331 452 463
1685 4 3 13 13 0 332 331 463 343
1686 4 3 13 13 0 331 463 343 342
1687 4 3 13 13 0 454 333 453 465
1688 4 3 13 13 0 333 453 465 464
1689 4 3 13 13 0 333 464 465 344
1690 4 3 13 13 0 333 332 453 464
1691 4 3 13 13 0 333 332 464 344
1692 4 3 13 13 0 332 464 344 343
1741 4 3 13 13 0 464 343 463 365
1742 4 3 13 13 0 343 463 365 364
1743 4 3 13 13 0 343 364 365 244
1744 4 3 13 13 0 343 342 463 364
1745 4 3 13 13 0 343 342 364 244
1746 4 3 13 13 0 342 364 244 243
1747 4 3 13 13 0 465 344 464 366
1748 4 3 13 13 0 344 464 366 365
1749 4 3 13 13 0 344 365 366 245
1750 4 3 13 13 0 344 343 464 365
1751 4 3 13 13 0 344 343 365 245
1752 4 3 13 13 0 343 365 245 244
1753 4 3 13 13 0 466 345 465 367
1754 4 3 13 13 0 345 465 367 366
1755 4 3 13 13 0 345 366 367 246
1756 4 3 13 13 0 345 344 465 366
1757 4 3 13 13 0 345 344 366 246
1758 4 3 13 13 0 344 366 246 245
1759 4 3 13 13 0 467 346 466 368
1760 4 3 13 13 0 346 466 368 367
1761 4 3 13 13 0 346 367 368 247
1762 4 3 13 13 0 346 345 466 367
1763 4 3 13 13 0 346 345 367 247
1764 4 3 13 13 0 345 367 247 246
2281 4 3 13 13 0 574 453 573 585
2282 4 3 13 13 0 453 573 585 584
2283 4 3 13 13 0 453 584 585 464
2284 4 3 13 13 0 453 452 573 584
2285 4 3 13 13 0 453 452 584 464
2286 4 3 13 13 0 452 584 464 463
2287 4 3 13 13 0 575 454 574 586
2288 4 3 13 13 0 454 574 586 585
2289 4 3 13 13 0 454 585 586 465
2290 4 3 13 13 0 454 453 574 585
2291 4 3 13 13 0 454 453 585 465
2292 4 3 13 13 0 453 585 465 464
2293 4 3 13 13 0 576 455 575 587
2294 4 3 13 13 0 455 575 587 586
2295 4 3 13 13 0 455 586 587 466
2296 4 3 13 13 0 455 454 575 586
2297 4 3 13 13 0 455 454 586 466
2298 4 3 13 13 0 454 586 466 465
2299 4 3 13 13 0 577 456 576 588
2300 4 3 13 13 0 456 576 588 587
2301 4 3 13 13 0 456 587 588 467
2302 4 3 13 13 0 456 455 576 587
2303 4 3 13 13 0 456 455 587 467
2304 4 3 13 13 0 455 587 467 466
2341 4 3 13 13 0 585 464 584 486
2342 4 3 13 13 0 464 584 486 485
2343 4 3 13 13 0 464 485 486 365
2344 4 3 13 13 0 464 463 584 485
2345 4 3 13 13 0 464 463 485 365
2346 4 3 13 13 0 463 485 365 364
2347 4 3 13 13 0 586 465 585 487
2348 4 3 13 13 0 465 585 487 486
2349 4 3 13 13 0 465 486 487 366
2350 4 3 13 13 0 465 464 585 486
2351 4 3 13 13 0 465 464 486 366
2352 4 3 13 13 0 464 486 366 365
2353 4 3 13 13 0 587 466 586 488
2354 4 3 13 13 0 466 586 488 487
2355 4 3 13 13 0 466 487 488 367
2356 4 3 13 13 0 466 465 586 487
2357 4 3 13 13 0 466 465 487 367
2358 4 3 13 13 0 465 487 367 366
2359 4 3 13 13 0 588 467 587 489
2360 4 3 13 13 0 467 587 489 488
2361 4 3 13 13 0 467 488 489 368
2362 4 3 13 13 0 467 466 587 488
2363 4 3 13 13 0 467 466 488 368
2364 4 3 13 13 0 466 488 368 367
2821 4 3 13 13 0 684 563 683 695
2822 4 3 13 13 0 563 683 695 694
2823 4 3 13 13 0 563 694 695 574
2824 4 3 13 13 0 563 562 683 694
2825 4 3 13 13 0 563 562 694 574
2826 4 3 13 13 0 562 694 574 573
2827 4 3 13 13 0 685 564 684 696
2828 4 3 13 13 0 564 684 696 695
2829 4 3 13 13 0 564 695 696 575
2830 4 3 13 13 0 564 563 684 695
2831 4 3 13 13 0 564 563 695 575
2832 4 3 13 13 0 563 695 575 574
2833 4 3 13 13 0 686 565 685 697
2834 4 3 13 13 0 565 685 697 696
2835 4 3 13 13 0 565 696 697 576
2836 4 3 13 13 0 565 564 685 696
2837 4 3 13 13 0 565 564 696 576
2838 4 3 13 13 0 564 696 576 575
2839 4 3 13 13 0 687 566 686 698
2840 4 3 13 13 0 566 686 698 697
2841 4 3 13 13 0 566 697 698 577
2842 4 3 13 13 0 566 565 686 697
2843 4 3 13 13 0 566 565 697 577
2844 4 3 13 13 0 565 697 577 576
2881 4 3 13 13 0 695 574 694 706
2882 4 3 13 13 0 574 694 706 705
2883 4 3 13 13 0 574 705 706 585
2884 4 3 13 13 0 574 573 694 705
2885 4 3 13 13 0 574 573 705 585
2886 4 3 13 13 0 573 705 585 584
2887 4 3 13 13 0 696 575 695 707
2888 4 3 13 13 0 575 695 707 706
2889 4 3 13 13 0 575 706 707 586
2890 4 3 13 13 0 575 574 695 706
2891 4 3 13 13 0 575 574 706 586
2892 4 3 13 13 0 574 706 586 585
2893 4 3 13 13 0 697 576 696 708
2894 4 3 13 13 0 576 696 708 707
2895 4 3 13 13 0 576 707 708 587
2896 4 3 13 13 0 576 575 696 707
2897 4 3 13 13 0 576 575 707 587
2898 4 3 13 13 0 575 707 587 586
2899 4 3 13 13 0 698 577 697 709
2900 4 3 13 13 0 577 697 709 708
2901 4 3 13 13 0 577 708 709 588
2902 4 3 13 13 0 577 576 697 708
2903 4 3 13 13 0 577 576 708 588
2904 4 3 13 13 0 576 708 588 587
2941 4 3 13 13 0 706 585 705 607
2942 4 3 13 13 0 585 705 607 606
2943 4 3 13 13 0 585 606 607 486
2944 4 3 13 13 0 585 584 705 606
2945 4 3 13 13 0 585 584 606 486
2946 4 3 13 13 0 584 606 486 485
2947 4 3 13 13 0 707 586 706 608
2948 4 3 13 13 0 586 706 608 607
2949 4 3 13 13 0 586 607 608 487
2950 4 3 13 13 0 586 585 706 607
2951 4 3 13 13 0 586 585 607 487
2952 4 3 13 13 0 585 607 487 486
2953 4 3 13 13 0 708 587 707 609
2954 4 3 13 13 0 587 707 609 608
2955 4 3 13 13 0 587 608 609 488
2956 4 3 13 13 0 587 586 707 608
2957 4 3 13 13 0 587 586 608 488
2958 4 3 13 13 0 586 608 488 487
2959 4 3 13 13 0 709 588 708 610
2960 4 3 13 13 0 588 708 610 609
2961 4 3 13 13 0 588 609 610 489
2962 4 3 13 13 0 588 587 708 609
2963 4 3 13 13 0 588 587 609 489
2964 4 3 13 13 0 587 609 489 488
3421 4 3 13 13 0 805 684 804 816
3422 4 3 13 13 0 684 804 816 815
3423 4 3 13 13 0 684 815 816 695
3424 4 3 13 13 0 684 683 804 815
3425 4 3 13 13 0 684 683 815 695
3426 4 3 13 13 0 683 815 695 694
3427 4 3 13 13 0 806 685 805 817
3428 4 3 13 13 0 685 805 817 816
3429 4 3 13 13 0 685 816 817 696
3430 4 3 13 13 0 685 684 805 816
3431 4 3 13 13 0 685 684 816 696
3432 4 3 13 13 0 684 816 696 695
3433 4 3 13 13 0 807 686 806 818
3434 4 3 13 13 0 686 806 818 817
3435 4 3 13 13 0 686 817 818 697
3436 4 3 13 13 0 686 685 806 817
3437 4 3 13 13 0 686 685 817 697
3438 4 3 13 13 0 685 817 697 696
3481 4 3 13 13 0 816 695 815 827
3482 4 3 13 13 0 695 815 827 826
3483 4 3 13 13 0 695 826 827 706
3484 4 3 13 13 0 695 694 815 826
3485 4 3 13 13 0 695 694 826 706
3486 4 3 13 13 0 694 826 706 705
3487 4 3 13 13 0 817 696 816 828
3488 4 3 13 13 0 696 816 828 827
3489 4 3 13 13 0 696 827 828 707
3490 4 3 13 13 0 696 695 816 827
3491 4 3 13 13 0 696 695 827 707
3492 4 3 13 13 0 695 827 707 706
3493 4 3 13 13 0 818 697 817 829
3494 4 3 13 13 0 697 817 829 828
3495 4 3 13 13 0 697 828 829 708
3496 4 3 13 13 0 697 696 817 828
3497 4 3 13 13 0 697 696 828 708
3498 4 3 13 13 0 696 828 708 707
3499 4 3 13 13 0 819 698 818 830
3500 4 3 13 13 0 698 818 830 829
3501 4 3 13 13 0 698 829 830 709
3502 4 3 13 13 0 698 697 818 829
3503 4 3 13 13 0 698 697 829 709
3504 4 3 13 13 0 697 829 709 708
3541 4 3 13 13 0 827 706 826 728
3542 4 3 13 13 0 706 826 728 727
3543 4 3 13 13 0 706 727 728 607
3544 4 3 13 13 0 706 705 826 727
3545 4 3 13 13 0 706 705 727 607
3546 4 3 13 13 0 705 727 607 606
3547 4 3 13 13 0 828 707 827 729
3548 4 3 13 13 0 707 827 729 728
3549 4 3 13 13 0 707 728 729 608
3550 4 3 13 13 0 707 706 827 728
3551 4 3 13 13 0 707 706 728 608
3552 4 3 13 13 0 706 728 608 607
3553 4 3 13 13 0 829 708 828 730
3554 4 3 13 13 0 708 828 730 729
3555 4 3 13 13 0 708 729 730 609
3556 4 3 13 13 0 708 707 828 729
3557 4 3 13 13 0 708 707 729 609
3558 4 3 13 13 0 707 729 609 608
3559 4 3 13 13 0 830 709 829 731
3560 4 3 13 13 0 709 829 731 730
3561 4 3 13 13 0 709 730 731 610
3562 4 3 13 13 0 709 708 829 730
3563 4 3 13 13 0 709 708 730 610
3564 4 3 13 13 0 708 730 610 609
$EndElements
