$MeshFormat
2.2 0 8
$EndMeshFormat
$Nodes
146
709 4.0 9.0 5.0
710 5.0 9.0 5.0
711 6.0 9.0 5.0
610 4.0 10.0 5.0
611 5.0 10.0 5.0
612 6.0 10.0 5.0
798 5.0 6.0 6.0
799 6.0 6.0 6.0
800 7.0 6.0 6.0
808 4.0 7.0 6.0
809 5.0 7.0 6.0
810 6.0 7.0 6.0
811 7.0 7.0 6.0
819 4.0 8.0 6.0
820 5.0 8.0 6.0
821 6.0 8.0 6.0
822 7.0 8.0 6.0
830 4.0 9.0 6.0
831 5.0 9.0 6.0
832 6.0 9.0 6.0
833 7.0 9.0 6.0
731 4.0 10.0 6.0
732 5.0 10.0 6.0
733 6.0 10.0 6.0
734 7.0 10.0 6.0
918 4.0 6.0 7.0
919 5.0 6.0 7.0
920 6.0 6.0 7.0
921 7.0 6.0 7.0
929 4.0 7.0 7.0
930 5.0 7.0 7.0
931 6.0 7.0 7.0
932 7.0 7.0 7.0
933 8.0 7.0 7.0
940 4.0 8.0 7.0
941 5.0 8.0 7.0
942 6.0 8.0 7.0
943 7.0 8.0 7.0
944 8.0 8.0 7.0
951 4.0 9.0 7.0
952 5.0 9.0 7.0
953 6.0 9.0 7.0
954 7.0 9.0 7.0
955 8.0 9.0 7.0
852 4.0 10.0 7.0
853 5.0 10.0 7.0
854 6.0 10.0 7.0
855 7.0 10.0 7.0
856 8.0 10.0 7.0
1039 4.0 6.0 8.0
1040 5.0 6.0 8.0
1041 6.0 6.0 8.0
1042 7.0 6.0 8.0
1043 8.0 6.0 8.0
1050 4.0 7.0 8.0
1051 5.0 7.0 8.0
1052 6.0 7.0 8.0
1053 7.0 7.0 8.0
1054 8.0 7.0 8.0
1055 9.0 7.0 8.0
1061 4.0 8.0 8.0
1062 5.0 8.0 8.0
1063 6.0 8.0 8.0
1064 7.0 8.0 8.0
1065 8.0 8.0 8.0
1066 9.0 8.0 8.0
1072 4.0 9.0 8.0
1073 5.0 9.0 8.0
1074 6.0 9.0 8.0
1075 7.0 9.0 8.0
1076 8.0 9.0 8.0
1077 9.0 9.0 8.0
973 4.0 10.0 8.0
974 5.0 10.0 8.0
975 6.0 10.0 8.0
976 7.0 10.0 8.0
977 8.0 10.0 8.0
978 9.0 10.0 8.0
1151 6.0 5.0 9.0
1152 7.0 5.0 9.0
1160 4.0 6.0 9.0
1161 5.0 6.0 9.0
1162 6.0 6.0 9.0
1163 7.0 6.0 9.0
1164 8.0 6.0 9.0
1171 4.0 7.0 9.0
1172 5.0 7.0 9.0
1173 6.0 7.0 9.0
1174 7.0 7.0 9.0
1175 8.0 7.0 9.0
1176 9.0 7.0 9.0
1182 4.0 8.0 9.0
1183 5.0 8.0 9.0
1184 6.0 8.0 9.0
1185 7.0 8.0 9.0
1186 8.0 8.0 9.0
1187 9.0 8.0 9.0
1178 10.0 8.0 9.0
1193 4.0 9.0 9.0
1194 5.0 9.0 9.0
1195 6.0 9.0 9.0
1196 7.0 9.0 9.0
1197 8.0 9.0 9.0
1198 9.0 9.0 9.0
1189 10.0 9.0 9.0
1094 4.0 10.0 9.0
1095 5.0 10.0 9.0
1096 6.0 10.0 9.0
1097 7.0 10.0 9.0
1098 8.0 10.0 9.0
1099 9.0 10.0 9.0
1090 10.0 10.0 9.0
62 6.0 5.0 10.0
63 7.0 5.0 10.0
71 4.0 6.0 10.0
72 5.0 6.0 10.0
73 6.0 6.0 10.0
74 7.0 6.0 10.0
75 8.0 6.0 10.0
82 4.0 7.0 10.0
83 5.0 7.0 10.0
84 6.0 7.0 10.0
85 7.0 7.0 10.0
86 8.0 7.0 10.0
87 9.0 7.0 10.0
93 4.0 8.0 10.0
94 5.0 8.0 10.0
95 6.0 8.0 10.0
96 7.0 8.0 10.0
97 8.0 8.0 10.0
98 9.0 8.0 10.0
89 10.0 8.0 10.0
104 4.0 9.0 10.0
105 5.0 9.0 10.0
106 6.0 9.0 10.0
107 7.0 9.0 10.0
108 8.0 9.0 10.0
109 9.0 9.0 10.0
100 10.0 9.0 10.0
5 4.0 10.0 10.0
6 5.0 10.0 10.0
7 6.0 10.0 10.0
8 7.0 10.0 10.0
9 8.0 10.0 10.0
10 9.0 10.0 10.0
1331 10.0 10.0 10.0
$EndNodes
$Elements
414
3565 4 3 2 2 0 831 710 830 732
3566 4 3 2 2 0 710 830 732 731
3567 4 3 2 2 0 710 731 732 611
3568 4 3 2 2 0 710 709 830 731
3569 4 3 2 2 0 710 709 731 611
3570 4 3 2 2 0 709 731 611 610
3571 4 3 2 2 0 832 711 831 733
3572 4 3 2 2 0 711 831 733 732
3573 4 3 2 2 0 711 732 733 612
3574 4 3 2 2 0 711 710 831 732
3575 4 3 2 2 0 711 710 732 612
3576 4 3 2 2 0 710 732 612 611
3991 4 3 2 2 0 920 799 919 931
3992 4 3 2 2 0 799 919 931 930
3993 4 3 2 2 0 799 930 931 810
3994 4 3 2 2 0 799 798 919 930
3995 4 3 2 2 0 799 798 930 810
3996 4 3 2 2 0 798 930 810 809
3997 4 3 2 2 0 921 800 920 932
3998 4 3 2 2 0 800 920 932 931
3999 4 3 2 2 0 800 931 932 811
4000 4 3 2 2 0 800 799 920 931
4001 4 3 2 2 0 800 799 931 811
4002 4 3 2 2 0 799 931 811 810
4045 4 3 2 2 0 930 809 929 941
4046 4 3 2 2 0 809 929 941 940
4047 4 3 2 2 0 809 940 941 820
4048 4 3 2 2 0 809 808 929 940
4049 4 3 2 2 0 809 808 940 820
4050 4 3 2 2 0 808 940 820 819
4051 4 3 2 2 0 931 810 930 942
4052 4 3 2 2 0 810 930 942 941
4053 4 3 2 2 0 810 941 942 821
4054 4 3 2 2 0 810 809 930 941
4055 4 3 2 2 0 810 809 941 821
4056 4 3 2 2 0 809 941 821 820
4057 4 3 2 2 0 932 811 931 943
4058 4 3 2 2 0 811 931 943 942
4059 4 3 2 2 0 811 942 943 822
4060 4 3 2 2 0 811 810 931 942
4061 4 3 2 2 0 811 810 942 822
4062 4 3 2 2 0 810 942 822 821
4105 4 3 2 2 0 941 820 940 952
4106 4 3 2 2 0 820 940 952 951
4107 4 3 2 2 0 820 951 952 831
4108 4 3 2 2 0 820 819 940 951
4109 4 3 2 2 0 820 819 951 831
4110 4 3 2 2 0 819 951 831 830
4111 4 3 2 2 0 942 821 941 953
4112 4 3 2 2 0 821 941 953 952
4113 4 3 2 2 0 821 952 953 832
4114 4 3 2 2 0 821 820 941 952
4115 4 3 2 2 0 821 820 952 832
4116 4 3 2 2 0 820 952 832 831
4117 4 3 2 2 0 943 822 942 954
4118 4 3 2 2 0 822 942 954 953
4119 4 3 2 2 0 822 953 954 833
4120 4 3 2 2 0 822 821 942 953
4121 4 3 2 2 0 822 821 953 833
4122 4 3 2 2 0 821 953 833 832
4165 4 3 2 2 0 952 831 951 853
4166 4 3 2 2 0 831 951 853 852
4167 4 3 2 2 0 831 852 853 732
4168 4 3 2 2 0 831 830 951 852
4169 4 3 2 2 0 831 830 852 732
4170 4 3 2 2 0 830 852 732 731
4171 4 3 2 2 0 953 832 952 854
4172 4 3 2 2 0 832 952 854 853
4173 4 3 2 2 0 832 853 854 733
4174 4 3 2 2 0 832 831 952 853
4175 4 3 2 2 0 832 831 853 733
4176 4 3 2 2 0 831 853 733 732
4177 4 3 2 2 0 954 833 953 855
4178 4 3 2 2 0 833 953 855 854
4179 4 3 2 2 0 833 854 855 734
4180 4 3 2 2 0 833 832 953 854
4181 4 3 2 2 0 833 832 854 734
4182 4 3 2 2 0 832 854 734 733
4585 4 3 2 2 0 1040 919 1039 1051
4586 4 3 2 2 0 919 1039 1051 1050
4587 4 3 2 2 0 919 1050 1051 930
4588 4 3 2 2 0 919 918 1039 1050
4589 4 3 2 2 0 919 918 1050 930
4590 4 3 2 2 0 918 1050 930 929
4591 4 3 2 2 0 1041 920 1040 1052
4592 4 3 2 2 0 920 1040 1052 1051
4593 4 3 2 2 0 920 1051 1052 931
4594 4 3 2 2 0 920 919 1040 1051
4595 4 3 2 2 0 920 919 1051 931
4596 4 3 2 2 0 919 1051 931 930
4597 4 3 2 2 0 1042 921 1041 1053
4598 4 3 2 2 0 921 1041 1053 1052
4599 4 3 2 2 0 921 1052 1053 932
4600 4 3 2 2 0 921 920 1041 1052
4601 4 3 2 2 0 921 920 1052 932
4602 4 3 2 2 0 920 1052 932 931
4645 4 3 2 2 0 1051 930 1050 1062
4646 4 3 2 2 0 930 1050 1062 1061
4647 4 3 2 2 0 930 1061 1062 941
4648 4 3 2 2 0 930 929 1050 1061
4649 4 3 2 2 0 930 929 1061 941
4650 4 3 2 2 0 929 1061 941 940
4651 4 3 2 2 0 1052 931 1051 1063
4652 4 3 2 2 0 931 1051 1063 1062
4653 4 3 2 2 0 931 1062 1063 942
4654 4 3 2 2 0 931 930 1051 1062
4655 4 3 2 2 0 931 930 1062 942
4656 4 3 2 2 0 930 1062 942 941
4657 4 3 2 2 0 1053 932 1052 1064
4658 4 3 2 2 0 932 1052 1064 1063
4659 4 3 2 2 0 932 1063 1064 943
4660 4 3 2 2 0 932 931 1052 1063
4661 4 3 2 2 0 932 931 1063 943
4662 4 3 2 2 0 931 1063 943 942
4663 4 3 2 2 0 1054 933 1053 1065
4664 4 3 2 2 0 933 1053 1065 1064
4665 4 3 2 2 0 933 1064 1065 944
4666 4 3 2 2 0 933 932 1053 1064
4667 4 3 2 2 0 933 932 1064 944
4668 4 3 2 2 0 932 1064 944 943
4705 4 3 2 2 0 1062 941 1061 1073
4706 4 3 2 2 0 941 1061 1073 1072
4707 4 3 2 2 0 941 1072 1073 952
4708 4 3 2 2 0 941 940 1061 1072
4709 4 3 2 2 0 941 940 1072 952
4710 4 3 2 2 0 940 1072 952 951
4711 4 3 2 2 0 1063 942 1062 1074
4712 4 3 2 2 0 942 1062 1074 1073
4713 4 3 2 2 0 942 1073 1074 953
4714 4 3 2 2 0 942 941 1062 1073
4715 4 3 2 2 0 942 941 1073 953
4716 4 3 2 2 0 941 1073 953 952
4717 4 3 2 2 0 1064 943 1063 1075
4718 4 3 2 2 0 943 1063 1075 1074
4719 4 3 2 2 0 943 1074 1075 954
4720 4 3 2 2 0 943 942 1063 1074
4721 4 3 2 2 0 943 942 1074 954
4722 4 3 2 2 0 942 1074 954 953
4723 4 3 2 2 0 1065 944 1064 1076
4724 4 3 2 2 0 944 1064 1076 1075
4725 4 3 2 2 0 944 1075 1076 955
4726 4 3 2 2 0 944 943 1064 1075
4727 4 3 2 2 0 944 943 1075 955
4728 4 3 2 2 0 943 1075 955 954
4765 4 3 2 2 0 1073 952 1072 974
4766 4 3 2 2 0 952 1072 974 973
4767 4 3 2 2 0 952 973 974 853
4768 4 3 2 2 0 952 951 1072 973
4769 4 3 2 2 0 952 951 973 853
4770 4 3 2 2 0 951 973 853 852
4771 4 3 2 2 0 1074 953 1073 975
4772 4 3 2 2 0 953 1073 975 974
4773 4 3 2 2 0 953 974 975 854
4774 4 3 2 2 0 953 952 1073 974
4775 4 3 2 2 0 953 952 974 854
4776 4 3 2 2 0 952 974 854 853
4777 4 3 2 2 0 1075 954 1074 976
4778 4 3 2 2 0 954 1074 976 975
4779 4 3 2 2 0 954 975 976 855
4780 4 3 2 2 0 954 953 1074 975
4781 4 3 2 2 0 954 953 975 855
4782 4 3 2 2 0 953 975 855 854
4783 4 3 2 2 0 1076 955 1075 977
4784 4 3 2 2 0 955 1075 977 976
4785 4 3 2 2 0 955 976 977 856
4786 4 3 2 2 0 955 954 1075 976
4787 4 3 2 2 0 955 954 976 856
4788 4 3 2 2 0 954 976 856 855
5185 4 3 2 2 0 1161 1040 1160 1172
5186 4 3 2 2 0 1040 1160 1172 1171
5187 4 3 2 2 0 1040 1171 1172 1051
5188 4 3 2 2 0 1040 1039 1160 1171
5189 4 3 2 2 0 1040 1039 1171 1051
5190 4 3 2 2 0 1039 1171 1051 1050
5191 4 3 2 2 0 1162 1041 1161 1173
5192 4 3 2 2 0 1041 1161 1173 1172
5193 4 3 2 2 0 1041 1172 1173 1052
5194 4 3 2 2 0 1041 1040 1161 1172
5195 4 3 2 2 0 1041 1040 1172 1052
5196 4 3 2 2 0 1040 1172 1052 1051
5197 4 3 2 2 0 1163 1042 1162 1174
5198 4 3 2 2 0 1042 1162 1174 1173
5199 4 3 2 2 0 1042 1173 1174 1053
5200 4 3 2 2 0 1042 1041 1162 1173
5201 4 3 2 2 0 1042 1041 1173 1053
5202 4 3 2 2 0 1041 1173 1053 1052
5203 4 3 2 2 0 1164 1043 1163 1175
5204 4 3 2 2 0 1043 1163 1175 1174
5205 4 3 2 2 0 1043 1174 1175 1054
5206 4 3 2 2 0 1043 1042 1163 1174
5207 4 3 2 2 0 1043 1042 1174 1054
5208 4 3 2 2 0 1042 1174 1054 1053
5245 4 3 2 2 0 1172 1051 1171 1183
5246 4 3 2 2 0 1051 1171 1183 1182
5247 4 3 2 2 0 1051 1182 1183 1062
5248 4 3 2 2 0 1051 1050 1171 1182
5249 4 3 2 2 0 1051 1050 1182 1062
5250 4 3 2 2 0 1050 1182 1062 1061
5251 4 3 2 2 0 1173 1052 1172 1184
5252 4 3 2 2 0 1052 1172 1184 1183
5253 4 3 2 2 0 1052 1183 1184 1063
5254 4 3 2 2 0 1052 1051 1172 1183
5255 4 3 2 2 0 1052 1051 1183 1063
5256 4 3 2 2 0 1051 1183 1063 1062
5257 4 3 2 2 0 1174 1053 1173 1185
5258 4 3 2 2 0 1053 1173 1185 1184
5259 4 3 2 2 0 1053 1184 1185 1064
5260 4 3 2 2 0 1053 1052 1173 1184
5261 4 3 2 2 0 1053 1052 1184 1064
5262 4 3 2 2 0 1052 1184 1064 1063
5263 4 3 2 2 0 1175 1054 1174 1186
5264 4 3 2 2 0 1054 1174 1186 1185
5265 4 3 2 2 0 1054 1185 1186 1065
5266 4 3 2 2 0 1054 1053 1174 1185
5267 4 3 2 2 0 1054 1053 1185 1065
5268 4 3 2 2 0 1053 1185 1065 1064
5269 4 3 2 2 0 1176 1055 1175 1187
5270 4 3 2 2 0 1055 1175 1187 1186
5271 4 3 2 2 0 1055 1186 1187 1066
5272 4 3 2 2 0 1055 1054 1175 1186
5273 4 3 2 2 0 1055 1054 1186 1066
5274 4 3 2 2 0 1054 1186 1066 1065
5305 4 3 2 2 0 1183 1062 1182 1194
5306 4 3 2 2 0 1062 1182 1194 1193
5307 4 3 2 2 0 1062 1193 1194 1073
5308 4 3 2 2 0 1062 1061 1182 1193
5309 4 3 2 2 0 1062 1061 1193 1073
5310 4 3 2 2 0 1061 1193 1073 1072
5311 4 3 2 2 0 1184 1063 1183 1195
5312 4 3 2 2 0 1063 1183 1195 1194
5313 4 3 2 2 0 1063 1194 1195 1074
5314 4 3 2 2 0 1063 1062 1183 1194
5315 4 3 2 2 0 1063 1062 1194 1074
5316 4 3 2 2 0 1062 1194 1074 1073
5317 4 3 2 2 0 1185 1064 1184 1196
5318 4 3 2 2 0 1064 1184 1196 1195
5319 4 3 2 2 0 1064 1195 1196 1075
5320 4 3 2 2 0 1064 1063 1184 1195
5321 4 3 2 2 0 1064 1063 1195 1075
5322 4 3 2 2 0 1063 1195 1075 1074
5323 4 3 2 2 0 1186 1065 1185 1197
5324 4 3 2 2 0 1065 1185 1197 1196
5325 4 3 2 2 0 1065 1196 1197 1076
5326 4 3 2 2 0 1065 1064 1185 1196
5327 4 3 2 2 0 1065 1064 1196 1076
5328 4 3 2 2 0 1064 1196 1076 1075
5329 4 3 2 2 0 1187 1066 1186 1198
5330 4 3 2 2 0 1066 1186 1198 1197
5331 4 3 2 2 0 1066 1197 1198 1077
5332 4 3 2 2 0 1066 1065 1186 1197
5333 4 3 2 2 0 1066 1065 1197 1077
5334 4 3 2 2 0 1065 1197 1077 1076
5365 4 3 2 2 0 1194 1073 1193 1095
5366 4 3 2 2 0 1073 1193 1095 1094
5367 4 3 2 2 0 1073 1094 1095 974
5368 4 3 2 2 0 1073 1072 1193 1094
5369 4 3 2 2 0 1073 1072 1094 974
5370 4 3 2 2 0 1072 1094 974 973
5371 4 3 2 2 0 1195 1074 1194 1096
5372 4 3 2 2 0 1074 1194 1096 1095
5373 4 3 2 2 0 1074 1095 1096 975
5374 4 3 2 2 0 1074 1073 1194 1095
5375 4 3 2 2 0 1074 1073 1095 975
5376 4 3 2 2 0 1073 1095 975 974
5377 4 3 2 2 0 1196 1075 1195 1097
5378 4 3 2 2 0 1075 1195 1097 1096
5379 4 3 2 2 0 1075 1096 1097 976
5380 4 3 2 2 0 1075 1074 1195 1096
5381 4 3 2 2 0 1075 1074 1096 976
5382 4 3 2 2 0 1074 1096 976 975
5383 4 3 2 2 0 1197 1076 1196 1098
5384 4 3 2 2 0 1076 1196 1098 1097
5385 4 3 2 2 0 1076 1097 1098 977
5386 4 3 2 2 0 1076 1075 1196 1097
5387 4 3 2 2 0 1076 1075 1097 977
5388 4 3 2 2 0 1075 1097 977 976
5389 4 3 2 2 0 1198 1077 1197 1099
5390 4 3 2 2 0 1077 1197 1099 1098
5391 4 3 2 2 0 1077 1098 1099 978
5392 4 3 2 2 0 1077 1076 1197 1098
5393 4 3 2 2 0 1077 1076 1098 978
5394 4 3 2 2 0 1076 1098 978 977
5737 4 3 2 2 0 63 1152 62 74
5738 4 3 2 2 0 1152 62 74 73
5739 4 3 2 2 0 1152 73 74 1163
5740 4 3 2 2 0 1152 1151 62 73
5741 4 3 2 2 0 1152 1151 73 1163
5742 4 3 2 2 0 1151 73 1163 1162
5785 4 3 2 2 0 72 1161 71 83
5786 4 3 2 2 0 1161 71 83 82
5787 4 3 2 2 0 1161 82 83 1172
5788 4 3 2 2 0 1161 1160 71 82
5789 4 3 2 2 0 1161 1160 82 1172
5790 4 3 2 2 0 1160 82 1172 1171
5791 4 3 2 2 0 73 1162 72 84
5792 4 3 2 2 0 1162 72 84 83
5793 4 3 2 2 0 1162 83 84 1173
5794 4 3 2 2 0 1162 1161 72 83
5795 4 3 2 2 0 1162 1161 83 1173
5796 4 3 2 2 0 1161 83 1173 1172
5797 4 3 2 2 0 74 1163 73 85
5798 4 3 2 2 0 1163 73 85 84
5799 4 3 2 2 0 1163 84 85 1174
5800 4 3 2 2 0 1163 1162 73 84
5801 4 3 2 2 0 1163 1162 84 1174
5802 4 3 2 2 0 1162 84 1174 1173
5803 4 3 2 2 0 75 1164 74 86
5804 4 3 2 2 0 1164 74 86 85
5805 4 3 2 2 0 1164 85 86 1175
5806 4 3 2 2 0 1164 1163 74 85
5807 4 3 2 2 0 1164 1163 85 1175
5808 4 3 2 2 0 1163 85 1175 1174
5845 4 3 2 2 0 83 1172 82 94
5846 4 3 2 2 0 1172 82 94 93
5847 4 3 2 2 0 1172 93 94 1183
5848 4 3 2 2 0 1172 1171 82 93
5849 4 3 2 2 0 1172 1171 93 1183
5850 4 3 2 2 0 1171 93 1183 1182
5851 4 3 2 2 0 84 1173 83 95
5852 4 3 2 2 0 1173 83 95 94
5853 4 3 2 2 0 1173 94 95 1184
5854 4 3 2 2 0 1173 1172 83 94
5855 4 3 2 2 0 1173 1172 94 1184
5856 4 3 2 2 0 1172 94 1184 1183
5857 4 3 2 2 0 85 1174 84 96
5858 4 3 2 2 0 1174 84 96 95
5859 4 3 2 2 0 1174 95 96 1185
5860 4 3 2 2 0 1174 1173 84 95
5861 4 3 2 2 0 1174 1173 95 1185
5862 4 3 2 2 0 1173 95 1185 1184
5863 4 3 2 2 0 86 1175 85 97
5864 4 3 2 2 0 1175 85 97 96
5865 4 3 2 2 0 1175 96 97 1186
5866 4 3 2 2 0 1175 1174 85 96
5867 4 3 2 2 0 1175 1174 96 1186
5868 4 3 2 2 0 1174 96 1186 1185
5869 4 3 2 2 0 87 1176 86 98
5870 4 3 2 2 0 1176 86 98 97
5871 4 3 2 2 0 1176 97 98 1187
5872 4 3 2 2 0 1176 1175 86 97
5873 4 3 2 2 0 1176 1175 97 1187
5874 4 3 2 2 0 1175 97 1187 1186
5905 4 3 2 2 0 94 1183 93 105
5906 4 3 2 2 0 1183 93 105 104
5907 4 3 2 2 0 1183 104 105 1194
5908 4 3 2 2 0 1183 1182 93 104
5909 4 3 2 2 0 1183 1182 104 1194
5910 4 3 2 2 0 1182 104 1194 1193
5911 4 3 2 2 0 95 1184 94 106
5912 4 3 2 2 0 1184 94 106 105
5913 4 3 2 2 0 1184 105 106 1195
5914 4 3 2 2 0 1184 1183 94 105
5915 4 3 2 2 0 1184 1183 105 1195
5916 4 3 2 2 0 1183 105 1195 1194
5917 4 3 2 2 0 96 1185 95 107
5918 4 3 2 2 0 1185 95 107 106
5919 4 3 2 2 0 1185 106 107 1196
5920 4 3 2 2 0 1185 1184 95 106
5921 4 3 2 2 0 1185 1184 106 1196
5922 4 3 2 2 0 1184 106 1196 1195
5923 4 3 2 2 0 97 1186 96 108
5924 4 3 2 2 0 1186 96 108 107
5925 4 3 2 2 0 1186 107 108 1197
5926 4 3 2 2 0 1186 1185 96 107
5927 4 3 2 2 0 1186 1185 107 1197
5928 4 3 2 2 0 1185 107 1197 1196
5929 4 3 2 2 0 98 1187 97 109
5930 4 3 2 2 0 1187 97 109 108
5931 4 3 2 2 0 1187 108 109 1198
5932 4 3 2 2 0 1187 1186 97 108
5933 4 3 2 2 0 1187 1186 108 1198
5934 4 3 2 2 0 1186 108 1198 1197
5935 4 3 2 2 0 89 1178 98 100
5936 4 3 2 2 0 1178 98 100 109
5937 4 3 2 2 0 1178 109 100 1189
5938 4 3 2 2 0 1178 1187 98 109
5939 4 3 2 2 0 1178 1187 109 1189
5940 4 3 2 2 0 1187 109 1189 1198
5965 4 3 2 2 0 105 1194 104 6
5966 4 3 2 2 0 1194 104 6 5
5967 4 3 2 2 0 1194 5 6 1095
5968 4 3 2 2 0 1194 1193 104 5
5969 4 3 2 2 0 1194 1193 5 1095
5970 4 3 2 2 0 1193 5 1095 1094
5971 4 3 2 2 0 106 1195 105 7
5972 4 3 2 2 0 1195 105 7 6
5973 4 3 2 2 0 1195 6 7 1096
5974 4 3 2 2 0 1195 1194 105 6
5975 4 3 2 2 0 1195 1194 6 1096
5976 4 3 2 2 0 1194 6 1096 1095
5977 4 3 2 2 0 107 1196 106 8
5978 4 3 2 2 0 1196 106 8 7
5979 4 3 2 2 0 1196 7 8 1097
5980 4 3 2 2 0 1196 1195 106 7
5981 4 3 2 2 0 1196 1195 7 1097
5982 4 3 2 2 0 1195 7 1097 1096
5983 4 3 2 2 0 108 1197 107 9
5984 4 3 2 2 0 1197 107 9 8
5985 4 3 2 2 0 1197 8 9 1098
5986 4 3 2 2 0 1197 1196 107 8
5987 4 3 2 2 0 1197 1196 8 1098
5988 4 3 2 2 0 1196 8 1098 1097
5989 4 3 2 2 0 109 1198 108 10
5990 4 3 2 2 0 1198 108 10 9
5991 4 3 2 2 0 1198 9 10 1099
5992 4 3 2 2 0 1198 1197 108 9
5993 4 3 2 2 0 1198 1197 9 1099
5994 4 3 2 2 0 1197 9 1099 1098
5995 4 3 2 2 0 100 1189 109 1331
5996 4 3 2 2 0 1189 109 1331 10
5997 4 3 2 2 0 1189 10 1331 1090
5998 4 3 2 2 0 1189 1198 109 10
5999 4 3 2 2 0 1189 1198 10 1090
6000 4 3 2 2 0 1198 10 1090 1099
$EndElements
