$MeshFormat
2.2 0 8
$EndMeshFormat
$Nodes
97
95 6.0 8.0 0.0
96 7.0 8.0 0.0
97 8.0 8.0 0.0
98 9.0 8.0 0.0
89 10.0 8.0 0.0
104 4.0 9.0 0.0
105 5.0 9.0 0.0
106 6.0 9.0 0.0
107 7.0 9.0 0.0
108 8.0 9.0 0.0
109 9.0 9.0 0.0
100 10.0 9.0 0.0
5 4.0 10.0 0.0
6 5.0 10.0 0.0
7 6.0 10.0 0.0
8 7.0 10.0 0.0
9 8.0 10.0 0.0
10 9.0 10.0 0.0
121 10.0 10.0 0.0
216 6.0 8.0 1.0
217 7.0 8.0 1.0
218 8.0 8.0 1.0
219 9.0 8.0 1.0
210 10.0 8.0 1.0
225 4.0 9.0 1.0
226 5.0 9.0 1.0
227 6.0 9.0 1.0
228 7.0 9.0 1.0
229 8.0 9.0 1.0
230 9.0 9.0 1.0
221 10.0 9.0 1.0
126 4.0 10.0 1.0
127 5.0 10.0 1.0
128 6.0 10.0 1.0
129 7.0 10.0 1.0
130 8.0 10.0 1.0
131 9.0 10.0 1.0
122 10.0 10.0 1.0
336 5.0 8.0 2.0
337 6.0 8.0 2.0
338 7.0 8.0 2.0
339 8.0 8.0 2.0
340 9.0 8.0 2.0
331 10.0 8.0 2.0
346 4.0 9.0 2.0
347 5.0 9.0 2.0
348 6.0 9.0 2.0
349 7.0 9.0 2.0
350 8.0 9.0 2.0
351 9.0 9.0 2.0
342 10.0 9.0 2.0
247 4.0 10.0 2.0
248 5.0 10.0 2.0
249 6.0 10.0 2.0
250 7.0 10.0 2.0
251 8.0 10.0 2.0
252 9.0 10.0 2.0
243 10.0 10.0 2.0
457 5.0 8.0 3.0
458 6.0 8.0 3.0
459 7.0 8.0 3.0
460 8.0 8.0 3.0
467 4.0 9.0 3.0
468 5.0 9.0 3.0
469 6.0 9.0 3.0
470 7.0 9.0 3.0
471 8.0 9.0 3.0
472 9.0 9.0 3.0
368 4.0 10.0 3.0
369 5.0 10.0 3.0
370 6.0 10.0 3.0
371 7.0 10.0 3.0
372 8.0 10.0 3.0
373 9.0 10.0 3.0
578 5.0 8.0 4.0
579 6.0 8.0 4.0
580 7.0 8.0 4.0
588 4.0 9.0 4.0
589 5.0 9.0 4.0
590 6.0 9.0 4.0
591 7.0 9.0 4.0
592 8.0 9.0 4.0
489 4.0 10.0 4.0
490 5.0 10.0 4.0
491 6.0 10.0 4.0
492 7.0 10.0 4.0
493 8.0 10.0 4.0
699 5.0 8.0 5.0
700 6.0 8.0 5.0
709 4.0 9.0 5.0
710 5.0 9.0 5.0
711 6.0 9.0 5.0
712 7.0 9.0 5.0
610 4.0 10.0 5.0
611 5.0 10.0 5.0
612 6.0 10.0 5.0
613 7.0 10.0 5.0
$EndNodes
$Elements
228
517 4 3 4 4 0 217 96 216 228
518 4 3 4 4 0 96 216 228 227
519 4 3 4 4 0 96 227 228 107
520 4 3 4 4 0 96 95 216 227
521 4 3 4 4 0 96 95 227 107
522 4 3 4 4 0 95 227 107 106
523 4 3 4 4 0 218 97 217 229
524 4 3 4 4 0 97 217 229 228
525 4 3 4 4 0 97 228 229 108
526 4 3 4 4 0 97 96 217 228
527 4 3 4 4 0 97 96 228 108
528 4 3 4 4 0 96 228 108 107
529 4 3 4 4 0 219 98 218 230
530 4 3 4 4 0 98 218 230 229
531 4 3 4 4 0 98 229 230 109
532 4 3 4 4 0 98 97 218 229
533 4 3 4 4 0 98 97 229 109
534 4 3 4 4 0 97 229 109 108
535 4 3 4 4 0 210 89 219 221
536 4 3 4 4 0 89 219 221 230
537 4 3 4 4 0 89 230 221 100
538 4 3 4 4 0 89 98 219 230
539 4 3 4 4 0 89 98 230 100
540 4 3 4 4 0 98 230 100 109
565 4 3 4 4 0 226 105 225 127
566 4 3 4 4 0 105 225 127 126
567 4 3 4 4 0 105 126 127 6
568 4 3 4 4 0 105 104 225 126
569 4 3 4 4 0 105 104 126 6
570 4 3 4 4 0 104 126 6 5
571 4 3 4 4 0 227 106 226 128
572 4 3 4 4 0 106 226 128 127
573 4 3 4 4 0 106 127 128 7
574 4 3 4 4 0 106 105 226 127
575 4 3 4 4 0 106 105 127 7
576 4 3 4 4 0 105 127 7 6
577 4 3 4 4 0 228 107 227 129
578 4 3 4 4 0 107 227 129 128
579 4 3 4 4 0 107 128 129 8
580 4 3 4 4 0 107 106 227 128
581 4 3 4 4 0 107 106 128 8
582 4 3 4 4 0 106 128 8 7
583 4 3 4 4 0 229 108 228 130
584 4 3 4 4 0 108 228 130 129
585 4 3 4 4 0 108 129 130 9
586 4 3 4 4 0 108 107 228 129
587 4 3 4 4 0 108 107 129 9
588 4 3 4 4 0 107 129 9 8
589 4 3 4 4 0 230 109 229 131
590 4 3 4 4 0 109 229 131 130
591 4 3 4 4 0 109 130 131 10
592 4 3 4 4 0 109 108 229 130
593 4 3 4 4 0 109 108 130 10
594 4 3 4 4 0 108 130 10 9
595 4 3 4 4 0 221 100 230 122
596 4 3 4 4 0 100 230 122 131
597 4 3 4 4 0 100 131 122 121
598 4 3 4 4 0 100 109 230 131
599 4 3 4 4 0 100 109 131 121
600 4 3 4 4 0 109 131 121 10
1117 4 3 4 4 0 338 217 337 349
1118 4 3 4 4 0 217 337 349 348
1119 4 3 4 4 0 217 348 349 228
1120 4 3 4 4 0 217 216 337 348
1121 4 3 4 4 0 217 216 348 228
1122 4 3 4 4 0 216 348 228 227
1123 4 3 4 4 0 339 218 338 350
1124 4 3 4 4 0 218 338 350 349
1125 4 3 4 4 0 218 349 350 229
1126 4 3 4 4 0 218 217 338 349
1127 4 3 4 4 0 218 217 349 229
1128 4 3 4 4 0 217 349 229 228
1129 4 3 4 4 0 340 219 339 351
1130 4 3 4 4 0 219 339 351 350
1131 4 3 4 4 0 219 350 351 230
1132 4 3 4 4 0 219 218 339 350
1133 4 3 4 4 0 219 218 350 230
1134 4 3 4 4 0 218 350 230 229
1135 4 3 4 4 0 331 210 340 342
1136 4 3 4 4 0 210 340 342 351
1137 4 3 4 4 0 210 351 342 221
1138 4 3 4 4 0 210 219 340 351
1139 4 3 4 4 0 210 219 351 221
1140 4 3 4 4 0 219 351 221 230
1165 4 3 4 4 0 347 226 346 248
1166 4 3 4 4 0 226 346 248 247
1167 4 3 4 4 0 226 247 248 127
1168 4 3 4 4 0 226 225 346 247
1169 4 3 4 4 0 226 225 247 127
1170 4 3 4 4 0 225 247 127 126
1171 4 3 4 4 0 348 227 347 249
1172 4 3 4 4 0 227 347 249 248
1173 4 3 4 4 0 227 248 249 128
1174 4 3 4 4 0 227 226 347 248
1175 4 3 4 4 0 227 226 248 128
1176 4 3 4 4 0 226 248 128 127
1177 4 3 4 4 0 349 228 348 250
1178 4 3 4 4 0 228 348 250 249
1179 4 3 4 4 0 228 249 250 129
1180 4 3 4 4 0 228 227 348 249
1181 4 3 4 4 0 228 227 249 129
1182 4 3 4 4 0 227 249 129 128
1183 4 3 4 4 0 350 229 349 251
1184 4 3 4 4 0 229 349 251 250
1185 4 3 4 4 0 229 250 251 130
1186 4 3 4 4 0 229 228 349 250
1187 4 3 4 4 0 229 228 250 130
1188 4 3 4 4 0 228 250 130 129
1189 4 3 4 4 0 351 230 350 252
1190 4 3 4 4 0 230 350 252 251
1191 4 3 4 4 0 230 251 252 131
1192 4 3 4 4 0 230 229 350 251
1193 4 3 4 4 0 230 229 251 131
1194 4 3 4 4 0 229 251 131 130
1195 4 3 4 4 0 342 221 351 243
1196 4 3 4 4 0 221 351 243 252
1197 4 3 4 4 0 221 252 243 122
1198 4 3 4 4 0 221 230 351 252
1199 4 3 4 4 0 221 230 252 122
1200 4 3 4 4 0 230 252 122 131
1711 4 3 4 4 0 458 337 457 469
1712 4 3 4 4 0 337 457 469 468
1713 4 3 4 4 0 337 468 469 348
1714 4 3 4 4 0 337 336 457 468
1715 4 3 4 4 0 337 336 468 348
1716 4 3 4 4 0 336 468 348 347
1717 4 3 4 4 0 459 338 458 470
1718 4 3 4 4 0 338 458 470 469
1719 4 3 4 4 0 338 469 470 349
1720 4 3 4 4 0 338 337 458 469
1721 4 3 4 4 0 338 337 469 349
1722 4 3 4 4 0 337 469 349 348
1723 4 3 4 4 0 460 339 459 471
1724 4 3 4 4 0 339 459 471 470
1725 4 3 4 4 0 339 470 471 350
1726 4 3 4 4 0 339 338 459 470
1727 4 3 4 4 0 339 338 470 350
1728 4 3 4 4 0 338 470 350 349
1765 4 3 4 4 0 468 347 467 369
1766 4 3 4 4 0 347 467 369 368
1767 4 3 4 4 0 347 368 369 248
1768 4 3 4 4 0 347 346 467 368
1769 4 3 4 4 0 347 346 368 248
1770 4 3 4 4 0 346 368 248 247
1771 4 3 4 4 0 469 348 468 370
1772 4 3 4 4 0 348 468 370 369
1773 4 3 4 4 0 348 369 370 249
1774 4 3 4 4 0 348 347 468 369
1775 4 3 4 4 0 348 347 369 249
1776 4 3 4 4 0 347 369 249 248
1777 4 3 4 4 0 470 349 469 371
1778 4 3 4 4 0 349 469 371 370
1779 4 3 4 4 0 349 370 371 250
1780 4 3 4 4 0 349 348 469 370
1781 4 3 4 4 0 349 348 370 250
1782 4 3 4 4 0 348 370 250 249
1783 4 3 4 4 0 471 350 470 372
1784 4 3 4 4 0 350 470 372 371
1785 4 3 4 4 0 350 371 372 251
1786 4 3 4 4 0 350 349 470 371
1787 4 3 4 4 0 350 349 371 251
1788 4 3 4 4 0 349 371 251 250
1789 4 3 4 4 0 472 351 471 373
1790 4 3 4 4 0 351 471 373 372
1791 4 3 4 4 0 351 372 373 252
1792 4 3 4 4 0 351 350 471 372
1793 4 3 4 4 0 351 350 372 252
1794 4 3 4 4 0 350 372 252 251
2311 4 3 4 4 0 579 458 578 590
2312 4 3 4 4 0 458 578 590 589
2313 4 3 4 4 0 458 589 590 469
2314 4 3 4 4 0 458 457 578 589
2315 4 3 4 4 0 458 457 589 469
2316 4 3 4 4 0 457 589 469 468
2317 4 3 4 4 0 580 459 579 591
2318 4 3 4 4 0 459 579 591 590
2319 4 3 4 4 0 459 590 591 470
2320 4 3 4 4 0 459 458 579 590
2321 4 3 4 4 0 459 458 590 470
2322 4 3 4 4 0 458 590 470 469
2365 4 3 4 4 0 589 468 588 490
2366 4 3 4 4 0 468 588 490 489
2367 4 3 4 4 0 468 489 490 369
2368 4 3 4 4 0 468 467 588 489
2369 4 3 4 4 0 468 467 489 369
2370 4 3 4 4 0 467 489 369 368
2371 4 3 4 4 0 590 469 589 491
2372 4 3 4 4 0 469 589 491 490
2373 4 3 4 4 0 469 490 491 370
2374 4 3 4 4 0 469 468 589 490
2375 4 3 4 4 0 469 468 490 370
2376 4 3 4 4 0 468 490 370 369
2377 4 3 4 4 0 591 470 590 492
2378 4 3 4 4 0 470 590 492 491
2379 4 3 4 4 0 470 491 492 371
2380 4 3 4 4 0 470 469 590 491
2381 4 3 4 4 0 470 469 491 371
2382 4 3 4 4 0 469 491 371 370
2383 4 3 4 4 0 592 471 591 493
2384 4 3 4 4 0 471 591 493 492
2385 4 3 4 4 0 471 492 493 372
2386 4 3 4 4 0 471 470 591 492
2387 4 3 4 4 0 471 470 492 372
2388 4 3 4 4 0 470 492 372 371
2911 4 3 4 4 0 700 579 699 711
2912 4 3 4 4 0 579 699 711 710
2913 4 3 4 4 0 579 710 711 590
2914 4 3 4 4 0 579 578 699 710
2915 4 3 4 4 0 579 578 710 590
2916 4 3 4 4 0 578 710 590 589
2965 4 3 4 4 0 710 589 709 611
2966 4 3 4 4 0 589 709 611 610
2967 4 3 4 4 0 589 610 611 490
2968 4 3 4 4 0 589 588 709 610
2969 4 3 4 4 0 589 588 610 490
2970 4 3 4 4 0 588 610 490 489
2971 4 3 4 4 0 711 590 710 612
2972 4 3 4 4 0 590 710 612 611
2973 4 3 4 4 0 590 611 612 491
2974 4 3 4 4 0 590 589 710 611
2975 4 3 4 4 0 590 589 611 491
2976 4 3 4 4 0 589 611 491 490
2977 4 3 4 4 0 712 591 711 613
2978 4 3 4 4 0 591 711 613 612
2979 4 3 4 4 0 591 612 613 492
2980 4 3 4 4 0 591 590 711 612
2981 4 3 4 4 0 591 590 612 492
2982 4 3 4 4 0 590 612 492 491
$EndElements
