$MeshFormat
2.2 0 8
$EndMeshFormat
$Nodes
165
49 4.0 4.0 0.0
50 5.0 4.0 0.0
51 6.0 4.0 0.0
52 7.0 4.0 0.0
53 8.0 4.0 0.0
60 4.0 5.0 0.0
61 5.0 5.0 0.0
62 6.0 5.0 0.0
63 7.0 5.0 0.0
64 8.0 5.0 0.0
65 9.0 5.0 0.0
56 10.0 5.0 0.0
71 4.0 6.0 0.0
72 5.0 6.0 0.0
73 6.0 6.0 0.0
74 7.0 6.0 0.0
75 8.0 6.0 0.0
76 9.0 6.0 0.0
67 10.0 6.0 0.0
82 4.0 7.0 0.0
83 5.0 7.0 0.0
84 6.0 7.0 0.0
85 7.0 7.0 0.0
86 8.0 7.0 0.0
87 9.0 7.0 0.0
78 10.0 7.0 0.0
93 4.0 8.0 0.0
94 5.0 8.0 0.0
95 6.0 8.0 0.0
96 7.0 8.0 0.0
97 8.0 8.0 0.0
98 9.0 8.0 0.0
89 10.0 8.0 0.0
104 4.0 9.0 0.0
105 5.0 9.0 0.0
106 6.0 9.0 0.0
170 4.0 4.0 1.0
171 5.0 4.0 1.0
172 6.0 4.0 1.0
173 7.0 4.0 1.0
174 8.0 4.0 1.0
181 4.0 5.0 1.0
182 5.0 5.0 1.0
183 6.0 5.0 1.0
184 7.0 5.0 1.0
185 8.0 5.0 1.0
186 9.0 5.0 1.0
177 10.0 5.0 1.0
192 4.0 6.0 1.0
193 5.0 6.0 1.0
194 6.0 6.0 1.0
195 7.0 6.0 1.0
196 8.0 6.0 1.0
197 9.0 6.0 1.0
188 10.0 6.0 1.0
203 4.0 7.0 1.0
204 5.0 7.0 1.0
205 6.0 7.0 1.0
206 7.0 7.0 1.0
207 8.0 7.0 1.0
208 9.0 7.0 1.0
199 10.0 7.0 1.0
214 4.0 8.0 1.0
215 5.0 8.0 1.0
216 6.0 8.0 1.0
217 7.0 8.0 1.0
218 8.0 8.0 1.0
219 9.0 8.0 1.0
210 10.0 8.0 1.0
225 4.0 9.0 1.0
226 5.0 9.0 1.0
227 6.0 9.0 1.0
291 4.0 4.0 2.0
292 5.0 4.0 2.0
293 6.0 4.0 2.0
294 7.0 4.0 2.0
295 8.0 4.0 2.0
302 4.0 5.0 2.0
303 5.0 5.0 2.0
304 6.0 5.0 2.0
305 7.0 5.0 2.0
306 8.0 5.0 2.0
307 9.0 5.0 2.0
313 4.0 6.0 2.0
314 5.0 6.0 2.0
315 6.0 6.0 2.0
316 7.0 6.0 2.0
317 8.0 6.0 2.0
318 9.0 6.0 2.0
309 10.0 6.0 2.0
324 4.0 7.0 2.0
325 5.0 7.0 2.0
326 6.0 7.0 2.0
327 7.0 7.0 2.0
328 8.0 7.0 2.0
329 9.0 7.0 2.0
320 10.0 7.0 2.0
335 4.0 8.0 2.0
336 5.0 8.0 2.0
337 6.0 8.0 2.0
338 7.0 8.0 2.0
339 8.0 8.0 2.0
340 9.0 8.0 2.0
331 10.0 8.0 2.0
346 4.0 9.0 2.0
347 5.0 9.0 2.0
348 6.0 9.0 2.0
413 5.0 4.0 3.0
414 6.0 4.0 3.0
415 7.0 4.0 3.0
423 4.0 5.0 3.0
424 5.0 5.0 3.0
425 6.0 5.0 3.0
426 7.0 5.0 3.0
427 8.0 5.0 3.0
428 9.0 5.0 3.0
434 4.0 6.0 3.0
435 5.0 6.0 3.0
436 6.0 6.0 3.0
437 7.0 6.0 3.0
438 8.0 6.0 3.0
439 9.0 6.0 3.0
445 4.0 7.0 3.0
446 5.0 7.0 3.0
447 6.0 7.0 3.0
448 7.0 7.0 3.0
449 8.0 7.0 3.0
456 4.0 8.0 3.0
457 5.0 8.0 3.0
458 6.0 8.0 3.0
459 7.0 8.0 3.0
460 8.0 8.0 3.0
467 4.0 9.0 3.0
468 5.0 9.0 3.0
544 4.0 5.0 4.0
545 5.0 5.0 4.0
546 6.0 5.0 4.0
547 7.0 5.0 4.0
555 4.0 6.0 4.0
556 5.0 6.0 4.0
557 6.0 6.0 4.0
558 7.0 6.0 4.0
566 4.0 7.0 4.0
567 5.0 7.0 4.0
568 6.0 7.0 4.0
569 7.0 7.0 4.0
577 4.0 8.0 4.0
578 5.0 8.0 4.0
579 6.0 8.0 4.0
580 7.0 8.0 4.0
588 4.0 9.0 4.0
589 5.0 9.0 4.0
676 4.0 6.0 5.0
677 5.0 6.0 5.0
678 6.0 6.0 5.0
679 7.0 6.0 5.0
687 4.0 7.0 5.0
688 5.0 7.0 5.0
689 6.0 7.0 5.0
690 7.0 7.0 5.0
698 4.0 8.0 5.0
699 5.0 8.0 5.0
700 6.0 8.0 5.0
709 4.0 9.0 5.0
710 5.0 9.0 5.0
$EndNodes
$Elements
474
265 4 3 5 5 0 171 50 170 182
266 4 3 5 5 0 50 170 182 181
267 4 3 5 5 0 50 181 182 61
268 4 3 5 5 0 50 49 170 181
269 4 3 5 5 0 50 49 181 61
270 4 3 5 5 0 49 181 61 60
271 4 3 5 5 0 172 51 171 183
272 4 3 5 5 0 51 171 183 182
273 4 3 5 5 0 51 182 183 62
274 4 3 5 5 0 51 50 171 182
275 4 3 5 5 0 51 50 182 62
276 4 3 5 5 0 50 182 62 61
277 4 3 5 5 0 173 52 172 184
278 4 3 5 5 0 52 172 184 183
279 4 3 5 5 0 52 183 184 63
280 4 3 5 5 0 52 51 172 183
281 4 3 5 5 0 52 51 183 63
282 4 3 5 5 0 51 183 63 62
283 4 3 5 5 0 174 53 173 185
284 4 3 5 5 0 53 173 185 184
285 4 3 5 5 0 53 184 185 64
286 4 3 5 5 0 53 52 173 184
287 4 3 5 5 0 53 52 184 64
288 4 3 5 5 0 52 184 64 63
325 4 3 5 5 0 182 61 181 193
326 4 3 5 5 0 61 181 193 192
327 4 3 5 5 0 61 192 193 72
328 4 3 5 5 0 61 60 181 192
329 4 3 5 5 0 61 60 192 72
330 4 3 5 5 0 60 192 72 71
331 4 3 5 5 0 183 62 182 194
332 4 3 5 5 0 62 182 194 193
333 4 3 5 5 0 62 193 194 73
334 4 3 5 5 0 62 61 182 193
335 4 3 5 5 0 62 61 193 73
336 4 3 5 5 0 61 193 73 72
337 4 3 5 5 0 184 63 183 195
338 4 3 5 5 0 63 183 195 194
339 4 3 5 5 0 63 194 195 74
340 4 3 5 5 0 63 62 183 194
341 4 3 5 5 0 63 62 194 74
342 4 3 5 5 0 62 194 74 73
343 4 3 5 5 0 185 64 184 196
344 4 3 5 5 0 64 184 196 195
345 4 3 5 5 0 64 195 196 75
346 4 3 5 5 0 64 63 184 195
347 4 3 5 5 0 64 63 195 75
348 4 3 5 5 0 63 195 75 74
349 4 3 5 5 0 186 65 185 197
350 4 3 5 5 0 65 185 197 196
351 4 3 5 5 0 65 196 197 76
352 4 3 5 5 0 65 64 185 196
353 4 3 5 5 0 65 64 196 76
354 4 3 5 5 0 64 196 76 75
355 4 3 5 5 0 177 56 186 188
356 4 3 5 5 0 56 186 188 197
357 4 3 5 5 0 56 197 188 67
358 4 3 5 5 0 56 65 186 197
359 4 3 5 5 0 56 65 197 67
360 4 3 5 5 0 65 197 67 76
385 4 3 5 5 0 193 72 192 204
386 4 3 5 5 0 72 192 204 203
387 4 3 5 5 0 72 203 204 83
388 4 3 5 5 0 72 71 192 203
389 4 3 5 5 0 72 71 203 83
390 4 3 5 5 0 71 203 83 82
391 4 3 5 5 0 194 73 193 205
392 4 3 5 5 0 73 193 205 204
393 4 3 5 5 0 73 204 205 84
394 4 3 5 5 0 73 72 193 204
395 4 3 5 5 0 73 72 204 84
396 4 3 5 5 0 72 204 84 83
397 4 3 5 5 0 195 74 194 206
398 4 3 5 5 0 74 194 206 205
399 4 3 5 5 0 74 205 206 85
400 4 3 5 5 0 74 73 194 205
401 4 3 5 5 0 74 73 205 85
402 4 3 5 5 0 73 205 85 84
403 4 3 5 5 0 196 75 195 207
404 4 3 5 5 0 75 195 207 206
405 4 3 5 5 0 75 206 207 86
406 4 3 5 5 0 75 74 195 206
407 4 3 5 5 0 75 74 206 86
408 4 3 5 5 0 74 206 86 85
409 4 3 5 5 0 197 76 196 208
410 4 3 5 5 0 76 196 208 207
411 4 3 5 5 0 76 207 208 87
412 4 3 5 5 0 76 75 196 207
413 4 3 5 5 0 76 75 207 87
414 4 3 5 5 0 75 207 87 86
415 4 3 5 5 0 188 67 197 199
416 4 3 5 5 0 67 197 199 208
417 4 3 5 5 0 67 208 199 78
418 4 3 5 5 0 67 76 197 208
419 4 3 5 5 0 67 76 208 78
420 4 3 5 5 0 76 208 78 87
445 4 3 5 5 0 204 83 203 215
446 4 3 5 5 0 83 203 215 214
447 4 3 5 5 0 83 214 215 94
448 4 3 5 5 0 83 82 203 214
449 4 3 5 5 0 83 82 214 94
450 4 3 5 5 0 82 214 94 93
451 4 3 5 5 0 205 84 204 216
452 4 3 5 5 0 84 204 216 215
453 4 3 5 5 0 84 215 216 95
454 4 3 5 5 0 84 83 204 215
455 4 3 5 5 0 84 83 215 95
456 4 3 5 5 0 83 215 95 94
457 4 3 5 5 0 206 85 205 217
458 4 3 5 5 0 85 205 217 216
459 4 3 5 5 0 85 216 217 96
460 4 3 5 5 0 85 84 205 216
461 4 3 5 5 0 85 84 216 96
462 4 3 5 5 0 84 216 96 95
463 4 3 5 5 0 207 86 206 218
464 4 3 5 5 0 86 206 218 217
465 4 3 5 5 0 86 217 218 97
466 4 3 5 5 0 86 85 206 217
467 4 3 5 5 0 86 85 217 97
468 4 3 5 5 0 85 217 97 96
469 4 3 5 5 0 208 87 207 219
470 4 3 5 5 0 87 207 219 218
471 4 3 5 5 0 87 218 219 98
472 4 3 5 5 0 87 86 207 218
473 4 3 5 5 0 87 86 218 98
474 4 3 5 5 0 86 218 98 97
475 4 3 5 5 0 199 78 208 210
476 4 3 5 5 0 78 208 210 219
477 4 3 5 5 0 78 219 210 89
478 4 3 5 5 0 78 87 208 219
479 4 3 5 5 0 78 87 219 89
480 4 3 5 5 0 87 219 89 98
505 4 3 5 5 0 215 94 214 226
506 4 3 5 5 0 94 214 226 225
507 4 3 5 5 0 94 225 226 105
508 4 3 5 5 0 94 93 214 225
509 4 3 5 5 0 94 93 225 105
510 4 3 5 5 0 93 225 105 104
511 4 3 5 5 0 216 95 215 227
512 4 3 5 5 0 95 215 227 226
513 4 3 5 5 0 95 226 227 106
514 4 3 5 5 0 95 94 215 226
515 4 3 5 5 0 95 94 226 106
516 4 3 5 5 0 94 226 106 105
865 4 3 5 5 0 292 171 291 303
866 4 3 5 5 0 171 291 303 302
867 4 3 5 5 0 171 302 303 182
868 4 3 5 5 0 171 170 291 302
869 4 3 5 5 0 171 170 302 182
870 4 3 5 5 0 170 302 182 181
871 4 3 5 5 0 293 172 292 304
872 4 3 5 5 0 172 292 304 303
873 4 3 5 5 0 172 303 304 183
874 4 3 5 5 0 172 171 292 303
875 4 3 5 5 0 172 171 303 183
876 4 3 5 5 0 171 303 183 182
877 4 3 5 5 0 294 173 293 305
878 4 3 5 5 0 173 293 305 304
879 4 3 5 5 0 173 304 305 184
880 4 3 5 5 0 173 172 293 304
881 4 3 5 5 0 173 172 304 184
882 4 3 5 5 0 172 304 184 183
883 4 3 5 5 0 295 174 294 306
884 4 3 5 5 0 174 294 306 305
885 4 3 5 5 0 174 305 306 185
886 4 3 5 5 0 174 173 294 305
887 4 3 5 5 0 174 173 305 185
888 4 3 5 5 0 173 305 185 184
925 4 3 5 5 0 303 182 302 314
926 4 3 5 5 0 182 302 314 313
927 4 3 5 5 0 182 313 314 193
928 4 3 5 5 0 182 181 302 313
929 4 3 5 5 0 182 181 313 193
930 4 3 5 5 0 181 313 193 192
931 4 3 5 5 0 304 183 303 315
932 4 3 5 5 0 183 303 315 314
933 4 3 5 5 0 183 314 315 194
934 4 3 5 5 0 183 182 303 314
935 4 3 5 5 0 183 182 314 194
936 4 3 5 5 0 182 314 194 193
937 4 3 5 5 0 305 184 304 316
938 4 3 5 5 0 184 304 316 315
939 4 3 5 5 0 184 315 316 195
940 4 3 5 5 0 184 183 304 315
941 4 3 5 5 0 184 183 315 195
942 4 3 5 5 0 183 315 195 194
943 4 3 5 5 0 306 185 305 317
944 4 3 5 5 0 185 305 317 316
945 4 3 5 5 0 185 316 317 196
946 4 3 5 5 0 185 184 305 316
947 4 3 5 5 0 185 184 316 196
948 4 3 5 5 0 184 316 196 195
949 4 3 5 5 0 307 186 306 318
950 4 3 5 5 0 186 306 318 317
951 4 3 5 5 0 186 317 318 197
952 4 3 5 5 0 186 185 306 317
953 4 3 5 5 0 186 185 317 197
954 4 3 5 5 0 185 317 197 196
985 4 3 5 5 0 314 193 313 325
986 4 3 5 5 0 193 313 325 324
987 4 3 5 5 0 193 324 325 204
988 4 3 5 5 0 193 192 313 324
989 4 3 5 5 0 193 192 324 204
990 4 3 5 5 0 192 324 204 203
991 4 3 5 5 0 315 194 314 326
992 4 3 5 5 0 194 314 326 325
993 4 3 5 5 0 194 325 326 205
994 4 3 5 5 0 194 193 314 325
995 4 3 5 5 0 194 193 325 205
996 4 3 5 5 0 193 325 205 204
997 4 3 5 5 0 316 195 315 327
998 4 3 5 5 0 195 315 327 326
999 4 3 5 5 0 195 326 327 206
1000 4 3 5 5 0 195 194 315 326
1001 4 3 5 5 0 195 194 326 206
1002 4 3 5 5 0 194 326 206 205
1003 4 3 5 5 0 317 196 316 328
1004 4 3 5 5 0 196 316 328 327
1005 4 3 5 5 0 196 327 328 207
1006 4 3 5 5 0 196 195 316 327
1007 4 3 5 5 0 196 195 327 207
1008 4 3 5 5 0 195 327 207 206
1009 4 3 5 5 0 318 197 317 329
1010 4 3 5 5 0 197 317 329 328
1011 4 3 5 5 0 197 328 329 208
1012 4 3 5 5 0 197 196 317 328
1013 4 3 5 5 0 197 196 328 208
1014 4 3 5 5 0 196 328 208 207
1015 4 3 5 5 0 309 188 318 320
1016 4 3 5 5 0 188 318 320 329
1017 4 3 5 5 0 188 329 320 199
1018 4 3 5 5 0 188 197 318 329
1019 4 3 5 5 0 188 197 329 199
1020 4 3 5 5 0 197 329 199 208
1045 4 3 5 5 0 325 204 324 336
1046 4 3 5 5 0 204 324 336 335
1047 4 3 5 5 0 204 335 336 215
1048 4 3 5 5 0 204 203 324 335
1049 4 3 5 5 0 204 203 335 215
1050 4 3 5 5 0 203 335 215 214
1051 4 3 5 5 0 326 205 325 337
1052 4 3 5 5 0 205 325 337 336
1053 4 3 5 5 0 205 336 337 216
1054 4 3 5 5 0 205 204 325 336
1055 4 3 5 5 0 205 204 336 216
1056 4 3 5 5 0 204 336 216 215
1057 4 3 5 5 0 327 206 326 338
1058 4 3 5 5 0 206 326 338 337
1059 4 3 5 5 0 206 337 338 217
1060 4 3 5 5 0 206 205 326 337
1061 4 3 5 5 0 206 205 337 217
1062 4 3 5 5 0 205 337 217 216
1063 4 3 5 5 0 328 207 327 339
1064 4 3 5 5 0 207 327 339 338
1065 4 3 5 5 0 207 338 339 218
1066 4 3 5 5 0 207 206 327 338
1067 4 3 5 5 0 207 206 338 218
1068 4 3 5 5 0 206 338 218 217
1069 4 3 5 5 0 329 208 328 340
1070 4 3 5 5 0 208 328 340 339
1071 4 3 5 5 0 208 339 340 219
1072 4 3 5 5 0 208 207 328 339
1073 4 3 5 5 0 208 207 339 219
1074 4 3 5 5 0 207 339 219 218
1075 4 3 5 5 0 320 199 329 331
1076 4 3 5 5 0 199 329 331 340
1077 4 3 5 5 0 199 340 331 210
1078 4 3 5 5 0 199 208 329 340
1079 4 3 5 5 0 199 208 340 210
1080 4 3 5 5 0 208 340 210 219
1105 4 3 5 5 0 336 215 335 347
1106 4 3 5 5 0 215 335 347 346
1107 4 3 5 5 0 215 346 347 226
1108 4 3 5 5 0 215 214 335 346
1109 4 3 5 5 0 215 214 346 226
1110 4 3 5 5 0 214 346 226 225
1111 4 3 5 5 0 337 216 336 348
1112 4 3 5 5 0 216 336 348 347
1113 4 3 5 5 0 216 347 348 227
1114 4 3 5 5 0 216 215 336 347
1115 4 3 5 5 0 216 215 347 227
1116 4 3 5 5 0 215 347 227 226
1471 4 3 5 5 0 414 293 413 425
1472 4 3 5 5 0 293 413 425 424
1473 4 3 5 5 0 293 424 425 304
1474 4 3 5 5 0 293 292 413 424
1475 4 3 5 5 0 293 292 424 304
1476 4 3 5 5 0 292 424 304 303
1477 4 3 5 5 0 415 294 414 426
1478 4 3 5 5 0 294 414 426 425
1479 4 3 5 5 0 294 425 426 305
1480 4 3 5 5 0 294 293 414 425
1481 4 3 5 5 0 294 293 425 305
1482 4 3 5 5 0 293 425 305 304
1525 4 3 5 5 0 424 303 423 435
1526 4 3 5 5 0 303 423 435 434
1527 4 3 5 5 0 303 434 435 314
1528 4 3 5 5 0 303 302 423 434
1529 4 3 5 5 0 303 302 434 314
1530 4 3 5 5 0 302 434 314 313
1531 4 3 5 5 0 425 304 424 436
1532 4 3 5 5 0 304 424 436 435
1533 4 3 5 5 0 304 435 436 315
1534 4 3 5 5 0 304 303 424 435
1535 4 3 5 5 0 304 303 435 315
1536 4 3 5 5 0 303 435 315 314
1537 4 3 5 5 0 426 305 425 437
1538 4 3 5 5 0 305 425 437 436
1539 4 3 5 5 0 305 436 437 316
1540 4 3 5 5 0 305 304 425 436
1541 4 3 5 5 0 305 304 436 316
1542 4 3 5 5 0 304 436 316 315
1543 4 3 5 5 0 427 306 426 438
1544 4 3 5 5 0 306 426 438 437
1545 4 3 5 5 0 306 437 438 317
1546 4 3 5 5 0 306 305 426 437
1547 4 3 5 5 0 306 305 437 317
1548 4 3 5 5 0 305 437 317 316
1549 4 3 5 5 0 428 307 427 439
1550 4 3 5 5 0 307 427 439 438
1551 4 3 5 5 0 307 438 439 318
1552 4 3 5 5 0 307 306 427 438
1553 4 3 5 5 0 307 306 438 318
1554 4 3 5 5 0 306 438 318 317
1585 4 3 5 5 0 435 314 434 446
1586 4 3 5 5 0 314 434 446 445
1587 4 3 5 5 0 314 445 446 325
1588 4 3 5 5 0 314 313 434 445
1589 4 3 5 5 0 314 313 445 325
1590 4 3 5 5 0 313 445 325 324
1591 4 3 5 5 0 436 315 435 447
1592 4 3 5 5 0 315 435 447 446
1593 4 3 5 5 0 315 446 447 326
1594 4 3 5 5 0 315 314 435 446
1595 4 3 5 5 0 315 314 446 326
1596 4 3 5 5 0 314 446 326 325
1597 4 3 5 5 0 437 316 436 448
1598 4 3 5 5 0 316 436 448 447
1599 4 3 5 5 0 316 447 448 327
1600 4 3 5 5 0 316 315 436 447
1601 4 3 5 5 0 316 315 447 327
1602 4 3 5 5 0 315 447 327 326
1603 4 3 5 5 0 438 317 437 449
1604 4 3 5 5 0 317 437 449 448
1605 4 3 5 5 0 317 448 449 328
1606 4 3 5 5 0 317 316 437 448
1607 4 3 5 5 0 317 316 448 328
1608 4 3 5 5 0 316 448 328 327
1645 4 3 5 5 0 446 325 445 457
1646 4 3 5 5 0 325 445 457 456
1647 4 3 5 5 0 325 456 457 336
1648 4 3 5 5 0 325 324 445 456
1649 4 3 5 5 0 325 324 456 336
1650 4 3 5 5 0 324 456 336 335
1651 4 3 5 5 0 447 326 446 458
1652 4 3 5 5 0 326 446 458 457
1653 4 3 5 5 0 326 457 458 337
1654 4 3 5 5 0 326 325 446 457
1655 4 3 5 5 0 326 325 457 337
1656 4 3 5 5 0 325 457 337 336
1657 4 3 5 5 0 448 327 447 459
1658 4 3 5 5 0 327 447 459 458
1659 4 3 5 5 0 327 458 459 338
1660 4 3 5 5 0 327 326 447 458
1661 4 3 5 5 0 327 326 458 338
1662 4 3 5 5 0 326 458 338 337
1663 4 3 5 5 0 449 328 448 460
1664 4 3 5 5 0 328 448 460 459
1665 4 3 5 5 0 328 459 460 339
1666 4 3 5 5 0 328 327 448 459
1667 4 3 5 5 0 328 327 459 339
1668 4 3 5 5 0 327 459 339 338
1705 4 3 5 5 0 457 336 456 468
1706 4 3 5 5 0 336 456 468 467
1707 4 3 5 5 0 336 467 468 347
1708 4 3 5 5 0 336 335 456 467
1709 4 3 5 5 0 336 335 467 347
1710 4 3 5 5 0 335 467 347 346
2125 4 3 5 5 0 545 424 544 556
2126 4 3 5 5 0 424 544 556 555
2127 4 3 5 5 0 424 555 556 435
2128 4 3 5 5 0 424 423 544 555
2129 4 3 5 5 0 424 423 555 435
2130 4 3 5 5 0 423 555 435 434
2131 4 3 5 5 0 546 425 545 557
2132 4 3 5 5 0 425 545 557 556
2133 4 3 5 5 0 425 556 557 436
2134 4 3 5 5 0 425 424 545 556
2135 4 3 5 5 0 425 424 556 436
2136 4 3 5 5 0 424 556 436 435
2137 4 3 5 5 0 547 426 546 558
2138 4 3 5 5 0 426 546 558 557
2139 4 3 5 5 0 426 557 558 437
2140 4 3 5 5 0 426 425 546 557
2141 4 3 5 5 0 426 425 557 437
2142 4 3 5 5 0 425 557 437 436
2185 4 3 5 5 0 556 435 555 567
2186 4 3 5 5 0 435 555 567 566
2187 4 3 5 5 0 435 566 567 446
2188 4 3 5 5 0 435 434 555 566
2189 4 3 5 5 0 435 434 566 446
2190 4 3 5 5 0 434 566 446 445
2191 4 3 5 5 0 557 436 556 568
2192 4 3 5 5 0 436 556 568 567
2193 4 3 5 5 0 436 567 568 447
2194 4 3 5 5 0 436 435 556 567
2195 4 3 5 5 0 436 435 567 447
2196 4 3 5 5 0 435 567 447 446
2197 4 3 5 5 0 558 437 557 569
2198 4 3 5 5 0 437 557 569 568
2199 4 3 5 5 0 437 568 569 448
2200 4 3 5 5 0 437 436 557 568
2201 4 3 5 5 0 437 436 568 448
2202 4 3 5 5 0 436 568 448 447
2245 4 3 5 5 0 567 446 566 578
2246 4 3 5 5 0 446 566 578 577
2247 4 3 5 5 0 446 577 578 457
2248 4 3 5 5 0 446 445 566 577
2249 4 3 5 5 0 446 445 577 457
2250 4 3 5 5 0 445 577 457 456
2251 4 3 5 5 0 568 447 567 579
2252 4 3 5 5 0 447 567 579 578
2253 4 3 5 5 0 447 578 579 458
2254 4 3 5 5 0 447 446 567 578
2255 4 3 5 5 0 447 446 578 458
2256 4 3 5 5 0 446 578 458 457
2257 4 3 5 5 0 569 448 568 580
2258 4 3 5 5 0 448 568 580 579
2259 4 3 5 5 0 448 579 580 459
2260 4 3 5 5 0 448 447 568 579
2261 4 3 5 5 0 448 447 579 459
2262 4 3 5 5 0 447 579 459 458
2305 4 3 5 5 0 578 457 577 589
2306 4 3 5 5 0 457 577 589 588
2307 4 3 5 5 0 457 588 589 468
2308 4 3 5 5 0 457 456 577 588
2309 4 3 5 5 0 457 456 588 468
2310 4 3 5 5 0 456 588 468 467
2785 4 3 5 5 0 677 556 676 688
2786 4 3 5 5 0 556 676 688 687
2787 4 3 5 5 0 556 687 688 567
2788 4 3 5 5 0 556 555 676 687
2789 4 3 5 5 0 556 555 687 567
2790 4 3 5 5 0 555 687 567 566
2791 4 3 5 5 0 678 557 677 689
2792 4 3 5 5 0 557 677 689 688
2793 4 3 5 5 0 557 688 689 568
2794 4 3 5 5 0 557 556 677 688
2795 4 3 5 5 0 557 556 688 568
2796 4 3 5 5 0 556 688 568 567
2797 4 3 5 5 0 679 558 678 690
2798 4 3 5 5 0 558 678 690 689
2799 4 3 5 5 0 558 689 690 569
2800 4 3 5 5 0 558 557 678 689
2801 4 3 5 5 0 558 557 689 569
2802 4 3 5 5 0 557 689 569 568
2845 4 3 5 5 0 688 567 687 699
2846 4 3 5 5 0 567 687 699 698
2847 4 3 5 5 0 567 698 699 578
2848 4 3 5 5 0 567 566 687 698
2849 4 3 5 5 0 567 566 698 578
2850 4 3 5 5 0 566 698 578 577
2851 4 3 5 5 0 689 568 688 700
2852 4 3 5 5 0 568 688 700 699
2853 4 3 5 5 0 568 699 700 579
2854 4 3 5 5 0 568 567 688 699
2855 4 3 5 5 0 568 567 699 579
2856 4 3 5 5 0 567 699 579 578
2905 4 3 5 5 0 699 578 698 710
2906 4 3 5 5 0 578 698 710 709
2907 4 3 5 5 0 578 709 710 589
2908 4 3 5 5 0 578 577 698 709
2909 4 3 5 5 0 578 577 709 589
2910 4 3 5 5 0 577 709 589 588
$EndElements
