$MeshFormat
2.2 0 8
$EndMeshFormat
$Nodes
108
793 0.0 6.0 6.0
794 1.0 6.0 6.0
795 2.0 6.0 6.0
796 3.0 6.0 6.0
804 0.0 7.0 6.0
805 1.0 7.0 6.0
806 2.0 7.0 6.0
807 3.0 7.0 6.0
808 4.0 7.0 6.0
815 0.0 8.0 6.0
816 1.0 8.0 6.0
817 2.0 8.0 6.0
818 3.0 8.0 6.0
819 4.0 8.0 6.0
826 0.0 9.0 6.0
827 1.0 9.0 6.0
828 2.0 9.0 6.0
829 3.0 9.0 6.0
830 4.0 9.0 6.0
727 0.0 10.0 6.0
728 1.0 10.0 6.0
729 2.0 10.0 6.0
730 3.0 10.0 6.0
731 4.0 10.0 6.0
914 0.0 6.0 7.0
915 1.0 6.0 7.0
916 2.0 6.0 7.0
917 3.0 6.0 7.0
925 0.0 7.0 7.0
926 1.0 7.0 7.0
927 2.0 7.0 7.0
928 3.0 7.0 7.0
929 4.0 7.0 7.0
936 0.0 8.0 7.0
937 1.0 8.0 7.0
938 2.0 8.0 7.0
939 3.0 8.0 7.0
940 4.0 8.0 7.0
947 0.0 9.0 7.0
948 1.0 9.0 7.0
949 2.0 9.0 7.0
950 3.0 9.0 7.0
951 4.0 9.0 7.0
848 0.0 10.0 7.0
849 1.0 10.0 7.0
850 2.0 10.0 7.0
851 3.0 10.0 7.0
852 4.0 10.0 7.0
1035 0.0 6.0 8.0
1036 1.0 6.0 8.0
1046 0.0 7.0 8.0
1047 1.0 7.0 8.0
1048 2.0 7.0 8.0
1049 3.0 7.0 8.0
1050 4.0 7.0 8.0
1057 0.0 8.0 8.0
1058 1.0 8.0 8.0
1059 2.0 8.0 8.0
1060 3.0 8.0 8.0
1061 4.0 8.0 8.0
1068 0.0 9.0 8.0
1069 1.0 9.0 8.0
1070 2.0 9.0 8.0
1071 3.0 9.0 8.0
1072 4.0 9.0 8.0
969 0.0 10.0 8.0
970 1.0 10.0 8.0
971 2.0 10.0 8.0
972 3.0 10.0 8.0
973 4.0 10.0 8.0
1167 0.0 7.0 9.0
1168 1.0 7.0 9.0
1169 2.0 7.0 9.0
1170 3.0 7.0 9.0
1178 0.0 8.0 9.0
1179 1.0 8.0 9.0
1180 2.0 8.0 9.0
1181 3.0 8.0 9.0
1182 4.0 8.0 9.0
1189 0.0 9.0 9.0
1190 1.0 9.0 9.0
1191 2.0 9.0 9.0
1192 3.0 9.0 9.0
1193 4.0 9.0 9.0
1090 0.0 10.0 9.0
1091 1.0 10.0 9.0
1092 2.0 10.0 9.0
1093 3.0 10.0 9.0
1094 4.0 10.0 9.0
78 0.0 7.0 10.0
79 1.0 7.0 10.0
80 2.0 7.0 10.0
81 3.0 7.0 10.0
89 0.0 8.0 10.0
90 1.0 8.0 10.0
91 2.0 8.0 10.0
92 3.0 8.0 10.0
93 4.0 8.0 10.0
100 0.0 9.0 10.0
101 1.0 9.0 10.0
102 2.0 9.0 10.0
103 3.0 9.0 10.0
104 4.0 9.0 10.0
1321 0.0 10.0 10.0
2 1.0 10.0 10.0
3 2.0 10.0 10.0
4 3.0 10.0 10.0
5 4.0 10.0 10.0
$EndNodes
$Elements
300
3961 4 3 11 11 0 915 794 914 926
3962 4 3 11 11 0 794 914 926 925
3963 4 3 11 11 0 794 925 926 805
3964 4 3 11 11 0 794 793 914 925
3965 4 3 11 11 0 794 793 925 805
3966 4 3 11 11 0 793 925 805 804
3967 4 3 11 11 0 916 795 915 927
3968 4 3 11 11 0 795 915 927 926
3969 4 3 11 11 0 795 926 927 806
3970 4 3 11 11 0 795 794 915 926
3971 4 3 11 11 0 795 794 926 806
3972 4 3 11 11 0 794 926 806 805
3973 4 3 11 11 0 917 796 916 928
3974 4 3 11 11 0 796 916 928 927
3975 4 3 11 11 0 796 927 928 807
3976 4 3 11 11 0 796 795 916 927
3977 4 3 11 11 0 796 795 927 807
3978 4 3 11 11 0 795 927 807 806
4021 4 3 11 11 0 926 805 925 937
4022 4 3 11 11 0 805 925 937 936
4023 4 3 11 11 0 805 936 937 816
4024 4 3 11 11 0 805 804 925 936
4025 4 3 11 11 0 805 804 936 816
4026 4 3 11 11 0 804 936 816 815
4027 4 3 11 11 0 927 806 926 938
4028 4 3 11 11 0 806 926 938 937
4029 4 3 11 11 0 806 937 938 817
4030 4 3 11 11 0 806 805 926 937
4031 4 3 11 11 0 806 805 937 817
4032 4 3 11 11 0 805 937 817 816
4033 4 3 11 11 0 928 807 927 939
4034 4 3 11 11 0 807 927 939 938
4035 4 3 11 11 0 807 938 939 818
4036 4 3 11 11 0 807 806 927 938
4037 4 3 11 11 0 807 806 938 818
4038 4 3 11 11 0 806 938 818 817
4039 4 3 11 11 0 929 808 928 940
4040 4 3 11 11 0 808 928 940 939
4041 4 3 11 11 0 808 939 940 819
4042 4 3 11 11 0 808 807 928 939
4043 4 3 11 11 0 808 807 939 819
4044 4 3 11 11 0 807 939 819 818
4081 4 3 11 11 0 937 816 936 948
4082 4 3 11 11 0 816 936 948 947
4083 4 3 11 11 0 816 947 948 827
4084 4 3 11 11 0 816 815 936 947
4085 4 3 11 11 0 816 815 947 827
4086 4 3 11 11 0 815 947 827 826
4087 4 3 11 11 0 938 817 937 949
4088 4 3 11 11 0 817 937 949 948
4089 4 3 11 11 0 817 948 949 828
4090 4 3 11 11 0 817 816 937 948
4091 4 3 11 11 0 817 816 948 828
4092 4 3 11 11 0 816 948 828 827
4093 4 3 11 11 0 939 818 938 950
4094 4 3 11 11 0 818 938 950 949
4095 4 3 11 11 0 818 949 950 829
4096 4 3 11 11 0 818 817 938 949
4097 4 3 11 11 0 818 817 949 829
4098 4 3 11 11 0 817 949 829 828
4099 4 3 11 11 0 940 819 939 951
4100 4 3 11 11 0 819 939 951 950
4101 4 3 11 11 0 819 950 951 830
4102 4 3 11 11 0 819 818 939 950
4103 4 3 11 11 0 819 818 950 830
4104 4 3 11 11 0 818 950 830 829
4141 4 3 11 11 0 948 827 947 849
4142 4 3 11 11 0 827 947 849 848
4143 4 3 11 11 0 827 848 849 728
4144 4 3 11 11 0 827 826 947 848
4145 4 3 11 11 0 827 826 848 728
4146 4 3 11 11 0 826 848 728 727
4147 4 3 11 11 0 949 828 948 850
4148 4 3 11 11 0 828 948 850 849
4149 4 3 11 11 0 828 849 850 729
4150 4 3 11 11 0 828 827 948 849
4151 4 3 11 11 0 828 827 849 729
4152 4 3 11 11 0 827 849 729 728
4153 4 3 11 11 0 950 829 949 851
4154 4 3 11 11 0 829 949 851 850
4155 4 3 11 11 0 829 850 851 730
4156 4 3 11 11 0 829 828 949 850
4157 4 3 11 11 0 829 828 850 730
4158 4 3 11 11 0 828 850 730 729
4159 4 3 11 11 0 951 830 950 852
4160 4 3 11 11 0 830 950 852 851
4161 4 3 11 11 0 830 851 852 731
4162 4 3 11 11 0 830 829 950 851
4163 4 3 11 11 0 830 829 851 731
4164 4 3 11 11 0 829 851 731 730
4561 4 3 11 11 0 1036 915 1035 1047
4562 4 3 11 11 0 915 1035 1047 1046
4563 4 3 11 11 0 915 1046 1047 926
4564 4 3 11 11 0 915 914 1035 1046
4565 4 3 11 11 0 915 914 1046 926
4566 4 3 11 11 0 914 1046 926 925
4621 4 3 11 11 0 1047 926 1046 1058
4622 4 3 11 11 0 926 1046 1058 1057
4623 4 3 11 11 0 926 1057 1058 937
4624 4 3 11 11 0 926 925 1046 1057
4625 4 3 11 11 0 926 925 1057 937
4626 4 3 11 11 0 925 1057 937 936
4627 4 3 11 11 0 1048 927 1047 1059
4628 4 3 11 11 0 927 1047 1059 1058
4629 4 3 11 11 0 927 1058 1059 938
4630 4 3 11 11 0 927 926 1047 1058
4631 4 3 11 11 0 927 926 1058 938
4632 4 3 11 11 0 926 1058 938 937
4633 4 3 11 11 0 1049 928 1048 1060
4634 4 3 11 11 0 928 1048 1060 1059
4635 4 3 11 11 0 928 1059 1060 939
4636 4 3 11 11 0 928 927 1048 1059
4637 4 3 11 11 0 928 927 1059 939
4638 4 3 11 11 0 927 1059 939 938
4639 4 3 11 11 0 1050 929 1049 1061
4640 4 3 11 11 0 929 1049 1061 1060
4641 4 3 11 11 0 929 1060 1061 940
4642 4 3 11 11 0 929 928 1049 1060
4643 4 3 11 11 0 929 928 1060 940
4644 4 3 11 11 0 928 1060 940 939
4681 4 3 11 11 0 1058 937 1057 1069
4682 4 3 11 11 0 937 1057 1069 1068
4683 4 3 11 11 0 937 1068 1069 948
4684 4 3 11 11 0 937 936 1057 1068
4685 4 3 11 11 0 937 936 1068 948
4686 4 3 11 11 0 936 1068 948 947
4687 4 3 11 11 0 1059 938 1058 1070
4688 4 3 11 11 0 938 1058 1070 1069
4689 4 3 11 11 0 938 1069 1070 949
4690 4 3 11 11 0 938 937 1058 1069
4691 4 3 11 11 0 938 937 1069 949
4692 4 3 11 11 0 937 1069 949 948
4693 4 3 11 11 0 1060 939 1059 1071
4694 4 3 11 11 0 939 1059 1071 1070
4695 4 3 11 11 0 939 1070 1071 950
4696 4 3 11 11 0 939 938 1059 1070
4697 4 3 11 11 0 939 938 1070 950
4698 4 3 11 11 0 938 1070 950 949
4699 4 3 11 11 0 1061 940 1060 1072
4700 4 3 11 11 0 940 1060 1072 1071
4701 4 3 11 11 0 940 1071 1072 951
4702 4 3 11 11 0 940 939 1060 1071
4703 4 3 11 11 0 940 939 1071 951
4704 4 3 11 11 0 939 1071 951 950
4741 4 3 11 11 0 1069 948 1068 970
4742 4 3 11 11 0 948 1068 970 969
4743 4 3 11 11 0 948 969 970 849
4744 4 3 11 11 0 948 947 1068 969
4745 4 3 11 11 0 948 947 969 849
4746 4 3 11 11 0 947 969 849 848
4747 4 3 11 11 0 1070 949 1069 971
4748 4 3 11 11 0 949 1069 971 970
4749 4 3 11 11 0 949 970 971 850
4750 4 3 11 11 0 949 948 1069 970
4751 4 3 11 11 0 949 948 970 850
4752 4 3 11 11 0 948 970 850 849
4753 4 3 11 11 0 1071 950 1070 972
4754 4 3 11 11 0 950 1070 972 971
4755 4 3 11 11 0 950 971 972 851
4756 4 3 11 11 0 950 949 1070 971
4757 4 3 11 11 0 950 949 971 851
4758 4 3 11 11 0 949 971 851 850
4759 4 3 11 11 0 1072 951 1071 973
4760 4 3 11 11 0 951 1071 973 972
4761 4 3 11 11 0 951 972 973 852
4762 4 3 11 11 0 951 950 1071 972
4763 4 3 11 11 0 951 950 972 852
4764 4 3 11 11 0 950 972 852 851
5221 4 3 11 11 0 1168 1047 1167 1179
5222 4 3 11 11 0 1047 1167 1179 1178
5223 4 3 11 11 0 1047 1178 1179 1058
5224 4 3 11 11 0 1047 1046 1167 1178
5225 4 3 11 11 0 1047 1046 1178 1058
5226 4 3 11 11 0 1046 1178 1058 1057
5227 4 3 11 11 0 1169 1048 1168 1180
5228 4 3 11 11 0 1048 1168 1180 1179
5229 4 3 11 11 0 1048 1179 1180 1059
5230 4 3 11 11 0 1048 1047 1168 1179
5231 4 3 11 11 0 1048 1047 1179 1059
5232 4 3 11 11 0 1047 1179 1059 1058
5233 4 3 11 11 0 1170 1049 1169 1181
5234 4 3 11 11 0 1049 1169 1181 1180
5235 4 3 11 11 0 1049 1180 1181 1060
5236 4 3 11 11 0 1049 1048 1169 1180
5237 4 3 11 11 0 1049 1048 1180 1060
5238 4 3 11 11 0 1048 1180 1060 1059
5281 4 3 11 11 0 1179 1058 1178 1190
5282 4 3 11 11 0 1058 1178 1190 1189
5283 4 3 11 11 0 1058 1189 1190 1069
5284 4 3 11 11 0 1058 1057 1178 1189
5285 4 3 11 11 0 1058 1057 1189 1069
5286 4 3 11 11 0 1057 1189 1069 1068
5287 4 3 11 11 0 1180 1059 1179 1191
5288 4 3 11 11 0 1059 1179 1191 1190
5289 4 3 11 11 0 1059 1190 1191 1070
5290 4 3 11 11 0 1059 1058 1179 1190
5291 4 3 11 11 0 1059 1058 1190 1070
5292 4 3 11 11 0 1058 1190 1070 1069
5293 4 3 11 11 0 1181 1060 1180 1192
5294 4 3 11 11 0 1060 1180 1192 1191
5295 4 3 11 11 0 1060 1191 1192 1071
5296 4 3 11 11 0 1060 1059 1180 1191
5297 4 3 11 11 0 1060 1059 1191 1071
5298 4 3 11 11 0 1059 1191 1071 1070
5299 4 3 11 11 0 1182 1061 1181 1193
5300 4 3 11 11 0 1061 1181 1193 1192
5301 4 3 11 11 0 1061 1192 1193 1072
5302 4 3 11 11 0 1061 1060 1181 1192
5303 4 3 11 11 0 1061 1060 1192 1072
5304 4 3 11 11 0 1060 1192 1072 1071
5341 4 3 11 11 0 1190 1069 1189 1091
5342 4 3 11 11 0 1069 1189 1091 1090
5343 4 3 11 11 0 1069 1090 1091 970
5344 4 3 11 11 0 1069 1068 1189 1090
5345 4 3 11 11 0 1069 1068 1090 970
5346 4 3 11 11 0 1068 1090 970 969
5347 4 3 11 11 0 1191 1070 1190 1092
5348 4 3 11 11 0 1070 1190 1092 1091
5349 4 3 11 11 0 1070 1091 1092 971
5350 4 3 11 11 0 1070 1069 1190 1091
5351 4 3 11 11 0 1070 1069 1091 971
5352 4 3 11 11 0 1069 1091 971 970
5353 4 3 11 11 0 1192 1071 1191 1093
5354 4 3 11 11 0 1071 1191 1093 1092
5355 4 3 11 11 0 1071 1092 1093 972
5356 4 3 11 11 0 1071 1070 1191 1092
5357 4 3 11 11 0 1071 1070 1092 972
5358 4 3 11 11 0 1070 1092 972 971
5359 4 3 11 11 0 1193 1072 1192 1094
5360 4 3 11 11 0 1072 1192 1094 1093
5361 4 3 11 11 0 1072 1093 1094 973
5362 4 3 11 11 0 1072 1071 1192 1093
5363 4 3 11 11 0 1072 1071 1093 973
5364 4 3 11 11 0 1071 1093 973 972
5821 4 3 11 11 0 79 1168 78 90
5822 4 3 11 11 0 1168 78 90 89
5823 4 3 11 11 0 1168 89 90 1179
5824 4 3 11 11 0 1168 1167 78 89
5825 4 3 11 11 0 1168 1167 89 1179
5826 4 3 11 11 0 1167 89 1179 1178
5827 4 3 11 11 0 80 1169 79 91
5828 4 3 11 11 0 1169 79 91 90
5829 4 3 11 11 0 1169 90 91 1180
5830 4 3 11 11 0 1169 1168 79 90
5831 4 3 11 11 0 1169 1168 90 1180
5832 4 3 11 11 0 1168 90 1180 1179
5833 4 3 11 11 0 81 1170 80 92
5834 4 3 11 11 0 1170 80 92 91
5835 4 3 11 11 0 1170 91 92 1181
5836 4 3 11 11 0 1170 1169 80 91
5837 4 3 11 11 0 1170 1169 91 1181
5838 4 3 11 11 0 1169 91 1181 1180
5881 4 3 11 11 0 90 1179 89 101
5882 4 3 11 11 0 1179 89 101 100
5883 4 3 11 11 0 1179 100 101 1190
5884 4 3 11 11 0 1179 1178 89 100
5885 4 3 11 11 0 1179 1178 100 1190
5886 4 3 11 11 0 1178 100 1190 1189
5887 4 3 11 11 0 91 1180 90 102
5888 4 3 11 11 0 1180 90 102 101
5889 4 3 11 11 0 1180 101 102 1191
5890 4 3 11 11 0 1180 1179 90 101
5891 4 3 11 11 0 1180 1179 101 1191
5892 4 3 11 11 0 1179 101 1191 1190
5893 4 3 11 11 0 92 1181 91 103
5894 4 3 11 11 0 1181 91 103 102
5895 4 3 11 11 0 1181 102 103 1192
5896 4 3 11 11 0 1181 1180 91 102
5897 4 3 11 11 0 1181 1180 102 1192
5898 4 3 11 11 0 1180 102 1192 1191
5899 4 3 11 11 0 93 1182 92 104
5900 4 3 11 11 0 1182 92 104 103
5901 4 3 11 11 0 1182 103 104 1193
5902 4 3 11 11 0 1182 1181 92 103
5903 4 3 11 11 0 1182 1181 103 1193
5904 4 3 11 11 0 1181 103 1193 1192
5941 4 3 11 11 0 101 1190 100 2
5942 4 3 11 11 0 1190 100 2 1321
5943 4 3 11 11 0 1190 1321 2 1091
5944 4 3 11 11 0 1190 1189 100 1321
5945 4 3 11 11 0 1190 1189 1321 1091
5946 4 3 11 11 0 1189 1321 1091 1090
5947 4 3 11 11 0 102 1191 101 3
5948 4 3 11 11 0 1191 101 3 2
5949 4 3 11 11 0 1191 2 3 1092
5950 4 3 11 11 0 1191 1190 101 2
5951 4 3 11 11 0 1191 1190 2 1092
5952 4 3 11 11 0 1190 2 1092 1091
5953 4 3 11 11 0 103 1192 102 4
5954 4 3 11 11 0 1192 102 4 3
5955 4 3 11 11 0 1192 3 4 1093
5956 4 3 11 11 0 1192 1191 102 3
5957 4 3 11 11 0 1192 1191 3 1093
5958 4 3 11 11 0 1191 3 1093 1092
5959 4 3 11 11 0 104 1193 103 5
5960 4 3 11 11 0 1193 103 5 4
5961 4 3 11 11 0 1193 4 5 1094
5962 4 3 11 11 0 1193 1192 103 4
5963 4 3 11 11 0 1193 1192 4 1094
5964 4 3 11 11 0 1192 4 1094 1093
$EndElements
