$MeshFormat
2.2 0 8
$EndMeshFormat
$Nodes
200
23 0.000000 2.000000 0.000000
24 1.000000 2.000000 0.000000
34 0.000000 3.000000 0.000000
35 1.000000 3.000000 0.000000
122 0.000000 0.000000 1.000000
123 1.000000 0.000000 1.000000
133 0.000000 1.000000 1.000000
134 1.000000 1.000000 1.000000
144 0.000000 2.000000 1.000000
145 1.000000 2.000000 1.000000
146 2.000000 2.000000 1.000000
155 0.000000 3.000000 1.000000
156 1.000000 3.000000 1.000000
157 2.000000 3.000000 1.000000
166 0.000000 4.000000 1.000000
167 1.000000 4.000000 1.000000
168 2.000000 4.000000 1.000000
243 0.000000 0.000000 2.000000
244 1.000000 0.000000 2.000000
245 2.000000 0.000000 2.000000
254 0.000000 1.000000 2.000000
255 1.000000 1.000000 2.000000
256 2.000000 1.000000 2.000000
257 3.000000 1.000000 2.000000
265 0.000000 2.000000 2.000000
266 1.000000 2.000000 2.000000
267 2.000000 2.000000 2.000000
268 3.000000 2.000000 2.000000
276 0.000000 3.000000 2.000000
277 1.000000 3.000000 2.000000
278 2.000000 3.000000 2.000000
279 3.000000 3.000000 2.000000
280 4.000000 3.000000 2.000000
287 0.000000 4.000000 2.000000
288 1.000000 4.000000 2.000000
289 2.000000 4.000000 2.000000
290 3.000000 4.000000 2.000000
291 4.000000 4.000000 2.000000
298 0.000000 5.000000 2.000000
299 1.000000 5.000000 2.000000
300 2.000000 5.000000 2.000000
301 3.000000 5.000000 2.000000
302 4.000000 5.000000 2.000000
364 0.000000 0.000000 3.000000
365 1.000000 0.000000 3.000000
366 2.000000 0.000000 3.000000
367 3.000000 0.000000 3.000000
375 0.000000 1.000000 3.000000
376 1.000000 1.000000 3.000000
377 2.000000 1.000000 3.000000
378 3.000000 1.000000 3.000000
386 0.000000 2.000000 3.000000
387 1.000000 2.000000 3.000000
388 2.000000 2.000000 3.000000
389 3.000000 2.000000 3.000000
390 4.000000 2.000000 3.000000
397 0.000000 3.000000 3.000000
398 1.000000 3.000000 3.000000
399 2.000000 3.000000 3.000000
400 3.000000 3.000000 3.000000
401 4.000000 3.000000 3.000000
408 0.000000 4.000000 3.000000
409 1.000000 4.000000 3.000000
410 2.000000 4.000000 3.000000
411 3.000000 4.000000 3.000000
412 4.000000 4.000000 3.000000
419 0.000000 5.000000 3.000000
420 1.000000 5.000000 3.000000
421 2.000000 5.000000 3.000000
422 3.000000 5.000000 3.000000
423 4.000000 5.000000 3.000000
430 0.000000 6.000000 3.000000
431 1.000000 6.000000 3.000000
432 2.000000 6.000000 3.000000
433 3.000000 6.000000 3.000000
434 4.000000 6.000000 3.000000
485 0.000000 0.000000 4.000000
486 1.000000 0.000000 4.000000
487 2.000000 0.000000 4.000000
488 3.000000 0.000000 4.000000
496 0.000000 1.000000 4.000000
497 1.000000 1.000000 4.000000
498 2.000000 1.000000 4.000000
499 3.000000 1.000000 4.000000
500 4.000000 1.000000 4.000000
507 0.000000 2.000000 4.000000
508 1.000000 2.000000 4.000000
509 2.000000 2.000000 4.000000
510 3.000000 2.000000 4.000000
511 4.000000 2.000000 4.000000
518 0.000000 3.000000 4.000000
519 1.000000 3.000000 4.000000
520 2.000000 3.000000 4.000000
521 3.000000 3.000000 4.000000
522 4.000000 3.000000 4.000000
529 0.000000 4.000000 4.000000
530 1.000000 4.000000 4.000000
531 2.000000 4.000000 4.000000
532 3.000000 4.000000 4.000000
533 4.000000 4.000000 4.000000
540 0.000000 5.000000 4.000000
541 1.000000 5.000000 4.000000
542 2.000000 5.000000 4.000000
543 3.000000 5.000000 4.000000
544 4.000000 5.000000 4.000000
551 0.000000 6.000000 4.000000
552 1.000000 6.000000 4.000000
553 2.000000 6.000000 4.000000
554 3.000000 6.000000 4.000000
555 4.000000 6.000000 4.000000
562 0.000000 7.000000 4.000000
563 1.000000 7.000000 4.000000
564 2.000000 7.000000 4.000000
565 3.000000 7.000000 4.000000
566 4.000000 7.000000 4.000000
606 0.000000 0.000000 5.000000
607 1.000000 0.000000 5.000000
608 2.000000 0.000000 5.000000
609 3.000000 0.000000 5.000000
617 0.000000 1.000000 5.000000
618 1.000000 1.000000 5.000000
619 2.000000 1.000000 5.000000
620 3.000000 1.000000 5.000000
621 4.000000 1.000000 5.000000
628 0.000000 2.000000 5.000000
629 1.000000 2.000000 5.000000
630 2.000000 2.000000 5.000000
631 3.000000 2.000000 5.000000
632 4.000000 2.000000 5.000000
639 0.000000 3.000000 5.000000
640 1.000000 3.000000 5.000000
641 2.000000 3.000000 5.000000
642 3.000000 3.000000 5.000000
643 4.000000 3.000000 5.000000
650 0.000000 4.000000 5.000000
651 1.000000 4.000000 5.000000
652 2.000000 4.000000 5.000000
653 3.000000 4.000000 5.000000
654 4.000000 4.000000 5.000000
661 0.000000 5.000000 5.000000
662 1.000000 5.000000 5.000000
663 2.000000 5.000000 5.000000
664 3.000000 5.000000 5.000000
665 4.000000 5.000000 5.000000
672 0.000000 6.000000 5.000000
673 1.000000 6.000000 5.000000
674 2.000000 6.000000 5.000000
675 3.000000 6.000000 5.000000
676 4.000000 6.000000 5.000000
683 0.000000 7.000000 5.000000
684 1.000000 7.000000 5.000000
685 2.000000 7.000000 5.000000
686 3.000000 7.000000 5.000000
687 4.000000 7.000000 5.000000
727 0.000000 0.000000 6.000000
728 1.000000 0.000000 6.000000
729 2.000000 0.000000 6.000000
730 3.000000 0.000000 6.000000
738 0.000000 1.000000 6.000000
739 1.000000 1.000000 6.000000
740 2.000000 1.000000 6.000000
741 3.000000 1.000000 6.000000
749 0.000000 2.000000 6.000000
750 1.000000 2.000000 6.000000
751 2.000000 2.000000 6.000000
752 3.000000 2.000000 6.000000
760 0.000000 3.000000 6.000000
761 1.000000 3.000000 6.000000
762 2.000000 3.000000 6.000000
763 3.000000 3.000000 6.000000
771 0.000000 4.000000 6.000000
772 1.000000 4.000000 6.000000
773 2.000000 4.000000 6.000000
774 3.000000 4.000000 6.000000
782 0.000000 5.000000 6.000000
783 1.000000 5.000000 6.000000
784 2.000000 5.000000 6.000000
785 3.000000 5.000000 6.000000
793 0.000000 6.000000 6.000000
794 1.000000 6.000000 6.000000
795 2.000000 6.000000 6.000000
796 3.000000 6.000000 6.000000
804 0.000000 7.000000 6.000000
805 1.000000 7.000000 6.000000
806 2.000000 7.000000 6.000000
807 3.000000 7.000000 6.000000
848 0.000000 0.000000 7.000000
849 1.000000 0.000000 7.000000
859 0.000000 1.000000 7.000000
860 1.000000 1.000000 7.000000
870 0.000000 2.000000 7.000000
871 1.000000 2.000000 7.000000
881 0.000000 3.000000 7.000000
882 1.000000 3.000000 7.000000
892 0.000000 4.000000 7.000000
893 1.000000 4.000000 7.000000
903 0.000000 5.000000 7.000000
904 1.000000 5.000000 7.000000
914 0.000000 6.000000 7.000000
915 1.000000 6.000000 7.000000
$EndNodes
$Elements
594
  121     4     3     9     9     0   145    24   144   156
  122     4     3     9     9     0    24   144   156   155
  123     4     3     9     9     0    24   155   156    35
  124     4     3     9     9     0    24    23   144   155
  125     4     3     9     9     0    24    23   155    35
  126     4     3     9     9     0    23   155    35    34
  601     4     3     9     9     0   244   123   243   255
  602     4     3     9     9     0   123   243   255   254
  603     4     3     9     9     0   123   254   255   134
  604     4     3     9     9     0   123   122   243   254
  605     4     3     9     9     0   123   122   254   134
  606     4     3     9     9     0   122   254   134   133
  661     4     3     9     9     0   255   134   254   266
  662     4     3     9     9     0   134   254   266   265
  663     4     3     9     9     0   134   265   266   145
  664     4     3     9     9     0   134   133   254   265
  665     4     3     9     9     0   134   133   265   145
  666     4     3     9     9     0   133   265   145   144
  721     4     3     9     9     0   266   145   265   277
  722     4     3     9     9     0   145   265   277   276
  723     4     3     9     9     0   145   276   277   156
  724     4     3     9     9     0   145   144   265   276
  725     4     3     9     9     0   145   144   276   156
  726     4     3     9     9     0   144   276   156   155
  727     4     3     9     9     0   267   146   266   278
  728     4     3     9     9     0   146   266   278   277
  729     4     3     9     9     0   146   277   278   157
  730     4     3     9     9     0   146   145   266   277
  731     4     3     9     9     0   146   145   277   157
  732     4     3     9     9     0   145   277   157   156
  781     4     3     9     9     0   277   156   276   288
  782     4     3     9     9     0   156   276   288   287
  783     4     3     9     9     0   156   287   288   167
  784     4     3     9     9     0   156   155   276   287
  785     4     3     9     9     0   156   155   287   167
  786     4     3     9     9     0   155   287   167   166
  787     4     3     9     9     0   278   157   277   289
  788     4     3     9     9     0   157   277   289   288
  789     4     3     9     9     0   157   288   289   168
  790     4     3     9     9     0   157   156   277   288
  791     4     3     9     9     0   157   156   288   168
  792     4     3     9     9     0   156   288   168   167
 1201     4     3     9     9     0   365   244   364   376
 1202     4     3     9     9     0   244   364   376   375
 1203     4     3     9     9     0   244   375   376   255
 1204     4     3     9     9     0   244   243   364   375
 1205     4     3     9     9     0   244   243   375   255
 1206     4     3     9     9     0   243   375   255   254
 1207     4     3     9     9     0   366   245   365   377
 1208     4     3     9     9     0   245   365   377   376
 1209     4     3     9     9     0   245   376   377   256
 1210     4     3     9     9     0   245   244   365   376
 1211     4     3     9     9     0   245   244   376   256
 1212     4     3     9     9     0   244   376   256   255
 1261     4     3     9     9     0   376   255   375   387
 1262     4     3     9     9     0   255   375   387   386
 1263     4     3     9     9     0   255   386   387   266
 1264     4     3     9     9     0   255   254   375   386
 1265     4     3     9     9     0   255   254   386   266
 1266     4     3     9     9     0   254   386   266   265
 1267     4     3     9     9     0   377   256   376   388
 1268     4     3     9     9     0   256   376   388   387
 1269     4     3     9     9     0   256   387   388   267
 1270     4     3     9     9     0   256   255   376   387
 1271     4     3     9     9     0   256   255   387   267
 1272     4     3     9     9     0   255   387   267   266
 1273     4     3     9     9     0   378   257   377   389
 1274     4     3     9     9     0   257   377   389   388
 1275     4     3     9     9     0   257   388   389   268
 1276     4     3     9     9     0   257   256   377   388
 1277     4     3     9     9     0   257   256   388   268
 1278     4     3     9     9     0   256   388   268   267
 1321     4     3     9     9     0   387   266   386   398
 1322     4     3     9     9     0   266   386   398   397
 1323     4     3     9     9     0   266   397   398   277
 1324     4     3     9     9     0   266   265   386   397
 1325     4     3     9     9     0   266   265   397   277
 1326     4     3     9     9     0   265   397   277   276
 1327     4     3     9     9     0   388   267   387   399
 1328     4     3     9     9     0   267   387   399   398
 1329     4     3     9     9     0   267   398   399   278
 1330     4     3     9     9     0   267   266   387   398
 1331     4     3     9     9     0   267   266   398   278
 1332     4     3     9     9     0   266   398   278   277
 1333     4     3     9     9     0   389   268   388   400
 1334     4     3     9     9     0   268   388   400   399
 1335     4     3     9     9     0   268   399   400   279
 1336     4     3     9     9     0   268   267   388   399
 1337     4     3     9     9     0   268   267   399   279
 1338     4     3     9     9     0   267   399   279   278
 1381     4     3     9     9     0   398   277   397   409
 1382     4     3     9     9     0   277   397   409   408
 1383     4     3     9     9     0   277   408   409   288
 1384     4     3     9     9     0   277   276   397   408
 1385     4     3     9     9     0   277   276   408   288
 1386     4     3     9     9     0   276   408   288   287
 1387     4     3     9     9     0   399   278   398   410
 1388     4     3     9     9     0   278   398   410   409
 1389     4     3     9     9     0   278   409   410   289
 1390     4     3     9     9     0   278   277   398   409
 1391     4     3     9     9     0   278   277   409   289
 1392     4     3     9     9     0   277   409   289   288
 1393     4     3     9     9     0   400   279   399   411
 1394     4     3     9     9     0   279   399   411   410
 1395     4     3     9     9     0   279   410   411   290
 1396     4     3     9     9     0   279   278   399   410
 1397     4     3     9     9     0   279   278   410   290
 1398     4     3     9     9     0   278   410   290   289
 1399     4     3     9     9     0   401   280   400   412
 1400     4     3     9     9     0   280   400   412   411
 1401     4     3     9     9     0   280   411   412   291
 1402     4     3     9     9     0   280   279   400   411
 1403     4     3     9     9     0   280   279   411   291
 1404     4     3     9     9     0   279   411   291   290
 1441     4     3     9     9     0   409   288   408   420
 1442     4     3     9     9     0   288   408   420   419
 1443     4     3     9     9     0   288   419   420   299
 1444     4     3     9     9     0   288   287   408   419
 1445     4     3     9     9     0   288   287   419   299
 1446     4     3     9     9     0   287   419   299   298
 1447     4     3     9     9     0   410   289   409   421
 1448     4     3     9     9     0   289   409   421   420
 1449     4     3     9     9     0   289   420   421   300
 1450     4     3     9     9     0   289   288   409   420
 1451     4     3     9     9     0   289   288   420   300
 1452     4     3     9     9     0   288   420   300   299
 1453     4     3     9     9     0   411   290   410   422
 1454     4     3     9     9     0   290   410   422   421
 1455     4     3     9     9     0   290   421   422   301
 1456     4     3     9     9     0   290   289   410   421
 1457     4     3     9     9     0   290   289   421   301
 1458     4     3     9     9     0   289   421   301   300
 1459     4     3     9     9     0   412   291   411   423
 1460     4     3     9     9     0   291   411   423   422
 1461     4     3     9     9     0   291   422   423   302
 1462     4     3     9     9     0   291   290   411   422
 1463     4     3     9     9     0   291   290   422   302
 1464     4     3     9     9     0   290   422   302   301
 1801     4     3     9     9     0   486   365   485   497
 1802     4     3     9     9     0   365   485   497   496
 1803     4     3     9     9     0   365   496   497   376
 1804     4     3     9     9     0   365   364   485   496
 1805     4     3     9     9     0   365   364   496   376
 1806     4     3     9     9     0   364   496   376   375
 1807     4     3     9     9     0   487   366   486   498
 1808     4     3     9     9     0   366   486   498   497
 1809     4     3     9     9     0   366   497   498   377
 1810     4     3     9     9     0   366   365   486   497
 1811     4     3     9     9     0   366   365   497   377
 1812     4     3     9     9     0   365   497   377   376
 1813     4     3     9     9     0   488   367   487   499
 1814     4     3     9     9     0   367   487   499   498
 1815     4     3     9     9     0   367   498   499   378
 1816     4     3     9     9     0   367   366   487   498
 1817     4     3     9     9     0   367   366   498   378
 1818     4     3     9     9     0   366   498   378   377
 1861     4     3     9     9     0   497   376   496   508
 1862     4     3     9     9     0   376   496   508   507
 1863     4     3     9     9     0   376   507   508   387
 1864     4     3     9     9     0   376   375   496   507
 1865     4     3     9     9     0   376   375   507   387
 1866     4     3     9     9     0   375   507   387   386
 1867     4     3     9     9     0   498   377   497   509
 1868     4     3     9     9     0   377   497   509   508
 1869     4     3     9     9     0   377   508   509   388
 1870     4     3     9     9     0   377   376   497   508
 1871     4     3     9     9     0   377   376   508   388
 1872     4     3     9     9     0   376   508   388   387
 1873     4     3     9     9     0   499   378   498   510
 1874     4     3     9     9     0   378   498   510   509
 1875     4     3     9     9     0   378   509   510   389
 1876     4     3     9     9     0   378   377   498   509
 1877     4     3     9     9     0   378   377   509   389
 1878     4     3     9     9     0   377   509   389   388
 1921     4     3     9     9     0   508   387   507   519
 1922     4     3     9     9     0   387   507   519   518
 1923     4     3     9     9     0   387   518   519   398
 1924     4     3     9     9     0   387   386   507   518
 1925     4     3     9     9     0   387   386   518   398
 1926     4     3     9     9     0   386   518   398   397
 1927     4     3     9     9     0   509   388   508   520
 1928     4     3     9     9     0   388   508   520   519
 1929     4     3     9     9     0   388   519   520   399
 1930     4     3     9     9     0   388   387   508   519
 1931     4     3     9     9     0   388   387   519   399
 1932     4     3     9     9     0   387   519   399   398
 1933     4     3     9     9     0   510   389   509   521
 1934     4     3     9     9     0   389   509   521   520
 1935     4     3     9     9     0   389   520   521   400
 1936     4     3     9     9     0   389   388   509   520
 1937     4     3     9     9     0   389   388   520   400
 1938     4     3     9     9     0   388   520   400   399
 1939     4     3     9     9     0   511   390   510   522
 1940     4     3     9     9     0   390   510   522   521
 1941     4     3     9     9     0   390   521   522   401
 1942     4     3     9     9     0   390   389   510   521
 1943     4     3     9     9     0   390   389   521   401
 1944     4     3     9     9     0   389   521   401   400
 1981     4     3     9     9     0   519   398   518   530
 1982     4     3     9     9     0   398   518   530   529
 1983     4     3     9     9     0   398   529   530   409
 1984     4     3     9     9     0   398   397   518   529
 1985     4     3     9     9     0   398   397   529   409
 1986     4     3     9     9     0   397   529   409   408
 1987     4     3     9     9     0   520   399   519   531
 1988     4     3     9     9     0   399   519   531   530
 1989     4     3     9     9     0   399   530   531   410
 1990     4     3     9     9     0   399   398   519   530
 1991     4     3     9     9     0   399   398   530   410
 1992     4     3     9     9     0   398   530   410   409
 1993     4     3     9     9     0   521   400   520   532
 1994     4     3     9     9     0   400   520   532   531
 1995     4     3     9     9     0   400   531   532   411
 1996     4     3     9     9     0   400   399   520   531
 1997     4     3     9     9     0   400   399   531   411
 1998     4     3     9     9     0   399   531   411   410
 1999     4     3     9     9     0   522   401   521   533
 2000     4     3     9     9     0   401   521   533   532
 2001     4     3     9     9     0   401   532   533   412
 2002     4     3     9     9     0   401   400   521   532
 2003     4     3     9     9     0   401   400   532   412
 2004     4     3     9     9     0   400   532   412   411
 2041     4     3     9     9     0   530   409   529   541
 2042     4     3     9     9     0   409   529   541   540
 2043     4     3     9     9     0   409   540   541   420
 2044     4     3     9     9     0   409   408   529   540
 2045     4     3     9     9     0   409   408   540   420
 2046     4     3     9     9     0   408   540   420   419
 2047     4     3     9     9     0   531   410   530   542
 2048     4     3     9     9     0   410   530   542   541
 2049     4     3     9     9     0   410   541   542   421
 2050     4     3     9     9     0   410   409   530   541
 2051     4     3     9     9     0   410   409   541   421
 2052     4     3     9     9     0   409   541   421   420
 2053     4     3     9     9     0   532   411   531   543
 2054     4     3     9     9     0   411   531   543   542
 2055     4     3     9     9     0   411   542   543   422
 2056     4     3     9     9     0   411   410   531   542
 2057     4     3     9     9     0   411   410   542   422
 2058     4     3     9     9     0   410   542   422   421
 2059     4     3     9     9     0   533   412   532   544
 2060     4     3     9     9     0   412   532   544   543
 2061     4     3     9     9     0   412   543   544   423
 2062     4     3     9     9     0   412   411   532   543
 2063     4     3     9     9     0   412   411   543   423
 2064     4     3     9     9     0   411   543   423   422
 2101     4     3     9     9     0   541   420   540   552
 2102     4     3     9     9     0   420   540   552   551
 2103     4     3     9     9     0   420   551   552   431
 2104     4     3     9     9     0   420   419   540   551
 2105     4     3     9     9     0   420   419   551   431
 2106     4     3     9     9     0   419   551   431   430
 2107     4     3     9     9     0   542   421   541   553
 2108     4     3     9     9     0   421   541   553   552
 2109     4     3     9     9     0   421   552   553   432
 2110     4     3     9     9     0   421   420   541   552
 2111     4     3     9     9     0   421   420   552   432
 2112     4     3     9     9     0   420   552   432   431
 2113     4     3     9     9     0   543   422   542   554
 2114     4     3     9     9     0   422   542   554   553
 2115     4     3     9     9     0   422   553   554   433
 2116     4     3     9     9     0   422   421   542   553
 2117     4     3     9     9     0   422   421   553   433
 2118     4     3     9     9     0   421   553   433   432
 2119     4     3     9     9     0   544   423   543   555
 2120     4     3     9     9     0   423   543   555   554
 2121     4     3     9     9     0   423   554   555   434
 2122     4     3     9     9     0   423   422   543   554
 2123     4     3     9     9     0   423   422   554   434
 2124     4     3     9     9     0   422   554   434   433
 2401     4     3     9     9     0   607   486   606   618
 2402     4     3     9     9     0   486   606   618   617
 2403     4     3     9     9     0   486   617   618   497
 2404     4     3     9     9     0   486   485   606   617
 2405     4     3     9     9     0   486   485   617   497
 2406     4     3     9     9     0   485   617   497   496
 2407     4     3     9     9     0   608   487   607   619
 2408     4     3     9     9     0   487   607   619   618
 2409     4     3     9     9     0   487   618   619   498
 2410     4     3     9     9     0   487   486   607   618
 2411     4     3     9     9     0   487   486   618   498
 2412     4     3     9     9     0   486   618   498   497
 2413     4     3     9     9     0   609   488   608   620
 2414     4     3     9     9     0   488   608   620   619
 2415     4     3     9     9     0   488   619   620   499
 2416     4     3     9     9     0   488   487   608   619
 2417     4     3     9     9     0   488   487   619   499
 2418     4     3     9     9     0   487   619   499   498
 2461     4     3     9     9     0   618   497   617   629
 2462     4     3     9     9     0   497   617   629   628
 2463     4     3     9     9     0   497   628   629   508
 2464     4     3     9     9     0   497   496   617   628
 2465     4     3     9     9     0   497   496   628   508
 2466     4     3     9     9     0   496   628   508   507
 2467     4     3     9     9     0   619   498   618   630
 2468     4     3     9     9     0   498   618   630   629
 2469     4     3     9     9     0   498   629   630   509
 2470     4     3     9     9     0   498   497   618   629
 2471     4     3     9     9     0   498   497   629   509
 2472     4     3     9     9     0   497   629   509   508
 2473     4     3     9     9     0   620   499   619   631
 2474     4     3     9     9     0   499   619   631   630
 2475     4     3     9     9     0   499   630   631   510
 2476     4     3     9     9     0   499   498   619   630
 2477     4     3     9     9     0   499   498   630   510
 2478     4     3     9     9     0   498   630   510   509
 2479     4     3     9     9     0   621   500   620   632
 2480     4     3     9     9     0   500   620   632   631
 2481     4     3     9     9     0   500   631   632   511
 2482     4     3     9     9     0   500   499   620   631
 2483     4     3     9     9     0   500   499   631   511
 2484     4     3     9     9     0   499   631   511   510
 2521     4     3     9     9     0   629   508   628   640
 2522     4     3     9     9     0   508   628   640   639
 2523     4     3     9     9     0   508   639   640   519
 2524     4     3     9     9     0   508   507   628   639
 2525     4     3     9     9     0   508   507   639   519
 2526     4     3     9     9     0   507   639   519   518
 2527     4     3     9     9     0   630   509   629   641
 2528     4     3     9     9     0   509   629   641   640
 2529     4     3     9     9     0   509   640   641   520
 2530     4     3     9     9     0   509   508   629   640
 2531     4     3     9     9     0   509   508   640   520
 2532     4     3     9     9     0   508   640   520   519
 2533     4     3     9     9     0   631   510   630   642
 2534     4     3     9     9     0   510   630   642   641
 2535     4     3     9     9     0   510   641   642   521
 2536     4     3     9     9     0   510   509   630   641
 2537     4     3     9     9     0   510   509   641   521
 2538     4     3     9     9     0   509   641   521   520
 2539     4     3     9     9     0   632   511   631   643
 2540     4     3     9     9     0   511   631   643   642
 2541     4     3     9     9     0   511   642   643   522
 2542     4     3     9     9     0   511   510   631   642
 2543     4     3     9     9     0   511   510   642   522
 2544     4     3     9     9     0   510   642   522   521
 2581     4     3     9     9     0   640   519   639   651
 2582     4     3     9     9     0   519   639   651   650
 2583     4     3     9     9     0   519   650   651   530
 2584     4     3     9     9     0   519   518   639   650
 2585     4     3     9     9     0   519   518   650   530
 2586     4     3     9     9     0   518   650   530   529
 2587     4     3     9     9     0   641   520   640   652
 2588     4     3     9     9     0   520   640   652   651
 2589     4     3     9     9     0   520   651   652   531
 2590     4     3     9     9     0   520   519   640   651
 2591     4     3     9     9     0   520   519   651   531
 2592     4     3     9     9     0   519   651   531   530
 2593     4     3     9     9     0   642   521   641   653
 2594     4     3     9     9     0   521   641   653   652
 2595     4     3     9     9     0   521   652   653   532
 2596     4     3     9     9     0   521   520   641   652
 2597     4     3     9     9     0   521   520   652   532
 2598     4     3     9     9     0   520   652   532   531
 2599     4     3     9     9     0   643   522   642   654
 2600     4     3     9     9     0   522   642   654   653
 2601     4     3     9     9     0   522   653   654   533
 2602     4     3     9     9     0   522   521   642   653
 2603     4     3     9     9     0   522   521   653   533
 2604     4     3     9     9     0   521   653   533   532
 2641     4     3     9     9     0   651   530   650   662
 2642     4     3     9     9     0   530   650   662   661
 2643     4     3     9     9     0   530   661   662   541
 2644     4     3     9     9     0   530   529   650   661
 2645     4     3     9     9     0   530   529   661   541
 2646     4     3     9     9     0   529   661   541   540
 2647     4     3     9     9     0   652   531   651   663
 2648     4     3     9     9     0   531   651   663   662
 2649     4     3     9     9     0   531   662   663   542
 2650     4     3     9     9     0   531   530   651   662
 2651     4     3     9     9     0   531   530   662   542
 2652     4     3     9     9     0   530   662   542   541
 2653     4     3     9     9     0   653   532   652   664
 2654     4     3     9     9     0   532   652   664   663
 2655     4     3     9     9     0   532   663   664   543
 2656     4     3     9     9     0   532   531   652   663
 2657     4     3     9     9     0   532   531   663   543
 2658     4     3     9     9     0   531   663   543   542
 2659     4     3     9     9     0   654   533   653   665
 2660     4     3     9     9     0   533   653   665   664
 2661     4     3     9     9     0   533   664   665   544
 2662     4     3     9     9     0   533   532   653   664
 2663     4     3     9     9     0   533   532   664   544
 2664     4     3     9     9     0   532   664   544   543
 2701     4     3     9     9     0   662   541   661   673
 2702     4     3     9     9     0   541   661   673   672
 2703     4     3     9     9     0   541   672   673   552
 2704     4     3     9     9     0   541   540   661   672
 2705     4     3     9     9     0   541   540   672   552
 2706     4     3     9     9     0   540   672   552   551
 2707     4     3     9     9     0   663   542   662   674
 2708     4     3     9     9     0   542   662   674   673
 2709     4     3     9     9     0   542   673   674   553
 2710     4     3     9     9     0   542   541   662   673
 2711     4     3     9     9     0   542   541   673   553
 2712     4     3     9     9     0   541   673   553   552
 2713     4     3     9     9     0   664   543   663   675
 2714     4     3     9     9     0   543   663   675   674
 2715     4     3     9     9     0   543   674   675   554
 2716     4     3     9     9     0   543   542   663   674
 2717     4     3     9     9     0   543   542   674   554
 2718     4     3     9     9     0   542   674   554   553
 2719     4     3     9     9     0   665   544   664   676
 2720     4     3     9     9     0   544   664   676   675
 2721     4     3     9     9     0   544   675   676   555
 2722     4     3     9     9     0   544   543   664   675
 2723     4     3     9     9     0   544   543   675   555
 2724     4     3     9     9     0   543   675   555   554
 2761     4     3     9     9     0   673   552   672   684
 2762     4     3     9     9     0   552   672   684   683
 2763     4     3     9     9     0   552   683   684   563
 2764     4     3     9     9     0   552   551   672   683
 2765     4     3     9     9     0   552   551   683   563
 2766     4     3     9     9     0   551   683   563   562
 2767     4     3     9     9     0   674   553   673   685
 2768     4     3     9     9     0   553   673   685   684
 2769     4     3     9     9     0   553   684   685   564
 2770     4     3     9     9     0   553   552   673   684
 2771     4     3     9     9     0   553   552   684   564
 2772     4     3     9     9     0   552   684   564   563
 2773     4     3     9     9     0   675   554   674   686
 2774     4     3     9     9     0   554   674   686   685
 2775     4     3     9     9     0   554   685   686   565
 2776     4     3     9     9     0   554   553   674   685
 2777     4     3     9     9     0   554   553   685   565
 2778     4     3     9     9     0   553   685   565   564
 2779     4     3     9     9     0   676   555   675   687
 2780     4     3     9     9     0   555   675   687   686
 2781     4     3     9     9     0   555   686   687   566
 2782     4     3     9     9     0   555   554   675   686
 2783     4     3     9     9     0   555   554   686   566
 2784     4     3     9     9     0   554   686   566   565
 3001     4     3     9     9     0   728   607   727   739
 3002     4     3     9     9     0   607   727   739   738
 3003     4     3     9     9     0   607   738   739   618
 3004     4     3     9     9     0   607   606   727   738
 3005     4     3     9     9     0   607   606   738   618
 3006     4     3     9     9     0   606   738   618   617
 3007     4     3     9     9     0   729   608   728   740
 3008     4     3     9     9     0   608   728   740   739
 3009     4     3     9     9     0   608   739   740   619
 3010     4     3     9     9     0   608   607   728   739
 3011     4     3     9     9     0   608   607   739   619
 3012     4     3     9     9     0   607   739   619   618
 3013     4     3     9     9     0   730   609   729   741
 3014     4     3     9     9     0   609   729   741   740
 3015     4     3     9     9     0   609   740   741   620
 3016     4     3     9     9     0   609   608   729   740
 3017     4     3     9     9     0   609   608   740   620
 3018     4     3     9     9     0   608   740   620   619
 3061     4     3     9     9     0   739   618   738   750
 3062     4     3     9     9     0   618   738   750   749
 3063     4     3     9     9     0   618   749   750   629
 3064     4     3     9     9     0   618   617   738   749
 3065     4     3     9     9     0   618   617   749   629
 3066     4     3     9     9     0   617   749   629   628
 3067     4     3     9     9     0   740   619   739   751
 3068     4     3     9     9     0   619   739   751   750
 3069     4     3     9     9     0   619   750   751   630
 3070     4     3     9     9     0   619   618   739   750
 3071     4     3     9     9     0   619   618   750   630
 3072     4     3     9     9     0   618   750   630   629
 3073     4     3     9     9     0   741   620   740   752
 3074     4     3     9     9     0   620   740   752   751
 3075     4     3     9     9     0   620   751   752   631
 3076     4     3     9     9     0   620   619   740   751
 3077     4     3     9     9     0   620   619   751   631
 3078     4     3     9     9     0   619   751   631   630
 3121     4     3     9     9     0   750   629   749   761
 3122     4     3     9     9     0   629   749   761   760
 3123     4     3     9     9     0   629   760   761   640
 3124     4     3     9     9     0   629   628   749   760
 3125     4     3     9     9     0   629   628   760   640
 3126     4     3     9     9     0   628   760   640   639
 3127     4     3     9     9     0   751   630   750   762
 3128     4     3     9     9     0   630   750   762   761
 3129     4     3     9     9     0   630   761   762   641
 3130     4     3     9     9     0   630   629   750   761
 3131     4     3     9     9     0   630   629   761   641
 3132     4     3     9     9     0   629   761   641   640
 3133     4     3     9     9     0   752   631   751   763
 3134     4     3     9     9     0   631   751   763   762
 3135     4     3     9     9     0   631   762   763   642
 3136     4     3     9     9     0   631   630   751   762
 3137     4     3     9     9     0   631   630   762   642
 3138     4     3     9     9     0   630   762   642   641
 3181     4     3     9     9     0   761   640   760   772
 3182     4     3     9     9     0   640   760   772   771
 3183     4     3     9     9     0   640   771   772   651
 3184     4     3     9     9     0   640   639   760   771
 3185     4     3     9     9     0   640   639   771   651
 3186     4     3     9     9     0   639   771   651   650
 3187     4     3     9     9     0   762   641   761   773
 3188     4     3     9     9     0   641   761   773   772
 3189     4     3     9     9     0   641   772   773   652
 3190     4     3     9     9     0   641   640   761   772
 3191     4     3     9     9     0   641   640   772   652
 3192     4     3     9     9     0   640   772   652   651
 3193     4     3     9     9     0   763   642   762   774
 3194     4     3     9     9     0   642   762   774   773
 3195     4     3     9     9     0   642   773   774   653
 3196     4     3     9     9     0   642   641   762   773
 3197     4     3     9     9     0   642   641   773   653
 3198     4     3     9     9     0   641   773   653   652
 3241     4     3     9     9     0   772   651   771   783
 3242     4     3     9     9     0   651   771   783   782
 3243     4     3     9     9     0   651   782   783   662
 3244     4     3     9     9     0   651   650   771   782
 3245     4     3     9     9     0   651   650   782   662
 3246     4     3     9     9     0   650   782   662   661
 3247     4     3     9     9     0   773   652   772   784
 3248     4     3     9     9     0   652   772   784   783
 3249     4     3     9     9     0   652   783   784   663
 3250     4     3     9     9     0   652   651   772   783
 3251     4     3     9     9     0   652   651   783   663
 3252     4     3     9     9     0   651   783   663   662
 3253     4     3     9     9     0   774   653   773   785
 3254     4     3     9     9     0   653   773   785   784
 3255     4     3     9     9     0   653   784   785   664
 3256     4     3     9     9     0   653   652   773   784
 3257     4     3     9     9     0   653   652   784   664
 3258     4     3     9     9     0   652   784   664   663
 3301     4     3     9     9     0   783   662   782   794
 3302     4     3     9     9     0   662   782   794   793
 3303     4     3     9     9     0   662   793   794   673
 3304     4     3     9     9     0   662   661   782   793
 3305     4     3     9     9     0   662   661   793   673
 3306     4     3     9     9     0   661   793   673   672
 3307     4     3     9     9     0   784   663   783   795
 3308     4     3     9     9     0   663   783   795   794
 3309     4     3     9     9     0   663   794   795   674
 3310     4     3     9     9     0   663   662   783   794
 3311     4     3     9     9     0   663   662   794   674
 3312     4     3     9     9     0   662   794   674   673
 3313     4     3     9     9     0   785   664   784   796
 3314     4     3     9     9     0   664   784   796   795
 3315     4     3     9     9     0   664   795   796   675
 3316     4     3     9     9     0   664   663   784   795
 3317     4     3     9     9     0   664   663   795   675
 3318     4     3     9     9     0   663   795   675   674
 3361     4     3     9     9     0   794   673   793   805
 3362     4     3     9     9     0   673   793   805   804
 3363     4     3     9     9     0   673   804   805   684
 3364     4     3     9     9     0   673   672   793   804
 3365     4     3     9     9     0   673   672   804   684
 3366     4     3     9     9     0   672   804   684   683
 3367     4     3     9     9     0   795   674   794   806
 3368     4     3     9     9     0   674   794   806   805
 3369     4     3     9     9     0   674   805   806   685
 3370     4     3     9     9     0   674   673   794   805
 3371     4     3     9     9     0   674   673   805   685
 3372     4     3     9     9     0   673   805   685   684
 3373     4     3     9     9     0   796   675   795   807
 3374     4     3     9     9     0   675   795   807   806
 3375     4     3     9     9     0   675   806   807   686
 3376     4     3     9     9     0   675   674   795   806
 3377     4     3     9     9     0   675   674   806   686
 3378     4     3     9     9     0   674   806   686   685
 3601     4     3     9     9     0   849   728   848   860
 3602     4     3     9     9     0   728   848   860   859
 3603     4     3     9     9     0   728   859   860   739
 3604     4     3     9     9     0   728   727   848   859
 3605     4     3     9     9     0   728   727   859   739
 3606     4     3     9     9     0   727   859   739   738
 3661     4     3     9     9     0   860   739   859   871
 3662     4     3     9     9     0   739   859   871   870
 3663     4     3     9     9     0   739   870   871   750
 3664     4     3     9     9     0   739   738   859   870
 3665     4     3     9     9     0   739   738   870   750
 3666     4     3     9     9     0   738   870   750   749
 3721     4     3     9     9     0   871   750   870   882
 3722     4     3     9     9     0   750   870   882   881
 3723     4     3     9     9     0   750   881   882   761
 3724     4     3     9     9     0   750   749   870   881
 3725     4     3     9     9     0   750   749   881   761
 3726     4     3     9     9     0   749   881   761   760
 3781     4     3     9     9     0   882   761   881   893
 3782     4     3     9     9     0   761   881   893   892
 3783     4     3     9     9     0   761   892   893   772
 3784     4     3     9     9     0   761   760   881   892
 3785     4     3     9     9     0   761   760   892   772
 3786     4     3     9     9     0   760   892   772   771
 3841     4     3     9     9     0   893   772   892   904
 3842     4     3     9     9     0   772   892   904   903
 3843     4     3     9     9     0   772   903   904   783
 3844     4     3     9     9     0   772   771   892   903
 3845     4     3     9     9     0   772   771   903   783
 3846     4     3     9     9     0   771   903   783   782
 3901     4     3     9     9     0   904   783   903   915
 3902     4     3     9     9     0   783   903   915   914
 3903     4     3     9     9     0   783   914   915   794
 3904     4     3     9     9     0   783   782   903   914
 3905     4     3     9     9     0   783   782   914   794
 3906     4     3     9     9     0   782   914   794   793
$EndElements
