$MeshFormat
2.2 0 8
$EndMeshFormat
$Nodes
108
793 0.000000 6.000000 6.000000
794 1.000000 6.000000 6.000000
795 2.000000 6.000000 6.000000
796 3.000000 6.000000 6.000000
804 0.000000 7.000000 6.000000
805 1.000000 7.000000 6.000000
806 2.000000 7.000000 6.000000
807 3.000000 7.000000 6.000000
808 4.000000 7.000000 6.000000
815 0.000000 8.000000 6.000000
816 1.000000 8.000000 6.000000
817 2.000000 8.000000 6.000000
818 3.000000 8.000000 6.000000
819 4.000000 8.000000 6.000000
826 0.000000 9.000000 6.000000
827 1.000000 9.000000 6.000000
828 2.000000 9.000000 6.000000
829 3.000000 9.000000 6.000000
830 4.000000 9.000000 6.000000
837 0.000000 10.000000 6.000000
838 1.000000 10.000000 6.000000
839 2.000000 10.000000 6.000000
840 3.000000 10.000000 6.000000
841 4.000000 10.000000 6.000000
914 0.000000 6.000000 7.000000
915 1.000000 6.000000 7.000000
916 2.000000 6.000000 7.000000
917 3.000000 6.000000 7.000000
925 0.000000 7.000000 7.000000
926 1.000000 7.000000 7.000000
927 2.000000 7.000000 7.000000
928 3.000000 7.000000 7.000000
929 4.000000 7.000000 7.000000
936 0.000000 8.000000 7.000000
937 1.000000 8.000000 7.000000
938 2.000000 8.000000 7.000000
939 3.000000 8.000000 7.000000
940 4.000000 8.000000 7.000000
947 0.000000 9.000000 7.000000
948 1.000000 9.000000 7.000000
949 2.000000 9.000000 7.000000
950 3.000000 9.000000 7.000000
951 4.000000 9.000000 7.000000
958 0.000000 10.000000 7.000000
959 1.000000 10.000000 7.000000
960 2.000000 10.000000 7.000000
961 3.000000 10.000000 7.000000
962 4.000000 10.000000 7.000000
1035 0.000000 6.000000 8.000000
1036 1.000000 6.000000 8.000000
1046 0.000000 7.000000 8.000000
1047 1.000000 7.000000 8.000000
1048 2.000000 7.000000 8.000000
1049 3.000000 7.000000 8.000000
1050 4.000000 7.000000 8.000000
1057 0.000000 8.000000 8.000000
1058 1.000000 8.000000 8.000000
1059 2.000000 8.000000 8.000000
1060 3.000000 8.000000 8.000000
1061 4.000000 8.000000 8.000000
1068 0.000000 9.000000 8.000000
1069 1.000000 9.000000 8.000000
1070 2.000000 9.000000 8.000000
1071 3.000000 9.000000 8.000000
1072 4.000000 9.000000 8.000000
1079 0.000000 10.000000 8.000000
1080 1.000000 10.000000 8.000000
1081 2.000000 10.000000 8.000000
1082 3.000000 10.000000 8.000000
1083 4.000000 10.000000 8.000000
1167 0.000000 7.000000 9.000000
1168 1.000000 7.000000 9.000000
1169 2.000000 7.000000 9.000000
1170 3.000000 7.000000 9.000000
1178 0.000000 8.000000 9.000000
1179 1.000000 8.000000 9.000000
1180 2.000000 8.000000 9.000000
1181 3.000000 8.000000 9.000000
1182 4.000000 8.000000 9.000000
1189 0.000000 9.000000 9.000000
1190 1.000000 9.000000 9.000000
1191 2.000000 9.000000 9.000000
1192 3.000000 9.000000 9.000000
1193 4.000000 9.000000 9.000000
1200 0.000000 10.000000 9.000000
1201 1.000000 10.000000 9.000000
1202 2.000000 10.000000 9.000000
1203 3.000000 10.000000 9.000000
1204 4.000000 10.000000 9.000000
1288 0.000000 7.000000 10.000000
1289 1.000000 7.000000 10.000000
1290 2.000000 7.000000 10.000000
1291 3.000000 7.000000 10.000000
1299 0.000000 8.000000 10.000000
1300 1.000000 8.000000 10.000000
1301 2.000000 8.000000 10.000000
1302 3.000000 8.000000 10.000000
1303 4.000000 8.000000 10.000000
1310 0.000000 9.000000 10.000000
1311 1.000000 9.000000 10.000000
1312 2.000000 9.000000 10.000000
1313 3.000000 9.000000 10.000000
1314 4.000000 9.000000 10.000000
1321 0.000000 10.000000 10.000000
1322 1.000000 10.000000 10.000000
1323 2.000000 10.000000 10.000000
1324 3.000000 10.000000 10.000000
1325 4.000000 10.000000 10.000000
$EndNodes
$Elements
300
 3961     4     3    11    11     0   915   794   914   926
 3962     4     3    11    11     0   794   914   926   925
 3963     4     3    11    11     0   794   925   926   805
 3964     4     3    11    11     0   794   793   914   925
 3965     4     3    11    11     0   794   793   925   805
 3966     4     3    11    11     0   793   925   805   804
 3967     4     3    11    11     0   916   795   915   927
 3968     4     3    11    11     0   795   915   927   926
 3969     4     3    11    11     0   795   926   927   806
 3970     4     3    11    11     0   795   794   915   926
 3971     4     3    11    11     0   795   794   926   806
 3972     4     3    11    11     0   794   926   806   805
 3973     4     3    11    11     0   917   796   916   928
 3974     4     3    11    11     0   796   916   928   927
 3975     4     3    11    11     0   796   927   928   807
 3976     4     3    11    11     0   796   795   916   927
 3977     4     3    11    11     0   796   795   927   807
 3978     4     3    11    11     0   795   927   807   806
 4021     4     3    11    11     0   926   805   925   937
 4022     4     3    11    11     0   805   925   937   936
 4023     4     3    11    11     0   805   936   937   816
 4024     4     3    11    11     0   805   804   925   936
 4025     4     3    11    11     0   805   804   936   816
 4026     4     3    11    11     0   804   936   816   815
 4027     4     3    11    11     0   927   806   926   938
 4028     4     3    11    11     0   806   926   938   937
 4029     4     3    11    11     0   806   937   938   817
 4030     4     3    11    11     0   806   805   926   937
 4031     4     3    11    11     0   806   805   937   817
 4032     4     3    11    11     0   805   937   817   816
 4033     4     3    11    11     0   928   807   927   939
 4034     4     3    11    11     0   807   927   939   938
 4035     4     3    11    11     0   807   938   939   818
 4036     4     3    11    11     0   807   806   927   938
 4037     4     3    11    11     0   807   806   938   818
 4038     4     3    11    11     0   806   938   818   817
 4039     4     3    11    11     0   929   808   928   940
 4040     4     3    11    11     0   808   928   940   939
 4041     4     3    11    11     0   808   939   940   819
 4042     4     3    11    11     0   808   807   928   939
 4043     4     3    11    11     0   808   807   939   819
 4044     4     3    11    11     0   807   939   819   818
 4081     4     3    11    11     0   937   816   936   948
 4082     4     3    11    11     0   816   936   948   947
 4083     4     3    11    11     0   816   947   948   827
 4084     4     3    11    11     0   816   815   936   947
 4085     4     3    11    11     0   816   815   947   827
 4086     4     3    11    11     0   815   947   827   826
 4087     4     3    11    11     0   938   817   937   949
 4088     4     3    11    11     0   817   937   949   948
 4089     4     3    11    11     0   817   948   949   828
 4090     4     3    11    11     0   817   816   937   948
 4091     4     3    11    11     0   817   816   948   828
 4092     4     3    11    11     0   816   948   828   827
 4093     4     3    11    11     0   939   818   938   950
 4094     4     3    11    11     0   818   938   950   949
 4095     4     3    11    11     0   818   949   950   829
 4096     4     3    11    11     0   818   817   938   949
 4097     4     3    11    11     0   818   817   949   829
 4098     4     3    11    11     0   817   949   829   828
 4099     4     3    11    11     0   940   819   939   951
 4100     4     3    11    11     0   819   939   951   950
 4101     4     3    11    11     0   819   950   951   830
 4102     4     3    11    11     0   819   818   939   950
 4103     4     3    11    11     0   819   818   950   830
 4104     4     3    11    11     0   818   950   830   829
 4141     4     3    11    11     0   948   827   947   959
 4142     4     3    11    11     0   827   947   959   958
 4143     4     3    11    11     0   827   958   959   838
 4144     4     3    11    11     0   827   826   947   958
 4145     4     3    11    11     0   827   826   958   838
 4146     4     3    11    11     0   826   958   838   837
 4147     4     3    11    11     0   949   828   948   960
 4148     4     3    11    11     0   828   948   960   959
 4149     4     3    11    11     0   828   959   960   839
 4150     4     3    11    11     0   828   827   948   959
 4151     4     3    11    11     0   828   827   959   839
 4152     4     3    11    11     0   827   959   839   838
 4153     4     3    11    11     0   950   829   949   961
 4154     4     3    11    11     0   829   949   961   960
 4155     4     3    11    11     0   829   960   961   840
 4156     4     3    11    11     0   829   828   949   960
 4157     4     3    11    11     0   829   828   960   840
 4158     4     3    11    11     0   828   960   840   839
 4159     4     3    11    11     0   951   830   950   962
 4160     4     3    11    11     0   830   950   962   961
 4161     4     3    11    11     0   830   961   962   841
 4162     4     3    11    11     0   830   829   950   961
 4163     4     3    11    11     0   830   829   961   841
 4164     4     3    11    11     0   829   961   841   840
 4561     4     3    11    11     0  1036   915  1035  1047
 4562     4     3    11    11     0   915  1035  1047  1046
 4563     4     3    11    11     0   915  1046  1047   926
 4564     4     3    11    11     0   915   914  1035  1046
 4565     4     3    11    11     0   915   914  1046   926
 4566     4     3    11    11     0   914  1046   926   925
 4621     4     3    11    11     0  1047   926  1046  1058
 4622     4     3    11    11     0   926  1046  1058  1057
 4623     4     3    11    11     0   926  1057  1058   937
 4624     4     3    11    11     0   926   925  1046  1057
 4625     4     3    11    11     0   926   925  1057   937
 4626     4     3    11    11     0   925  1057   937   936
 4627     4     3    11    11     0  1048   927  1047  1059
 4628     4     3    11    11     0   927  1047  1059  1058
 4629     4     3    11    11     0   927  1058  1059   938
 4630     4     3    11    11     0   927   926  1047  1058
 4631     4     3    11    11     0   927   926  1058   938
 4632     4     3    11    11     0   926  1058   938   937
 4633     4     3    11    11     0  1049   928  1048  1060
 4634     4     3    11    11     0   928  1048  1060  1059
 4635     4     3    11    11     0   928  1059  1060   939
 4636     4     3    11    11     0   928   927  1048  1059
 4637     4     3    11    11     0   928   927  1059   939
 4638     4     3    11    11     0   927  1059   939   938
 4639     4     3    11    11     0  1050   929  1049  1061
 4640     4     3    11    11     0   929  1049  1061  1060
 4641     4     3    11    11     0   929  1060  1061   940
 4642     4     3    11    11     0   929   928  1049  1060
 4643     4     3    11    11     0   929   928  1060   940
 4644     4     3    11    11     0   928  1060   940   939
 4681     4     3    11    11     0  1058   937  1057  1069
 4682     4     3    11    11     0   937  1057  1069  1068
 4683     4     3    11    11     0   937  1068  1069   948
 4684     4     3    11    11     0   937   936  1057  1068
 4685     4     3    11    11     0   937   936  1068   948
 4686     4     3    11    11     0   936  1068   948   947
 4687     4     3    11    11     0  1059   938  1058  1070
 4688     4     3    11    11     0   938  1058  1070  1069
 4689     4     3    11    11     0   938  1069  1070   949
 4690     4     3    11    11     0   938   937  1058  1069
 4691     4     3    11    11     0   938   937  1069   949
 4692     4     3    11    11     0   937  1069   949   948
 4693     4     3    11    11     0  1060   939  1059  1071
 4694     4     3    11    11     0   939  1059  1071  1070
 4695     4     3    11    11     0   939  1070  1071   950
 4696     4     3    11    11     0   939   938  1059  1070
 4697     4     3    11    11     0   939   938  1070   950
 4698     4     3    11    11     0   938  1070   950   949
 4699     4     3    11    11     0  1061   940  1060  1072
 4700     4     3    11    11     0   940  1060  1072  1071
 4701     4     3    11    11     0   940  1071  1072   951
 4702     4     3    11    11     0   940   939  1060  1071
 4703     4     3    11    11     0   940   939  1071   951
 4704     4     3    11    11     0   939  1071   951   950
 4741     4     3    11    11     0  1069   948  1068  1080
 4742     4     3    11    11     0   948  1068  1080  1079
 4743     4     3    11    11     0   948  1079  1080   959
 4744     4     3    11    11     0   948   947  1068  1079
 4745     4     3    11    11     0   948   947  1079   959
 4746     4     3    11    11     0   947  1079   959   958
 4747     4     3    11    11     0  1070   949  1069  1081
 4748     4     3    11    11     0   949  1069  1081  1080
 4749     4     3    11    11     0   949  1080  1081   960
 4750     4     3    11    11     0   949   948  1069  1080
 4751     4     3    11    11     0   949   948  1080   960
 4752     4     3    11    11     0   948  1080   960   959
 4753     4     3    11    11     0  1071   950  1070  1082
 4754     4     3    11    11     0   950  1070  1082  1081
 4755     4     3    11    11     0   950  1081  1082   961
 4756     4     3    11    11     0   950   949  1070  1081
 4757     4     3    11    11     0   950   949  1081   961
 4758     4     3    11    11     0   949  1081   961   960
 4759     4     3    11    11     0  1072   951  1071  1083
 4760     4     3    11    11     0   951  1071  1083  1082
 4761     4     3    11    11     0   951  1082  1083   962
 4762     4     3    11    11     0   951   950  1071  1082
 4763     4     3    11    11     0   951   950  1082   962
 4764     4     3    11    11     0   950  1082   962   961
 5221     4     3    11    11     0  1168  1047  1167  1179
 5222     4     3    11    11     0  1047  1167  1179  1178
 5223     4     3    11    11     0  1047  1178  1179  1058
 5224     4     3    11    11     0  1047  1046  1167  1178
 5225     4     3    11    11     0  1047  1046  1178  1058
 5226     4     3    11    11     0  1046  1178  1058  1057
 5227     4     3    11    11     0  1169  1048  1168  1180
 5228     4     3    11    11     0  1048  1168  1180  1179
 5229     4     3    11    11     0  1048  1179  1180  1059
 5230     4     3    11    11     0  1048  1047  1168  1179
 5231     4     3    11    11     0  1048  1047  1179  1059
 5232     4     3    11    11     0  1047  1179  1059  1058
 5233     4     3    11    11     0  1170  1049  1169  1181
 5234     4     3    11    11     0  1049  1169  1181  1180
 5235     4     3    11    11     0  1049  1180  1181  1060
 5236     4     3    11    11     0  1049  1048  1169  1180
 5237     4     3    11    11     0  1049  1048  1180  1060
 5238     4     3    11    11     0  1048  1180  1060  1059
 5281     4     3    11    11     0  1179  1058  1178  1190
 5282     4     3    11    11     0  1058  1178  1190  1189
 5283     4     3    11    11     0  1058  1189  1190  1069
 5284     4     3    11    11     0  1058  1057  1178  1189
 5285     4     3    11    11     0  1058  1057  1189  1069
 5286     4     3    11    11     0  1057  1189  1069  1068
 5287     4     3    11    11     0  1180  1059  1179  1191
 5288     4     3    11    11     0  1059  1179  1191  1190
 5289     4     3    11    11     0  1059  1190  1191  1070
 5290     4     3    11    11     0  1059  1058  1179  1190
 5291     4     3    11    11     0  1059  1058  1190  1070
 5292     4     3    11    11     0  1058  1190  1070  1069
 5293     4     3    11    11     0  1181  1060  1180  1192
 5294     4     3    11    11     0  1060  1180  1192  1191
 5295     4     3    11    11     0  1060  1191  1192  1071
 5296     4     3    11    11     0  1060  1059  1180  1191
 5297     4     3    11    11     0  1060  1059  1191  1071
 5298     4     3    11    11     0  1059  1191  1071  1070
 5299     4     3    11    11     0  1182  1061  1181  1193
 5300     4     3    11    11     0  1061  1181  1193  1192
 5301     4     3    11    11     0  1061  1192  1193  1072
 5302     4     3    11    11     0  1061  1060  1181  1192
 5303     4     3    11    11     0  1061  1060  1192  1072
 5304     4     3    11    11     0  1060  1192  1072  1071
 5341     4     3    11    11     0  1190  1069  1189  1201
 5342     4     3    11    11     0  1069  1189  1201  1200
 5343     4     3    11    11     0  1069  1200  1201  1080
 5344     4     3    11    11     0  1069  1068  1189  1200
 5345     4     3    11    11     0  1069  1068  1200  1080
 5346     4     3    11    11     0  1068  1200  1080  1079
 5347     4     3    11    11     0  1191  1070  1190  1202
 5348     4     3    11    11     0  1070  1190  1202  1201
 5349     4     3    11    11     0  1070  1201  1202  1081
 5350     4     3    11    11     0  1070  1069  1190  1201
 5351     4     3    11    11     0  1070  1069  1201  1081
 5352     4     3    11    11     0  1069  1201  1081  1080
 5353     4     3    11    11     0  1192  1071  1191  1203
 5354     4     3    11    11     0  1071  1191  1203  1202
 5355     4     3    11    11     0  1071  1202  1203  1082
 5356     4     3    11    11     0  1071  1070  1191  1202
 5357     4     3    11    11     0  1071  1070  1202  1082
 5358     4     3    11    11     0  1070  1202  1082  1081
 5359     4     3    11    11     0  1193  1072  1192  1204
 5360     4     3    11    11     0  1072  1192  1204  1203
 5361     4     3    11    11     0  1072  1203  1204  1083
 5362     4     3    11    11     0  1072  1071  1192  1203
 5363     4     3    11    11     0  1072  1071  1203  1083
 5364     4     3    11    11     0  1071  1203  1083  1082
 5821     4     3    11    11     0  1289  1168  1288  1300
 5822     4     3    11    11     0  1168  1288  1300  1299
 5823     4     3    11    11     0  1168  1299  1300  1179
 5824     4     3    11    11     0  1168  1167  1288  1299
 5825     4     3    11    11     0  1168  1167  1299  1179
 5826     4     3    11    11     0  1167  1299  1179  1178
 5827     4     3    11    11     0  1290  1169  1289  1301
 5828     4     3    11    11     0  1169  1289  1301  1300
 5829     4     3    11    11     0  1169  1300  1301  1180
 5830     4     3    11    11     0  1169  1168  1289  1300
 5831     4     3    11    11     0  1169  1168  1300  1180
 5832     4     3    11    11     0  1168  1300  1180  1179
 5833     4     3    11    11     0  1291  1170  1290  1302
 5834     4     3    11    11     0  1170  1290  1302  1301
 5835     4     3    11    11     0  1170  1301  1302  1181
 5836     4     3    11    11     0  1170  1169  1290  1301
 5837     4     3    11    11     0  1170  1169  1301  1181
 5838     4     3    11    11     0  1169  1301  1181  1180
 5881     4     3    11    11     0  1300  1179  1299  1311
 5882     4     3    11    11     0  1179  1299  1311  1310
 5883     4     3    11    11     0  1179  1310  1311  1190
 5884     4     3    11    11     0  1179  1178  1299  1310
 5885     4     3    11    11     0  1179  1178  1310  1190
 5886     4     3    11    11     0  1178  1310  1190  1189
 5887     4     3    11    11     0  1301  1180  1300  1312
 5888     4     3    11    11     0  1180  1300  1312  1311
 5889     4     3    11    11     0  1180  1311  1312  1191
 5890     4     3    11    11     0  1180  1179  1300  1311
 5891     4     3    11    11     0  1180  1179  1311  1191
 5892     4     3    11    11     0  1179  1311  1191  1190
 5893     4     3    11    11     0  1302  1181  1301  1313
 5894     4     3    11    11     0  1181  1301  1313  1312
 5895     4     3    11    11     0  1181  1312  1313  1192
 5896     4     3    11    11     0  1181  1180  1301  1312
 5897     4     3    11    11     0  1181  1180  1312  1192
 5898     4     3    11    11     0  1180  1312  1192  1191
 5899     4     3    11    11     0  1303  1182  1302  1314
 5900     4     3    11    11     0  1182  1302  1314  1313
 5901     4     3    11    11     0  1182  1313  1314  1193
 5902     4     3    11    11     0  1182  1181  1302  1313
 5903     4     3    11    11     0  1182  1181  1313  1193
 5904     4     3    11    11     0  1181  1313  1193  1192
 5941     4     3    11    11     0  1311  1190  1310  1322
 5942     4     3    11    11     0  1190  1310  1322  1321
 5943     4     3    11    11     0  1190  1321  1322  1201
 5944     4     3    11    11     0  1190  1189  1310  1321
 5945     4     3    11    11     0  1190  1189  1321  1201
 5946     4     3    11    11     0  1189  1321  1201  1200
 5947     4     3    11    11     0  1312  1191  1311  1323
 5948     4     3    11    11     0  1191  1311  1323  1322
 5949     4     3    11    11     0  1191  1322  1323  1202
 5950     4     3    11    11     0  1191  1190  1311  1322
 5951     4     3    11    11     0  1191  1190  1322  1202
 5952     4     3    11    11     0  1190  1322  1202  1201
 5953     4     3    11    11     0  1313  1192  1312  1324
 5954     4     3    11    11     0  1192  1312  1324  1323
 5955     4     3    11    11     0  1192  1323  1324  1203
 5956     4     3    11    11     0  1192  1191  1312  1323
 5957     4     3    11    11     0  1192  1191  1323  1203
 5958     4     3    11    11     0  1191  1323  1203  1202
 5959     4     3    11    11     0  1314  1193  1313  1325
 5960     4     3    11    11     0  1193  1313  1325  1324
 5961     4     3    11    11     0  1193  1324  1325  1204
 5962     4     3    11    11     0  1193  1192  1313  1324
 5963     4     3    11    11     0  1193  1192  1324  1204
 5964     4     3    11    11     0  1192  1324  1204  1203
$EndElements
