$MeshFormat
2.2 0 8
$EndMeshFormat
$Nodes
133
8 7.000000 0.000000 0.000000
9 8.000000 0.000000 0.000000
10 9.000000 0.000000 0.000000
11 10.000000 0.000000 0.000000
19 7.000000 1.000000 0.000000
20 8.000000 1.000000 0.000000
21 9.000000 1.000000 0.000000
22 10.000000 1.000000 0.000000
30 7.000000 2.000000 0.000000
31 8.000000 2.000000 0.000000
32 9.000000 2.000000 0.000000
33 10.000000 2.000000 0.000000
41 7.000000 3.000000 0.000000
42 8.000000 3.000000 0.000000
43 9.000000 3.000000 0.000000
44 10.000000 3.000000 0.000000
52 7.000000 4.000000 0.000000
53 8.000000 4.000000 0.000000
54 9.000000 4.000000 0.000000
55 10.000000 4.000000 0.000000
64 8.000000 5.000000 0.000000
65 9.000000 5.000000 0.000000
66 10.000000 5.000000 0.000000
129 7.000000 0.000000 1.000000
130 8.000000 0.000000 1.000000
131 9.000000 0.000000 1.000000
132 10.000000 0.000000 1.000000
140 7.000000 1.000000 1.000000
141 8.000000 1.000000 1.000000
142 9.000000 1.000000 1.000000
143 10.000000 1.000000 1.000000
151 7.000000 2.000000 1.000000
152 8.000000 2.000000 1.000000
153 9.000000 2.000000 1.000000
154 10.000000 2.000000 1.000000
162 7.000000 3.000000 1.000000
163 8.000000 3.000000 1.000000
164 9.000000 3.000000 1.000000
165 10.000000 3.000000 1.000000
173 7.000000 4.000000 1.000000
174 8.000000 4.000000 1.000000
175 9.000000 4.000000 1.000000
176 10.000000 4.000000 1.000000
185 8.000000 5.000000 1.000000
186 9.000000 5.000000 1.000000
187 10.000000 5.000000 1.000000
197 9.000000 6.000000 1.000000
198 10.000000 6.000000 1.000000
250 7.000000 0.000000 2.000000
251 8.000000 0.000000 2.000000
252 9.000000 0.000000 2.000000
253 10.000000 0.000000 2.000000
261 7.000000 1.000000 2.000000
262 8.000000 1.000000 2.000000
263 9.000000 1.000000 2.000000
264 10.000000 1.000000 2.000000
272 7.000000 2.000000 2.000000
273 8.000000 2.000000 2.000000
274 9.000000 2.000000 2.000000
275 10.000000 2.000000 2.000000
284 8.000000 3.000000 2.000000
285 9.000000 3.000000 2.000000
286 10.000000 3.000000 2.000000
295 8.000000 4.000000 2.000000
296 9.000000 4.000000 2.000000
297 10.000000 4.000000 2.000000
306 8.000000 5.000000 2.000000
307 9.000000 5.000000 2.000000
308 10.000000 5.000000 2.000000
318 9.000000 6.000000 2.000000
319 10.000000 6.000000 2.000000
371 7.000000 0.000000 3.000000
372 8.000000 0.000000 3.000000
373 9.000000 0.000000 3.000000
374 10.000000 0.000000 3.000000
382 7.000000 1.000000 3.000000
383 8.000000 1.000000 3.000000
384 9.000000 1.000000 3.000000
385 10.000000 1.000000 3.000000
393 7.000000 2.000000 3.000000
394 8.000000 2.000000 3.000000
395 9.000000 2.000000 3.000000
396 10.000000 2.000000 3.000000
405 8.000000 3.000000 3.000000
406 9.000000 3.000000 3.000000
407 10.000000 3.000000 3.000000
416 8.000000 4.000000 3.000000
417 9.000000 4.000000 3.000000
418 10.000000 4.000000 3.000000
427 8.000000 5.000000 3.000000
428 9.000000 5.000000 3.000000
429 10.000000 5.000000 3.000000
492 7.000000 0.000000 4.000000
493 8.000000 0.000000 4.000000
494 9.000000 0.000000 4.000000
495 10.000000 0.000000 4.000000
503 7.000000 1.000000 4.000000
504 8.000000 1.000000 4.000000
505 9.000000 1.000000 4.000000
506 10.000000 1.000000 4.000000
514 7.000000 2.000000 4.000000
515 8.000000 2.000000 4.000000
516 9.000000 2.000000 4.000000
517 10.000000 2.000000 4.000000
526 8.000000 3.000000 4.000000
527 9.000000 3.000000 4.000000
528 10.000000 3.000000 4.000000
537 8.000000 4.000000 4.000000
538 9.000000 4.000000 4.000000
539 10.000000 4.000000 4.000000
549 9.000000 5.000000 4.000000
550 10.000000 5.000000 4.000000
613 7.000000 0.000000 5.000000
614 8.000000 0.000000 5.000000
615 9.000000 0.000000 5.000000
616 10.000000 0.000000 5.000000
624 7.000000 1.000000 5.000000
625 8.000000 1.000000 5.000000
626 9.000000 1.000000 5.000000
627 10.000000 1.000000 5.000000
636 8.000000 2.000000 5.000000
637 9.000000 2.000000 5.000000
638 10.000000 2.000000 5.000000
648 9.000000 3.000000 5.000000
649 10.000000 3.000000 5.000000
659 9.000000 4.000000 5.000000
660 10.000000 4.000000 5.000000
736 9.000000 0.000000 6.000000
737 10.000000 0.000000 6.000000
747 9.000000 1.000000 6.000000
748 10.000000 1.000000 6.000000
758 9.000000 2.000000 6.000000
759 10.000000 2.000000 6.000000
$EndNodes
$Elements
348
   43     4     3     6     6     0   130     9   129   141
   44     4     3     6     6     0     9   129   141   140
   45     4     3     6     6     0     9   140   141    20
   46     4     3     6     6     0     9     8   129   140
   47     4     3     6     6     0     9     8   140    20
   48     4     3     6     6     0     8   140    20    19
   49     4     3     6     6     0   131    10   130   142
   50     4     3     6     6     0    10   130   142   141
   51     4     3     6     6     0    10   141   142    21
   52     4     3     6     6     0    10     9   130   141
   53     4     3     6     6     0    10     9   141    21
   54     4     3     6     6     0     9   141    21    20
   55     4     3     6     6     0   132    11   131   143
   56     4     3     6     6     0    11   131   143   142
   57     4     3     6     6     0    11   142   143    22
   58     4     3     6     6     0    11    10   131   142
   59     4     3     6     6     0    11    10   142    22
   60     4     3     6     6     0    10   142    22    21
  103     4     3     6     6     0   141    20   140   152
  104     4     3     6     6     0    20   140   152   151
  105     4     3     6     6     0    20   151   152    31
  106     4     3     6     6     0    20    19   140   151
  107     4     3     6     6     0    20    19   151    31
  108     4     3     6     6     0    19   151    31    30
  109     4     3     6     6     0   142    21   141   153
  110     4     3     6     6     0    21   141   153   152
  111     4     3     6     6     0    21   152   153    32
  112     4     3     6     6     0    21    20   141   152
  113     4     3     6     6     0    21    20   152    32
  114     4     3     6     6     0    20   152    32    31
  115     4     3     6     6     0   143    22   142   154
  116     4     3     6     6     0    22   142   154   153
  117     4     3     6     6     0    22   153   154    33
  118     4     3     6     6     0    22    21   142   153
  119     4     3     6     6     0    22    21   153    33
  120     4     3     6     6     0    21   153    33    32
  163     4     3     6     6     0   152    31   151   163
  164     4     3     6     6     0    31   151   163   162
  165     4     3     6     6     0    31   162   163    42
  166     4     3     6     6     0    31    30   151   162
  167     4     3     6     6     0    31    30   162    42
  168     4     3     6     6     0    30   162    42    41
  169     4     3     6     6     0   153    32   152   164
  170     4     3     6     6     0    32   152   164   163
  171     4     3     6     6     0    32   163   164    43
  172     4     3     6     6     0    32    31   152   163
  173     4     3     6     6     0    32    31   163    43
  174     4     3     6     6     0    31   163    43    42
  175     4     3     6     6     0   154    33   153   165
  176     4     3     6     6     0    33   153   165   164
  177     4     3     6     6     0    33   164   165    44
  178     4     3     6     6     0    33    32   153   164
  179     4     3     6     6     0    33    32   164    44
  180     4     3     6     6     0    32   164    44    43
  223     4     3     6     6     0   163    42   162   174
  224     4     3     6     6     0    42   162   174   173
  225     4     3     6     6     0    42   173   174    53
  226     4     3     6     6     0    42    41   162   173
  227     4     3     6     6     0    42    41   173    53
  228     4     3     6     6     0    41   173    53    52
  229     4     3     6     6     0   164    43   163   175
  230     4     3     6     6     0    43   163   175   174
  231     4     3     6     6     0    43   174   175    54
  232     4     3     6     6     0    43    42   163   174
  233     4     3     6     6     0    43    42   174    54
  234     4     3     6     6     0    42   174    54    53
  235     4     3     6     6     0   165    44   164   176
  236     4     3     6     6     0    44   164   176   175
  237     4     3     6     6     0    44   175   176    55
  238     4     3     6     6     0    44    43   164   175
  239     4     3     6     6     0    44    43   175    55
  240     4     3     6     6     0    43   175    55    54
  289     4     3     6     6     0   175    54   174   186
  290     4     3     6     6     0    54   174   186   185
  291     4     3     6     6     0    54   185   186    65
  292     4     3     6     6     0    54    53   174   185
  293     4     3     6     6     0    54    53   185    65
  294     4     3     6     6     0    53   185    65    64
  295     4     3     6     6     0   176    55   175   187
  296     4     3     6     6     0    55   175   187   186
  297     4     3     6     6     0    55   186   187    66
  298     4     3     6     6     0    55    54   175   186
  299     4     3     6     6     0    55    54   186    66
  300     4     3     6     6     0    54   186    66    65
  643     4     3     6     6     0   251   130   250   262
  644     4     3     6     6     0   130   250   262   261
  645     4     3     6     6     0   130   261   262   141
  646     4     3     6     6     0   130   129   250   261
  647     4     3     6     6     0   130   129   261   141
  648     4     3     6     6     0   129   261   141   140
  649     4     3     6     6     0   252   131   251   263
  650     4     3     6     6     0   131   251   263   262
  651     4     3     6     6     0   131   262   263   142
  652     4     3     6     6     0   131   130   251   262
  653     4     3     6     6     0   131   130   262   142
  654     4     3     6     6     0   130   262   142   141
  655     4     3     6     6     0   253   132   252   264
  656     4     3     6     6     0   132   252   264   263
  657     4     3     6     6     0   132   263   264   143
  658     4     3     6     6     0   132   131   252   263
  659     4     3     6     6     0   132   131   263   143
  660     4     3     6     6     0   131   263   143   142
  703     4     3     6     6     0   262   141   261   273
  704     4     3     6     6     0   141   261   273   272
  705     4     3     6     6     0   141   272   273   152
  706     4     3     6     6     0   141   140   261   272
  707     4     3     6     6     0   141   140   272   152
  708     4     3     6     6     0   140   272   152   151
  709     4     3     6     6     0   263   142   262   274
  710     4     3     6     6     0   142   262   274   273
  711     4     3     6     6     0   142   273   274   153
  712     4     3     6     6     0   142   141   262   273
  713     4     3     6     6     0   142   141   273   153
  714     4     3     6     6     0   141   273   153   152
  715     4     3     6     6     0   264   143   263   275
  716     4     3     6     6     0   143   263   275   274
  717     4     3     6     6     0   143   274   275   154
  718     4     3     6     6     0   143   142   263   274
  719     4     3     6     6     0   143   142   274   154
  720     4     3     6     6     0   142   274   154   153
  769     4     3     6     6     0   274   153   273   285
  770     4     3     6     6     0   153   273   285   284
  771     4     3     6     6     0   153   284   285   164
  772     4     3     6     6     0   153   152   273   284
  773     4     3     6     6     0   153   152   284   164
  774     4     3     6     6     0   152   284   164   163
  775     4     3     6     6     0   275   154   274   286
  776     4     3     6     6     0   154   274   286   285
  777     4     3     6     6     0   154   285   286   165
  778     4     3     6     6     0   154   153   274   285
  779     4     3     6     6     0   154   153   285   165
  780     4     3     6     6     0   153   285   165   164
  829     4     3     6     6     0   285   164   284   296
  830     4     3     6     6     0   164   284   296   295
  831     4     3     6     6     0   164   295   296   175
  832     4     3     6     6     0   164   163   284   295
  833     4     3     6     6     0   164   163   295   175
  834     4     3     6     6     0   163   295   175   174
  835     4     3     6     6     0   286   165   285   297
  836     4     3     6     6     0   165   285   297   296
  837     4     3     6     6     0   165   296   297   176
  838     4     3     6     6     0   165   164   285   296
  839     4     3     6     6     0   165   164   296   176
  840     4     3     6     6     0   164   296   176   175
  889     4     3     6     6     0   296   175   295   307
  890     4     3     6     6     0   175   295   307   306
  891     4     3     6     6     0   175   306   307   186
  892     4     3     6     6     0   175   174   295   306
  893     4     3     6     6     0   175   174   306   186
  894     4     3     6     6     0   174   306   186   185
  895     4     3     6     6     0   297   176   296   308
  896     4     3     6     6     0   176   296   308   307
  897     4     3     6     6     0   176   307   308   187
  898     4     3     6     6     0   176   175   296   307
  899     4     3     6     6     0   176   175   307   187
  900     4     3     6     6     0   175   307   187   186
  955     4     3     6     6     0   308   187   307   319
  956     4     3     6     6     0   187   307   319   318
  957     4     3     6     6     0   187   318   319   198
  958     4     3     6     6     0   187   186   307   318
  959     4     3     6     6     0   187   186   318   198
  960     4     3     6     6     0   186   318   198   197
 1243     4     3     6     6     0   372   251   371   383
 1244     4     3     6     6     0   251   371   383   382
 1245     4     3     6     6     0   251   382   383   262
 1246     4     3     6     6     0   251   250   371   382
 1247     4     3     6     6     0   251   250   382   262
 1248     4     3     6     6     0   250   382   262   261
 1249     4     3     6     6     0   373   252   372   384
 1250     4     3     6     6     0   252   372   384   383
 1251     4     3     6     6     0   252   383   384   263
 1252     4     3     6     6     0   252   251   372   383
 1253     4     3     6     6     0   252   251   383   263
 1254     4     3     6     6     0   251   383   263   262
 1255     4     3     6     6     0   374   253   373   385
 1256     4     3     6     6     0   253   373   385   384
 1257     4     3     6     6     0   253   384   385   264
 1258     4     3     6     6     0   253   252   373   384
 1259     4     3     6     6     0   253   252   384   264
 1260     4     3     6     6     0   252   384   264   263
 1309     4     3     6     6     0   384   263   383   395
 1310     4     3     6     6     0   263   383   395   394
 1311     4     3     6     6     0   263   394   395   274
 1312     4     3     6     6     0   263   262   383   394
 1313     4     3     6     6     0   263   262   394   274
 1314     4     3     6     6     0   262   394   274   273
 1315     4     3     6     6     0   385   264   384   396
 1316     4     3     6     6     0   264   384   396   395
 1317     4     3     6     6     0   264   395   396   275
 1318     4     3     6     6     0   264   263   384   395
 1319     4     3     6     6     0   264   263   395   275
 1320     4     3     6     6     0   263   395   275   274
 1369     4     3     6     6     0   395   274   394   406
 1370     4     3     6     6     0   274   394   406   405
 1371     4     3     6     6     0   274   405   406   285
 1372     4     3     6     6     0   274   273   394   405
 1373     4     3     6     6     0   274   273   405   285
 1374     4     3     6     6     0   273   405   285   284
 1375     4     3     6     6     0   396   275   395   407
 1376     4     3     6     6     0   275   395   407   406
 1377     4     3     6     6     0   275   406   407   286
 1378     4     3     6     6     0   275   274   395   406
 1379     4     3     6     6     0   275   274   406   286
 1380     4     3     6     6     0   274   406   286   285
 1429     4     3     6     6     0   406   285   405   417
 1430     4     3     6     6     0   285   405   417   416
 1431     4     3     6     6     0   285   416   417   296
 1432     4     3     6     6     0   285   284   405   416
 1433     4     3     6     6     0   285   284   416   296
 1434     4     3     6     6     0   284   416   296   295
 1435     4     3     6     6     0   407   286   406   418
 1436     4     3     6     6     0   286   406   418   417
 1437     4     3     6     6     0   286   417   418   297
 1438     4     3     6     6     0   286   285   406   417
 1439     4     3     6     6     0   286   285   417   297
 1440     4     3     6     6     0   285   417   297   296
 1489     4     3     6     6     0   417   296   416   428
 1490     4     3     6     6     0   296   416   428   427
 1491     4     3     6     6     0   296   427   428   307
 1492     4     3     6     6     0   296   295   416   427
 1493     4     3     6     6     0   296   295   427   307
 1494     4     3     6     6     0   295   427   307   306
 1495     4     3     6     6     0   418   297   417   429
 1496     4     3     6     6     0   297   417   429   428
 1497     4     3     6     6     0   297   428   429   308
 1498     4     3     6     6     0   297   296   417   428
 1499     4     3     6     6     0   297   296   428   308
 1500     4     3     6     6     0   296   428   308   307
 1843     4     3     6     6     0   493   372   492   504
 1844     4     3     6     6     0   372   492   504   503
 1845     4     3     6     6     0   372   503   504   383
 1846     4     3     6     6     0   372   371   492   503
 1847     4     3     6     6     0   372   371   503   383
 1848     4     3     6     6     0   371   503   383   382
 1849     4     3     6     6     0   494   373   493   505
 1850     4     3     6     6     0   373   493   505   504
 1851     4     3     6     6     0   373   504   505   384
 1852     4     3     6     6     0   373   372   493   504
 1853     4     3     6     6     0   373   372   504   384
 1854     4     3     6     6     0   372   504   384   383
 1855     4     3     6     6     0   495   374   494   506
 1856     4     3     6     6     0   374   494   506   505
 1857     4     3     6     6     0   374   505   506   385
 1858     4     3     6     6     0   374   373   494   505
 1859     4     3     6     6     0   374   373   505   385
 1860     4     3     6     6     0   373   505   385   384
 1903     4     3     6     6     0   504   383   503   515
 1904     4     3     6     6     0   383   503   515   514
 1905     4     3     6     6     0   383   514   515   394
 1906     4     3     6     6     0   383   382   503   514
 1907     4     3     6     6     0   383   382   514   394
 1908     4     3     6     6     0   382   514   394   393
 1909     4     3     6     6     0   505   384   504   516
 1910     4     3     6     6     0   384   504   516   515
 1911     4     3     6     6     0   384   515   516   395
 1912     4     3     6     6     0   384   383   504   515
 1913     4     3     6     6     0   384   383   515   395
 1914     4     3     6     6     0   383   515   395   394
 1915     4     3     6     6     0   506   385   505   517
 1916     4     3     6     6     0   385   505   517   516
 1917     4     3     6     6     0   385   516   517   396
 1918     4     3     6     6     0   385   384   505   516
 1919     4     3     6     6     0   385   384   516   396
 1920     4     3     6     6     0   384   516   396   395
 1969     4     3     6     6     0   516   395   515   527
 1970     4     3     6     6     0   395   515   527   526
 1971     4     3     6     6     0   395   526   527   406
 1972     4     3     6     6     0   395   394   515   526
 1973     4     3     6     6     0   395   394   526   406
 1974     4     3     6     6     0   394   526   406   405
 1975     4     3     6     6     0   517   396   516   528
 1976     4     3     6     6     0   396   516   528   527
 1977     4     3     6     6     0   396   527   528   407
 1978     4     3     6     6     0   396   395   516   527
 1979     4     3     6     6     0   396   395   527   407
 1980     4     3     6     6     0   395   527   407   406
 2029     4     3     6     6     0   527   406   526   538
 2030     4     3     6     6     0   406   526   538   537
 2031     4     3     6     6     0   406   537   538   417
 2032     4     3     6     6     0   406   405   526   537
 2033     4     3     6     6     0   406   405   537   417
 2034     4     3     6     6     0   405   537   417   416
 2035     4     3     6     6     0   528   407   527   539
 2036     4     3     6     6     0   407   527   539   538
 2037     4     3     6     6     0   407   538   539   418
 2038     4     3     6     6     0   407   406   527   538
 2039     4     3     6     6     0   407   406   538   418
 2040     4     3     6     6     0   406   538   418   417
 2095     4     3     6     6     0   539   418   538   550
 2096     4     3     6     6     0   418   538   550   549
 2097     4     3     6     6     0   418   549   550   429
 2098     4     3     6     6     0   418   417   538   549
 2099     4     3     6     6     0   418   417   549   429
 2100     4     3     6     6     0   417   549   429   428
 2443     4     3     6     6     0   614   493   613   625
 2444     4     3     6     6     0   493   613   625   624
 2445     4     3     6     6     0   493   624   625   504
 2446     4     3     6     6     0   493   492   613   624
 2447     4     3     6     6     0   493   492   624   504
 2448     4     3     6     6     0   492   624   504   503
 2449     4     3     6     6     0   615   494   614   626
 2450     4     3     6     6     0   494   614   626   625
 2451     4     3     6     6     0   494   625   626   505
 2452     4     3     6     6     0   494   493   614   625
 2453     4     3     6     6     0   494   493   625   505
 2454     4     3     6     6     0   493   625   505   504
 2455     4     3     6     6     0   616   495   615   627
 2456     4     3     6     6     0   495   615   627   626
 2457     4     3     6     6     0   495   626   627   506
 2458     4     3     6     6     0   495   494   615   626
 2459     4     3     6     6     0   495   494   626   506
 2460     4     3     6     6     0   494   626   506   505
 2509     4     3     6     6     0   626   505   625   637
 2510     4     3     6     6     0   505   625   637   636
 2511     4     3     6     6     0   505   636   637   516
 2512     4     3     6     6     0   505   504   625   636
 2513     4     3     6     6     0   505   504   636   516
 2514     4     3     6     6     0   504   636   516   515
 2515     4     3     6     6     0   627   506   626   638
 2516     4     3     6     6     0   506   626   638   637
 2517     4     3     6     6     0   506   637   638   517
 2518     4     3     6     6     0   506   505   626   637
 2519     4     3     6     6     0   506   505   637   517
 2520     4     3     6     6     0   505   637   517   516
 2575     4     3     6     6     0   638   517   637   649
 2576     4     3     6     6     0   517   637   649   648
 2577     4     3     6     6     0   517   648   649   528
 2578     4     3     6     6     0   517   516   637   648
 2579     4     3     6     6     0   517   516   648   528
 2580     4     3     6     6     0   516   648   528   527
 2635     4     3     6     6     0   649   528   648   660
 2636     4     3     6     6     0   528   648   660   659
 2637     4     3     6     6     0   528   659   660   539
 2638     4     3     6     6     0   528   527   648   659
 2639     4     3     6     6     0   528   527   659   539
 2640     4     3     6     6     0   527   659   539   538
 3055     4     3     6     6     0   737   616   736   748
 3056     4     3     6     6     0   616   736   748   747
 3057     4     3     6     6     0   616   747   748   627
 3058     4     3     6     6     0   616   615   736   747
 3059     4     3     6     6     0   616   615   747   627
 3060     4     3     6     6     0   615   747   627   626
 3115     4     3     6     6     0   748   627   747   759
 3116     4     3     6     6     0   627   747   759   758
 3117     4     3     6     6     0   627   758   759   638
 3118     4     3     6     6     0   627   626   747   758
 3119     4     3     6     6     0   627   626   758   638
 3120     4     3     6     6     0   626   758   638   637
$EndElements
