$MeshFormat
2.2 0 8
$EndMeshFormat
$Nodes
97
95 6.000000 8.000000 0.000000
96 7.000000 8.000000 0.000000
97 8.000000 8.000000 0.000000
98 9.000000 8.000000 0.000000
99 10.000000 8.000000 0.000000
104 4.000000 9.000000 0.000000
105 5.000000 9.000000 0.000000
106 6.000000 9.000000 0.000000
107 7.000000 9.000000 0.000000
108 8.000000 9.000000 0.000000
109 9.000000 9.000000 0.000000
110 10.000000 9.000000 0.000000
115 4.000000 10.000000 0.000000
116 5.000000 10.000000 0.000000
117 6.000000 10.000000 0.000000
118 7.000000 10.000000 0.000000
119 8.000000 10.000000 0.000000
120 9.000000 10.000000 0.000000
121 10.000000 10.000000 0.000000
216 6.000000 8.000000 1.000000
217 7.000000 8.000000 1.000000
218 8.000000 8.000000 1.000000
219 9.000000 8.000000 1.000000
220 10.000000 8.000000 1.000000
225 4.000000 9.000000 1.000000
226 5.000000 9.000000 1.000000
227 6.000000 9.000000 1.000000
228 7.000000 9.000000 1.000000
229 8.000000 9.000000 1.000000
230 9.000000 9.000000 1.000000
231 10.000000 9.000000 1.000000
236 4.000000 10.000000 1.000000
237 5.000000 10.000000 1.000000
238 6.000000 10.000000 1.000000
239 7.000000 10.000000 1.000000
240 8.000000 10.000000 1.000000
241 9.000000 10.000000 1.000000
242 10.000000 10.000000 1.000000
336 5.000000 8.000000 2.000000
337 6.000000 8.000000 2.000000
338 7.000000 8.000000 2.000000
339 8.000000 8.000000 2.000000
340 9.000000 8.000000 2.000000
341 10.000000 8.000000 2.000000
346 4.000000 9.000000 2.000000
347 5.000000 9.000000 2.000000
348 6.000000 9.000000 2.000000
349 7.000000 9.000000 2.000000
350 8.000000 9.000000 2.000000
351 9.000000 9.000000 2.000000
352 10.000000 9.000000 2.000000
357 4.000000 10.000000 2.000000
358 5.000000 10.000000 2.000000
359 6.000000 10.000000 2.000000
360 7.000000 10.000000 2.000000
361 8.000000 10.000000 2.000000
362 9.000000 10.000000 2.000000
363 10.000000 10.000000 2.000000
457 5.000000 8.000000 3.000000
458 6.000000 8.000000 3.000000
459 7.000000 8.000000 3.000000
460 8.000000 8.000000 3.000000
467 4.000000 9.000000 3.000000
468 5.000000 9.000000 3.000000
469 6.000000 9.000000 3.000000
470 7.000000 9.000000 3.000000
471 8.000000 9.000000 3.000000
472 9.000000 9.000000 3.000000
478 4.000000 10.000000 3.000000
479 5.000000 10.000000 3.000000
480 6.000000 10.000000 3.000000
481 7.000000 10.000000 3.000000
482 8.000000 10.000000 3.000000
483 9.000000 10.000000 3.000000
578 5.000000 8.000000 4.000000
579 6.000000 8.000000 4.000000
580 7.000000 8.000000 4.000000
588 4.000000 9.000000 4.000000
589 5.000000 9.000000 4.000000
590 6.000000 9.000000 4.000000
591 7.000000 9.000000 4.000000
592 8.000000 9.000000 4.000000
599 4.000000 10.000000 4.000000
600 5.000000 10.000000 4.000000
601 6.000000 10.000000 4.000000
602 7.000000 10.000000 4.000000
603 8.000000 10.000000 4.000000
699 5.000000 8.000000 5.000000
700 6.000000 8.000000 5.000000
709 4.000000 9.000000 5.000000
710 5.000000 9.000000 5.000000
711 6.000000 9.000000 5.000000
712 7.000000 9.000000 5.000000
720 4.000000 10.000000 5.000000
721 5.000000 10.000000 5.000000
722 6.000000 10.000000 5.000000
723 7.000000 10.000000 5.000000
$EndNodes
$Elements
228
  517     4     3     4     4     0   217    96   216   228
  518     4     3     4     4     0    96   216   228   227
  519     4     3     4     4     0    96   227   228   107
  520     4     3     4     4     0    96    95   216   227
  521     4     3     4     4     0    96    95   227   107
  522     4     3     4     4     0    95   227   107   106
  523     4     3     4     4     0   218    97   217   229
  524     4     3     4     4     0    97   217   229   228
  525     4     3     4     4     0    97   228   229   108
  526     4     3     4     4     0    97    96   217   228
  527     4     3     4     4     0    97    96   228   108
  528     4     3     4     4     0    96   228   108   107
  529     4     3     4     4     0   219    98   218   230
  530     4     3     4     4     0    98   218   230   229
  531     4     3     4     4     0    98   229   230   109
  532     4     3     4     4     0    98    97   218   229
  533     4     3     4     4     0    98    97   229   109
  534     4     3     4     4     0    97   229   109   108
  535     4     3     4     4     0   220    99   219   231
  536     4     3     4     4     0    99   219   231   230
  537     4     3     4     4     0    99   230   231   110
  538     4     3     4     4     0    99    98   219   230
  539     4     3     4     4     0    99    98   230   110
  540     4     3     4     4     0    98   230   110   109
  565     4     3     4     4     0   226   105   225   237
  566     4     3     4     4     0   105   225   237   236
  567     4     3     4     4     0   105   236   237   116
  568     4     3     4     4     0   105   104   225   236
  569     4     3     4     4     0   105   104   236   116
  570     4     3     4     4     0   104   236   116   115
  571     4     3     4     4     0   227   106   226   238
  572     4     3     4     4     0   106   226   238   237
  573     4     3     4     4     0   106   237   238   117
  574     4     3     4     4     0   106   105   226   237
  575     4     3     4     4     0   106   105   237   117
  576     4     3     4     4     0   105   237   117   116
  577     4     3     4     4     0   228   107   227   239
  578     4     3     4     4     0   107   227   239   238
  579     4     3     4     4     0   107   238   239   118
  580     4     3     4     4     0   107   106   227   238
  581     4     3     4     4     0   107   106   238   118
  582     4     3     4     4     0   106   238   118   117
  583     4     3     4     4     0   229   108   228   240
  584     4     3     4     4     0   108   228   240   239
  585     4     3     4     4     0   108   239   240   119
  586     4     3     4     4     0   108   107   228   239
  587     4     3     4     4     0   108   107   239   119
  588     4     3     4     4     0   107   239   119   118
  589     4     3     4     4     0   230   109   229   241
  590     4     3     4     4     0   109   229   241   240
  591     4     3     4     4     0   109   240   241   120
  592     4     3     4     4     0   109   108   229   240
  593     4     3     4     4     0   109   108   240   120
  594     4     3     4     4     0   108   240   120   119
  595     4     3     4     4     0   231   110   230   242
  596     4     3     4     4     0   110   230   242   241
  597     4     3     4     4     0   110   241   242   121
  598     4     3     4     4     0   110   109   230   241
  599     4     3     4     4     0   110   109   241   121
  600     4     3     4     4     0   109   241   121   120
 1117     4     3     4     4     0   338   217   337   349
 1118     4     3     4     4     0   217   337   349   348
 1119     4     3     4     4     0   217   348   349   228
 1120     4     3     4     4     0   217   216   337   348
 1121     4     3     4     4     0   217   216   348   228
 1122     4     3     4     4     0   216   348   228   227
 1123     4     3     4     4     0   339   218   338   350
 1124     4     3     4     4     0   218   338   350   349
 1125     4     3     4     4     0   218   349   350   229
 1126     4     3     4     4     0   218   217   338   349
 1127     4     3     4     4     0   218   217   349   229
 1128     4     3     4     4     0   217   349   229   228
 1129     4     3     4     4     0   340   219   339   351
 1130     4     3     4     4     0   219   339   351   350
 1131     4     3     4     4     0   219   350   351   230
 1132     4     3     4     4     0   219   218   339   350
 1133     4     3     4     4     0   219   218   350   230
 1134     4     3     4     4     0   218   350   230   229
 1135     4     3     4     4     0   341   220   340   352
 1136     4     3     4     4     0   220   340   352   351
 1137     4     3     4     4     0   220   351   352   231
 1138     4     3     4     4     0   220   219   340   351
 1139     4     3     4     4     0   220   219   351   231
 1140     4     3     4     4     0   219   351   231   230
 1165     4     3     4     4     0   347   226   346   358
 1166     4     3     4     4     0   226   346   358   357
 1167     4     3     4     4     0   226   357   358   237
 1168     4     3     4     4     0   226   225   346   357
 1169     4     3     4     4     0   226   225   357   237
 1170     4     3     4     4     0   225   357   237   236
 1171     4     3     4     4     0   348   227   347   359
 1172     4     3     4     4     0   227   347   359   358
 1173     4     3     4     4     0   227   358   359   238
 1174     4     3     4     4     0   227   226   347   358
 1175     4     3     4     4     0   227   226   358   238
 1176     4     3     4     4     0   226   358   238   237
 1177     4     3     4     4     0   349   228   348   360
 1178     4     3     4     4     0   228   348   360   359
 1179     4     3     4     4     0   228   359   360   239
 1180     4     3     4     4     0   228   227   348   359
 1181     4     3     4     4     0   228   227   359   239
 1182     4     3     4     4     0   227   359   239   238
 1183     4     3     4     4     0   350   229   349   361
 1184     4     3     4     4     0   229   349   361   360
 1185     4     3     4     4     0   229   360   361   240
 1186     4     3     4     4     0   229   228   349   360
 1187     4     3     4     4     0   229   228   360   240
 1188     4     3     4     4     0   228   360   240   239
 1189     4     3     4     4     0   351   230   350   362
 1190     4     3     4     4     0   230   350   362   361
 1191     4     3     4     4     0   230   361   362   241
 1192     4     3     4     4     0   230   229   350   361
 1193     4     3     4     4     0   230   229   361   241
 1194     4     3     4     4     0   229   361   241   240
 1195     4     3     4     4     0   352   231   351   363
 1196     4     3     4     4     0   231   351   363   362
 1197     4     3     4     4     0   231   362   363   242
 1198     4     3     4     4     0   231   230   351   362
 1199     4     3     4     4     0   231   230   362   242
 1200     4     3     4     4     0   230   362   242   241
 1711     4     3     4     4     0   458   337   457   469
 1712     4     3     4     4     0   337   457   469   468
 1713     4     3     4     4     0   337   468   469   348
 1714     4     3     4     4     0   337   336   457   468
 1715     4     3     4     4     0   337   336   468   348
 1716     4     3     4     4     0   336   468   348   347
 1717     4     3     4     4     0   459   338   458   470
 1718     4     3     4     4     0   338   458   470   469
 1719     4     3     4     4     0   338   469   470   349
 1720     4     3     4     4     0   338   337   458   469
 1721     4     3     4     4     0   338   337   469   349
 1722     4     3     4     4     0   337   469   349   348
 1723     4     3     4     4     0   460   339   459   471
 1724     4     3     4     4     0   339   459   471   470
 1725     4     3     4     4     0   339   470   471   350
 1726     4     3     4     4     0   339   338   459   470
 1727     4     3     4     4     0   339   338   470   350
 1728     4     3     4     4     0   338   470   350   349
 1765     4     3     4     4     0   468   347   467   479
 1766     4     3     4     4     0   347   467   479   478
 1767     4     3     4     4     0   347   478   479   358
 1768     4     3     4     4     0   347   346   467   478
 1769     4     3     4     4     0   347   346   478   358
 1770     4     3     4     4     0   346   478   358   357
 1771     4     3     4     4     0   469   348   468   480
 1772     4     3     4     4     0   348   468   480   479
 1773     4     3     4     4     0   348   479   480   359
 1774     4     3     4     4     0   348   347   468   479
 1775     4     3     4     4     0   348   347   479   359
 1776     4     3     4     4     0   347   479   359   358
 1777     4     3     4     4     0   470   349   469   481
 1778     4     3     4     4     0   349   469   481   480
 1779     4     3     4     4     0   349   480   481   360
 1780     4     3     4     4     0   349   348   469   480
 1781     4     3     4     4     0   349   348   480   360
 1782     4     3     4     4     0   348   480   360   359
 1783     4     3     4     4     0   471   350   470   482
 1784     4     3     4     4     0   350   470   482   481
 1785     4     3     4     4     0   350   481   482   361
 1786     4     3     4     4     0   350   349   470   481
 1787     4     3     4     4     0   350   349   481   361
 1788     4     3     4     4     0   349   481   361   360
 1789     4     3     4     4     0   472   351   471   483
 1790     4     3     4     4     0   351   471   483   482
 1791     4     3     4     4     0   351   482   483   362
 1792     4     3     4     4     0   351   350   471   482
 1793     4     3     4     4     0   351   350   482   362
 1794     4     3     4     4     0   350   482   362   361
 2311     4     3     4     4     0   579   458   578   590
 2312     4     3     4     4     0   458   578   590   589
 2313     4     3     4     4     0   458   589   590   469
 2314     4     3     4     4     0   458   457   578   589
 2315     4     3     4     4     0   458   457   589   469
 2316     4     3     4     4     0   457   589   469   468
 2317     4     3     4     4     0   580   459   579   591
 2318     4     3     4     4     0   459   579   591   590
 2319     4     3     4     4     0   459   590   591   470
 2320     4     3     4     4     0   459   458   579   590
 2321     4     3     4     4     0   459   458   590   470
 2322     4     3     4     4     0   458   590   470   469
 2365     4     3     4     4     0   589   468   588   600
 2366     4     3     4     4     0   468   588   600   599
 2367     4     3     4     4     0   468   599   600   479
 2368     4     3     4     4     0   468   467   588   599
 2369     4     3     4     4     0   468   467   599   479
 2370     4     3     4     4     0   467   599   479   478
 2371     4     3     4     4     0   590   469   589   601
 2372     4     3     4     4     0   469   589   601   600
 2373     4     3     4     4     0   469   600   601   480
 2374     4     3     4     4     0   469   468   589   600
 2375     4     3     4     4     0   469   468   600   480
 2376     4     3     4     4     0   468   600   480   479
 2377     4     3     4     4     0   591   470   590   602
 2378     4     3     4     4     0   470   590   602   601
 2379     4     3     4     4     0   470   601   602   481
 2380     4     3     4     4     0   470   469   590   601
 2381     4     3     4     4     0   470   469   601   481
 2382     4     3     4     4     0   469   601   481   480
 2383     4     3     4     4     0   592   471   591   603
 2384     4     3     4     4     0   471   591   603   602
 2385     4     3     4     4     0   471   602   603   482
 2386     4     3     4     4     0   471   470   591   602
 2387     4     3     4     4     0   471   470   602   482
 2388     4     3     4     4     0   470   602   482   481
 2911     4     3     4     4     0   700   579   699   711
 2912     4     3     4     4     0   579   699   711   710
 2913     4     3     4     4     0   579   710   711   590
 2914     4     3     4     4     0   579   578   699   710
 2915     4     3     4     4     0   579   578   710   590
 2916     4     3     4     4     0   578   710   590   589
 2965     4     3     4     4     0   710   589   709   721
 2966     4     3     4     4     0   589   709   721   720
 2967     4     3     4     4     0   589   720   721   600
 2968     4     3     4     4     0   589   588   709   720
 2969     4     3     4     4     0   589   588   720   600
 2970     4     3     4     4     0   588   720   600   599
 2971     4     3     4     4     0   711   590   710   722
 2972     4     3     4     4     0   590   710   722   721
 2973     4     3     4     4     0   590   721   722   601
 2974     4     3     4     4     0   590   589   710   721
 2975     4     3     4     4     0   590   589   721   601
 2976     4     3     4     4     0   589   721   601   600
 2977     4     3     4     4     0   712   591   711   723
 2978     4     3     4     4     0   591   711   723   722
 2979     4     3     4     4     0   591   722   723   602
 2980     4     3     4     4     0   591   590   711   722
 2981     4     3     4     4     0   591   590   722   602
 2982     4     3     4     4     0   590   722   602   601
$EndElements
