$MeshFormat
2.2 0 8
$EndMeshFormat
$Nodes
239
728 1.000000 0.000000 6.000000
729 2.000000 0.000000 6.000000
730 3.000000 0.000000 6.000000
739 1.000000 1.000000 6.000000
740 2.000000 1.000000 6.000000
741 3.000000 1.000000 6.000000
750 1.000000 2.000000 6.000000
751 2.000000 2.000000 6.000000
752 3.000000 2.000000 6.000000
761 1.000000 3.000000 6.000000
762 2.000000 3.000000 6.000000
763 3.000000 3.000000 6.000000
772 1.000000 4.000000 6.000000
773 2.000000 4.000000 6.000000
774 3.000000 4.000000 6.000000
783 1.000000 5.000000 6.000000
784 2.000000 5.000000 6.000000
785 3.000000 5.000000 6.000000
794 1.000000 6.000000 6.000000
795 2.000000 6.000000 6.000000
796 3.000000 6.000000 6.000000
848 0.000000 0.000000 7.000000
849 1.000000 0.000000 7.000000
850 2.000000 0.000000 7.000000
851 3.000000 0.000000 7.000000
852 4.000000 0.000000 7.000000
853 5.000000 0.000000 7.000000
859 0.000000 1.000000 7.000000
860 1.000000 1.000000 7.000000
861 2.000000 1.000000 7.000000
862 3.000000 1.000000 7.000000
863 4.000000 1.000000 7.000000
864 5.000000 1.000000 7.000000
870 0.000000 2.000000 7.000000
871 1.000000 2.000000 7.000000
872 2.000000 2.000000 7.000000
873 3.000000 2.000000 7.000000
874 4.000000 2.000000 7.000000
875 5.000000 2.000000 7.000000
881 0.000000 3.000000 7.000000
882 1.000000 3.000000 7.000000
883 2.000000 3.000000 7.000000
884 3.000000 3.000000 7.000000
885 4.000000 3.000000 7.000000
892 0.000000 4.000000 7.000000
893 1.000000 4.000000 7.000000
894 2.000000 4.000000 7.000000
895 3.000000 4.000000 7.000000
896 4.000000 4.000000 7.000000
903 0.000000 5.000000 7.000000
904 1.000000 5.000000 7.000000
905 2.000000 5.000000 7.000000
906 3.000000 5.000000 7.000000
907 4.000000 5.000000 7.000000
908 5.000000 5.000000 7.000000
914 0.000000 6.000000 7.000000
915 1.000000 6.000000 7.000000
916 2.000000 6.000000 7.000000
917 3.000000 6.000000 7.000000
918 4.000000 6.000000 7.000000
919 5.000000 6.000000 7.000000
926 1.000000 7.000000 7.000000
927 2.000000 7.000000 7.000000
928 3.000000 7.000000 7.000000
929 4.000000 7.000000 7.000000
969 0.000000 0.000000 8.000000
970 1.000000 0.000000 8.000000
971 2.000000 0.000000 8.000000
972 3.000000 0.000000 8.000000
973 4.000000 0.000000 8.000000
974 5.000000 0.000000 8.000000
975 6.000000 0.000000 8.000000
980 0.000000 1.000000 8.000000
981 1.000000 1.000000 8.000000
982 2.000000 1.000000 8.000000
983 3.000000 1.000000 8.000000
984 4.000000 1.000000 8.000000
985 5.000000 1.000000 8.000000
986 6.000000 1.000000 8.000000
991 0.000000 2.000000 8.000000
992 1.000000 2.000000 8.000000
993 2.000000 2.000000 8.000000
994 3.000000 2.000000 8.000000
995 4.000000 2.000000 8.000000
996 5.000000 2.000000 8.000000
997 6.000000 2.000000 8.000000
1002 0.000000 3.000000 8.000000
1003 1.000000 3.000000 8.000000
1004 2.000000 3.000000 8.000000
1005 3.000000 3.000000 8.000000
1006 4.000000 3.000000 8.000000
1007 5.000000 3.000000 8.000000
1008 6.000000 3.000000 8.000000
1013 0.000000 4.000000 8.000000
1014 1.000000 4.000000 8.000000
1015 2.000000 4.000000 8.000000
1016 3.000000 4.000000 8.000000
1017 4.000000 4.000000 8.000000
1018 5.000000 4.000000 8.000000
1019 6.000000 4.000000 8.000000
1024 0.000000 5.000000 8.000000
1025 1.000000 5.000000 8.000000
1026 2.000000 5.000000 8.000000
1027 3.000000 5.000000 8.000000
1028 4.000000 5.000000 8.000000
1029 5.000000 5.000000 8.000000
1030 6.000000 5.000000 8.000000
1035 0.000000 6.000000 8.000000
1036 1.000000 6.000000 8.000000
1037 2.000000 6.000000 8.000000
1038 3.000000 6.000000 8.000000
1039 4.000000 6.000000 8.000000
1040 5.000000 6.000000 8.000000
1041 6.000000 6.000000 8.000000
1046 0.000000 7.000000 8.000000
1047 1.000000 7.000000 8.000000
1048 2.000000 7.000000 8.000000
1049 3.000000 7.000000 8.000000
1050 4.000000 7.000000 8.000000
1060 3.000000 8.000000 8.000000
1061 4.000000 8.000000 8.000000
1090 0.000000 0.000000 9.000000
1091 1.000000 0.000000 9.000000
1092 2.000000 0.000000 9.000000
1093 3.000000 0.000000 9.000000
1094 4.000000 0.000000 9.000000
1095 5.000000 0.000000 9.000000
1096 6.000000 0.000000 9.000000
1097 7.000000 0.000000 9.000000
1101 0.000000 1.000000 9.000000
1102 1.000000 1.000000 9.000000
1103 2.000000 1.000000 9.000000
1104 3.000000 1.000000 9.000000
1105 4.000000 1.000000 9.000000
1106 5.000000 1.000000 9.000000
1107 6.000000 1.000000 9.000000
1108 7.000000 1.000000 9.000000
1112 0.000000 2.000000 9.000000
1113 1.000000 2.000000 9.000000
1114 2.000000 2.000000 9.000000
1115 3.000000 2.000000 9.000000
1116 4.000000 2.000000 9.000000
1117 5.000000 2.000000 9.000000
1118 6.000000 2.000000 9.000000
1119 7.000000 2.000000 9.000000
1123 0.000000 3.000000 9.000000
1124 1.000000 3.000000 9.000000
1125 2.000000 3.000000 9.000000
1126 3.000000 3.000000 9.000000
1127 4.000000 3.000000 9.000000
1128 5.000000 3.000000 9.000000
1129 6.000000 3.000000 9.000000
1134 0.000000 4.000000 9.000000
1135 1.000000 4.000000 9.000000
1136 2.000000 4.000000 9.000000
1137 3.000000 4.000000 9.000000
1138 4.000000 4.000000 9.000000
1139 5.000000 4.000000 9.000000
1140 6.000000 4.000000 9.000000
1145 0.000000 5.000000 9.000000
1146 1.000000 5.000000 9.000000
1147 2.000000 5.000000 9.000000
1148 3.000000 5.000000 9.000000
1149 4.000000 5.000000 9.000000
1150 5.000000 5.000000 9.000000
1151 6.000000 5.000000 9.000000
1156 0.000000 6.000000 9.000000
1157 1.000000 6.000000 9.000000
1158 2.000000 6.000000 9.000000
1159 3.000000 6.000000 9.000000
1160 4.000000 6.000000 9.000000
1161 5.000000 6.000000 9.000000
1162 6.000000 6.000000 9.000000
1167 0.000000 7.000000 9.000000
1168 1.000000 7.000000 9.000000
1169 2.000000 7.000000 9.000000
1170 3.000000 7.000000 9.000000
1171 4.000000 7.000000 9.000000
1181 3.000000 8.000000 9.000000
1182 4.000000 8.000000 9.000000
1211 0.000000 0.000000 10.000000
1212 1.000000 0.000000 10.000000
1213 2.000000 0.000000 10.000000
1214 3.000000 0.000000 10.000000
1215 4.000000 0.000000 10.000000
1216 5.000000 0.000000 10.000000
1217 6.000000 0.000000 10.000000
1218 7.000000 0.000000 10.000000
1222 0.000000 1.000000 10.000000
1223 1.000000 1.000000 10.000000
1224 2.000000 1.000000 10.000000
1225 3.000000 1.000000 10.000000
1226 4.000000 1.000000 10.000000
1227 5.000000 1.000000 10.000000
1228 6.000000 1.000000 10.000000
1229 7.000000 1.000000 10.000000
1233 0.000000 2.000000 10.000000
1234 1.000000 2.000000 10.000000
1235 2.000000 2.000000 10.000000
1236 3.000000 2.000000 10.000000
1237 4.000000 2.000000 10.000000
1238 5.000000 2.000000 10.000000
1239 6.000000 2.000000 10.000000
1240 7.000000 2.000000 10.000000
1244 0.000000 3.000000 10.000000
1245 1.000000 3.000000 10.000000
1246 2.000000 3.000000 10.000000
1247 3.000000 3.000000 10.000000
1248 4.000000 3.000000 10.000000
1249 5.000000 3.000000 10.000000
1250 6.000000 3.000000 10.000000
1255 0.000000 4.000000 10.000000
1256 1.000000 4.000000 10.000000
1257 2.000000 4.000000 10.000000
1258 3.000000 4.000000 10.000000
1259 4.000000 4.000000 10.000000
1260 5.000000 4.000000 10.000000
1261 6.000000 4.000000 10.000000
1266 0.000000 5.000000 10.000000
1267 1.000000 5.000000 10.000000
1268 2.000000 5.000000 10.000000
1269 3.000000 5.000000 10.000000
1270 4.000000 5.000000 10.000000
1271 5.000000 5.000000 10.000000
1272 6.000000 5.000000 10.000000
1277 0.000000 6.000000 10.000000
1278 1.000000 6.000000 10.000000
1279 2.000000 6.000000 10.000000
1280 3.000000 6.000000 10.000000
1281 4.000000 6.000000 10.000000
1282 5.000000 6.000000 10.000000
1283 6.000000 6.000000 10.000000
1288 0.000000 7.000000 10.000000
1289 1.000000 7.000000 10.000000
1290 2.000000 7.000000 10.000000
1291 3.000000 7.000000 10.000000
1292 4.000000 7.000000 10.000000
1302 3.000000 8.000000 10.000000
1303 4.000000 8.000000 10.000000
$EndNodes
$Elements
756
 3607     4     3     8     8     0   850   729   849   861
 3608     4     3     8     8     0   729   849   861   860
 3609     4     3     8     8     0   729   860   861   740
 3610     4     3     8     8     0   729   728   849   860
 3611     4     3     8     8     0   729   728   860   740
 3612     4     3     8     8     0   728   860   740   739
 3613     4     3     8     8     0   851   730   850   862
 3614     4     3     8     8     0   730   850   862   861
 3615     4     3     8     8     0   730   861   862   741
 3616     4     3     8     8     0   730   729   850   861
 3617     4     3     8     8     0   730   729   861   741
 3618     4     3     8     8     0   729   861   741   740
 3667     4     3     8     8     0   861   740   860   872
 3668     4     3     8     8     0   740   860   872   871
 3669     4     3     8     8     0   740   871   872   751
 3670     4     3     8     8     0   740   739   860   871
 3671     4     3     8     8     0   740   739   871   751
 3672     4     3     8     8     0   739   871   751   750
 3673     4     3     8     8     0   862   741   861   873
 3674     4     3     8     8     0   741   861   873   872
 3675     4     3     8     8     0   741   872   873   752
 3676     4     3     8     8     0   741   740   861   872
 3677     4     3     8     8     0   741   740   872   752
 3678     4     3     8     8     0   740   872   752   751
 3727     4     3     8     8     0   872   751   871   883
 3728     4     3     8     8     0   751   871   883   882
 3729     4     3     8     8     0   751   882   883   762
 3730     4     3     8     8     0   751   750   871   882
 3731     4     3     8     8     0   751   750   882   762
 3732     4     3     8     8     0   750   882   762   761
 3733     4     3     8     8     0   873   752   872   884
 3734     4     3     8     8     0   752   872   884   883
 3735     4     3     8     8     0   752   883   884   763
 3736     4     3     8     8     0   752   751   872   883
 3737     4     3     8     8     0   752   751   883   763
 3738     4     3     8     8     0   751   883   763   762
 3787     4     3     8     8     0   883   762   882   894
 3788     4     3     8     8     0   762   882   894   893
 3789     4     3     8     8     0   762   893   894   773
 3790     4     3     8     8     0   762   761   882   893
 3791     4     3     8     8     0   762   761   893   773
 3792     4     3     8     8     0   761   893   773   772
 3793     4     3     8     8     0   884   763   883   895
 3794     4     3     8     8     0   763   883   895   894
 3795     4     3     8     8     0   763   894   895   774
 3796     4     3     8     8     0   763   762   883   894
 3797     4     3     8     8     0   763   762   894   774
 3798     4     3     8     8     0   762   894   774   773
 3847     4     3     8     8     0   894   773   893   905
 3848     4     3     8     8     0   773   893   905   904
 3849     4     3     8     8     0   773   904   905   784
 3850     4     3     8     8     0   773   772   893   904
 3851     4     3     8     8     0   773   772   904   784
 3852     4     3     8     8     0   772   904   784   783
 3853     4     3     8     8     0   895   774   894   906
 3854     4     3     8     8     0   774   894   906   905
 3855     4     3     8     8     0   774   905   906   785
 3856     4     3     8     8     0   774   773   894   905
 3857     4     3     8     8     0   774   773   905   785
 3858     4     3     8     8     0   773   905   785   784
 3907     4     3     8     8     0   905   784   904   916
 3908     4     3     8     8     0   784   904   916   915
 3909     4     3     8     8     0   784   915   916   795
 3910     4     3     8     8     0   784   783   904   915
 3911     4     3     8     8     0   784   783   915   795
 3912     4     3     8     8     0   783   915   795   794
 3913     4     3     8     8     0   906   785   905   917
 3914     4     3     8     8     0   785   905   917   916
 3915     4     3     8     8     0   785   916   917   796
 3916     4     3     8     8     0   785   784   905   916
 3917     4     3     8     8     0   785   784   916   796
 3918     4     3     8     8     0   784   916   796   795
 4201     4     3     8     8     0   970   849   969   981
 4202     4     3     8     8     0   849   969   981   980
 4203     4     3     8     8     0   849   980   981   860
 4204     4     3     8     8     0   849   848   969   980
 4205     4     3     8     8     0   849   848   980   860
 4206     4     3     8     8     0   848   980   860   859
 4207     4     3     8     8     0   971   850   970   982
 4208     4     3     8     8     0   850   970   982   981
 4209     4     3     8     8     0   850   981   982   861
 4210     4     3     8     8     0   850   849   970   981
 4211     4     3     8     8     0   850   849   981   861
 4212     4     3     8     8     0   849   981   861   860
 4213     4     3     8     8     0   972   851   971   983
 4214     4     3     8     8     0   851   971   983   982
 4215     4     3     8     8     0   851   982   983   862
 4216     4     3     8     8     0   851   850   971   982
 4217     4     3     8     8     0   851   850   982   862
 4218     4     3     8     8     0   850   982   862   861
 4219     4     3     8     8     0   973   852   972   984
 4220     4     3     8     8     0   852   972   984   983
 4221     4     3     8     8     0   852   983   984   863
 4222     4     3     8     8     0   852   851   972   983
 4223     4     3     8     8     0   852   851   983   863
 4224     4     3     8     8     0   851   983   863   862
 4225     4     3     8     8     0   974   853   973   985
 4226     4     3     8     8     0   853   973   985   984
 4227     4     3     8     8     0   853   984   985   864
 4228     4     3     8     8     0   853   852   973   984
 4229     4     3     8     8     0   853   852   984   864
 4230     4     3     8     8     0   852   984   864   863
 4261     4     3     8     8     0   981   860   980   992
 4262     4     3     8     8     0   860   980   992   991
 4263     4     3     8     8     0   860   991   992   871
 4264     4     3     8     8     0   860   859   980   991
 4265     4     3     8     8     0   860   859   991   871
 4266     4     3     8     8     0   859   991   871   870
 4267     4     3     8     8     0   982   861   981   993
 4268     4     3     8     8     0   861   981   993   992
 4269     4     3     8     8     0   861   992   993   872
 4270     4     3     8     8     0   861   860   981   992
 4271     4     3     8     8     0   861   860   992   872
 4272     4     3     8     8     0   860   992   872   871
 4273     4     3     8     8     0   983   862   982   994
 4274     4     3     8     8     0   862   982   994   993
 4275     4     3     8     8     0   862   993   994   873
 4276     4     3     8     8     0   862   861   982   993
 4277     4     3     8     8     0   862   861   993   873
 4278     4     3     8     8     0   861   993   873   872
 4279     4     3     8     8     0   984   863   983   995
 4280     4     3     8     8     0   863   983   995   994
 4281     4     3     8     8     0   863   994   995   874
 4282     4     3     8     8     0   863   862   983   994
 4283     4     3     8     8     0   863   862   994   874
 4284     4     3     8     8     0   862   994   874   873
 4285     4     3     8     8     0   985   864   984   996
 4286     4     3     8     8     0   864   984   996   995
 4287     4     3     8     8     0   864   995   996   875
 4288     4     3     8     8     0   864   863   984   995
 4289     4     3     8     8     0   864   863   995   875
 4290     4     3     8     8     0   863   995   875   874
 4321     4     3     8     8     0   992   871   991  1003
 4322     4     3     8     8     0   871   991  1003  1002
 4323     4     3     8     8     0   871  1002  1003   882
 4324     4     3     8     8     0   871   870   991  1002
 4325     4     3     8     8     0   871   870  1002   882
 4326     4     3     8     8     0   870  1002   882   881
 4327     4     3     8     8     0   993   872   992  1004
 4328     4     3     8     8     0   872   992  1004  1003
 4329     4     3     8     8     0   872  1003  1004   883
 4330     4     3     8     8     0   872   871   992  1003
 4331     4     3     8     8     0   872   871  1003   883
 4332     4     3     8     8     0   871  1003   883   882
 4333     4     3     8     8     0   994   873   993  1005
 4334     4     3     8     8     0   873   993  1005  1004
 4335     4     3     8     8     0   873  1004  1005   884
 4336     4     3     8     8     0   873   872   993  1004
 4337     4     3     8     8     0   873   872  1004   884
 4338     4     3     8     8     0   872  1004   884   883
 4339     4     3     8     8     0   995   874   994  1006
 4340     4     3     8     8     0   874   994  1006  1005
 4341     4     3     8     8     0   874  1005  1006   885
 4342     4     3     8     8     0   874   873   994  1005
 4343     4     3     8     8     0   874   873  1005   885
 4344     4     3     8     8     0   873  1005   885   884
 4381     4     3     8     8     0  1003   882  1002  1014
 4382     4     3     8     8     0   882  1002  1014  1013
 4383     4     3     8     8     0   882  1013  1014   893
 4384     4     3     8     8     0   882   881  1002  1013
 4385     4     3     8     8     0   882   881  1013   893
 4386     4     3     8     8     0   881  1013   893   892
 4387     4     3     8     8     0  1004   883  1003  1015
 4388     4     3     8     8     0   883  1003  1015  1014
 4389     4     3     8     8     0   883  1014  1015   894
 4390     4     3     8     8     0   883   882  1003  1014
 4391     4     3     8     8     0   883   882  1014   894
 4392     4     3     8     8     0   882  1014   894   893
 4393     4     3     8     8     0  1005   884  1004  1016
 4394     4     3     8     8     0   884  1004  1016  1015
 4395     4     3     8     8     0   884  1015  1016   895
 4396     4     3     8     8     0   884   883  1004  1015
 4397     4     3     8     8     0   884   883  1015   895
 4398     4     3     8     8     0   883  1015   895   894
 4399     4     3     8     8     0  1006   885  1005  1017
 4400     4     3     8     8     0   885  1005  1017  1016
 4401     4     3     8     8     0   885  1016  1017   896
 4402     4     3     8     8     0   885   884  1005  1016
 4403     4     3     8     8     0   885   884  1016   896
 4404     4     3     8     8     0   884  1016   896   895
 4441     4     3     8     8     0  1014   893  1013  1025
 4442     4     3     8     8     0   893  1013  1025  1024
 4443     4     3     8     8     0   893  1024  1025   904
 4444     4     3     8     8     0   893   892  1013  1024
 4445     4     3     8     8     0   893   892  1024   904
 4446     4     3     8     8     0   892  1024   904   903
 4447     4     3     8     8     0  1015   894  1014  1026
 4448     4     3     8     8     0   894  1014  1026  1025
 4449     4     3     8     8     0   894  1025  1026   905
 4450     4     3     8     8     0   894   893  1014  1025
 4451     4     3     8     8     0   894   893  1025   905
 4452     4     3     8     8     0   893  1025   905   904
 4453     4     3     8     8     0  1016   895  1015  1027
 4454     4     3     8     8     0   895  1015  1027  1026
 4455     4     3     8     8     0   895  1026  1027   906
 4456     4     3     8     8     0   895   894  1015  1026
 4457     4     3     8     8     0   895   894  1026   906
 4458     4     3     8     8     0   894  1026   906   905
 4459     4     3     8     8     0  1017   896  1016  1028
 4460     4     3     8     8     0   896  1016  1028  1027
 4461     4     3     8     8     0   896  1027  1028   907
 4462     4     3     8     8     0   896   895  1016  1027
 4463     4     3     8     8     0   896   895  1027   907
 4464     4     3     8     8     0   895  1027   907   906
 4501     4     3     8     8     0  1025   904  1024  1036
 4502     4     3     8     8     0   904  1024  1036  1035
 4503     4     3     8     8     0   904  1035  1036   915
 4504     4     3     8     8     0   904   903  1024  1035
 4505     4     3     8     8     0   904   903  1035   915
 4506     4     3     8     8     0   903  1035   915   914
 4507     4     3     8     8     0  1026   905  1025  1037
 4508     4     3     8     8     0   905  1025  1037  1036
 4509     4     3     8     8     0   905  1036  1037   916
 4510     4     3     8     8     0   905   904  1025  1036
 4511     4     3     8     8     0   905   904  1036   916
 4512     4     3     8     8     0   904  1036   916   915
 4513     4     3     8     8     0  1027   906  1026  1038
 4514     4     3     8     8     0   906  1026  1038  1037
 4515     4     3     8     8     0   906  1037  1038   917
 4516     4     3     8     8     0   906   905  1026  1037
 4517     4     3     8     8     0   906   905  1037   917
 4518     4     3     8     8     0   905  1037   917   916
 4519     4     3     8     8     0  1028   907  1027  1039
 4520     4     3     8     8     0   907  1027  1039  1038
 4521     4     3     8     8     0   907  1038  1039   918
 4522     4     3     8     8     0   907   906  1027  1038
 4523     4     3     8     8     0   907   906  1038   918
 4524     4     3     8     8     0   906  1038   918   917
 4525     4     3     8     8     0  1029   908  1028  1040
 4526     4     3     8     8     0   908  1028  1040  1039
 4527     4     3     8     8     0   908  1039  1040   919
 4528     4     3     8     8     0   908   907  1028  1039
 4529     4     3     8     8     0   908   907  1039   919
 4530     4     3     8     8     0   907  1039   919   918
 4567     4     3     8     8     0  1037   916  1036  1048
 4568     4     3     8     8     0   916  1036  1048  1047
 4569     4     3     8     8     0   916  1047  1048   927
 4570     4     3     8     8     0   916   915  1036  1047
 4571     4     3     8     8     0   916   915  1047   927
 4572     4     3     8     8     0   915  1047   927   926
 4573     4     3     8     8     0  1038   917  1037  1049
 4574     4     3     8     8     0   917  1037  1049  1048
 4575     4     3     8     8     0   917  1048  1049   928
 4576     4     3     8     8     0   917   916  1037  1048
 4577     4     3     8     8     0   917   916  1048   928
 4578     4     3     8     8     0   916  1048   928   927
 4579     4     3     8     8     0  1039   918  1038  1050
 4580     4     3     8     8     0   918  1038  1050  1049
 4581     4     3     8     8     0   918  1049  1050   929
 4582     4     3     8     8     0   918   917  1038  1049
 4583     4     3     8     8     0   918   917  1049   929
 4584     4     3     8     8     0   917  1049   929   928
 4801     4     3     8     8     0  1091   970  1090  1102
 4802     4     3     8     8     0   970  1090  1102  1101
 4803     4     3     8     8     0   970  1101  1102   981
 4804     4     3     8     8     0   970   969  1090  1101
 4805     4     3     8     8     0   970   969  1101   981
 4806     4     3     8     8     0   969  1101   981   980
 4807     4     3     8     8     0  1092   971  1091  1103
 4808     4     3     8     8     0   971  1091  1103  1102
 4809     4     3     8     8     0   971  1102  1103   982
 4810     4     3     8     8     0   971   970  1091  1102
 4811     4     3     8     8     0   971   970  1102   982
 4812     4     3     8     8     0   970  1102   982   981
 4813     4     3     8     8     0  1093   972  1092  1104
 4814     4     3     8     8     0   972  1092  1104  1103
 4815     4     3     8     8     0   972  1103  1104   983
 4816     4     3     8     8     0   972   971  1092  1103
 4817     4     3     8     8     0   972   971  1103   983
 4818     4     3     8     8     0   971  1103   983   982
 4819     4     3     8     8     0  1094   973  1093  1105
 4820     4     3     8     8     0   973  1093  1105  1104
 4821     4     3     8     8     0   973  1104  1105   984
 4822     4     3     8     8     0   973   972  1093  1104
 4823     4     3     8     8     0   973   972  1104   984
 4824     4     3     8     8     0   972  1104   984   983
 4825     4     3     8     8     0  1095   974  1094  1106
 4826     4     3     8     8     0   974  1094  1106  1105
 4827     4     3     8     8     0   974  1105  1106   985
 4828     4     3     8     8     0   974   973  1094  1105
 4829     4     3     8     8     0   974   973  1105   985
 4830     4     3     8     8     0   973  1105   985   984
 4831     4     3     8     8     0  1096   975  1095  1107
 4832     4     3     8     8     0   975  1095  1107  1106
 4833     4     3     8     8     0   975  1106  1107   986
 4834     4     3     8     8     0   975   974  1095  1106
 4835     4     3     8     8     0   975   974  1106   986
 4836     4     3     8     8     0   974  1106   986   985
 4861     4     3     8     8     0  1102   981  1101  1113
 4862     4     3     8     8     0   981  1101  1113  1112
 4863     4     3     8     8     0   981  1112  1113   992
 4864     4     3     8     8     0   981   980  1101  1112
 4865     4     3     8     8     0   981   980  1112   992
 4866     4     3     8     8     0   980  1112   992   991
 4867     4     3     8     8     0  1103   982  1102  1114
 4868     4     3     8     8     0   982  1102  1114  1113
 4869     4     3     8     8     0   982  1113  1114   993
 4870     4     3     8     8     0   982   981  1102  1113
 4871     4     3     8     8     0   982   981  1113   993
 4872     4     3     8     8     0   981  1113   993   992
 4873     4     3     8     8     0  1104   983  1103  1115
 4874     4     3     8     8     0   983  1103  1115  1114
 4875     4     3     8     8     0   983  1114  1115   994
 4876     4     3     8     8     0   983   982  1103  1114
 4877     4     3     8     8     0   983   982  1114   994
 4878     4     3     8     8     0   982  1114   994   993
 4879     4     3     8     8     0  1105   984  1104  1116
 4880     4     3     8     8     0   984  1104  1116  1115
 4881     4     3     8     8     0   984  1115  1116   995
 4882     4     3     8     8     0   984   983  1104  1115
 4883     4     3     8     8     0   984   983  1115   995
 4884     4     3     8     8     0   983  1115   995   994
 4885     4     3     8     8     0  1106   985  1105  1117
 4886     4     3     8     8     0   985  1105  1117  1116
 4887     4     3     8     8     0   985  1116  1117   996
 4888     4     3     8     8     0   985   984  1105  1116
 4889     4     3     8     8     0   985   984  1116   996
 4890     4     3     8     8     0   984  1116   996   995
 4891     4     3     8     8     0  1107   986  1106  1118
 4892     4     3     8     8     0   986  1106  1118  1117
 4893     4     3     8     8     0   986  1117  1118   997
 4894     4     3     8     8     0   986   985  1106  1117
 4895     4     3     8     8     0   986   985  1117   997
 4896     4     3     8     8     0   985  1117   997   996
 4921     4     3     8     8     0  1113   992  1112  1124
 4922     4     3     8     8     0   992  1112  1124  1123
 4923     4     3     8     8     0   992  1123  1124  1003
 4924     4     3     8     8     0   992   991  1112  1123
 4925     4     3     8     8     0   992   991  1123  1003
 4926     4     3     8     8     0   991  1123  1003  1002
 4927     4     3     8     8     0  1114   993  1113  1125
 4928     4     3     8     8     0   993  1113  1125  1124
 4929     4     3     8     8     0   993  1124  1125  1004
 4930     4     3     8     8     0   993   992  1113  1124
 4931     4     3     8     8     0   993   992  1124  1004
 4932     4     3     8     8     0   992  1124  1004  1003
 4933     4     3     8     8     0  1115   994  1114  1126
 4934     4     3     8     8     0   994  1114  1126  1125
 4935     4     3     8     8     0   994  1125  1126  1005
 4936     4     3     8     8     0   994   993  1114  1125
 4937     4     3     8     8     0   994   993  1125  1005
 4938     4     3     8     8     0   993  1125  1005  1004
 4939     4     3     8     8     0  1116   995  1115  1127
 4940     4     3     8     8     0   995  1115  1127  1126
 4941     4     3     8     8     0   995  1126  1127  1006
 4942     4     3     8     8     0   995   994  1115  1126
 4943     4     3     8     8     0   995   994  1126  1006
 4944     4     3     8     8     0   994  1126  1006  1005
 4945     4     3     8     8     0  1117   996  1116  1128
 4946     4     3     8     8     0   996  1116  1128  1127
 4947     4     3     8     8     0   996  1127  1128  1007
 4948     4     3     8     8     0   996   995  1116  1127
 4949     4     3     8     8     0   996   995  1127  1007
 4950     4     3     8     8     0   995  1127  1007  1006
 4951     4     3     8     8     0  1118   997  1117  1129
 4952     4     3     8     8     0   997  1117  1129  1128
 4953     4     3     8     8     0   997  1128  1129  1008
 4954     4     3     8     8     0   997   996  1117  1128
 4955     4     3     8     8     0   997   996  1128  1008
 4956     4     3     8     8     0   996  1128  1008  1007
 4981     4     3     8     8     0  1124  1003  1123  1135
 4982     4     3     8     8     0  1003  1123  1135  1134
 4983     4     3     8     8     0  1003  1134  1135  1014
 4984     4     3     8     8     0  1003  1002  1123  1134
 4985     4     3     8     8     0  1003  1002  1134  1014
 4986     4     3     8     8     0  1002  1134  1014  1013
 4987     4     3     8     8     0  1125  1004  1124  1136
 4988     4     3     8     8     0  1004  1124  1136  1135
 4989     4     3     8     8     0  1004  1135  1136  1015
 4990     4     3     8     8     0  1004  1003  1124  1135
 4991     4     3     8     8     0  1004  1003  1135  1015
 4992     4     3     8     8     0  1003  1135  1015  1014
 4993     4     3     8     8     0  1126  1005  1125  1137
 4994     4     3     8     8     0  1005  1125  1137  1136
 4995     4     3     8     8     0  1005  1136  1137  1016
 4996     4     3     8     8     0  1005  1004  1125  1136
 4997     4     3     8     8     0  1005  1004  1136  1016
 4998     4     3     8     8     0  1004  1136  1016  1015
 4999     4     3     8     8     0  1127  1006  1126  1138
 5000     4     3     8     8     0  1006  1126  1138  1137
 5001     4     3     8     8     0  1006  1137  1138  1017
 5002     4     3     8     8     0  1006  1005  1126  1137
 5003     4     3     8     8     0  1006  1005  1137  1017
 5004     4     3     8     8     0  1005  1137  1017  1016
 5005     4     3     8     8     0  1128  1007  1127  1139
 5006     4     3     8     8     0  1007  1127  1139  1138
 5007     4     3     8     8     0  1007  1138  1139  1018
 5008     4     3     8     8     0  1007  1006  1127  1138
 5009     4     3     8     8     0  1007  1006  1138  1018
 5010     4     3     8     8     0  1006  1138  1018  1017
 5011     4     3     8     8     0  1129  1008  1128  1140
 5012     4     3     8     8     0  1008  1128  1140  1139
 5013     4     3     8     8     0  1008  1139  1140  1019
 5014     4     3     8     8     0  1008  1007  1128  1139
 5015     4     3     8     8     0  1008  1007  1139  1019
 5016     4     3     8     8     0  1007  1139  1019  1018
 5041     4     3     8     8     0  1135  1014  1134  1146
 5042     4     3     8     8     0  1014  1134  1146  1145
 5043     4     3     8     8     0  1014  1145  1146  1025
 5044     4     3     8     8     0  1014  1013  1134  1145
 5045     4     3     8     8     0  1014  1013  1145  1025
 5046     4     3     8     8     0  1013  1145  1025  1024
 5047     4     3     8     8     0  1136  1015  1135  1147
 5048     4     3     8     8     0  1015  1135  1147  1146
 5049     4     3     8     8     0  1015  1146  1147  1026
 5050     4     3     8     8     0  1015  1014  1135  1146
 5051     4     3     8     8     0  1015  1014  1146  1026
 5052     4     3     8     8     0  1014  1146  1026  1025
 5053     4     3     8     8     0  1137  1016  1136  1148
 5054     4     3     8     8     0  1016  1136  1148  1147
 5055     4     3     8     8     0  1016  1147  1148  1027
 5056     4     3     8     8     0  1016  1015  1136  1147
 5057     4     3     8     8     0  1016  1015  1147  1027
 5058     4     3     8     8     0  1015  1147  1027  1026
 5059     4     3     8     8     0  1138  1017  1137  1149
 5060     4     3     8     8     0  1017  1137  1149  1148
 5061     4     3     8     8     0  1017  1148  1149  1028
 5062     4     3     8     8     0  1017  1016  1137  1148
 5063     4     3     8     8     0  1017  1016  1148  1028
 5064     4     3     8     8     0  1016  1148  1028  1027
 5065     4     3     8     8     0  1139  1018  1138  1150
 5066     4     3     8     8     0  1018  1138  1150  1149
 5067     4     3     8     8     0  1018  1149  1150  1029
 5068     4     3     8     8     0  1018  1017  1138  1149
 5069     4     3     8     8     0  1018  1017  1149  1029
 5070     4     3     8     8     0  1017  1149  1029  1028
 5071     4     3     8     8     0  1140  1019  1139  1151
 5072     4     3     8     8     0  1019  1139  1151  1150
 5073     4     3     8     8     0  1019  1150  1151  1030
 5074     4     3     8     8     0  1019  1018  1139  1150
 5075     4     3     8     8     0  1019  1018  1150  1030
 5076     4     3     8     8     0  1018  1150  1030  1029
 5101     4     3     8     8     0  1146  1025  1145  1157
 5102     4     3     8     8     0  1025  1145  1157  1156
 5103     4     3     8     8     0  1025  1156  1157  1036
 5104     4     3     8     8     0  1025  1024  1145  1156
 5105     4     3     8     8     0  1025  1024  1156  1036
 5106     4     3     8     8     0  1024  1156  1036  1035
 5107     4     3     8     8     0  1147  1026  1146  1158
 5108     4     3     8     8     0  1026  1146  1158  1157
 5109     4     3     8     8     0  1026  1157  1158  1037
 5110     4     3     8     8     0  1026  1025  1146  1157
 5111     4     3     8     8     0  1026  1025  1157  1037
 5112     4     3     8     8     0  1025  1157  1037  1036
 5113     4     3     8     8     0  1148  1027  1147  1159
 5114     4     3     8     8     0  1027  1147  1159  1158
 5115     4     3     8     8     0  1027  1158  1159  1038
 5116     4     3     8     8     0  1027  1026  1147  1158
 5117     4     3     8     8     0  1027  1026  1158  1038
 5118     4     3     8     8     0  1026  1158  1038  1037
 5119     4     3     8     8     0  1149  1028  1148  1160
 5120     4     3     8     8     0  1028  1148  1160  1159
 5121     4     3     8     8     0  1028  1159  1160  1039
 5122     4     3     8     8     0  1028  1027  1148  1159
 5123     4     3     8     8     0  1028  1027  1159  1039
 5124     4     3     8     8     0  1027  1159  1039  1038
 5125     4     3     8     8     0  1150  1029  1149  1161
 5126     4     3     8     8     0  1029  1149  1161  1160
 5127     4     3     8     8     0  1029  1160  1161  1040
 5128     4     3     8     8     0  1029  1028  1149  1160
 5129     4     3     8     8     0  1029  1028  1160  1040
 5130     4     3     8     8     0  1028  1160  1040  1039
 5131     4     3     8     8     0  1151  1030  1150  1162
 5132     4     3     8     8     0  1030  1150  1162  1161
 5133     4     3     8     8     0  1030  1161  1162  1041
 5134     4     3     8     8     0  1030  1029  1150  1161
 5135     4     3     8     8     0  1030  1029  1161  1041
 5136     4     3     8     8     0  1029  1161  1041  1040
 5161     4     3     8     8     0  1157  1036  1156  1168
 5162     4     3     8     8     0  1036  1156  1168  1167
 5163     4     3     8     8     0  1036  1167  1168  1047
 5164     4     3     8     8     0  1036  1035  1156  1167
 5165     4     3     8     8     0  1036  1035  1167  1047
 5166     4     3     8     8     0  1035  1167  1047  1046
 5167     4     3     8     8     0  1158  1037  1157  1169
 5168     4     3     8     8     0  1037  1157  1169  1168
 5169     4     3     8     8     0  1037  1168  1169  1048
 5170     4     3     8     8     0  1037  1036  1157  1168
 5171     4     3     8     8     0  1037  1036  1168  1048
 5172     4     3     8     8     0  1036  1168  1048  1047
 5173     4     3     8     8     0  1159  1038  1158  1170
 5174     4     3     8     8     0  1038  1158  1170  1169
 5175     4     3     8     8     0  1038  1169  1170  1049
 5176     4     3     8     8     0  1038  1037  1158  1169
 5177     4     3     8     8     0  1038  1037  1169  1049
 5178     4     3     8     8     0  1037  1169  1049  1048
 5179     4     3     8     8     0  1160  1039  1159  1171
 5180     4     3     8     8     0  1039  1159  1171  1170
 5181     4     3     8     8     0  1039  1170  1171  1050
 5182     4     3     8     8     0  1039  1038  1159  1170
 5183     4     3     8     8     0  1039  1038  1170  1050
 5184     4     3     8     8     0  1038  1170  1050  1049
 5239     4     3     8     8     0  1171  1050  1170  1182
 5240     4     3     8     8     0  1050  1170  1182  1181
 5241     4     3     8     8     0  1050  1181  1182  1061
 5242     4     3     8     8     0  1050  1049  1170  1181
 5243     4     3     8     8     0  1050  1049  1181  1061
 5244     4     3     8     8     0  1049  1181  1061  1060
 5401     4     3     8     8     0  1212  1091  1211  1223
 5402     4     3     8     8     0  1091  1211  1223  1222
 5403     4     3     8     8     0  1091  1222  1223  1102
 5404     4     3     8     8     0  1091  1090  1211  1222
 5405     4     3     8     8     0  1091  1090  1222  1102
 5406     4     3     8     8     0  1090  1222  1102  1101
 5407     4     3     8     8     0  1213  1092  1212  1224
 5408     4     3     8     8     0  1092  1212  1224  1223
 5409     4     3     8     8     0  1092  1223  1224  1103
 5410     4     3     8     8     0  1092  1091  1212  1223
 5411     4     3     8     8     0  1092  1091  1223  1103
 5412     4     3     8     8     0  1091  1223  1103  1102
 5413     4     3     8     8     0  1214  1093  1213  1225
 5414     4     3     8     8     0  1093  1213  1225  1224
 5415     4     3     8     8     0  1093  1224  1225  1104
 5416     4     3     8     8     0  1093  1092  1213  1224
 5417     4     3     8     8     0  1093  1092  1224  1104
 5418     4     3     8     8     0  1092  1224  1104  1103
 5419     4     3     8     8     0  1215  1094  1214  1226
 5420     4     3     8     8     0  1094  1214  1226  1225
 5421     4     3     8     8     0  1094  1225  1226  1105
 5422     4     3     8     8     0  1094  1093  1214  1225
 5423     4     3     8     8     0  1094  1093  1225  1105
 5424     4     3     8     8     0  1093  1225  1105  1104
 5425     4     3     8     8     0  1216  1095  1215  1227
 5426     4     3     8     8     0  1095  1215  1227  1226
 5427     4     3     8     8     0  1095  1226  1227  1106
 5428     4     3     8     8     0  1095  1094  1215  1226
 5429     4     3     8     8     0  1095  1094  1226  1106
 5430     4     3     8     8     0  1094  1226  1106  1105
 5431     4     3     8     8     0  1217  1096  1216  1228
 5432     4     3     8     8     0  1096  1216  1228  1227
 5433     4     3     8     8     0  1096  1227  1228  1107
 5434     4     3     8     8     0  1096  1095  1216  1227
 5435     4     3     8     8     0  1096  1095  1227  1107
 5436     4     3     8     8     0  1095  1227  1107  1106
 5437     4     3     8     8     0  1218  1097  1217  1229
 5438     4     3     8     8     0  1097  1217  1229  1228
 5439     4     3     8     8     0  1097  1228  1229  1108
 5440     4     3     8     8     0  1097  1096  1217  1228
 5441     4     3     8     8     0  1097  1096  1228  1108
 5442     4     3     8     8     0  1096  1228  1108  1107
 5461     4     3     8     8     0  1223  1102  1222  1234
 5462     4     3     8     8     0  1102  1222  1234  1233
 5463     4     3     8     8     0  1102  1233  1234  1113
 5464     4     3     8     8     0  1102  1101  1222  1233
 5465     4     3     8     8     0  1102  1101  1233  1113
 5466     4     3     8     8     0  1101  1233  1113  1112
 5467     4     3     8     8     0  1224  1103  1223  1235
 5468     4     3     8     8     0  1103  1223  1235  1234
 5469     4     3     8     8     0  1103  1234  1235  1114
 5470     4     3     8     8     0  1103  1102  1223  1234
 5471     4     3     8     8     0  1103  1102  1234  1114
 5472     4     3     8     8     0  1102  1234  1114  1113
 5473     4     3     8     8     0  1225  1104  1224  1236
 5474     4     3     8     8     0  1104  1224  1236  1235
 5475     4     3     8     8     0  1104  1235  1236  1115
 5476     4     3     8     8     0  1104  1103  1224  1235
 5477     4     3     8     8     0  1104  1103  1235  1115
 5478     4     3     8     8     0  1103  1235  1115  1114
 5479     4     3     8     8     0  1226  1105  1225  1237
 5480     4     3     8     8     0  1105  1225  1237  1236
 5481     4     3     8     8     0  1105  1236  1237  1116
 5482     4     3     8     8     0  1105  1104  1225  1236
 5483     4     3     8     8     0  1105  1104  1236  1116
 5484     4     3     8     8     0  1104  1236  1116  1115
 5485     4     3     8     8     0  1227  1106  1226  1238
 5486     4     3     8     8     0  1106  1226  1238  1237
 5487     4     3     8     8     0  1106  1237  1238  1117
 5488     4     3     8     8     0  1106  1105  1226  1237
 5489     4     3     8     8     0  1106  1105  1237  1117
 5490     4     3     8     8     0  1105  1237  1117  1116
 5491     4     3     8     8     0  1228  1107  1227  1239
 5492     4     3     8     8     0  1107  1227  1239  1238
 5493     4     3     8     8     0  1107  1238  1239  1118
 5494     4     3     8     8     0  1107  1106  1227  1238
 5495     4     3     8     8     0  1107  1106  1238  1118
 5496     4     3     8     8     0  1106  1238  1118  1117
 5497     4     3     8     8     0  1229  1108  1228  1240
 5498     4     3     8     8     0  1108  1228  1240  1239
 5499     4     3     8     8     0  1108  1239  1240  1119
 5500     4     3     8     8     0  1108  1107  1228  1239
 5501     4     3     8     8     0  1108  1107  1239  1119
 5502     4     3     8     8     0  1107  1239  1119  1118
 5521     4     3     8     8     0  1234  1113  1233  1245
 5522     4     3     8     8     0  1113  1233  1245  1244
 5523     4     3     8     8     0  1113  1244  1245  1124
 5524     4     3     8     8     0  1113  1112  1233  1244
 5525     4     3     8     8     0  1113  1112  1244  1124
 5526     4     3     8     8     0  1112  1244  1124  1123
 5527     4     3     8     8     0  1235  1114  1234  1246
 5528     4     3     8     8     0  1114  1234  1246  1245
 5529     4     3     8     8     0  1114  1245  1246  1125
 5530     4     3     8     8     0  1114  1113  1234  1245
 5531     4     3     8     8     0  1114  1113  1245  1125
 5532     4     3     8     8     0  1113  1245  1125  1124
 5533     4     3     8     8     0  1236  1115  1235  1247
 5534     4     3     8     8     0  1115  1235  1247  1246
 5535     4     3     8     8     0  1115  1246  1247  1126
 5536     4     3     8     8     0  1115  1114  1235  1246
 5537     4     3     8     8     0  1115  1114  1246  1126
 5538     4     3     8     8     0  1114  1246  1126  1125
 5539     4     3     8     8     0  1237  1116  1236  1248
 5540     4     3     8     8     0  1116  1236  1248  1247
 5541     4     3     8     8     0  1116  1247  1248  1127
 5542     4     3     8     8     0  1116  1115  1236  1247
 5543     4     3     8     8     0  1116  1115  1247  1127
 5544     4     3     8     8     0  1115  1247  1127  1126
 5545     4     3     8     8     0  1238  1117  1237  1249
 5546     4     3     8     8     0  1117  1237  1249  1248
 5547     4     3     8     8     0  1117  1248  1249  1128
 5548     4     3     8     8     0  1117  1116  1237  1248
 5549     4     3     8     8     0  1117  1116  1248  1128
 5550     4     3     8     8     0  1116  1248  1128  1127
 5551     4     3     8     8     0  1239  1118  1238  1250
 5552     4     3     8     8     0  1118  1238  1250  1249
 5553     4     3     8     8     0  1118  1249  1250  1129
 5554     4     3     8     8     0  1118  1117  1238  1249
 5555     4     3     8     8     0  1118  1117  1249  1129
 5556     4     3     8     8     0  1117  1249  1129  1128
 5581     4     3     8     8     0  1245  1124  1244  1256
 5582     4     3     8     8     0  1124  1244  1256  1255
 5583     4     3     8     8     0  1124  1255  1256  1135
 5584     4     3     8     8     0  1124  1123  1244  1255
 5585     4     3     8     8     0  1124  1123  1255  1135
 5586     4     3     8     8     0  1123  1255  1135  1134
 5587     4     3     8     8     0  1246  1125  1245  1257
 5588     4     3     8     8     0  1125  1245  1257  1256
 5589     4     3     8     8     0  1125  1256  1257  1136
 5590     4     3     8     8     0  1125  1124  1245  1256
 5591     4     3     8     8     0  1125  1124  1256  1136
 5592     4     3     8     8     0  1124  1256  1136  1135
 5593     4     3     8     8     0  1247  1126  1246  1258
 5594     4     3     8     8     0  1126  1246  1258  1257
 5595     4     3     8     8     0  1126  1257  1258  1137
 5596     4     3     8     8     0  1126  1125  1246  1257
 5597     4     3     8     8     0  1126  1125  1257  1137
 5598     4     3     8     8     0  1125  1257  1137  1136
 5599     4     3     8     8     0  1248  1127  1247  1259
 5600     4     3     8     8     0  1127  1247  1259  1258
 5601     4     3     8     8     0  1127  1258  1259  1138
 5602     4     3     8     8     0  1127  1126  1247  1258
 5603     4     3     8     8     0  1127  1126  1258  1138
 5604     4     3     8     8     0  1126  1258  1138  1137
 5605     4     3     8     8     0  1249  1128  1248  1260
 5606     4     3     8     8     0  1128  1248  1260  1259
 5607     4     3     8     8     0  1128  1259  1260  1139
 5608     4     3     8     8     0  1128  1127  1248  1259
 5609     4     3     8     8     0  1128  1127  1259  1139
 5610     4     3     8     8     0  1127  1259  1139  1138
 5611     4     3     8     8     0  1250  1129  1249  1261
 5612     4     3     8     8     0  1129  1249  1261  1260
 5613     4     3     8     8     0  1129  1260  1261  1140
 5614     4     3     8     8     0  1129  1128  1249  1260
 5615     4     3     8     8     0  1129  1128  1260  1140
 5616     4     3     8     8     0  1128  1260  1140  1139
 5641     4     3     8     8     0  1256  1135  1255  1267
 5642     4     3     8     8     0  1135  1255  1267  1266
 5643     4     3     8     8     0  1135  1266  1267  1146
 5644     4     3     8     8     0  1135  1134  1255  1266
 5645     4     3     8     8     0  1135  1134  1266  1146
 5646     4     3     8     8     0  1134  1266  1146  1145
 5647     4     3     8     8     0  1257  1136  1256  1268
 5648     4     3     8     8     0  1136  1256  1268  1267
 5649     4     3     8     8     0  1136  1267  1268  1147
 5650     4     3     8     8     0  1136  1135  1256  1267
 5651     4     3     8     8     0  1136  1135  1267  1147
 5652     4     3     8     8     0  1135  1267  1147  1146
 5653     4     3     8     8     0  1258  1137  1257  1269
 5654     4     3     8     8     0  1137  1257  1269  1268
 5655     4     3     8     8     0  1137  1268  1269  1148
 5656     4     3     8     8     0  1137  1136  1257  1268
 5657     4     3     8     8     0  1137  1136  1268  1148
 5658     4     3     8     8     0  1136  1268  1148  1147
 5659     4     3     8     8     0  1259  1138  1258  1270
 5660     4     3     8     8     0  1138  1258  1270  1269
 5661     4     3     8     8     0  1138  1269  1270  1149
 5662     4     3     8     8     0  1138  1137  1258  1269
 5663     4     3     8     8     0  1138  1137  1269  1149
 5664     4     3     8     8     0  1137  1269  1149  1148
 5665     4     3     8     8     0  1260  1139  1259  1271
 5666     4     3     8     8     0  1139  1259  1271  1270
 5667     4     3     8     8     0  1139  1270  1271  1150
 5668     4     3     8     8     0  1139  1138  1259  1270
 5669     4     3     8     8     0  1139  1138  1270  1150
 5670     4     3     8     8     0  1138  1270  1150  1149
 5671     4     3     8     8     0  1261  1140  1260  1272
 5672     4     3     8     8     0  1140  1260  1272  1271
 5673     4     3     8     8     0  1140  1271  1272  1151
 5674     4     3     8     8     0  1140  1139  1260  1271
 5675     4     3     8     8     0  1140  1139  1271  1151
 5676     4     3     8     8     0  1139  1271  1151  1150
 5701     4     3     8     8     0  1267  1146  1266  1278
 5702     4     3     8     8     0  1146  1266  1278  1277
 5703     4     3     8     8     0  1146  1277  1278  1157
 5704     4     3     8     8     0  1146  1145  1266  1277
 5705     4     3     8     8     0  1146  1145  1277  1157
 5706     4     3     8     8     0  1145  1277  1157  1156
 5707     4     3     8     8     0  1268  1147  1267  1279
 5708     4     3     8     8     0  1147  1267  1279  1278
 5709     4     3     8     8     0  1147  1278  1279  1158
 5710     4     3     8     8     0  1147  1146  1267  1278
 5711     4     3     8     8     0  1147  1146  1278  1158
 5712     4     3     8     8     0  1146  1278  1158  1157
 5713     4     3     8     8     0  1269  1148  1268  1280
 5714     4     3     8     8     0  1148  1268  1280  1279
 5715     4     3     8     8     0  1148  1279  1280  1159
 5716     4     3     8     8     0  1148  1147  1268  1279
 5717     4     3     8     8     0  1148  1147  1279  1159
 5718     4     3     8     8     0  1147  1279  1159  1158
 5719     4     3     8     8     0  1270  1149  1269  1281
 5720     4     3     8     8     0  1149  1269  1281  1280
 5721     4     3     8     8     0  1149  1280  1281  1160
 5722     4     3     8     8     0  1149  1148  1269  1280
 5723     4     3     8     8     0  1149  1148  1280  1160
 5724     4     3     8     8     0  1148  1280  1160  1159
 5725     4     3     8     8     0  1271  1150  1270  1282
 5726     4     3     8     8     0  1150  1270  1282  1281
 5727     4     3     8     8     0  1150  1281  1282  1161
 5728     4     3     8     8     0  1150  1149  1270  1281
 5729     4     3     8     8     0  1150  1149  1281  1161
 5730     4     3     8     8     0  1149  1281  1161  1160
 5731     4     3     8     8     0  1272  1151  1271  1283
 5732     4     3     8     8     0  1151  1271  1283  1282
 5733     4     3     8     8     0  1151  1282  1283  1162
 5734     4     3     8     8     0  1151  1150  1271  1282
 5735     4     3     8     8     0  1151  1150  1282  1162
 5736     4     3     8     8     0  1150  1282  1162  1161
 5761     4     3     8     8     0  1278  1157  1277  1289
 5762     4     3     8     8     0  1157  1277  1289  1288
 5763     4     3     8     8     0  1157  1288  1289  1168
 5764     4     3     8     8     0  1157  1156  1277  1288
 5765     4     3     8     8     0  1157  1156  1288  1168
 5766     4     3     8     8     0  1156  1288  1168  1167
 5767     4     3     8     8     0  1279  1158  1278  1290
 5768     4     3     8     8     0  1158  1278  1290  1289
 5769     4     3     8     8     0  1158  1289  1290  1169
 5770     4     3     8     8     0  1158  1157  1278  1289
 5771     4     3     8     8     0  1158  1157  1289  1169
 5772     4     3     8     8     0  1157  1289  1169  1168
 5773     4     3     8     8     0  1280  1159  1279  1291
 5774     4     3     8     8     0  1159  1279  1291  1290
 5775     4     3     8     8     0  1159  1290  1291  1170
 5776     4     3     8     8     0  1159  1158  1279  1290
 5777     4     3     8     8     0  1159  1158  1290  1170
 5778     4     3     8     8     0  1158  1290  1170  1169
 5779     4     3     8     8     0  1281  1160  1280  1292
 5780     4     3     8     8     0  1160  1280  1292  1291
 5781     4     3     8     8     0  1160  1291  1292  1171
 5782     4     3     8     8     0  1160  1159  1280  1291
 5783     4     3     8     8     0  1160  1159  1291  1171
 5784     4     3     8     8     0  1159  1291  1171  1170
 5839     4     3     8     8     0  1292  1171  1291  1303
 5840     4     3     8     8     0  1171  1291  1303  1302
 5841     4     3     8     8     0  1171  1302  1303  1182
 5842     4     3     8     8     0  1171  1170  1291  1302
 5843     4     3     8     8     0  1171  1170  1302  1182
 5844     4     3     8     8     0  1170  1302  1182  1181
$EndElements
