$MeshFormat
2.2 0 8
$EndMeshFormat
$Nodes
146
709 4.000000 9.000000 5.000000
710 5.000000 9.000000 5.000000
711 6.000000 9.000000 5.000000
720 4.000000 10.000000 5.000000
721 5.000000 10.000000 5.000000
722 6.000000 10.000000 5.000000
798 5.000000 6.000000 6.000000
799 6.000000 6.000000 6.000000
800 7.000000 6.000000 6.000000
808 4.000000 7.000000 6.000000
809 5.000000 7.000000 6.000000
810 6.000000 7.000000 6.000000
811 7.000000 7.000000 6.000000
819 4.000000 8.000000 6.000000
820 5.000000 8.000000 6.000000
821 6.000000 8.000000 6.000000
822 7.000000 8.000000 6.000000
830 4.000000 9.000000 6.000000
831 5.000000 9.000000 6.000000
832 6.000000 9.000000 6.000000
833 7.000000 9.000000 6.000000
841 4.000000 10.000000 6.000000
842 5.000000 10.000000 6.000000
843 6.000000 10.000000 6.000000
844 7.000000 10.000000 6.000000
918 4.000000 6.000000 7.000000
919 5.000000 6.000000 7.000000
920 6.000000 6.000000 7.000000
921 7.000000 6.000000 7.000000
929 4.000000 7.000000 7.000000
930 5.000000 7.000000 7.000000
931 6.000000 7.000000 7.000000
932 7.000000 7.000000 7.000000
933 8.000000 7.000000 7.000000
940 4.000000 8.000000 7.000000
941 5.000000 8.000000 7.000000
942 6.000000 8.000000 7.000000
943 7.000000 8.000000 7.000000
944 8.000000 8.000000 7.000000
951 4.000000 9.000000 7.000000
952 5.000000 9.000000 7.000000
953 6.000000 9.000000 7.000000
954 7.000000 9.000000 7.000000
955 8.000000 9.000000 7.000000
962 4.000000 10.000000 7.000000
963 5.000000 10.000000 7.000000
964 6.000000 10.000000 7.000000
965 7.000000 10.000000 7.000000
966 8.000000 10.000000 7.000000
1039 4.000000 6.000000 8.000000
1040 5.000000 6.000000 8.000000
1041 6.000000 6.000000 8.000000
1042 7.000000 6.000000 8.000000
1043 8.000000 6.000000 8.000000
1050 4.000000 7.000000 8.000000
1051 5.000000 7.000000 8.000000
1052 6.000000 7.000000 8.000000
1053 7.000000 7.000000 8.000000
1054 8.000000 7.000000 8.000000
1055 9.000000 7.000000 8.000000
1061 4.000000 8.000000 8.000000
1062 5.000000 8.000000 8.000000
1063 6.000000 8.000000 8.000000
1064 7.000000 8.000000 8.000000
1065 8.000000 8.000000 8.000000
1066 9.000000 8.000000 8.000000
1072 4.000000 9.000000 8.000000
1073 5.000000 9.000000 8.000000
1074 6.000000 9.000000 8.000000
1075 7.000000 9.000000 8.000000
1076 8.000000 9.000000 8.000000
1077 9.000000 9.000000 8.000000
1083 4.000000 10.000000 8.000000
1084 5.000000 10.000000 8.000000
1085 6.000000 10.000000 8.000000
1086 7.000000 10.000000 8.000000
1087 8.000000 10.000000 8.000000
1088 9.000000 10.000000 8.000000
1151 6.000000 5.000000 9.000000
1152 7.000000 5.000000 9.000000
1160 4.000000 6.000000 9.000000
1161 5.000000 6.000000 9.000000
1162 6.000000 6.000000 9.000000
1163 7.000000 6.000000 9.000000
1164 8.000000 6.000000 9.000000
1171 4.000000 7.000000 9.000000
1172 5.000000 7.000000 9.000000
1173 6.000000 7.000000 9.000000
1174 7.000000 7.000000 9.000000
1175 8.000000 7.000000 9.000000
1176 9.000000 7.000000 9.000000
1182 4.000000 8.000000 9.000000
1183 5.000000 8.000000 9.000000
1184 6.000000 8.000000 9.000000
1185 7.000000 8.000000 9.000000
1186 8.000000 8.000000 9.000000
1187 9.000000 8.000000 9.000000
1188 10.000000 8.000000 9.000000
1193 4.000000 9.000000 9.000000
1194 5.000000 9.000000 9.000000
1195 6.000000 9.000000 9.000000
1196 7.000000 9.000000 9.000000
1197 8.000000 9.000000 9.000000
1198 9.000000 9.000000 9.000000
1199 10.000000 9.000000 9.000000
1204 4.000000 10.000000 9.000000
1205 5.000000 10.000000 9.000000
1206 6.000000 10.000000 9.000000
1207 7.000000 10.000000 9.000000
1208 8.000000 10.000000 9.000000
1209 9.000000 10.000000 9.000000
1210 10.000000 10.000000 9.000000
1272 6.000000 5.000000 10.000000
1273 7.000000 5.000000 10.000000
1281 4.000000 6.000000 10.000000
1282 5.000000 6.000000 10.000000
1283 6.000000 6.000000 10.000000
1284 7.000000 6.000000 10.000000
1285 8.000000 6.000000 10.000000
1292 4.000000 7.000000 10.000000
1293 5.000000 7.000000 10.000000
1294 6.000000 7.000000 10.000000
1295 7.000000 7.000000 10.000000
1296 8.000000 7.000000 10.000000
1297 9.000000 7.000000 10.000000
1303 4.000000 8.000000 10.000000
1304 5.000000 8.000000 10.000000
1305 6.000000 8.000000 10.000000
1306 7.000000 8.000000 10.000000
1307 8.000000 8.000000 10.000000
1308 9.000000 8.000000 10.000000
1309 10.000000 8.000000 10.000000
1314 4.000000 9.000000 10.000000
1315 5.000000 9.000000 10.000000
1316 6.000000 9.000000 10.000000
1317 7.000000 9.000000 10.000000
1318 8.000000 9.000000 10.000000
1319 9.000000 9.000000 10.000000
1320 10.000000 9.000000 10.000000
1325 4.000000 10.000000 10.000000
1326 5.000000 10.000000 10.000000
1327 6.000000 10.000000 10.000000
1328 7.000000 10.000000 10.000000
1329 8.000000 10.000000 10.000000
1330 9.000000 10.000000 10.000000
1331 10.000000 10.000000 10.000000
$EndNodes
$Elements
414
 3565     4     3     2     2     0   831   710   830   842
 3566     4     3     2     2     0   710   830   842   841
 3567     4     3     2     2     0   710   841   842   721
 3568     4     3     2     2     0   710   709   830   841
 3569     4     3     2     2     0   710   709   841   721
 3570     4     3     2     2     0   709   841   721   720
 3571     4     3     2     2     0   832   711   831   843
 3572     4     3     2     2     0   711   831   843   842
 3573     4     3     2     2     0   711   842   843   722
 3574     4     3     2     2     0   711   710   831   842
 3575     4     3     2     2     0   711   710   842   722
 3576     4     3     2     2     0   710   842   722   721
 3991     4     3     2     2     0   920   799   919   931
 3992     4     3     2     2     0   799   919   931   930
 3993     4     3     2     2     0   799   930   931   810
 3994     4     3     2     2     0   799   798   919   930
 3995     4     3     2     2     0   799   798   930   810
 3996     4     3     2     2     0   798   930   810   809
 3997     4     3     2     2     0   921   800   920   932
 3998     4     3     2     2     0   800   920   932   931
 3999     4     3     2     2     0   800   931   932   811
 4000     4     3     2     2     0   800   799   920   931
 4001     4     3     2     2     0   800   799   931   811
 4002     4     3     2     2     0   799   931   811   810
 4045     4     3     2     2     0   930   809   929   941
 4046     4     3     2     2     0   809   929   941   940
 4047     4     3     2     2     0   809   940   941   820
 4048     4     3     2     2     0   809   808   929   940
 4049     4     3     2     2     0   809   808   940   820
 4050     4     3     2     2     0   808   940   820   819
 4051     4     3     2     2     0   931   810   930   942
 4052     4     3     2     2     0   810   930   942   941
 4053     4     3     2     2     0   810   941   942   821
 4054     4     3     2     2     0   810   809   930   941
 4055     4     3     2     2     0   810   809   941   821
 4056     4     3     2     2     0   809   941   821   820
 4057     4     3     2     2     0   932   811   931   943
 4058     4     3     2     2     0   811   931   943   942
 4059     4     3     2     2     0   811   942   943   822
 4060     4     3     2     2     0   811   810   931   942
 4061     4     3     2     2     0   811   810   942   822
 4062     4     3     2     2     0   810   942   822   821
 4105     4     3     2     2     0   941   820   940   952
 4106     4     3     2     2     0   820   940   952   951
 4107     4     3     2     2     0   820   951   952   831
 4108     4     3     2     2     0   820   819   940   951
 4109     4     3     2     2     0   820   819   951   831
 4110     4     3     2     2     0   819   951   831   830
 4111     4     3     2     2     0   942   821   941   953
 4112     4     3     2     2     0   821   941   953   952
 4113     4     3     2     2     0   821   952   953   832
 4114     4     3     2     2     0   821   820   941   952
 4115     4     3     2     2     0   821   820   952   832
 4116     4     3     2     2     0   820   952   832   831
 4117     4     3     2     2     0   943   822   942   954
 4118     4     3     2     2     0   822   942   954   953
 4119     4     3     2     2     0   822   953   954   833
 4120     4     3     2     2     0   822   821   942   953
 4121     4     3     2     2     0   822   821   953   833
 4122     4     3     2     2     0   821   953   833   832
 4165     4     3     2     2     0   952   831   951   963
 4166     4     3     2     2     0   831   951   963   962
 4167     4     3     2     2     0   831   962   963   842
 4168     4     3     2     2     0   831   830   951   962
 4169     4     3     2     2     0   831   830   962   842
 4170     4     3     2     2     0   830   962   842   841
 4171     4     3     2     2     0   953   832   952   964
 4172     4     3     2     2     0   832   952   964   963
 4173     4     3     2     2     0   832   963   964   843
 4174     4     3     2     2     0   832   831   952   963
 4175     4     3     2     2     0   832   831   963   843
 4176     4     3     2     2     0   831   963   843   842
 4177     4     3     2     2     0   954   833   953   965
 4178     4     3     2     2     0   833   953   965   964
 4179     4     3     2     2     0   833   964   965   844
 4180     4     3     2     2     0   833   832   953   964
 4181     4     3     2     2     0   833   832   964   844
 4182     4     3     2     2     0   832   964   844   843
 4585     4     3     2     2     0  1040   919  1039  1051
 4586     4     3     2     2     0   919  1039  1051  1050
 4587     4     3     2     2     0   919  1050  1051   930
 4588     4     3     2     2     0   919   918  1039  1050
 4589     4     3     2     2     0   919   918  1050   930
 4590     4     3     2     2     0   918  1050   930   929
 4591     4     3     2     2     0  1041   920  1040  1052
 4592     4     3     2     2     0   920  1040  1052  1051
 4593     4     3     2     2     0   920  1051  1052   931
 4594     4     3     2     2     0   920   919  1040  1051
 4595     4     3     2     2     0   920   919  1051   931
 4596     4     3     2     2     0   919  1051   931   930
 4597     4     3     2     2     0  1042   921  1041  1053
 4598     4     3     2     2     0   921  1041  1053  1052
 4599     4     3     2     2     0   921  1052  1053   932
 4600     4     3     2     2     0   921   920  1041  1052
 4601     4     3     2     2     0   921   920  1052   932
 4602     4     3     2     2     0   920  1052   932   931
 4645     4     3     2     2     0  1051   930  1050  1062
 4646     4     3     2     2     0   930  1050  1062  1061
 4647     4     3     2     2     0   930  1061  1062   941
 4648     4     3     2     2     0   930   929  1050  1061
 4649     4     3     2     2     0   930   929  1061   941
 4650     4     3     2     2     0   929  1061   941   940
 4651     4     3     2     2     0  1052   931  1051  1063
 4652     4     3     2     2     0   931  1051  1063  1062
 4653     4     3     2     2     0   931  1062  1063   942
 4654     4     3     2     2     0   931   930  1051  1062
 4655     4     3     2     2     0   931   930  1062   942
 4656     4     3     2     2     0   930  1062   942   941
 4657     4     3     2     2     0  1053   932  1052  1064
 4658     4     3     2     2     0   932  1052  1064  1063
 4659     4     3     2     2     0   932  1063  1064   943
 4660     4     3     2     2     0   932   931  1052  1063
 4661     4     3     2     2     0   932   931  1063   943
 4662     4     3     2     2     0   931  1063   943   942
 4663     4     3     2     2     0  1054   933  1053  1065
 4664     4     3     2     2     0   933  1053  1065  1064
 4665     4     3     2     2     0   933  1064  1065   944
 4666     4     3     2     2     0   933   932  1053  1064
 4667     4     3     2     2     0   933   932  1064   944
 4668     4     3     2     2     0   932  1064   944   943
 4705     4     3     2     2     0  1062   941  1061  1073
 4706     4     3     2     2     0   941  1061  1073  1072
 4707     4     3     2     2     0   941  1072  1073   952
 4708     4     3     2     2     0   941   940  1061  1072
 4709     4     3     2     2     0   941   940  1072   952
 4710     4     3     2     2     0   940  1072   952   951
 4711     4     3     2     2     0  1063   942  1062  1074
 4712     4     3     2     2     0   942  1062  1074  1073
 4713     4     3     2     2     0   942  1073  1074   953
 4714     4     3     2     2     0   942   941  1062  1073
 4715     4     3     2     2     0   942   941  1073   953
 4716     4     3     2     2     0   941  1073   953   952
 4717     4     3     2     2     0  1064   943  1063  1075
 4718     4     3     2     2     0   943  1063  1075  1074
 4719     4     3     2     2     0   943  1074  1075   954
 4720     4     3     2     2     0   943   942  1063  1074
 4721     4     3     2     2     0   943   942  1074   954
 4722     4     3     2     2     0   942  1074   954   953
 4723     4     3     2     2     0  1065   944  1064  1076
 4724     4     3     2     2     0   944  1064  1076  1075
 4725     4     3     2     2     0   944  1075  1076   955
 4726     4     3     2     2     0   944   943  1064  1075
 4727     4     3     2     2     0   944   943  1075   955
 4728     4     3     2     2     0   943  1075   955   954
 4765     4     3     2     2     0  1073   952  1072  1084
 4766     4     3     2     2     0   952  1072  1084  1083
 4767     4     3     2     2     0   952  1083  1084   963
 4768     4     3     2     2     0   952   951  1072  1083
 4769     4     3     2     2     0   952   951  1083   963
 4770     4     3     2     2     0   951  1083   963   962
 4771     4     3     2     2     0  1074   953  1073  1085
 4772     4     3     2     2     0   953  1073  1085  1084
 4773     4     3     2     2     0   953  1084  1085   964
 4774     4     3     2     2     0   953   952  1073  1084
 4775     4     3     2     2     0   953   952  1084   964
 4776     4     3     2     2     0   952  1084   964   963
 4777     4     3     2     2     0  1075   954  1074  1086
 4778     4     3     2     2     0   954  1074  1086  1085
 4779     4     3     2     2     0   954  1085  1086   965
 4780     4     3     2     2     0   954   953  1074  1085
 4781     4     3     2     2     0   954   953  1085   965
 4782     4     3     2     2     0   953  1085   965   964
 4783     4     3     2     2     0  1076   955  1075  1087
 4784     4     3     2     2     0   955  1075  1087  1086
 4785     4     3     2     2     0   955  1086  1087   966
 4786     4     3     2     2     0   955   954  1075  1086
 4787     4     3     2     2     0   955   954  1086   966
 4788     4     3     2     2     0   954  1086   966   965
 5185     4     3     2     2     0  1161  1040  1160  1172
 5186     4     3     2     2     0  1040  1160  1172  1171
 5187     4     3     2     2     0  1040  1171  1172  1051
 5188     4     3     2     2     0  1040  1039  1160  1171
 5189     4     3     2     2     0  1040  1039  1171  1051
 5190     4     3     2     2     0  1039  1171  1051  1050
 5191     4     3     2     2     0  1162  1041  1161  1173
 5192     4     3     2     2     0  1041  1161  1173  1172
 5193     4     3     2     2     0  1041  1172  1173  1052
 5194     4     3     2     2     0  1041  1040  1161  1172
 5195     4     3     2     2     0  1041  1040  1172  1052
 5196     4     3     2     2     0  1040  1172  1052  1051
 5197     4     3     2     2     0  1163  1042  1162  1174
 5198     4     3     2     2     0  1042  1162  1174  1173
 5199     4     3     2     2     0  1042  1173  1174  1053
 5200     4     3     2     2     0  1042  1041  1162  1173
 5201     4     3     2     2     0  1042  1041  1173  1053
 5202     4     3     2     2     0  1041  1173  1053  1052
 5203     4     3     2     2     0  1164  1043  1163  1175
 5204     4     3     2     2     0  1043  1163  1175  1174
 5205     4     3     2     2     0  1043  1174  1175  1054
 5206     4     3     2     2     0  1043  1042  1163  1174
 5207     4     3     2     2     0  1043  1042  1174  1054
 5208     4     3     2     2     0  1042  1174  1054  1053
 5245     4     3     2     2     0  1172  1051  1171  1183
 5246     4     3     2     2     0  1051  1171  1183  1182
 5247     4     3     2     2     0  1051  1182  1183  1062
 5248     4     3     2     2     0  1051  1050  1171  1182
 5249     4     3     2     2     0  1051  1050  1182  1062
 5250     4     3     2     2     0  1050  1182  1062  1061
 5251     4     3     2     2     0  1173  1052  1172  1184
 5252     4     3     2     2     0  1052  1172  1184  1183
 5253     4     3     2     2     0  1052  1183  1184  1063
 5254     4     3     2     2     0  1052  1051  1172  1183
 5255     4     3     2     2     0  1052  1051  1183  1063
 5256     4     3     2     2     0  1051  1183  1063  1062
 5257     4     3     2     2     0  1174  1053  1173  1185
 5258     4     3     2     2     0  1053  1173  1185  1184
 5259     4     3     2     2     0  1053  1184  1185  1064
 5260     4     3     2     2     0  1053  1052  1173  1184
 5261     4     3     2     2     0  1053  1052  1184  1064
 5262     4     3     2     2     0  1052  1184  1064  1063
 5263     4     3     2     2     0  1175  1054  1174  1186
 5264     4     3     2     2     0  1054  1174  1186  1185
 5265     4     3     2     2     0  1054  1185  1186  1065
 5266     4     3     2     2     0  1054  1053  1174  1185
 5267     4     3     2     2     0  1054  1053  1185  1065
 5268     4     3     2     2     0  1053  1185  1065  1064
 5269     4     3     2     2     0  1176  1055  1175  1187
 5270     4     3     2     2     0  1055  1175  1187  1186
 5271     4     3     2     2     0  1055  1186  1187  1066
 5272     4     3     2     2     0  1055  1054  1175  1186
 5273     4     3     2     2     0  1055  1054  1186  1066
 5274     4     3     2     2     0  1054  1186  1066  1065
 5305     4     3     2     2     0  1183  1062  1182  1194
 5306     4     3     2     2     0  1062  1182  1194  1193
 5307     4     3     2     2     0  1062  1193  1194  1073
 5308     4     3     2     2     0  1062  1061  1182  1193
 5309     4     3     2     2     0  1062  1061  1193  1073
 5310     4     3     2     2     0  1061  1193  1073  1072
 5311     4     3     2     2     0  1184  1063  1183  1195
 5312     4     3     2     2     0  1063  1183  1195  1194
 5313     4     3     2     2     0  1063  1194  1195  1074
 5314     4     3     2     2     0  1063  1062  1183  1194
 5315     4     3     2     2     0  1063  1062  1194  1074
 5316     4     3     2     2     0  1062  1194  1074  1073
 5317     4     3     2     2     0  1185  1064  1184  1196
 5318     4     3     2     2     0  1064  1184  1196  1195
 5319     4     3     2     2     0  1064  1195  1196  1075
 5320     4     3     2     2     0  1064  1063  1184  1195
 5321     4     3     2     2     0  1064  1063  1195  1075
 5322     4     3     2     2     0  1063  1195  1075  1074
 5323     4     3     2     2     0  1186  1065  1185  1197
 5324     4     3     2     2     0  1065  1185  1197  1196
 5325     4     3     2     2     0  1065  1196  1197  1076
 5326     4     3     2     2     0  1065  1064  1185  1196
 5327     4     3     2     2     0  1065  1064  1196  1076
 5328     4     3     2     2     0  1064  1196  1076  1075
 5329     4     3     2     2     0  1187  1066  1186  1198
 5330     4     3     2     2     0  1066  1186  1198  1197
 5331     4     3     2     2     0  1066  1197  1198  1077
 5332     4     3     2     2     0  1066  1065  1186  1197
 5333     4     3     2     2     0  1066  1065  1197  1077
 5334     4     3     2     2     0  1065  1197  1077  1076
 5365     4     3     2     2     0  1194  1073  1193  1205
 5366     4     3     2     2     0  1073  1193  1205  1204
 5367     4     3     2     2     0  1073  1204  1205  1084
 5368     4     3     2     2     0  1073  1072  1193  1204
 5369     4     3     2     2     0  1073  1072  1204  1084
 5370     4     3     2     2     0  1072  1204  1084  1083
 5371     4     3     2     2     0  1195  1074  1194  1206
 5372     4     3     2     2     0  1074  1194  1206  1205
 5373     4     3     2     2     0  1074  1205  1206  1085
 5374     4     3     2     2     0  1074  1073  1194  1205
 5375     4     3     2     2     0  1074  1073  1205  1085
 5376     4     3     2     2     0  1073  1205  1085  1084
 5377     4     3     2     2     0  1196  1075  1195  1207
 5378     4     3     2     2     0  1075  1195  1207  1206
 5379     4     3     2     2     0  1075  1206  1207  1086
 5380     4     3     2     2     0  1075  1074  1195  1206
 5381     4     3     2     2     0  1075  1074  1206  1086
 5382     4     3     2     2     0  1074  1206  1086  1085
 5383     4     3     2     2     0  1197  1076  1196  1208
 5384     4     3     2     2     0  1076  1196  1208  1207
 5385     4     3     2     2     0  1076  1207  1208  1087
 5386     4     3     2     2     0  1076  1075  1196  1207
 5387     4     3     2     2     0  1076  1075  1207  1087
 5388     4     3     2     2     0  1075  1207  1087  1086
 5389     4     3     2     2     0  1198  1077  1197  1209
 5390     4     3     2     2     0  1077  1197  1209  1208
 5391     4     3     2     2     0  1077  1208  1209  1088
 5392     4     3     2     2     0  1077  1076  1197  1208
 5393     4     3     2     2     0  1077  1076  1208  1088
 5394     4     3     2     2     0  1076  1208  1088  1087
 5737     4     3     2     2     0  1273  1152  1272  1284
 5738     4     3     2     2     0  1152  1272  1284  1283
 5739     4     3     2     2     0  1152  1283  1284  1163
 5740     4     3     2     2     0  1152  1151  1272  1283
 5741     4     3     2     2     0  1152  1151  1283  1163
 5742     4     3     2     2     0  1151  1283  1163  1162
 5785     4     3     2     2     0  1282  1161  1281  1293
 5786     4     3     2     2     0  1161  1281  1293  1292
 5787     4     3     2     2     0  1161  1292  1293  1172
 5788     4     3     2     2     0  1161  1160  1281  1292
 5789     4     3     2     2     0  1161  1160  1292  1172
 5790     4     3     2     2     0  1160  1292  1172  1171
 5791     4     3     2     2     0  1283  1162  1282  1294
 5792     4     3     2     2     0  1162  1282  1294  1293
 5793     4     3     2     2     0  1162  1293  1294  1173
 5794     4     3     2     2     0  1162  1161  1282  1293
 5795     4     3     2     2     0  1162  1161  1293  1173
 5796     4     3     2     2     0  1161  1293  1173  1172
 5797     4     3     2     2     0  1284  1163  1283  1295
 5798     4     3     2     2     0  1163  1283  1295  1294
 5799     4     3     2     2     0  1163  1294  1295  1174
 5800     4     3     2     2     0  1163  1162  1283  1294
 5801     4     3     2     2     0  1163  1162  1294  1174
 5802     4     3     2     2     0  1162  1294  1174  1173
 5803     4     3     2     2     0  1285  1164  1284  1296
 5804     4     3     2     2     0  1164  1284  1296  1295
 5805     4     3     2     2     0  1164  1295  1296  1175
 5806     4     3     2     2     0  1164  1163  1284  1295
 5807     4     3     2     2     0  1164  1163  1295  1175
 5808     4     3     2     2     0  1163  1295  1175  1174
 5845     4     3     2     2     0  1293  1172  1292  1304
 5846     4     3     2     2     0  1172  1292  1304  1303
 5847     4     3     2     2     0  1172  1303  1304  1183
 5848     4     3     2     2     0  1172  1171  1292  1303
 5849     4     3     2     2     0  1172  1171  1303  1183
 5850     4     3     2     2     0  1171  1303  1183  1182
 5851     4     3     2     2     0  1294  1173  1293  1305
 5852     4     3     2     2     0  1173  1293  1305  1304
 5853     4     3     2     2     0  1173  1304  1305  1184
 5854     4     3     2     2     0  1173  1172  1293  1304
 5855     4     3     2     2     0  1173  1172  1304  1184
 5856     4     3     2     2     0  1172  1304  1184  1183
 5857     4     3     2     2     0  1295  1174  1294  1306
 5858     4     3     2     2     0  1174  1294  1306  1305
 5859     4     3     2     2     0  1174  1305  1306  1185
 5860     4     3     2     2     0  1174  1173  1294  1305
 5861     4     3     2     2     0  1174  1173  1305  1185
 5862     4     3     2     2     0  1173  1305  1185  1184
 5863     4     3     2     2     0  1296  1175  1295  1307
 5864     4     3     2     2     0  1175  1295  1307  1306
 5865     4     3     2     2     0  1175  1306  1307  1186
 5866     4     3     2     2     0  1175  1174  1295  1306
 5867     4     3     2     2     0  1175  1174  1306  1186
 5868     4     3     2     2     0  1174  1306  1186  1185
 5869     4     3     2     2     0  1297  1176  1296  1308
 5870     4     3     2     2     0  1176  1296  1308  1307
 5871     4     3     2     2     0  1176  1307  1308  1187
 5872     4     3     2     2     0  1176  1175  1296  1307
 5873     4     3     2     2     0  1176  1175  1307  1187
 5874     4     3     2     2     0  1175  1307  1187  1186
 5905     4     3     2     2     0  1304  1183  1303  1315
 5906     4     3     2     2     0  1183  1303  1315  1314
 5907     4     3     2     2     0  1183  1314  1315  1194
 5908     4     3     2     2     0  1183  1182  1303  1314
 5909     4     3     2     2     0  1183  1182  1314  1194
 5910     4     3     2     2     0  1182  1314  1194  1193
 5911     4     3     2     2     0  1305  1184  1304  1316
 5912     4     3     2     2     0  1184  1304  1316  1315
 5913     4     3     2     2     0  1184  1315  1316  1195
 5914     4     3     2     2     0  1184  1183  1304  1315
 5915     4     3     2     2     0  1184  1183  1315  1195
 5916     4     3     2     2     0  1183  1315  1195  1194
 5917     4     3     2     2     0  1306  1185  1305  1317
 5918     4     3     2     2     0  1185  1305  1317  1316
 5919     4     3     2     2     0  1185  1316  1317  1196
 5920     4     3     2     2     0  1185  1184  1305  1316
 5921     4     3     2     2     0  1185  1184  1316  1196
 5922     4     3     2     2     0  1184  1316  1196  1195
 5923     4     3     2     2     0  1307  1186  1306  1318
 5924     4     3     2     2     0  1186  1306  1318  1317
 5925     4     3     2     2     0  1186  1317  1318  1197
 5926     4     3     2     2     0  1186  1185  1306  1317
 5927     4     3     2     2     0  1186  1185  1317  1197
 5928     4     3     2     2     0  1185  1317  1197  1196
 5929     4     3     2     2     0  1308  1187  1307  1319
 5930     4     3     2     2     0  1187  1307  1319  1318
 5931     4     3     2     2     0  1187  1318  1319  1198
 5932     4     3     2     2     0  1187  1186  1307  1318
 5933     4     3     2     2     0  1187  1186  1318  1198
 5934     4     3     2     2     0  1186  1318  1198  1197
 5935     4     3     2     2     0  1309  1188  1308  1320
 5936     4     3     2     2     0  1188  1308  1320  1319
 5937     4     3     2     2     0  1188  1319  1320  1199
 5938     4     3     2     2     0  1188  1187  1308  1319
 5939     4     3     2     2     0  1188  1187  1319  1199
 5940     4     3     2     2     0  1187  1319  1199  1198
 5965     4     3     2     2     0  1315  1194  1314  1326
 5966     4     3     2     2     0  1194  1314  1326  1325
 5967     4     3     2     2     0  1194  1325  1326  1205
 5968     4     3     2     2     0  1194  1193  1314  1325
 5969     4     3     2     2     0  1194  1193  1325  1205
 5970     4     3     2     2     0  1193  1325  1205  1204
 5971     4     3     2     2     0  1316  1195  1315  1327
 5972     4     3     2     2     0  1195  1315  1327  1326
 5973     4     3     2     2     0  1195  1326  1327  1206
 5974     4     3     2     2     0  1195  1194  1315  1326
 5975     4     3     2     2     0  1195  1194  1326  1206
 5976     4     3     2     2     0  1194  1326  1206  1205
 5977     4     3     2     2     0  1317  1196  1316  1328
 5978     4     3     2     2     0  1196  1316  1328  1327
 5979     4     3     2     2     0  1196  1327  1328  1207
 5980     4     3     2     2     0  1196  1195  1316  1327
 5981     4     3     2     2     0  1196  1195  1327  1207
 5982     4     3     2     2     0  1195  1327  1207  1206
 5983     4     3     2     2     0  1318  1197  1317  1329
 5984     4     3     2     2     0  1197  1317  1329  1328
 5985     4     3     2     2     0  1197  1328  1329  1208
 5986     4     3     2     2     0  1197  1196  1317  1328
 5987     4     3     2     2     0  1197  1196  1328  1208
 5988     4     3     2     2     0  1196  1328  1208  1207
 5989     4     3     2     2     0  1319  1198  1318  1330
 5990     4     3     2     2     0  1198  1318  1330  1329
 5991     4     3     2     2     0  1198  1329  1330  1209
 5992     4     3     2     2     0  1198  1197  1318  1329
 5993     4     3     2     2     0  1198  1197  1329  1209
 5994     4     3     2     2     0  1197  1329  1209  1208
 5995     4     3     2     2     0  1320  1199  1319  1331
 5996     4     3     2     2     0  1199  1319  1331  1330
 5997     4     3     2     2     0  1199  1330  1331  1210
 5998     4     3     2     2     0  1199  1198  1319  1330
 5999     4     3     2     2     0  1199  1198  1330  1210
 6000     4     3     2     2     0  1198  1330  1210  1209
$EndElements
