$MeshFormat
2.2 0 8
$EndMeshFormat
$Nodes
91
221 0.000000 9.000000 1.000000
222 1.000000 9.000000 1.000000
232 0.000000 10.000000 1.000000
233 1.000000 10.000000 1.000000
331 0.000000 8.000000 2.000000
332 1.000000 8.000000 2.000000
333 2.000000 8.000000 2.000000
342 0.000000 9.000000 2.000000
343 1.000000 9.000000 2.000000
344 2.000000 9.000000 2.000000
345 3.000000 9.000000 2.000000
346 4.000000 9.000000 2.000000
353 0.000000 10.000000 2.000000
354 1.000000 10.000000 2.000000
355 2.000000 10.000000 2.000000
356 3.000000 10.000000 2.000000
357 4.000000 10.000000 2.000000
452 0.000000 8.000000 3.000000
453 1.000000 8.000000 3.000000
454 2.000000 8.000000 3.000000
455 3.000000 8.000000 3.000000
456 4.000000 8.000000 3.000000
463 0.000000 9.000000 3.000000
464 1.000000 9.000000 3.000000
465 2.000000 9.000000 3.000000
466 3.000000 9.000000 3.000000
467 4.000000 9.000000 3.000000
474 0.000000 10.000000 3.000000
475 1.000000 10.000000 3.000000
476 2.000000 10.000000 3.000000
477 3.000000 10.000000 3.000000
478 4.000000 10.000000 3.000000
562 0.000000 7.000000 4.000000
563 1.000000 7.000000 4.000000
564 2.000000 7.000000 4.000000
565 3.000000 7.000000 4.000000
566 4.000000 7.000000 4.000000
573 0.000000 8.000000 4.000000
574 1.000000 8.000000 4.000000
575 2.000000 8.000000 4.000000
576 3.000000 8.000000 4.000000
577 4.000000 8.000000 4.000000
584 0.000000 9.000000 4.000000
585 1.000000 9.000000 4.000000
586 2.000000 9.000000 4.000000
587 3.000000 9.000000 4.000000
588 4.000000 9.000000 4.000000
595 0.000000 10.000000 4.000000
596 1.000000 10.000000 4.000000
597 2.000000 10.000000 4.000000
598 3.000000 10.000000 4.000000
599 4.000000 10.000000 4.000000
683 0.000000 7.000000 5.000000
684 1.000000 7.000000 5.000000
685 2.000000 7.000000 5.000000
686 3.000000 7.000000 5.000000
687 4.000000 7.000000 5.000000
694 0.000000 8.000000 5.000000
695 1.000000 8.000000 5.000000
696 2.000000 8.000000 5.000000
697 3.000000 8.000000 5.000000
698 4.000000 8.000000 5.000000
705 0.000000 9.000000 5.000000
706 1.000000 9.000000 5.000000
707 2.000000 9.000000 5.000000
708 3.000000 9.000000 5.000000
709 4.000000 9.000000 5.000000
716 0.000000 10.000000 5.000000
717 1.000000 10.000000 5.000000
718 2.000000 10.000000 5.000000
719 3.000000 10.000000 5.000000
720 4.000000 10.000000 5.000000
804 0.000000 7.000000 6.000000
805 1.000000 7.000000 6.000000
806 2.000000 7.000000 6.000000
807 3.000000 7.000000 6.000000
815 0.000000 8.000000 6.000000
816 1.000000 8.000000 6.000000
817 2.000000 8.000000 6.000000
818 3.000000 8.000000 6.000000
819 4.000000 8.000000 6.000000
826 0.000000 9.000000 6.000000
827 1.000000 9.000000 6.000000
828 2.000000 9.000000 6.000000
829 3.000000 9.000000 6.000000
830 4.000000 9.000000 6.000000
837 0.000000 10.000000 6.000000
838 1.000000 10.000000 6.000000
839 2.000000 10.000000 6.000000
840 3.000000 10.000000 6.000000
841 4.000000 10.000000 6.000000
$EndNodes
$Elements
228
 1141     4     3    13    13     0   343   222   342   354
 1142     4     3    13    13     0   222   342   354   353
 1143     4     3    13    13     0   222   353   354   233
 1144     4     3    13    13     0   222   221   342   353
 1145     4     3    13    13     0   222   221   353   233
 1146     4     3    13    13     0   221   353   233   232
 1681     4     3    13    13     0   453   332   452   464
 1682     4     3    13    13     0   332   452   464   463
 1683     4     3    13    13     0   332   463   464   343
 1684     4     3    13    13     0   332   331   452   463
 1685     4     3    13    13     0   332   331   463   343
 1686     4     3    13    13     0   331   463   343   342
 1687     4     3    13    13     0   454   333   453   465
 1688     4     3    13    13     0   333   453   465   464
 1689     4     3    13    13     0   333   464   465   344
 1690     4     3    13    13     0   333   332   453   464
 1691     4     3    13    13     0   333   332   464   344
 1692     4     3    13    13     0   332   464   344   343
 1741     4     3    13    13     0   464   343   463   475
 1742     4     3    13    13     0   343   463   475   474
 1743     4     3    13    13     0   343   474   475   354
 1744     4     3    13    13     0   343   342   463   474
 1745     4     3    13    13     0   343   342   474   354
 1746     4     3    13    13     0   342   474   354   353
 1747     4     3    13    13     0   465   344   464   476
 1748     4     3    13    13     0   344   464   476   475
 1749     4     3    13    13     0   344   475   476   355
 1750     4     3    13    13     0   344   343   464   475
 1751     4     3    13    13     0   344   343   475   355
 1752     4     3    13    13     0   343   475   355   354
 1753     4     3    13    13     0   466   345   465   477
 1754     4     3    13    13     0   345   465   477   476
 1755     4     3    13    13     0   345   476   477   356
 1756     4     3    13    13     0   345   344   465   476
 1757     4     3    13    13     0   345   344   476   356
 1758     4     3    13    13     0   344   476   356   355
 1759     4     3    13    13     0   467   346   466   478
 1760     4     3    13    13     0   346   466   478   477
 1761     4     3    13    13     0   346   477   478   357
 1762     4     3    13    13     0   346   345   466   477
 1763     4     3    13    13     0   346   345   477   357
 1764     4     3    13    13     0   345   477   357   356
 2281     4     3    13    13     0   574   453   573   585
 2282     4     3    13    13     0   453   573   585   584
 2283     4     3    13    13     0   453   584   585   464
 2284     4     3    13    13     0   453   452   573   584
 2285     4     3    13    13     0   453   452   584   464
 2286     4     3    13    13     0   452   584   464   463
 2287     4     3    13    13     0   575   454   574   586
 2288     4     3    13    13     0   454   574   586   585
 2289     4     3    13    13     0   454   585   586   465
 2290     4     3    13    13     0   454   453   574   585
 2291     4     3    13    13     0   454   453   585   465
 2292     4     3    13    13     0   453   585   465   464
 2293     4     3    13    13     0   576   455   575   587
 2294     4     3    13    13     0   455   575   587   586
 2295     4     3    13    13     0   455   586   587   466
 2296     4     3    13    13     0   455   454   575   586
 2297     4     3    13    13     0   455   454   586   466
 2298     4     3    13    13     0   454   586   466   465
 2299     4     3    13    13     0   577   456   576   588
 2300     4     3    13    13     0   456   576   588   587
 2301     4     3    13    13     0   456   587   588   467
 2302     4     3    13    13     0   456   455   576   587
 2303     4     3    13    13     0   456   455   587   467
 2304     4     3    13    13     0   455   587   467   466
 2341     4     3    13    13     0   585   464   584   596
 2342     4     3    13    13     0   464   584   596   595
 2343     4     3    13    13     0   464   595   596   475
 2344     4     3    13    13     0   464   463   584   595
 2345     4     3    13    13     0   464   463   595   475
 2346     4     3    13    13     0   463   595   475   474
 2347     4     3    13    13     0   586   465   585   597
 2348     4     3    13    13     0   465   585   597   596
 2349     4     3    13    13     0   465   596   597   476
 2350     4     3    13    13     0   465   464   585   596
 2351     4     3    13    13     0   465   464   596   476
 2352     4     3    13    13     0   464   596   476   475
 2353     4     3    13    13     0   587   466   586   598
 2354     4     3    13    13     0   466   586   598   597
 2355     4     3    13    13     0   466   597   598   477
 2356     4     3    13    13     0   466   465   586   597
 2357     4     3    13    13     0   466   465   597   477
 2358     4     3    13    13     0   465   597   477   476
 2359     4     3    13    13     0   588   467   587   599
 2360     4     3    13    13     0   467   587   599   598
 2361     4     3    13    13     0   467   598   599   478
 2362     4     3    13    13     0   467   466   587   598
 2363     4     3    13    13     0   467   466   598   478
 2364     4     3    13    13     0   466   598   478   477
 2821     4     3    13    13     0   684   563   683   695
 2822     4     3    13    13     0   563   683   695   694
 2823     4     3    13    13     0   563   694   695   574
 2824     4     3    13    13     0   563   562   683   694
 2825     4     3    13    13     0   563   562   694   574
 2826     4     3    13    13     0   562   694   574   573
 2827     4     3    13    13     0   685   564   684   696
 2828     4     3    13    13     0   564   684   696   695
 2829     4     3    13    13     0   564   695   696   575
 2830     4     3    13    13     0   564   563   684   695
 2831     4     3    13    13     0   564   563   695   575
 2832     4     3    13    13     0   563   695   575   574
 2833     4     3    13    13     0   686   565   685   697
 2834     4     3    13    13     0   565   685   697   696
 2835     4     3    13    13     0   565   696   697   576
 2836     4     3    13    13     0   565   564   685   696
 2837     4     3    13    13     0   565   564   696   576
 2838     4     3    13    13     0   564   696   576   575
 2839     4     3    13    13     0   687   566   686   698
 2840     4     3    13    13     0   566   686   698   697
 2841     4     3    13    13     0   566   697   698   577
 2842     4     3    13    13     0   566   565   686   697
 2843     4     3    13    13     0   566   565   697   577
 2844     4     3    13    13     0   565   697   577   576
 2881     4     3    13    13     0   695   574   694   706
 2882     4     3    13    13     0   574   694   706   705
 2883     4     3    13    13     0   574   705   706   585
 2884     4     3    13    13     0   574   573   694   705
 2885     4     3    13    13     0   574   573   705   585
 2886     4     3    13    13     0   573   705   585   584
 2887     4     3    13    13     0   696   575   695   707
 2888     4     3    13    13     0   575   695   707   706
 2889     4     3    13    13     0   575   706   707   586
 2890     4     3    13    13     0   575   574   695   706
 2891     4     3    13    13     0   575   574   706   586
 2892     4     3    13    13     0   574   706   586   585
 2893     4     3    13    13     0   697   576   696   708
 2894     4     3    13    13     0   576   696   708   707
 2895     4     3    13    13     0   576   707   708   587
 2896     4     3    13    13     0   576   575   696   707
 2897     4     3    13    13     0   576   575   707   587
 2898     4     3    13    13     0   575   707   587   586
 2899     4     3    13    13     0   698   577   697   709
 2900     4     3    13    13     0   577   697   709   708
 2901     4     3    13    13     0   577   708   709   588
 2902     4     3    13    13     0   577   576   697   708
 2903     4     3    13    13     0   577   576   708   588
 2904     4     3    13    13     0   576   708   588   587
 2941     4     3    13    13     0   706   585   705   717
 2942     4     3    13    13     0   585   705   717   716
 2943     4     3    13    13     0   585   716   717   596
 2944     4     3    13    13     0   585   584   705   716
 2945     4     3    13    13     0   585   584   716   596
 2946     4     3    13    13     0   584   716   596   595
 2947     4     3    13    13     0   707   586   706   718
 2948     4     3    13    13     0   586   706   718   717
 2949     4     3    13    13     0   586   717   718   597
 2950     4     3    13    13     0   586   585   706   717
 2951     4     3    13    13     0   586   585   717   597
 2952     4     3    13    13     0   585   717   597   596
 2953     4     3    13    13     0   708   587   707   719
 2954     4     3    13    13     0   587   707   719   718
 2955     4     3    13    13     0   587   718   719   598
 2956     4     3    13    13     0   587   586   707   718
 2957     4     3    13    13     0   587   586   718   598
 2958     4     3    13    13     0   586   718   598   597
 2959     4     3    13    13     0   709   588   708   720
 2960     4     3    13    13     0   588   708   720   719
 2961     4     3    13    13     0   588   719   720   599
 2962     4     3    13    13     0   588   587   708   719
 2963     4     3    13    13     0   588   587   719   599
 2964     4     3    13    13     0   587   719   599   598
 3421     4     3    13    13     0   805   684   804   816
 3422     4     3    13    13     0   684   804   816   815
 3423     4     3    13    13     0   684   815   816   695
 3424     4     3    13    13     0   684   683   804   815
 3425     4     3    13    13     0   684   683   815   695
 3426     4     3    13    13     0   683   815   695   694
 3427     4     3    13    13     0   806   685   805   817
 3428     4     3    13    13     0   685   805   817   816
 3429     4     3    13    13     0   685   816   817   696
 3430     4     3    13    13     0   685   684   805   816
 3431     4     3    13    13     0   685   684   816   696
 3432     4     3    13    13     0   684   816   696   695
 3433     4     3    13    13     0   807   686   806   818
 3434     4     3    13    13     0   686   806   818   817
 3435     4     3    13    13     0   686   817   818   697
 3436     4     3    13    13     0   686   685   806   817
 3437     4     3    13    13     0   686   685   817   697
 3438     4     3    13    13     0   685   817   697   696
 3481     4     3    13    13     0   816   695   815   827
 3482     4     3    13    13     0   695   815   827   826
 3483     4     3    13    13     0   695   826   827   706
 3484     4     3    13    13     0   695   694   815   826
 3485     4     3    13    13     0   695   694   826   706
 3486     4     3    13    13     0   694   826   706   705
 3487     4     3    13    13     0   817   696   816   828
 3488     4     3    13    13     0   696   816   828   827
 3489     4     3    13    13     0   696   827   828   707
 3490     4     3    13    13     0   696   695   816   827
 3491     4     3    13    13     0   696   695   827   707
 3492     4     3    13    13     0   695   827   707   706
 3493     4     3    13    13     0   818   697   817   829
 3494     4     3    13    13     0   697   817   829   828
 3495     4     3    13    13     0   697   828   829   708
 3496     4     3    13    13     0   697   696   817   828
 3497     4     3    13    13     0   697   696   828   708
 3498     4     3    13    13     0   696   828   708   707
 3499     4     3    13    13     0   819   698   818   830
 3500     4     3    13    13     0   698   818   830   829
 3501     4     3    13    13     0   698   829   830   709
 3502     4     3    13    13     0   698   697   818   829
 3503     4     3    13    13     0   698   697   829   709
 3504     4     3    13    13     0   697   829   709   708
 3541     4     3    13    13     0   827   706   826   838
 3542     4     3    13    13     0   706   826   838   837
 3543     4     3    13    13     0   706   837   838   717
 3544     4     3    13    13     0   706   705   826   837
 3545     4     3    13    13     0   706   705   837   717
 3546     4     3    13    13     0   705   837   717   716
 3547     4     3    13    13     0   828   707   827   839
 3548     4     3    13    13     0   707   827   839   838
 3549     4     3    13    13     0   707   838   839   718
 3550     4     3    13    13     0   707   706   827   838
 3551     4     3    13    13     0   707   706   838   718
 3552     4     3    13    13     0   706   838   718   717
 3553     4     3    13    13     0   829   708   828   840
 3554     4     3    13    13     0   708   828   840   839
 3555     4     3    13    13     0   708   839   840   719
 3556     4     3    13    13     0   708   707   828   839
 3557     4     3    13    13     0   708   707   839   719
 3558     4     3    13    13     0   707   839   719   718
 3559     4     3    13    13     0   830   709   829   841
 3560     4     3    13    13     0   709   829   841   840
 3561     4     3    13    13     0   709   840   841   720
 3562     4     3    13    13     0   709   708   829   840
 3563     4     3    13    13     0   709   708   840   720
 3564     4     3    13    13     0   708   840   720   719
$EndElements
