$MeshFormat
2.2 0 8
$EndMeshFormat
$Nodes
191
307 9.000000 5.000000 2.000000
308 10.000000 5.000000 2.000000
317 8.000000 6.000000 2.000000
318 9.000000 6.000000 2.000000
319 10.000000 6.000000 2.000000
328 8.000000 7.000000 2.000000
329 9.000000 7.000000 2.000000
330 10.000000 7.000000 2.000000
339 8.000000 8.000000 2.000000
340 9.000000 8.000000 2.000000
341 10.000000 8.000000 2.000000
350 8.000000 9.000000 2.000000
351 9.000000 9.000000 2.000000
352 10.000000 9.000000 2.000000
362 9.000000 10.000000 2.000000
363 10.000000 10.000000 2.000000
416 8.000000 4.000000 3.000000
417 9.000000 4.000000 3.000000
426 7.000000 5.000000 3.000000
427 8.000000 5.000000 3.000000
428 9.000000 5.000000 3.000000
429 10.000000 5.000000 3.000000
437 7.000000 6.000000 3.000000
438 8.000000 6.000000 3.000000
439 9.000000 6.000000 3.000000
440 10.000000 6.000000 3.000000
448 7.000000 7.000000 3.000000
449 8.000000 7.000000 3.000000
450 9.000000 7.000000 3.000000
451 10.000000 7.000000 3.000000
459 7.000000 8.000000 3.000000
460 8.000000 8.000000 3.000000
461 9.000000 8.000000 3.000000
462 10.000000 8.000000 3.000000
470 7.000000 9.000000 3.000000
471 8.000000 9.000000 3.000000
472 9.000000 9.000000 3.000000
473 10.000000 9.000000 3.000000
482 8.000000 10.000000 3.000000
483 9.000000 10.000000 3.000000
484 10.000000 10.000000 3.000000
537 8.000000 4.000000 4.000000
538 9.000000 4.000000 4.000000
539 10.000000 4.000000 4.000000
547 7.000000 5.000000 4.000000
548 8.000000 5.000000 4.000000
549 9.000000 5.000000 4.000000
550 10.000000 5.000000 4.000000
558 7.000000 6.000000 4.000000
559 8.000000 6.000000 4.000000
560 9.000000 6.000000 4.000000
561 10.000000 6.000000 4.000000
568 6.000000 7.000000 4.000000
569 7.000000 7.000000 4.000000
570 8.000000 7.000000 4.000000
571 9.000000 7.000000 4.000000
572 10.000000 7.000000 4.000000
579 6.000000 8.000000 4.000000
580 7.000000 8.000000 4.000000
581 8.000000 8.000000 4.000000
582 9.000000 8.000000 4.000000
583 10.000000 8.000000 4.000000
590 6.000000 9.000000 4.000000
591 7.000000 9.000000 4.000000
592 8.000000 9.000000 4.000000
593 9.000000 9.000000 4.000000
594 10.000000 9.000000 4.000000
602 7.000000 10.000000 4.000000
603 8.000000 10.000000 4.000000
604 9.000000 10.000000 4.000000
605 10.000000 10.000000 4.000000
659 9.000000 4.000000 5.000000
660 10.000000 4.000000 5.000000
668 7.000000 5.000000 5.000000
669 8.000000 5.000000 5.000000
670 9.000000 5.000000 5.000000
671 10.000000 5.000000 5.000000
678 6.000000 6.000000 5.000000
679 7.000000 6.000000 5.000000
680 8.000000 6.000000 5.000000
681 9.000000 6.000000 5.000000
682 10.000000 6.000000 5.000000
688 5.000000 7.000000 5.000000
689 6.000000 7.000000 5.000000
690 7.000000 7.000000 5.000000
691 8.000000 7.000000 5.000000
692 9.000000 7.000000 5.000000
693 10.000000 7.000000 5.000000
698 4.000000 8.000000 5.000000
699 5.000000 8.000000 5.000000
700 6.000000 8.000000 5.000000
701 7.000000 8.000000 5.000000
702 8.000000 8.000000 5.000000
703 9.000000 8.000000 5.000000
704 10.000000 8.000000 5.000000
709 4.000000 9.000000 5.000000
710 5.000000 9.000000 5.000000
711 6.000000 9.000000 5.000000
712 7.000000 9.000000 5.000000
713 8.000000 9.000000 5.000000
714 9.000000 9.000000 5.000000
715 10.000000 9.000000 5.000000
722 6.000000 10.000000 5.000000
723 7.000000 10.000000 5.000000
724 8.000000 10.000000 5.000000
725 9.000000 10.000000 5.000000
726 10.000000 10.000000 5.000000
780 9.000000 4.000000 6.000000
781 10.000000 4.000000 6.000000
789 7.000000 5.000000 6.000000
790 8.000000 5.000000 6.000000
791 9.000000 5.000000 6.000000
792 10.000000 5.000000 6.000000
799 6.000000 6.000000 6.000000
800 7.000000 6.000000 6.000000
801 8.000000 6.000000 6.000000
802 9.000000 6.000000 6.000000
803 10.000000 6.000000 6.000000
809 5.000000 7.000000 6.000000
810 6.000000 7.000000 6.000000
811 7.000000 7.000000 6.000000
812 8.000000 7.000000 6.000000
813 9.000000 7.000000 6.000000
814 10.000000 7.000000 6.000000
819 4.000000 8.000000 6.000000
820 5.000000 8.000000 6.000000
821 6.000000 8.000000 6.000000
822 7.000000 8.000000 6.000000
823 8.000000 8.000000 6.000000
824 9.000000 8.000000 6.000000
825 10.000000 8.000000 6.000000
830 4.000000 9.000000 6.000000
831 5.000000 9.000000 6.000000
832 6.000000 9.000000 6.000000
833 7.000000 9.000000 6.000000
834 8.000000 9.000000 6.000000
835 9.000000 9.000000 6.000000
836 10.000000 9.000000 6.000000
843 6.000000 10.000000 6.000000
844 7.000000 10.000000 6.000000
845 8.000000 10.000000 6.000000
846 9.000000 10.000000 6.000000
847 10.000000 10.000000 6.000000
912 9.000000 5.000000 7.000000
913 10.000000 5.000000 7.000000
921 7.000000 6.000000 7.000000
922 8.000000 6.000000 7.000000
923 9.000000 6.000000 7.000000
924 10.000000 6.000000 7.000000
932 7.000000 7.000000 7.000000
933 8.000000 7.000000 7.000000
934 9.000000 7.000000 7.000000
935 10.000000 7.000000 7.000000
943 7.000000 8.000000 7.000000
944 8.000000 8.000000 7.000000
945 9.000000 8.000000 7.000000
946 10.000000 8.000000 7.000000
954 7.000000 9.000000 7.000000
955 8.000000 9.000000 7.000000
956 9.000000 9.000000 7.000000
957 10.000000 9.000000 7.000000
965 7.000000 10.000000 7.000000
966 8.000000 10.000000 7.000000
967 9.000000 10.000000 7.000000
968 10.000000 10.000000 7.000000
1044 9.000000 6.000000 8.000000
1045 10.000000 6.000000 8.000000
1054 8.000000 7.000000 8.000000
1055 9.000000 7.000000 8.000000
1056 10.000000 7.000000 8.000000
1065 8.000000 8.000000 8.000000
1066 9.000000 8.000000 8.000000
1067 10.000000 8.000000 8.000000
1076 8.000000 9.000000 8.000000
1077 9.000000 9.000000 8.000000
1078 10.000000 9.000000 8.000000
1087 8.000000 10.000000 8.000000
1088 9.000000 10.000000 8.000000
1089 10.000000 10.000000 8.000000
1176 9.000000 7.000000 9.000000
1177 10.000000 7.000000 9.000000
1187 9.000000 8.000000 9.000000
1188 10.000000 8.000000 9.000000
1198 9.000000 9.000000 9.000000
1199 10.000000 9.000000 9.000000
1209 9.000000 10.000000 9.000000
1210 10.000000 10.000000 9.000000
1297 9.000000 7.000000 10.000000
1298 10.000000 7.000000 10.000000
1308 9.000000 8.000000 10.000000
1309 10.000000 8.000000 10.000000
$EndNodes
$Elements
528
 1555     4     3     7     7     0   429   308   428   440
 1556     4     3     7     7     0   308   428   440   439
 1557     4     3     7     7     0   308   439   440   319
 1558     4     3     7     7     0   308   307   428   439
 1559     4     3     7     7     0   308   307   439   319
 1560     4     3     7     7     0   307   439   319   318
 1609     4     3     7     7     0   439   318   438   450
 1610     4     3     7     7     0   318   438   450   449
 1611     4     3     7     7     0   318   449   450   329
 1612     4     3     7     7     0   318   317   438   449
 1613     4     3     7     7     0   318   317   449   329
 1614     4     3     7     7     0   317   449   329   328
 1615     4     3     7     7     0   440   319   439   451
 1616     4     3     7     7     0   319   439   451   450
 1617     4     3     7     7     0   319   450   451   330
 1618     4     3     7     7     0   319   318   439   450
 1619     4     3     7     7     0   319   318   450   330
 1620     4     3     7     7     0   318   450   330   329
 1669     4     3     7     7     0   450   329   449   461
 1670     4     3     7     7     0   329   449   461   460
 1671     4     3     7     7     0   329   460   461   340
 1672     4     3     7     7     0   329   328   449   460
 1673     4     3     7     7     0   329   328   460   340
 1674     4     3     7     7     0   328   460   340   339
 1675     4     3     7     7     0   451   330   450   462
 1676     4     3     7     7     0   330   450   462   461
 1677     4     3     7     7     0   330   461   462   341
 1678     4     3     7     7     0   330   329   450   461
 1679     4     3     7     7     0   330   329   461   341
 1680     4     3     7     7     0   329   461   341   340
 1729     4     3     7     7     0   461   340   460   472
 1730     4     3     7     7     0   340   460   472   471
 1731     4     3     7     7     0   340   471   472   351
 1732     4     3     7     7     0   340   339   460   471
 1733     4     3     7     7     0   340   339   471   351
 1734     4     3     7     7     0   339   471   351   350
 1735     4     3     7     7     0   462   341   461   473
 1736     4     3     7     7     0   341   461   473   472
 1737     4     3     7     7     0   341   472   473   352
 1738     4     3     7     7     0   341   340   461   472
 1739     4     3     7     7     0   341   340   472   352
 1740     4     3     7     7     0   340   472   352   351
 1795     4     3     7     7     0   473   352   472   484
 1796     4     3     7     7     0   352   472   484   483
 1797     4     3     7     7     0   352   483   484   363
 1798     4     3     7     7     0   352   351   472   483
 1799     4     3     7     7     0   352   351   483   363
 1800     4     3     7     7     0   351   483   363   362
 2089     4     3     7     7     0   538   417   537   549
 2090     4     3     7     7     0   417   537   549   548
 2091     4     3     7     7     0   417   548   549   428
 2092     4     3     7     7     0   417   416   537   548
 2093     4     3     7     7     0   417   416   548   428
 2094     4     3     7     7     0   416   548   428   427
 2143     4     3     7     7     0   548   427   547   559
 2144     4     3     7     7     0   427   547   559   558
 2145     4     3     7     7     0   427   558   559   438
 2146     4     3     7     7     0   427   426   547   558
 2147     4     3     7     7     0   427   426   558   438
 2148     4     3     7     7     0   426   558   438   437
 2149     4     3     7     7     0   549   428   548   560
 2150     4     3     7     7     0   428   548   560   559
 2151     4     3     7     7     0   428   559   560   439
 2152     4     3     7     7     0   428   427   548   559
 2153     4     3     7     7     0   428   427   559   439
 2154     4     3     7     7     0   427   559   439   438
 2155     4     3     7     7     0   550   429   549   561
 2156     4     3     7     7     0   429   549   561   560
 2157     4     3     7     7     0   429   560   561   440
 2158     4     3     7     7     0   429   428   549   560
 2159     4     3     7     7     0   429   428   560   440
 2160     4     3     7     7     0   428   560   440   439
 2203     4     3     7     7     0   559   438   558   570
 2204     4     3     7     7     0   438   558   570   569
 2205     4     3     7     7     0   438   569   570   449
 2206     4     3     7     7     0   438   437   558   569
 2207     4     3     7     7     0   438   437   569   449
 2208     4     3     7     7     0   437   569   449   448
 2209     4     3     7     7     0   560   439   559   571
 2210     4     3     7     7     0   439   559   571   570
 2211     4     3     7     7     0   439   570   571   450
 2212     4     3     7     7     0   439   438   559   570
 2213     4     3     7     7     0   439   438   570   450
 2214     4     3     7     7     0   438   570   450   449
 2215     4     3     7     7     0   561   440   560   572
 2216     4     3     7     7     0   440   560   572   571
 2217     4     3     7     7     0   440   571   572   451
 2218     4     3     7     7     0   440   439   560   571
 2219     4     3     7     7     0   440   439   571   451
 2220     4     3     7     7     0   439   571   451   450
 2263     4     3     7     7     0   570   449   569   581
 2264     4     3     7     7     0   449   569   581   580
 2265     4     3     7     7     0   449   580   581   460
 2266     4     3     7     7     0   449   448   569   580
 2267     4     3     7     7     0   449   448   580   460
 2268     4     3     7     7     0   448   580   460   459
 2269     4     3     7     7     0   571   450   570   582
 2270     4     3     7     7     0   450   570   582   581
 2271     4     3     7     7     0   450   581   582   461
 2272     4     3     7     7     0   450   449   570   581
 2273     4     3     7     7     0   450   449   581   461
 2274     4     3     7     7     0   449   581   461   460
 2275     4     3     7     7     0   572   451   571   583
 2276     4     3     7     7     0   451   571   583   582
 2277     4     3     7     7     0   451   582   583   462
 2278     4     3     7     7     0   451   450   571   582
 2279     4     3     7     7     0   451   450   582   462
 2280     4     3     7     7     0   450   582   462   461
 2323     4     3     7     7     0   581   460   580   592
 2324     4     3     7     7     0   460   580   592   591
 2325     4     3     7     7     0   460   591   592   471
 2326     4     3     7     7     0   460   459   580   591
 2327     4     3     7     7     0   460   459   591   471
 2328     4     3     7     7     0   459   591   471   470
 2329     4     3     7     7     0   582   461   581   593
 2330     4     3     7     7     0   461   581   593   592
 2331     4     3     7     7     0   461   592   593   472
 2332     4     3     7     7     0   461   460   581   592
 2333     4     3     7     7     0   461   460   592   472
 2334     4     3     7     7     0   460   592   472   471
 2335     4     3     7     7     0   583   462   582   594
 2336     4     3     7     7     0   462   582   594   593
 2337     4     3     7     7     0   462   593   594   473
 2338     4     3     7     7     0   462   461   582   593
 2339     4     3     7     7     0   462   461   593   473
 2340     4     3     7     7     0   461   593   473   472
 2389     4     3     7     7     0   593   472   592   604
 2390     4     3     7     7     0   472   592   604   603
 2391     4     3     7     7     0   472   603   604   483
 2392     4     3     7     7     0   472   471   592   603
 2393     4     3     7     7     0   472   471   603   483
 2394     4     3     7     7     0   471   603   483   482
 2395     4     3     7     7     0   594   473   593   605
 2396     4     3     7     7     0   473   593   605   604
 2397     4     3     7     7     0   473   604   605   484
 2398     4     3     7     7     0   473   472   593   604
 2399     4     3     7     7     0   473   472   604   484
 2400     4     3     7     7     0   472   604   484   483
 2695     4     3     7     7     0   660   539   659   671
 2696     4     3     7     7     0   539   659   671   670
 2697     4     3     7     7     0   539   670   671   550
 2698     4     3     7     7     0   539   538   659   670
 2699     4     3     7     7     0   539   538   670   550
 2700     4     3     7     7     0   538   670   550   549
 2743     4     3     7     7     0   669   548   668   680
 2744     4     3     7     7     0   548   668   680   679
 2745     4     3     7     7     0   548   679   680   559
 2746     4     3     7     7     0   548   547   668   679
 2747     4     3     7     7     0   548   547   679   559
 2748     4     3     7     7     0   547   679   559   558
 2749     4     3     7     7     0   670   549   669   681
 2750     4     3     7     7     0   549   669   681   680
 2751     4     3     7     7     0   549   680   681   560
 2752     4     3     7     7     0   549   548   669   680
 2753     4     3     7     7     0   549   548   680   560
 2754     4     3     7     7     0   548   680   560   559
 2755     4     3     7     7     0   671   550   670   682
 2756     4     3     7     7     0   550   670   682   681
 2757     4     3     7     7     0   550   681   682   561
 2758     4     3     7     7     0   550   549   670   681
 2759     4     3     7     7     0   550   549   681   561
 2760     4     3     7     7     0   549   681   561   560
 2803     4     3     7     7     0   680   559   679   691
 2804     4     3     7     7     0   559   679   691   690
 2805     4     3     7     7     0   559   690   691   570
 2806     4     3     7     7     0   559   558   679   690
 2807     4     3     7     7     0   559   558   690   570
 2808     4     3     7     7     0   558   690   570   569
 2809     4     3     7     7     0   681   560   680   692
 2810     4     3     7     7     0   560   680   692   691
 2811     4     3     7     7     0   560   691   692   571
 2812     4     3     7     7     0   560   559   680   691
 2813     4     3     7     7     0   560   559   691   571
 2814     4     3     7     7     0   559   691   571   570
 2815     4     3     7     7     0   682   561   681   693
 2816     4     3     7     7     0   561   681   693   692
 2817     4     3     7     7     0   561   692   693   572
 2818     4     3     7     7     0   561   560   681   692
 2819     4     3     7     7     0   561   560   692   572
 2820     4     3     7     7     0   560   692   572   571
 2857     4     3     7     7     0   690   569   689   701
 2858     4     3     7     7     0   569   689   701   700
 2859     4     3     7     7     0   569   700   701   580
 2860     4     3     7     7     0   569   568   689   700
 2861     4     3     7     7     0   569   568   700   580
 2862     4     3     7     7     0   568   700   580   579
 2863     4     3     7     7     0   691   570   690   702
 2864     4     3     7     7     0   570   690   702   701
 2865     4     3     7     7     0   570   701   702   581
 2866     4     3     7     7     0   570   569   690   701
 2867     4     3     7     7     0   570   569   701   581
 2868     4     3     7     7     0   569   701   581   580
 2869     4     3     7     7     0   692   571   691   703
 2870     4     3     7     7     0   571   691   703   702
 2871     4     3     7     7     0   571   702   703   582
 2872     4     3     7     7     0   571   570   691   702
 2873     4     3     7     7     0   571   570   702   582
 2874     4     3     7     7     0   570   702   582   581
 2875     4     3     7     7     0   693   572   692   704
 2876     4     3     7     7     0   572   692   704   703
 2877     4     3     7     7     0   572   703   704   583
 2878     4     3     7     7     0   572   571   692   703
 2879     4     3     7     7     0   572   571   703   583
 2880     4     3     7     7     0   571   703   583   582
 2917     4     3     7     7     0   701   580   700   712
 2918     4     3     7     7     0   580   700   712   711
 2919     4     3     7     7     0   580   711   712   591
 2920     4     3     7     7     0   580   579   700   711
 2921     4     3     7     7     0   580   579   711   591
 2922     4     3     7     7     0   579   711   591   590
 2923     4     3     7     7     0   702   581   701   713
 2924     4     3     7     7     0   581   701   713   712
 2925     4     3     7     7     0   581   712   713   592
 2926     4     3     7     7     0   581   580   701   712
 2927     4     3     7     7     0   581   580   712   592
 2928     4     3     7     7     0   580   712   592   591
 2929     4     3     7     7     0   703   582   702   714
 2930     4     3     7     7     0   582   702   714   713
 2931     4     3     7     7     0   582   713   714   593
 2932     4     3     7     7     0   582   581   702   713
 2933     4     3     7     7     0   582   581   713   593
 2934     4     3     7     7     0   581   713   593   592
 2935     4     3     7     7     0   704   583   703   715
 2936     4     3     7     7     0   583   703   715   714
 2937     4     3     7     7     0   583   714   715   594
 2938     4     3     7     7     0   583   582   703   714
 2939     4     3     7     7     0   583   582   714   594
 2940     4     3     7     7     0   582   714   594   593
 2983     4     3     7     7     0   713   592   712   724
 2984     4     3     7     7     0   592   712   724   723
 2985     4     3     7     7     0   592   723   724   603
 2986     4     3     7     7     0   592   591   712   723
 2987     4     3     7     7     0   592   591   723   603
 2988     4     3     7     7     0   591   723   603   602
 2989     4     3     7     7     0   714   593   713   725
 2990     4     3     7     7     0   593   713   725   724
 2991     4     3     7     7     0   593   724   725   604
 2992     4     3     7     7     0   593   592   713   724
 2993     4     3     7     7     0   593   592   724   604
 2994     4     3     7     7     0   592   724   604   603
 2995     4     3     7     7     0   715   594   714   726
 2996     4     3     7     7     0   594   714   726   725
 2997     4     3     7     7     0   594   725   726   605
 2998     4     3     7     7     0   594   593   714   725
 2999     4     3     7     7     0   594   593   725   605
 3000     4     3     7     7     0   593   725   605   604
 3295     4     3     7     7     0   781   660   780   792
 3296     4     3     7     7     0   660   780   792   791
 3297     4     3     7     7     0   660   791   792   671
 3298     4     3     7     7     0   660   659   780   791
 3299     4     3     7     7     0   660   659   791   671
 3300     4     3     7     7     0   659   791   671   670
 3343     4     3     7     7     0   790   669   789   801
 3344     4     3     7     7     0   669   789   801   800
 3345     4     3     7     7     0   669   800   801   680
 3346     4     3     7     7     0   669   668   789   800
 3347     4     3     7     7     0   669   668   800   680
 3348     4     3     7     7     0   668   800   680   679
 3349     4     3     7     7     0   791   670   790   802
 3350     4     3     7     7     0   670   790   802   801
 3351     4     3     7     7     0   670   801   802   681
 3352     4     3     7     7     0   670   669   790   801
 3353     4     3     7     7     0   670   669   801   681
 3354     4     3     7     7     0   669   801   681   680
 3355     4     3     7     7     0   792   671   791   803
 3356     4     3     7     7     0   671   791   803   802
 3357     4     3     7     7     0   671   802   803   682
 3358     4     3     7     7     0   671   670   791   802
 3359     4     3     7     7     0   671   670   802   682
 3360     4     3     7     7     0   670   802   682   681
 3397     4     3     7     7     0   800   679   799   811
 3398     4     3     7     7     0   679   799   811   810
 3399     4     3     7     7     0   679   810   811   690
 3400     4     3     7     7     0   679   678   799   810
 3401     4     3     7     7     0   679   678   810   690
 3402     4     3     7     7     0   678   810   690   689
 3403     4     3     7     7     0   801   680   800   812
 3404     4     3     7     7     0   680   800   812   811
 3405     4     3     7     7     0   680   811   812   691
 3406     4     3     7     7     0   680   679   800   811
 3407     4     3     7     7     0   680   679   811   691
 3408     4     3     7     7     0   679   811   691   690
 3409     4     3     7     7     0   802   681   801   813
 3410     4     3     7     7     0   681   801   813   812
 3411     4     3     7     7     0   681   812   813   692
 3412     4     3     7     7     0   681   680   801   812
 3413     4     3     7     7     0   681   680   812   692
 3414     4     3     7     7     0   680   812   692   691
 3415     4     3     7     7     0   803   682   802   814
 3416     4     3     7     7     0   682   802   814   813
 3417     4     3     7     7     0   682   813   814   693
 3418     4     3     7     7     0   682   681   802   813
 3419     4     3     7     7     0   682   681   813   693
 3420     4     3     7     7     0   681   813   693   692
 3451     4     3     7     7     0   810   689   809   821
 3452     4     3     7     7     0   689   809   821   820
 3453     4     3     7     7     0   689   820   821   700
 3454     4     3     7     7     0   689   688   809   820
 3455     4     3     7     7     0   689   688   820   700
 3456     4     3     7     7     0   688   820   700   699
 3457     4     3     7     7     0   811   690   810   822
 3458     4     3     7     7     0   690   810   822   821
 3459     4     3     7     7     0   690   821   822   701
 3460     4     3     7     7     0   690   689   810   821
 3461     4     3     7     7     0   690   689   821   701
 3462     4     3     7     7     0   689   821   701   700
 3463     4     3     7     7     0   812   691   811   823
 3464     4     3     7     7     0   691   811   823   822
 3465     4     3     7     7     0   691   822   823   702
 3466     4     3     7     7     0   691   690   811   822
 3467     4     3     7     7     0   691   690   822   702
 3468     4     3     7     7     0   690   822   702   701
 3469     4     3     7     7     0   813   692   812   824
 3470     4     3     7     7     0   692   812   824   823
 3471     4     3     7     7     0   692   823   824   703
 3472     4     3     7     7     0   692   691   812   823
 3473     4     3     7     7     0   692   691   823   703
 3474     4     3     7     7     0   691   823   703   702
 3475     4     3     7     7     0   814   693   813   825
 3476     4     3     7     7     0   693   813   825   824
 3477     4     3     7     7     0   693   824   825   704
 3478     4     3     7     7     0   693   692   813   824
 3479     4     3     7     7     0   693   692   824   704
 3480     4     3     7     7     0   692   824   704   703
 3505     4     3     7     7     0   820   699   819   831
 3506     4     3     7     7     0   699   819   831   830
 3507     4     3     7     7     0   699   830   831   710
 3508     4     3     7     7     0   699   698   819   830
 3509     4     3     7     7     0   699   698   830   710
 3510     4     3     7     7     0   698   830   710   709
 3511     4     3     7     7     0   821   700   820   832
 3512     4     3     7     7     0   700   820   832   831
 3513     4     3     7     7     0   700   831   832   711
 3514     4     3     7     7     0   700   699   820   831
 3515     4     3     7     7     0   700   699   831   711
 3516     4     3     7     7     0   699   831   711   710
 3517     4     3     7     7     0   822   701   821   833
 3518     4     3     7     7     0   701   821   833   832
 3519     4     3     7     7     0   701   832   833   712
 3520     4     3     7     7     0   701   700   821   832
 3521     4     3     7     7     0   701   700   832   712
 3522     4     3     7     7     0   700   832   712   711
 3523     4     3     7     7     0   823   702   822   834
 3524     4     3     7     7     0   702   822   834   833
 3525     4     3     7     7     0   702   833   834   713
 3526     4     3     7     7     0   702   701   822   833
 3527     4     3     7     7     0   702   701   833   713
 3528     4     3     7     7     0   701   833   713   712
 3529     4     3     7     7     0   824   703   823   835
 3530     4     3     7     7     0   703   823   835   834
 3531     4     3     7     7     0   703   834   835   714
 3532     4     3     7     7     0   703   702   823   834
 3533     4     3     7     7     0   703   702   834   714
 3534     4     3     7     7     0   702   834   714   713
 3535     4     3     7     7     0   825   704   824   836
 3536     4     3     7     7     0   704   824   836   835
 3537     4     3     7     7     0   704   835   836   715
 3538     4     3     7     7     0   704   703   824   835
 3539     4     3     7     7     0   704   703   835   715
 3540     4     3     7     7     0   703   835   715   714
 3577     4     3     7     7     0   833   712   832   844
 3578     4     3     7     7     0   712   832   844   843
 3579     4     3     7     7     0   712   843   844   723
 3580     4     3     7     7     0   712   711   832   843
 3581     4     3     7     7     0   712   711   843   723
 3582     4     3     7     7     0   711   843   723   722
 3583     4     3     7     7     0   834   713   833   845
 3584     4     3     7     7     0   713   833   845   844
 3585     4     3     7     7     0   713   844   845   724
 3586     4     3     7     7     0   713   712   833   844
 3587     4     3     7     7     0   713   712   844   724
 3588     4     3     7     7     0   712   844   724   723
 3589     4     3     7     7     0   835   714   834   846
 3590     4     3     7     7     0   714   834   846   845
 3591     4     3     7     7     0   714   845   846   725
 3592     4     3     7     7     0   714   713   834   845
 3593     4     3     7     7     0   714   713   845   725
 3594     4     3     7     7     0   713   845   725   724
 3595     4     3     7     7     0   836   715   835   847
 3596     4     3     7     7     0   715   835   847   846
 3597     4     3     7     7     0   715   846   847   726
 3598     4     3     7     7     0   715   714   835   846
 3599     4     3     7     7     0   715   714   846   726
 3600     4     3     7     7     0   714   846   726   725
 3955     4     3     7     7     0   913   792   912   924
 3956     4     3     7     7     0   792   912   924   923
 3957     4     3     7     7     0   792   923   924   803
 3958     4     3     7     7     0   792   791   912   923
 3959     4     3     7     7     0   792   791   923   803
 3960     4     3     7     7     0   791   923   803   802
 4003     4     3     7     7     0   922   801   921   933
 4004     4     3     7     7     0   801   921   933   932
 4005     4     3     7     7     0   801   932   933   812
 4006     4     3     7     7     0   801   800   921   932
 4007     4     3     7     7     0   801   800   932   812
 4008     4     3     7     7     0   800   932   812   811
 4009     4     3     7     7     0   923   802   922   934
 4010     4     3     7     7     0   802   922   934   933
 4011     4     3     7     7     0   802   933   934   813
 4012     4     3     7     7     0   802   801   922   933
 4013     4     3     7     7     0   802   801   933   813
 4014     4     3     7     7     0   801   933   813   812
 4015     4     3     7     7     0   924   803   923   935
 4016     4     3     7     7     0   803   923   935   934
 4017     4     3     7     7     0   803   934   935   814
 4018     4     3     7     7     0   803   802   923   934
 4019     4     3     7     7     0   803   802   934   814
 4020     4     3     7     7     0   802   934   814   813
 4063     4     3     7     7     0   933   812   932   944
 4064     4     3     7     7     0   812   932   944   943
 4065     4     3     7     7     0   812   943   944   823
 4066     4     3     7     7     0   812   811   932   943
 4067     4     3     7     7     0   812   811   943   823
 4068     4     3     7     7     0   811   943   823   822
 4069     4     3     7     7     0   934   813   933   945
 4070     4     3     7     7     0   813   933   945   944
 4071     4     3     7     7     0   813   944   945   824
 4072     4     3     7     7     0   813   812   933   944
 4073     4     3     7     7     0   813   812   944   824
 4074     4     3     7     7     0   812   944   824   823
 4075     4     3     7     7     0   935   814   934   946
 4076     4     3     7     7     0   814   934   946   945
 4077     4     3     7     7     0   814   945   946   825
 4078     4     3     7     7     0   814   813   934   945
 4079     4     3     7     7     0   814   813   945   825
 4080     4     3     7     7     0   813   945   825   824
 4123     4     3     7     7     0   944   823   943   955
 4124     4     3     7     7     0   823   943   955   954
 4125     4     3     7     7     0   823   954   955   834
 4126     4     3     7     7     0   823   822   943   954
 4127     4     3     7     7     0   823   822   954   834
 4128     4     3     7     7     0   822   954   834   833
 4129     4     3     7     7     0   945   824   944   956
 4130     4     3     7     7     0   824   944   956   955
 4131     4     3     7     7     0   824   955   956   835
 4132     4     3     7     7     0   824   823   944   955
 4133     4     3     7     7     0   824   823   955   835
 4134     4     3     7     7     0   823   955   835   834
 4135     4     3     7     7     0   946   825   945   957
 4136     4     3     7     7     0   825   945   957   956
 4137     4     3     7     7     0   825   956   957   836
 4138     4     3     7     7     0   825   824   945   956
 4139     4     3     7     7     0   825   824   956   836
 4140     4     3     7     7     0   824   956   836   835
 4183     4     3     7     7     0   955   834   954   966
 4184     4     3     7     7     0   834   954   966   965
 4185     4     3     7     7     0   834   965   966   845
 4186     4     3     7     7     0   834   833   954   965
 4187     4     3     7     7     0   834   833   965   845
 4188     4     3     7     7     0   833   965   845   844
 4189     4     3     7     7     0   956   835   955   967
 4190     4     3     7     7     0   835   955   967   966
 4191     4     3     7     7     0   835   966   967   846
 4192     4     3     7     7     0   835   834   955   966
 4193     4     3     7     7     0   835   834   966   846
 4194     4     3     7     7     0   834   966   846   845
 4195     4     3     7     7     0   957   836   956   968
 4196     4     3     7     7     0   836   956   968   967
 4197     4     3     7     7     0   836   967   968   847
 4198     4     3     7     7     0   836   835   956   967
 4199     4     3     7     7     0   836   835   967   847
 4200     4     3     7     7     0   835   967   847   846
 4615     4     3     7     7     0  1045   924  1044  1056
 4616     4     3     7     7     0   924  1044  1056  1055
 4617     4     3     7     7     0   924  1055  1056   935
 4618     4     3     7     7     0   924   923  1044  1055
 4619     4     3     7     7     0   924   923  1055   935
 4620     4     3     7     7     0   923  1055   935   934
 4669     4     3     7     7     0  1055   934  1054  1066
 4670     4     3     7     7     0   934  1054  1066  1065
 4671     4     3     7     7     0   934  1065  1066   945
 4672     4     3     7     7     0   934   933  1054  1065
 4673     4     3     7     7     0   934   933  1065   945
 4674     4     3     7     7     0   933  1065   945   944
 4675     4     3     7     7     0  1056   935  1055  1067
 4676     4     3     7     7     0   935  1055  1067  1066
 4677     4     3     7     7     0   935  1066  1067   946
 4678     4     3     7     7     0   935   934  1055  1066
 4679     4     3     7     7     0   935   934  1066   946
 4680     4     3     7     7     0   934  1066   946   945
 4729     4     3     7     7     0  1066   945  1065  1077
 4730     4     3     7     7     0   945  1065  1077  1076
 4731     4     3     7     7     0   945  1076  1077   956
 4732     4     3     7     7     0   945   944  1065  1076
 4733     4     3     7     7     0   945   944  1076   956
 4734     4     3     7     7     0   944  1076   956   955
 4735     4     3     7     7     0  1067   946  1066  1078
 4736     4     3     7     7     0   946  1066  1078  1077
 4737     4     3     7     7     0   946  1077  1078   957
 4738     4     3     7     7     0   946   945  1066  1077
 4739     4     3     7     7     0   946   945  1077   957
 4740     4     3     7     7     0   945  1077   957   956
 4789     4     3     7     7     0  1077   956  1076  1088
 4790     4     3     7     7     0   956  1076  1088  1087
 4791     4     3     7     7     0   956  1087  1088   967
 4792     4     3     7     7     0   956   955  1076  1087
 4793     4     3     7     7     0   956   955  1087   967
 4794     4     3     7     7     0   955  1087   967   966
 4795     4     3     7     7     0  1078   957  1077  1089
 4796     4     3     7     7     0   957  1077  1089  1088
 4797     4     3     7     7     0   957  1088  1089   968
 4798     4     3     7     7     0   957   956  1077  1088
 4799     4     3     7     7     0   957   956  1088   968
 4800     4     3     7     7     0   956  1088   968   967
 5275     4     3     7     7     0  1177  1056  1176  1188
 5276     4     3     7     7     0  1056  1176  1188  1187
 5277     4     3     7     7     0  1056  1187  1188  1067
 5278     4     3     7     7     0  1056  1055  1176  1187
 5279     4     3     7     7     0  1056  1055  1187  1067
 5280     4     3     7     7     0  1055  1187  1067  1066
 5335     4     3     7     7     0  1188  1067  1187  1199
 5336     4     3     7     7     0  1067  1187  1199  1198
 5337     4     3     7     7     0  1067  1198  1199  1078
 5338     4     3     7     7     0  1067  1066  1187  1198
 5339     4     3     7     7     0  1067  1066  1198  1078
 5340     4     3     7     7     0  1066  1198  1078  1077
 5395     4     3     7     7     0  1199  1078  1198  1210
 5396     4     3     7     7     0  1078  1198  1210  1209
 5397     4     3     7     7     0  1078  1209  1210  1089
 5398     4     3     7     7     0  1078  1077  1198  1209
 5399     4     3     7     7     0  1078  1077  1209  1089
 5400     4     3     7     7     0  1077  1209  1089  1088
 5875     4     3     7     7     0  1298  1177  1297  1309
 5876     4     3     7     7     0  1177  1297  1309  1308
 5877     4     3     7     7     0  1177  1308  1309  1188
 5878     4     3     7     7     0  1177  1176  1297  1308
 5879     4     3     7     7     0  1177  1176  1308  1188
 5880     4     3     7     7     0  1176  1308  1188  1187
$EndElements
