$MeshFormat
2.2 0 8
$EndMeshFormat
$Nodes
152
648 9.000000 3.000000 5.000000
649 10.000000 3.000000 5.000000
659 9.000000 4.000000 5.000000
660 10.000000 4.000000 5.000000
736 9.000000 0.000000 6.000000
737 10.000000 0.000000 6.000000
747 9.000000 1.000000 6.000000
748 10.000000 1.000000 6.000000
758 9.000000 2.000000 6.000000
759 10.000000 2.000000 6.000000
768 8.000000 3.000000 6.000000
769 9.000000 3.000000 6.000000
770 10.000000 3.000000 6.000000
779 8.000000 4.000000 6.000000
780 9.000000 4.000000 6.000000
781 10.000000 4.000000 6.000000
789 7.000000 5.000000 6.000000
790 8.000000 5.000000 6.000000
791 9.000000 5.000000 6.000000
792 10.000000 5.000000 6.000000
800 7.000000 6.000000 6.000000
801 8.000000 6.000000 6.000000
802 9.000000 6.000000 6.000000
857 9.000000 0.000000 7.000000
858 10.000000 0.000000 7.000000
868 9.000000 1.000000 7.000000
869 10.000000 1.000000 7.000000
878 8.000000 2.000000 7.000000
879 9.000000 2.000000 7.000000
880 10.000000 2.000000 7.000000
888 7.000000 3.000000 7.000000
889 8.000000 3.000000 7.000000
890 9.000000 3.000000 7.000000
891 10.000000 3.000000 7.000000
899 7.000000 4.000000 7.000000
900 8.000000 4.000000 7.000000
901 9.000000 4.000000 7.000000
902 10.000000 4.000000 7.000000
909 6.000000 5.000000 7.000000
910 7.000000 5.000000 7.000000
911 8.000000 5.000000 7.000000
912 9.000000 5.000000 7.000000
913 10.000000 5.000000 7.000000
920 6.000000 6.000000 7.000000
921 7.000000 6.000000 7.000000
922 8.000000 6.000000 7.000000
923 9.000000 6.000000 7.000000
924 10.000000 6.000000 7.000000
932 7.000000 7.000000 7.000000
933 8.000000 7.000000 7.000000
934 9.000000 7.000000 7.000000
977 8.000000 0.000000 8.000000
978 9.000000 0.000000 8.000000
979 10.000000 0.000000 8.000000
988 8.000000 1.000000 8.000000
989 9.000000 1.000000 8.000000
990 10.000000 1.000000 8.000000
999 8.000000 2.000000 8.000000
1000 9.000000 2.000000 8.000000
1001 10.000000 2.000000 8.000000
1009 7.000000 3.000000 8.000000
1010 8.000000 3.000000 8.000000
1011 9.000000 3.000000 8.000000
1012 10.000000 3.000000 8.000000
1019 6.000000 4.000000 8.000000
1020 7.000000 4.000000 8.000000
1021 8.000000 4.000000 8.000000
1022 9.000000 4.000000 8.000000
1023 10.000000 4.000000 8.000000
1030 6.000000 5.000000 8.000000
1031 7.000000 5.000000 8.000000
1032 8.000000 5.000000 8.000000
1033 9.000000 5.000000 8.000000
1034 10.000000 5.000000 8.000000
1041 6.000000 6.000000 8.000000
1042 7.000000 6.000000 8.000000
1043 8.000000 6.000000 8.000000
1044 9.000000 6.000000 8.000000
1045 10.000000 6.000000 8.000000
1053 7.000000 7.000000 8.000000
1054 8.000000 7.000000 8.000000
1055 9.000000 7.000000 8.000000
1056 10.000000 7.000000 8.000000
1097 7.000000 0.000000 9.000000
1098 8.000000 0.000000 9.000000
1099 9.000000 0.000000 9.000000
1100 10.000000 0.000000 9.000000
1108 7.000000 1.000000 9.000000
1109 8.000000 1.000000 9.000000
1110 9.000000 1.000000 9.000000
1111 10.000000 1.000000 9.000000
1119 7.000000 2.000000 9.000000
1120 8.000000 2.000000 9.000000
1121 9.000000 2.000000 9.000000
1122 10.000000 2.000000 9.000000
1129 6.000000 3.000000 9.000000
1130 7.000000 3.000000 9.000000
1131 8.000000 3.000000 9.000000
1132 9.000000 3.000000 9.000000
1133 10.000000 3.000000 9.000000
1140 6.000000 4.000000 9.000000
1141 7.000000 4.000000 9.000000
1142 8.000000 4.000000 9.000000
1143 9.000000 4.000000 9.000000
1144 10.000000 4.000000 9.000000
1151 6.000000 5.000000 9.000000
1152 7.000000 5.000000 9.000000
1153 8.000000 5.000000 9.000000
1154 9.000000 5.000000 9.000000
1155 10.000000 5.000000 9.000000
1162 6.000000 6.000000 9.000000
1163 7.000000 6.000000 9.000000
1164 8.000000 6.000000 9.000000
1165 9.000000 6.000000 9.000000
1166 10.000000 6.000000 9.000000
1175 8.000000 7.000000 9.000000
1176 9.000000 7.000000 9.000000
1177 10.000000 7.000000 9.000000
1218 7.000000 0.000000 10.000000
1219 8.000000 0.000000 10.000000
1220 9.000000 0.000000 10.000000
1221 10.000000 0.000000 10.000000
1229 7.000000 1.000000 10.000000
1230 8.000000 1.000000 10.000000
1231 9.000000 1.000000 10.000000
1232 10.000000 1.000000 10.000000
1240 7.000000 2.000000 10.000000
1241 8.000000 2.000000 10.000000
1242 9.000000 2.000000 10.000000
1243 10.000000 2.000000 10.000000
1250 6.000000 3.000000 10.000000
1251 7.000000 3.000000 10.000000
1252 8.000000 3.000000 10.000000
1253 9.000000 3.000000 10.000000
1254 10.000000 3.000000 10.000000
1261 6.000000 4.000000 10.000000
1262 7.000000 4.000000 10.000000
1263 8.000000 4.000000 10.000000
1264 9.000000 4.000000 10.000000
1265 10.000000 4.000000 10.000000
1272 6.000000 5.000000 10.000000
1273 7.000000 5.000000 10.000000
1274 8.000000 5.000000 10.000000
1275 9.000000 5.000000 10.000000
1276 10.000000 5.000000 10.000000
1284 7.000000 6.000000 10.000000
1285 8.000000 6.000000 10.000000
1286 9.000000 6.000000 10.000000
1287 10.000000 6.000000 10.000000
1296 8.000000 7.000000 10.000000
1297 9.000000 7.000000 10.000000
1298 10.000000 7.000000 10.000000
$EndNodes
$Elements
402
 3235     4     3    10    10     0   770   649   769   781
 3236     4     3    10    10     0   649   769   781   780
 3237     4     3    10    10     0   649   780   781   660
 3238     4     3    10    10     0   649   648   769   780
 3239     4     3    10    10     0   649   648   780   660
 3240     4     3    10    10     0   648   780   660   659
 3655     4     3    10    10     0   858   737   857   869
 3656     4     3    10    10     0   737   857   869   868
 3657     4     3    10    10     0   737   868   869   748
 3658     4     3    10    10     0   737   736   857   868
 3659     4     3    10    10     0   737   736   868   748
 3660     4     3    10    10     0   736   868   748   747
 3715     4     3    10    10     0   869   748   868   880
 3716     4     3    10    10     0   748   868   880   879
 3717     4     3    10    10     0   748   879   880   759
 3718     4     3    10    10     0   748   747   868   879
 3719     4     3    10    10     0   748   747   879   759
 3720     4     3    10    10     0   747   879   759   758
 3775     4     3    10    10     0   880   759   879   891
 3776     4     3    10    10     0   759   879   891   890
 3777     4     3    10    10     0   759   890   891   770
 3778     4     3    10    10     0   759   758   879   890
 3779     4     3    10    10     0   759   758   890   770
 3780     4     3    10    10     0   758   890   770   769
 3829     4     3    10    10     0   890   769   889   901
 3830     4     3    10    10     0   769   889   901   900
 3831     4     3    10    10     0   769   900   901   780
 3832     4     3    10    10     0   769   768   889   900
 3833     4     3    10    10     0   769   768   900   780
 3834     4     3    10    10     0   768   900   780   779
 3835     4     3    10    10     0   891   770   890   902
 3836     4     3    10    10     0   770   890   902   901
 3837     4     3    10    10     0   770   901   902   781
 3838     4     3    10    10     0   770   769   890   901
 3839     4     3    10    10     0   770   769   901   781
 3840     4     3    10    10     0   769   901   781   780
 3889     4     3    10    10     0   901   780   900   912
 3890     4     3    10    10     0   780   900   912   911
 3891     4     3    10    10     0   780   911   912   791
 3892     4     3    10    10     0   780   779   900   911
 3893     4     3    10    10     0   780   779   911   791
 3894     4     3    10    10     0   779   911   791   790
 3895     4     3    10    10     0   902   781   901   913
 3896     4     3    10    10     0   781   901   913   912
 3897     4     3    10    10     0   781   912   913   792
 3898     4     3    10    10     0   781   780   901   912
 3899     4     3    10    10     0   781   780   912   792
 3900     4     3    10    10     0   780   912   792   791
 3943     4     3    10    10     0   911   790   910   922
 3944     4     3    10    10     0   790   910   922   921
 3945     4     3    10    10     0   790   921   922   801
 3946     4     3    10    10     0   790   789   910   921
 3947     4     3    10    10     0   790   789   921   801
 3948     4     3    10    10     0   789   921   801   800
 3949     4     3    10    10     0   912   791   911   923
 3950     4     3    10    10     0   791   911   923   922
 3951     4     3    10    10     0   791   922   923   802
 3952     4     3    10    10     0   791   790   911   922
 3953     4     3    10    10     0   791   790   922   802
 3954     4     3    10    10     0   790   922   802   801
 4255     4     3    10    10     0   979   858   978   990
 4256     4     3    10    10     0   858   978   990   989
 4257     4     3    10    10     0   858   989   990   869
 4258     4     3    10    10     0   858   857   978   989
 4259     4     3    10    10     0   858   857   989   869
 4260     4     3    10    10     0   857   989   869   868
 4315     4     3    10    10     0   990   869   989  1001
 4316     4     3    10    10     0   869   989  1001  1000
 4317     4     3    10    10     0   869  1000  1001   880
 4318     4     3    10    10     0   869   868   989  1000
 4319     4     3    10    10     0   869   868  1000   880
 4320     4     3    10    10     0   868  1000   880   879
 4369     4     3    10    10     0  1000   879   999  1011
 4370     4     3    10    10     0   879   999  1011  1010
 4371     4     3    10    10     0   879  1010  1011   890
 4372     4     3    10    10     0   879   878   999  1010
 4373     4     3    10    10     0   879   878  1010   890
 4374     4     3    10    10     0   878  1010   890   889
 4375     4     3    10    10     0  1001   880  1000  1012
 4376     4     3    10    10     0   880  1000  1012  1011
 4377     4     3    10    10     0   880  1011  1012   891
 4378     4     3    10    10     0   880   879  1000  1011
 4379     4     3    10    10     0   880   879  1011   891
 4380     4     3    10    10     0   879  1011   891   890
 4423     4     3    10    10     0  1010   889  1009  1021
 4424     4     3    10    10     0   889  1009  1021  1020
 4425     4     3    10    10     0   889  1020  1021   900
 4426     4     3    10    10     0   889   888  1009  1020
 4427     4     3    10    10     0   889   888  1020   900
 4428     4     3    10    10     0   888  1020   900   899
 4429     4     3    10    10     0  1011   890  1010  1022
 4430     4     3    10    10     0   890  1010  1022  1021
 4431     4     3    10    10     0   890  1021  1022   901
 4432     4     3    10    10     0   890   889  1010  1021
 4433     4     3    10    10     0   890   889  1021   901
 4434     4     3    10    10     0   889  1021   901   900
 4435     4     3    10    10     0  1012   891  1011  1023
 4436     4     3    10    10     0   891  1011  1023  1022
 4437     4     3    10    10     0   891  1022  1023   902
 4438     4     3    10    10     0   891   890  1011  1022
 4439     4     3    10    10     0   891   890  1022   902
 4440     4     3    10    10     0   890  1022   902   901
 4483     4     3    10    10     0  1021   900  1020  1032
 4484     4     3    10    10     0   900  1020  1032  1031
 4485     4     3    10    10     0   900  1031  1032   911
 4486     4     3    10    10     0   900   899  1020  1031
 4487     4     3    10    10     0   900   899  1031   911
 4488     4     3    10    10     0   899  1031   911   910
 4489     4     3    10    10     0  1022   901  1021  1033
 4490     4     3    10    10     0   901  1021  1033  1032
 4491     4     3    10    10     0   901  1032  1033   912
 4492     4     3    10    10     0   901   900  1021  1032
 4493     4     3    10    10     0   901   900  1032   912
 4494     4     3    10    10     0   900  1032   912   911
 4495     4     3    10    10     0  1023   902  1022  1034
 4496     4     3    10    10     0   902  1022  1034  1033
 4497     4     3    10    10     0   902  1033  1034   913
 4498     4     3    10    10     0   902   901  1022  1033
 4499     4     3    10    10     0   902   901  1033   913
 4500     4     3    10    10     0   901  1033   913   912
 4537     4     3    10    10     0  1031   910  1030  1042
 4538     4     3    10    10     0   910  1030  1042  1041
 4539     4     3    10    10     0   910  1041  1042   921
 4540     4     3    10    10     0   910   909  1030  1041
 4541     4     3    10    10     0   910   909  1041   921
 4542     4     3    10    10     0   909  1041   921   920
 4543     4     3    10    10     0  1032   911  1031  1043
 4544     4     3    10    10     0   911  1031  1043  1042
 4545     4     3    10    10     0   911  1042  1043   922
 4546     4     3    10    10     0   911   910  1031  1042
 4547     4     3    10    10     0   911   910  1042   922
 4548     4     3    10    10     0   910  1042   922   921
 4549     4     3    10    10     0  1033   912  1032  1044
 4550     4     3    10    10     0   912  1032  1044  1043
 4551     4     3    10    10     0   912  1043  1044   923
 4552     4     3    10    10     0   912   911  1032  1043
 4553     4     3    10    10     0   912   911  1043   923
 4554     4     3    10    10     0   911  1043   923   922
 4555     4     3    10    10     0  1034   913  1033  1045
 4556     4     3    10    10     0   913  1033  1045  1044
 4557     4     3    10    10     0   913  1044  1045   924
 4558     4     3    10    10     0   913   912  1033  1044
 4559     4     3    10    10     0   913   912  1044   924
 4560     4     3    10    10     0   912  1044   924   923
 4603     4     3    10    10     0  1043   922  1042  1054
 4604     4     3    10    10     0   922  1042  1054  1053
 4605     4     3    10    10     0   922  1053  1054   933
 4606     4     3    10    10     0   922   921  1042  1053
 4607     4     3    10    10     0   922   921  1053   933
 4608     4     3    10    10     0   921  1053   933   932
 4609     4     3    10    10     0  1044   923  1043  1055
 4610     4     3    10    10     0   923  1043  1055  1054
 4611     4     3    10    10     0   923  1054  1055   934
 4612     4     3    10    10     0   923   922  1043  1054
 4613     4     3    10    10     0   923   922  1054   934
 4614     4     3    10    10     0   922  1054   934   933
 4849     4     3    10    10     0  1099   978  1098  1110
 4850     4     3    10    10     0   978  1098  1110  1109
 4851     4     3    10    10     0   978  1109  1110   989
 4852     4     3    10    10     0   978   977  1098  1109
 4853     4     3    10    10     0   978   977  1109   989
 4854     4     3    10    10     0   977  1109   989   988
 4855     4     3    10    10     0  1100   979  1099  1111
 4856     4     3    10    10     0   979  1099  1111  1110
 4857     4     3    10    10     0   979  1110  1111   990
 4858     4     3    10    10     0   979   978  1099  1110
 4859     4     3    10    10     0   979   978  1110   990
 4860     4     3    10    10     0   978  1110   990   989
 4909     4     3    10    10     0  1110   989  1109  1121
 4910     4     3    10    10     0   989  1109  1121  1120
 4911     4     3    10    10     0   989  1120  1121  1000
 4912     4     3    10    10     0   989   988  1109  1120
 4913     4     3    10    10     0   989   988  1120  1000
 4914     4     3    10    10     0   988  1120  1000   999
 4915     4     3    10    10     0  1111   990  1110  1122
 4916     4     3    10    10     0   990  1110  1122  1121
 4917     4     3    10    10     0   990  1121  1122  1001
 4918     4     3    10    10     0   990   989  1110  1121
 4919     4     3    10    10     0   990   989  1121  1001
 4920     4     3    10    10     0   989  1121  1001  1000
 4969     4     3    10    10     0  1121  1000  1120  1132
 4970     4     3    10    10     0  1000  1120  1132  1131
 4971     4     3    10    10     0  1000  1131  1132  1011
 4972     4     3    10    10     0  1000   999  1120  1131
 4973     4     3    10    10     0  1000   999  1131  1011
 4974     4     3    10    10     0   999  1131  1011  1010
 4975     4     3    10    10     0  1122  1001  1121  1133
 4976     4     3    10    10     0  1001  1121  1133  1132
 4977     4     3    10    10     0  1001  1132  1133  1012
 4978     4     3    10    10     0  1001  1000  1121  1132
 4979     4     3    10    10     0  1001  1000  1132  1012
 4980     4     3    10    10     0  1000  1132  1012  1011
 5023     4     3    10    10     0  1131  1010  1130  1142
 5024     4     3    10    10     0  1010  1130  1142  1141
 5025     4     3    10    10     0  1010  1141  1142  1021
 5026     4     3    10    10     0  1010  1009  1130  1141
 5027     4     3    10    10     0  1010  1009  1141  1021
 5028     4     3    10    10     0  1009  1141  1021  1020
 5029     4     3    10    10     0  1132  1011  1131  1143
 5030     4     3    10    10     0  1011  1131  1143  1142
 5031     4     3    10    10     0  1011  1142  1143  1022
 5032     4     3    10    10     0  1011  1010  1131  1142
 5033     4     3    10    10     0  1011  1010  1142  1022
 5034     4     3    10    10     0  1010  1142  1022  1021
 5035     4     3    10    10     0  1133  1012  1132  1144
 5036     4     3    10    10     0  1012  1132  1144  1143
 5037     4     3    10    10     0  1012  1143  1144  1023
 5038     4     3    10    10     0  1012  1011  1132  1143
 5039     4     3    10    10     0  1012  1011  1143  1023
 5040     4     3    10    10     0  1011  1143  1023  1022
 5077     4     3    10    10     0  1141  1020  1140  1152
 5078     4     3    10    10     0  1020  1140  1152  1151
 5079     4     3    10    10     0  1020  1151  1152  1031
 5080     4     3    10    10     0  1020  1019  1140  1151
 5081     4     3    10    10     0  1020  1019  1151  1031
 5082     4     3    10    10     0  1019  1151  1031  1030
 5083     4     3    10    10     0  1142  1021  1141  1153
 5084     4     3    10    10     0  1021  1141  1153  1152
 5085     4     3    10    10     0  1021  1152  1153  1032
 5086     4     3    10    10     0  1021  1020  1141  1152
 5087     4     3    10    10     0  1021  1020  1152  1032
 5088     4     3    10    10     0  1020  1152  1032  1031
 5089     4     3    10    10     0  1143  1022  1142  1154
 5090     4     3    10    10     0  1022  1142  1154  1153
 5091     4     3    10    10     0  1022  1153  1154  1033
 5092     4     3    10    10     0  1022  1021  1142  1153
 5093     4     3    10    10     0  1022  1021  1153  1033
 5094     4     3    10    10     0  1021  1153  1033  1032
 5095     4     3    10    10     0  1144  1023  1143  1155
 5096     4     3    10    10     0  1023  1143  1155  1154
 5097     4     3    10    10     0  1023  1154  1155  1034
 5098     4     3    10    10     0  1023  1022  1143  1154
 5099     4     3    10    10     0  1023  1022  1154  1034
 5100     4     3    10    10     0  1022  1154  1034  1033
 5137     4     3    10    10     0  1152  1031  1151  1163
 5138     4     3    10    10     0  1031  1151  1163  1162
 5139     4     3    10    10     0  1031  1162  1163  1042
 5140     4     3    10    10     0  1031  1030  1151  1162
 5141     4     3    10    10     0  1031  1030  1162  1042
 5142     4     3    10    10     0  1030  1162  1042  1041
 5143     4     3    10    10     0  1153  1032  1152  1164
 5144     4     3    10    10     0  1032  1152  1164  1163
 5145     4     3    10    10     0  1032  1163  1164  1043
 5146     4     3    10    10     0  1032  1031  1152  1163
 5147     4     3    10    10     0  1032  1031  1163  1043
 5148     4     3    10    10     0  1031  1163  1043  1042
 5149     4     3    10    10     0  1154  1033  1153  1165
 5150     4     3    10    10     0  1033  1153  1165  1164
 5151     4     3    10    10     0  1033  1164  1165  1044
 5152     4     3    10    10     0  1033  1032  1153  1164
 5153     4     3    10    10     0  1033  1032  1164  1044
 5154     4     3    10    10     0  1032  1164  1044  1043
 5155     4     3    10    10     0  1155  1034  1154  1166
 5156     4     3    10    10     0  1034  1154  1166  1165
 5157     4     3    10    10     0  1034  1165  1166  1045
 5158     4     3    10    10     0  1034  1033  1154  1165
 5159     4     3    10    10     0  1034  1033  1165  1045
 5160     4     3    10    10     0  1033  1165  1045  1044
 5209     4     3    10    10     0  1165  1044  1164  1176
 5210     4     3    10    10     0  1044  1164  1176  1175
 5211     4     3    10    10     0  1044  1175  1176  1055
 5212     4     3    10    10     0  1044  1043  1164  1175
 5213     4     3    10    10     0  1044  1043  1175  1055
 5214     4     3    10    10     0  1043  1175  1055  1054
 5215     4     3    10    10     0  1166  1045  1165  1177
 5216     4     3    10    10     0  1045  1165  1177  1176
 5217     4     3    10    10     0  1045  1176  1177  1056
 5218     4     3    10    10     0  1045  1044  1165  1176
 5219     4     3    10    10     0  1045  1044  1176  1056
 5220     4     3    10    10     0  1044  1176  1056  1055
 5443     4     3    10    10     0  1219  1098  1218  1230
 5444     4     3    10    10     0  1098  1218  1230  1229
 5445     4     3    10    10     0  1098  1229  1230  1109
 5446     4     3    10    10     0  1098  1097  1218  1229
 5447     4     3    10    10     0  1098  1097  1229  1109
 5448     4     3    10    10     0  1097  1229  1109  1108
 5449     4     3    10    10     0  1220  1099  1219  1231
 5450     4     3    10    10     0  1099  1219  1231  1230
 5451     4     3    10    10     0  1099  1230  1231  1110
 5452     4     3    10    10     0  1099  1098  1219  1230
 5453     4     3    10    10     0  1099  1098  1230  1110
 5454     4     3    10    10     0  1098  1230  1110  1109
 5455     4     3    10    10     0  1221  1100  1220  1232
 5456     4     3    10    10     0  1100  1220  1232  1231
 5457     4     3    10    10     0  1100  1231  1232  1111
 5458     4     3    10    10     0  1100  1099  1220  1231
 5459     4     3    10    10     0  1100  1099  1231  1111
 5460     4     3    10    10     0  1099  1231  1111  1110
 5503     4     3    10    10     0  1230  1109  1229  1241
 5504     4     3    10    10     0  1109  1229  1241  1240
 5505     4     3    10    10     0  1109  1240  1241  1120
 5506     4     3    10    10     0  1109  1108  1229  1240
 5507     4     3    10    10     0  1109  1108  1240  1120
 5508     4     3    10    10     0  1108  1240  1120  1119
 5509     4     3    10    10     0  1231  1110  1230  1242
 5510     4     3    10    10     0  1110  1230  1242  1241
 5511     4     3    10    10     0  1110  1241  1242  1121
 5512     4     3    10    10     0  1110  1109  1230  1241
 5513     4     3    10    10     0  1110  1109  1241  1121
 5514     4     3    10    10     0  1109  1241  1121  1120
 5515     4     3    10    10     0  1232  1111  1231  1243
 5516     4     3    10    10     0  1111  1231  1243  1242
 5517     4     3    10    10     0  1111  1242  1243  1122
 5518     4     3    10    10     0  1111  1110  1231  1242
 5519     4     3    10    10     0  1111  1110  1242  1122
 5520     4     3    10    10     0  1110  1242  1122  1121
 5563     4     3    10    10     0  1241  1120  1240  1252
 5564     4     3    10    10     0  1120  1240  1252  1251
 5565     4     3    10    10     0  1120  1251  1252  1131
 5566     4     3    10    10     0  1120  1119  1240  1251
 5567     4     3    10    10     0  1120  1119  1251  1131
 5568     4     3    10    10     0  1119  1251  1131  1130
 5569     4     3    10    10     0  1242  1121  1241  1253
 5570     4     3    10    10     0  1121  1241  1253  1252
 5571     4     3    10    10     0  1121  1252  1253  1132
 5572     4     3    10    10     0  1121  1120  1241  1252
 5573     4     3    10    10     0  1121  1120  1252  1132
 5574     4     3    10    10     0  1120  1252  1132  1131
 5575     4     3    10    10     0  1243  1122  1242  1254
 5576     4     3    10    10     0  1122  1242  1254  1253
 5577     4     3    10    10     0  1122  1253  1254  1133
 5578     4     3    10    10     0  1122  1121  1242  1253
 5579     4     3    10    10     0  1122  1121  1253  1133
 5580     4     3    10    10     0  1121  1253  1133  1132
 5617     4     3    10    10     0  1251  1130  1250  1262
 5618     4     3    10    10     0  1130  1250  1262  1261
 5619     4     3    10    10     0  1130  1261  1262  1141
 5620     4     3    10    10     0  1130  1129  1250  1261
 5621     4     3    10    10     0  1130  1129  1261  1141
 5622     4     3    10    10     0  1129  1261  1141  1140
 5623     4     3    10    10     0  1252  1131  1251  1263
 5624     4     3    10    10     0  1131  1251  1263  1262
 5625     4     3    10    10     0  1131  1262  1263  1142
 5626     4     3    10    10     0  1131  1130  1251  1262
 5627     4     3    10    10     0  1131  1130  1262  1142
 5628     4     3    10    10     0  1130  1262  1142  1141
 5629     4     3    10    10     0  1253  1132  1252  1264
 5630     4     3    10    10     0  1132  1252  1264  1263
 5631     4     3    10    10     0  1132  1263  1264  1143
 5632     4     3    10    10     0  1132  1131  1252  1263
 5633     4     3    10    10     0  1132  1131  1263  1143
 5634     4     3    10    10     0  1131  1263  1143  1142
 5635     4     3    10    10     0  1254  1133  1253  1265
 5636     4     3    10    10     0  1133  1253  1265  1264
 5637     4     3    10    10     0  1133  1264  1265  1144
 5638     4     3    10    10     0  1133  1132  1253  1264
 5639     4     3    10    10     0  1133  1132  1264  1144
 5640     4     3    10    10     0  1132  1264  1144  1143
 5677     4     3    10    10     0  1262  1141  1261  1273
 5678     4     3    10    10     0  1141  1261  1273  1272
 5679     4     3    10    10     0  1141  1272  1273  1152
 5680     4     3    10    10     0  1141  1140  1261  1272
 5681     4     3    10    10     0  1141  1140  1272  1152
 5682     4     3    10    10     0  1140  1272  1152  1151
 5683     4     3    10    10     0  1263  1142  1262  1274
 5684     4     3    10    10     0  1142  1262  1274  1273
 5685     4     3    10    10     0  1142  1273  1274  1153
 5686     4     3    10    10     0  1142  1141  1262  1273
 5687     4     3    10    10     0  1142  1141  1273  1153
 5688     4     3    10    10     0  1141  1273  1153  1152
 5689     4     3    10    10     0  1264  1143  1263  1275
 5690     4     3    10    10     0  1143  1263  1275  1274
 5691     4     3    10    10     0  1143  1274  1275  1154
 5692     4     3    10    10     0  1143  1142  1263  1274
 5693     4     3    10    10     0  1143  1142  1274  1154
 5694     4     3    10    10     0  1142  1274  1154  1153
 5695     4     3    10    10     0  1265  1144  1264  1276
 5696     4     3    10    10     0  1144  1264  1276  1275
 5697     4     3    10    10     0  1144  1275  1276  1155
 5698     4     3    10    10     0  1144  1143  1264  1275
 5699     4     3    10    10     0  1144  1143  1275  1155
 5700     4     3    10    10     0  1143  1275  1155  1154
 5743     4     3    10    10     0  1274  1153  1273  1285
 5744     4     3    10    10     0  1153  1273  1285  1284
 5745     4     3    10    10     0  1153  1284  1285  1164
 5746     4     3    10    10     0  1153  1152  1273  1284
 5747     4     3    10    10     0  1153  1152  1284  1164
 5748     4     3    10    10     0  1152  1284  1164  1163
 5749     4     3    10    10     0  1275  1154  1274  1286
 5750     4     3    10    10     0  1154  1274  1286  1285
 5751     4     3    10    10     0  1154  1285  1286  1165
 5752     4     3    10    10     0  1154  1153  1274  1285
 5753     4     3    10    10     0  1154  1153  1285  1165
 5754     4     3    10    10     0  1153  1285  1165  1164
 5755     4     3    10    10     0  1276  1155  1275  1287
 5756     4     3    10    10     0  1155  1275  1287  1286
 5757     4     3    10    10     0  1155  1286  1287  1166
 5758     4     3    10    10     0  1155  1154  1275  1286
 5759     4     3    10    10     0  1155  1154  1286  1166
 5760     4     3    10    10     0  1154  1286  1166  1165
 5809     4     3    10    10     0  1286  1165  1285  1297
 5810     4     3    10    10     0  1165  1285  1297  1296
 5811     4     3    10    10     0  1165  1296  1297  1176
 5812     4     3    10    10     0  1165  1164  1285  1296
 5813     4     3    10    10     0  1165  1164  1296  1176
 5814     4     3    10    10     0  1164  1296  1176  1175
 5815     4     3    10    10     0  1287  1166  1286  1298
 5816     4     3    10    10     0  1166  1286  1298  1297
 5817     4     3    10    10     0  1166  1297  1298  1177
 5818     4     3    10    10     0  1166  1165  1286  1297
 5819     4     3    10    10     0  1166  1165  1297  1177
 5820     4     3    10    10     0  1165  1297  1177  1176
$EndElements
